<?xml version="1.0" encoding="UTF-8" standalone="no"?>
<!DOCTYPE svg PUBLIC "-//W3C//DTD SVG 1.1//EN" "http://www.w3.org/Graphics/SVG/1.1/DTD/svg11.dtd">
<svg width="100%" height="100%" viewBox="0 0 512 512" version="1.1" xmlns="http://www.w3.org/2000/svg" xmlns:xlink="http://www.w3.org/1999/xlink" xml:space="preserve" xmlns:serif="http://www.serif.com/" style="fill-rule:evenodd;clip-rule:evenodd;stroke-linejoin:round;stroke-miterlimit:2;">
    <g>
        <g>
            <path d="M298.668,25.6L256.001,25.6C251.282,25.6 247.468,29.414 247.468,34.133C247.468,38.852 251.282,42.666 256.001,42.666L298.668,42.666C303.387,42.666 307.201,38.852 307.201,34.133C307.201,29.414 303.386,25.6 298.668,25.6Z" style="fill-rule:nonzero;"/>
            <path d="M230.401,25.6L221.868,25.6C217.149,25.6 213.335,29.414 213.335,34.133C213.335,38.852 217.149,42.666 221.868,42.666L230.401,42.666C235.12,42.666 238.934,38.852 238.934,34.133C238.934,29.414 235.12,25.6 230.401,25.6Z" style="fill-rule:nonzero;"/>
            <path d="M477.602,93.867L409.6,93.867L409.6,33.809C409.6,15.164 394.436,0 375.791,0L153.276,0C134.631,0 119.467,15.164 119.467,33.809L119.467,76.8C114.748,76.8 110.934,80.614 110.934,85.333L110.934,93.866C110.934,98.585 114.748,102.399 119.467,102.399L119.467,110.932C114.748,110.932 110.934,114.746 110.934,119.465L110.934,128C110.934,132.719 114.748,136.533 119.467,136.533L119.467,179.2L34.398,179.2C15.437,179.2 0,194.637 0,213.598L0,332.536C0,351.497 15.437,366.934 34.398,366.934L119.467,366.934L119.467,478.191C119.467,496.836 134.631,512 153.276,512L375.791,512C394.436,512 409.6,496.836 409.6,478.191L409.6,281.6L477.602,281.6C496.572,281.6 512,266.163 512,247.202L512,128.265C512,109.303 496.572,93.867 477.602,93.867ZM136.533,33.809C136.533,24.576 144.042,17.067 153.275,17.067L375.79,17.067C385.023,17.067 392.532,24.576 392.532,33.809L392.532,51.2L136.532,51.2L136.532,33.809L136.533,33.809ZM68.267,332.8C63.548,332.8 59.734,328.986 59.734,324.267L59.734,264.534C59.734,259.815 63.548,256.001 68.267,256.001L76.8,256.001L76.8,247.468C76.8,228.643 92.109,213.335 110.933,213.335C129.757,213.335 145.066,228.644 145.066,247.468L145.066,256L153.599,256C158.318,256 162.132,259.814 162.132,264.533L162.132,324.266C162.132,328.985 158.318,332.799 153.599,332.799L68.267,332.799L68.267,332.8ZM242.193,494.933L153.276,494.933C144.043,494.933 136.534,487.424 136.534,478.191L136.534,443.733L242.194,443.733C235.026,449.996 230.401,459.093 230.401,469.333C230.4,479.573 235.025,488.67 242.193,494.933ZM264.533,486.4C255.129,486.4 247.466,478.746 247.466,469.333C247.466,459.921 255.129,452.266 264.533,452.266C273.945,452.266 281.6,459.92 281.6,469.333C281.6,478.746 273.946,486.4 264.533,486.4ZM392.533,478.191C392.533,487.424 385.024,494.933 375.791,494.933L286.874,494.933C294.042,488.67 298.667,479.573 298.667,469.333C298.667,459.093 294.042,449.996 286.874,443.733L392.534,443.733L392.534,478.191L392.533,478.191ZM392.533,426.667L136.533,426.667L136.533,366.934L147.558,366.934L162.474,404.233C163.771,407.476 166.911,409.6 170.401,409.6C173.891,409.6 177.023,407.475 178.328,404.233L193.449,366.405C209.577,363.572 221.865,349.458 221.865,332.536L221.865,213.598C221.865,194.637 206.437,179.2 187.467,179.2L136.532,179.2L136.532,68.267L392.532,68.267L392.532,93.867L324.53,93.867C305.569,93.867 290.132,109.304 290.132,128.265L290.132,247.203C290.132,264.125 302.429,278.239 318.548,281.072L333.678,318.9C334.975,322.143 338.107,324.267 341.597,324.267C345.096,324.267 348.227,322.142 349.524,318.9L364.44,281.601L392.532,281.601L392.532,426.667L392.533,426.667ZM438.084,238.933L416.657,238.873L416.213,238.933L365.73,238.933C347.58,238.933 332.8,223.044 332.8,203.503C332.8,191.514 338.628,180.25 347.912,173.764C352.145,160.913 364.381,152.328 377.224,153.318C385.006,142.831 396.893,136.533 409.48,136.533C430.045,136.533 447.291,153.062 450.329,174.481C461.644,179.669 469.333,191.727 469.333,205.355C469.333,223.872 455.322,238.933 438.084,238.933Z" style="fill-rule:nonzero;"/>
            <path d="M440.534,189.117L433.818,187.718L433.733,180.857C433.562,165.83 422.674,153.602 409.481,153.602C400.982,153.602 393.242,158.577 388.771,166.905L385.289,173.382L378.368,170.899C371.883,168.612 365.116,173.468 363.648,180.9L362.854,184.894L359.261,186.797C353.561,189.809 349.866,196.371 349.866,203.505C349.866,213.626 356.983,221.869 365.729,221.869L417.552,221.835L438.083,221.869C445.9,221.869 452.265,214.462 452.265,205.357C452.268,197.479 447.224,190.499 440.534,189.117Z" style="fill-rule:nonzero;"/>
            <path d="M128.001,247.467C128.001,238.055 120.347,230.4 110.934,230.4C101.522,230.4 93.867,238.054 93.867,247.467L93.867,256L128,256L128,247.467L128.001,247.467Z" style="fill-rule:nonzero;"/>
            <rect x="76.801" y="273.067" width="68.267" height="42.667"/>
        </g>
        <path d="M81.067,34.133C66.953,34.133 55.467,22.647 55.467,8.533C55.467,3.823 51.644,0 46.934,0C42.223,0 38.4,3.823 38.4,8.533C38.4,22.647 26.914,34.133 12.8,34.133C8.09,34.133 4.267,37.956 4.267,42.666C4.267,47.376 8.09,51.199 12.8,51.199C26.914,51.199 38.4,62.685 38.4,76.799C38.4,81.509 42.223,85.332 46.933,85.332C51.643,85.332 55.466,81.509 55.466,76.799C55.466,62.685 66.952,51.199 81.066,51.199C85.776,51.199 89.599,47.376 89.599,42.666C89.6,37.956 85.777,34.133 81.067,34.133ZM46.934,51.226C44.502,47.992 41.609,45.099 38.375,42.667C41.609,40.235 44.502,37.351 46.934,34.108C49.366,37.351 52.259,40.235 55.493,42.667C52.259,45.099 49.366,47.991 46.934,51.226Z" style="fill:rgb(255,156,53);fill-rule:nonzero;"/>
        <g transform="matrix(1,0,0,1,2.29516,-100.656)">
            <path d="M482.134,136.534L473.6,136.534L473.6,128.001C473.6,123.291 469.786,119.468 465.067,119.468C460.348,119.468 456.534,123.291 456.534,128.001L456.534,136.534L448,136.534C443.281,136.534 439.467,140.357 439.467,145.067C439.467,149.777 443.281,153.6 448,153.6L456.533,153.6L456.533,162.133C456.533,166.843 460.347,170.666 465.066,170.666C469.785,170.666 473.599,166.843 473.599,162.133L473.599,153.6L482.132,153.6C486.851,153.6 490.665,149.777 490.665,145.067C490.667,140.357 486.853,136.534 482.134,136.534Z" style="fill:rgb(115,0,255);fill-rule:nonzero;"/>
        </g>
        <g transform="matrix(1,0,0,1,-39.1007,-279.761)">
            <circle cx="64" cy="375.468" r="8.533" style="fill:rgb(255,126,0);"/>
        </g>
        <circle cx="21.334" cy="221.868" r="8.533"/>
        <g transform="matrix(1,0,0,1,18.6494,79.1334)">
            <circle cx="439.467" cy="307.201" r="8.533" style="fill:rgb(69,202,17);"/>
        </g>
        <g transform="matrix(1,0,0,1,-7.68595,-79.379)">
            <circle cx="499.2" cy="486.401" r="8.533" style="fill:rgb(97,177,0);"/>
        </g>
        <g transform="matrix(0.710122,0,0,0.710122,-342.909,-272.846)">
            <circle cx="499.2" cy="486.401" r="8.533" style="fill:rgb(242,153,19);"/>
        </g>
        <g transform="matrix(1,0,0,1,223.315,-118.109)">
            <path d="M277.334,469.334C277.334,459.922 269.68,452.267 260.267,452.267C250.855,452.267 243.2,459.921 243.2,469.334C243.2,478.746 250.854,486.401 260.267,486.401C269.679,486.401 277.334,478.746 277.334,469.334Z" style="fill:rgb(0,134,19);fill-rule:nonzero;"/>
        </g>
        <rect x="26.734" y="203.849" width="154.323" height="135.358"/>
        <rect x="323.244" y="117.263" width="159.341" height="135.322"/>
        <g transform="matrix(7.08826,0,0,7.08826,17.6348,183.984)">
            <path d="M11,14L13,14L13,8L11,8L11,14ZM12,18C12.283,18 12.521,17.904 12.713,17.713C12.904,17.521 13,17.283 13,17C13,16.717 12.904,16.479 12.713,16.288C12.521,16.096 12.283,16 12,16C11.717,16 11.479,16.096 11.288,16.288C11.096,16.479 11,16.717 11,17C11,17.283 11.096,17.521 11.288,17.713C11.479,17.904 11.717,18 12,18ZM8,22C7.717,22 7.479,21.904 7.288,21.712C7.096,21.521 7,21.283 7,21L7,5C7,4.717 7.096,4.479 7.288,4.287C7.479,4.096 7.717,4 8,4L10,4L10,2L14,2L14,4L16,4C16.283,4 16.521,4.096 16.713,4.287C16.904,4.479 17,4.717 17,5L17,21C17,21.283 16.904,21.521 16.713,21.712C16.521,21.904 16.283,22 16,22L8,22ZM9,20L15,20L15,6L9,6L9,20ZM9,20L15,20L9,20Z" style="fill:rgb(255,59,48);fill-rule:nonzero;"/>
        </g>
        <g transform="matrix(6.5905,0,0,6.5905,327.027,105.022)">
            <path d="M12,16.5C13.25,16.5 14.313,16.063 15.188,15.188C16.063,14.313 16.5,13.25 16.5,12C16.5,10.75 16.063,9.688 15.188,8.813C14.313,7.938 13.25,7.5 12,7.5C10.75,7.5 9.688,7.938 8.813,8.813C7.938,9.688 7.5,10.75 7.5,12C7.5,13.25 7.938,14.313 8.813,15.188C9.688,16.063 10.75,16.5 12,16.5ZM12,13C11.717,13 11.479,12.904 11.288,12.712C11.096,12.521 11,12.283 11,12C11,11.717 11.096,11.479 11.288,11.288C11.479,11.096 11.717,11 12,11C12.283,11 12.521,11.096 12.713,11.288C12.904,11.479 13,11.717 13,12C13,12.283 12.904,12.521 12.713,12.712C12.521,12.904 12.283,13 12,13ZM12,22C10.617,22 9.317,21.738 8.1,21.212C6.883,20.688 5.825,19.975 4.925,19.075C4.025,18.175 3.313,17.117 2.788,15.9C2.263,14.683 2,13.383 2,12C2,10.617 2.263,9.317 2.788,8.1C3.313,6.883 4.025,5.825 4.925,4.925C5.825,4.025 6.883,3.313 8.1,2.787C9.317,2.262 10.617,2 12,2C14,2 15.825,2.546 17.475,3.637C19.125,4.729 20.35,6.183 21.15,8L18.9,8C18.2,6.75 17.233,5.771 16,5.063C14.767,4.354 13.433,4 12,4C9.767,4 7.875,4.775 6.325,6.325C4.775,7.875 4,9.767 4,12C4,14.233 4.775,16.125 6.325,17.675C7.875,19.225 9.767,20 12,20C13.15,20 14.25,19.763 15.3,19.288C16.35,18.813 17.25,18.133 18,17.25L18,20C17.117,20.633 16.167,21.125 15.15,21.475C14.133,21.825 13.083,22 12,22ZM20,18L20,10L22,10L22,18L20,18ZM21,22C20.717,22 20.479,21.904 20.288,21.712C20.096,21.521 20,21.283 20,21C20,20.717 20.096,20.479 20.288,20.288C20.479,20.096 20.717,20 21,20C21.283,20 21.521,20.096 21.713,20.288C21.904,20.479 22,20.717 22,21C22,21.283 21.904,21.521 21.713,21.712C21.521,21.904 21.283,22 21,22Z" style="fill:rgb(255,59,48);fill-rule:nonzero;"/>
        </g>
    </g>
</svg>
