<svg version="1.1" xmlns="http://www.w3.org/2000/svg" style="display: block;" viewBox="0 0 2048 2048" width="1024" height="1024">
<path transform="translate(0,0)" fill="rgb(254,254,254)" d="M 0 0 L 2048 0 L 2048 2048 L 0 2048 L 0 0 z"/>
<path transform="translate(0,0)" fill="rgb(55,59,90)" d="M 1500.68 1606.93 C 1504.56 1606.86 1509.44 1607.25 1512.17 1610.48 C 1513.86 1612.5 1514.53 1614.25 1514.22 1616.91 C 1513.86 1620.04 1511.39 1622.05 1509.22 1624.01 C 1505.46 1624.32 1502.44 1624.53 1499.27 1622.08 C 1497.23 1620.5 1495.95 1618.54 1495.89 1615.88 C 1495.8 1611.83 1497.97 1609.48 1500.68 1606.93 z"/>
<path transform="translate(0,0)" fill="rgb(55,59,90)" d="M 1403.61 1759.85 C 1407.72 1759.68 1411.19 1759.86 1414.38 1762.71 C 1416.27 1764.4 1417.05 1766.93 1416.81 1769.41 C 1416.49 1772.73 1413.95 1774.75 1411.63 1776.81 C 1408.06 1777.15 1404.84 1777.52 1401.74 1775.26 C 1399.63 1773.72 1398.35 1771.58 1398.39 1768.93 C 1398.45 1764.88 1400.76 1762.37 1403.61 1759.85 z"/>
<path transform="translate(0,0)" fill="rgb(55,59,90)" d="M 1588.74 1759.78 C 1592.68 1759.57 1595.93 1759.35 1599.04 1762.29 C 1600.98 1764.12 1601.98 1766.42 1601.76 1769.1 C 1601.41 1773.23 1599.04 1775.31 1595.97 1777.59 C 1592.25 1777.85 1589.12 1778.01 1586.09 1775.37 C 1584.17 1773.7 1583.17 1771.53 1583.2 1768.98 C 1583.25 1764.59 1585.7 1762.43 1588.74 1759.78 z"/>
<path transform="translate(0,0)" fill="rgb(55,59,90)" d="M 1399.16 1785.62 C 1403.48 1785.51 1410.48 1784.51 1413.93 1787.54 C 1416.21 1789.56 1415.05 1836.29 1415.01 1842.85 C 1409.73 1843.88 1404.29 1843.71 1398.93 1843.8 C 1398.1 1824.65 1398.2 1804.77 1399.16 1785.62 z"/>
<path transform="translate(0,0)" fill="rgb(55,59,90)" d="M 1584.01 1785.47 L 1600.2 1785.5 A 4132.9 4132.9 0 0 1 1599.92 1842.96 C 1594.59 1843.49 1589.17 1843.41 1583.81 1843.52 C 1583.48 1824.25 1583.31 1804.73 1584.01 1785.47 z"/>
<path transform="translate(0,0)" fill="rgb(55,59,90)" d="M 1496.83 1634.92 C 1502.35 1634.72 1507.93 1634.83 1513.46 1634.81 C 1514 1653.93 1513.4 1673.2 1513.29 1692.33 L 1496.55 1692.36 C 1496.28 1673.23 1496.71 1654.05 1496.83 1634.92 z"/>
<path transform="translate(0,0)" fill="rgb(55,59,90)" d="M 1382.12 1635.49 C 1386.27 1635.47 1392.89 1634.43 1396.5 1636.42 L 1397.13 1641.28 C 1400.96 1642.47 1411.43 1634.22 1417.1 1634.5 C 1419.84 1634.64 1419.97 1635.16 1421.56 1637.17 C 1422.15 1640.37 1422.9 1643.63 1421.76 1646.81 C 1419.42 1653.3 1408.43 1651.29 1403.27 1653.79 C 1399.66 1655.54 1398.58 1657.63 1397.39 1661.24 C 1397.28 1661.56 1397.19 1661.88 1397.09 1662.2 L 1397.02 1692.18 L 1380 1692.28 C 1380.22 1683.56 1378.88 1641.88 1380.64 1637.14 C 1380.9 1636.45 1381.63 1636.04 1382.12 1635.49 z"/>
<path transform="translate(0,0)" fill="rgb(55,59,90)" d="M 1568.06 1785.29 C 1571.13 1785.27 1572.98 1784.84 1575.66 1786.42 C 1578.1 1791.14 1576.67 1798.37 1576.47 1803.66 C 1570.06 1803.43 1560.32 1801.99 1555.16 1806.79 C 1548.58 1812.9 1551.92 1834.02 1552.01 1843.03 L 1537.87 1843.16 L 1536.47 1842.61 C 1535.9 1841.47 1535.7 1841.2 1535.42 1839.78 C 1533.64 1830.93 1534.04 1792.89 1539.12 1786.08 C 1541.46 1784.91 1542.08 1784.32 1544.74 1785.05 C 1548.7 1786.12 1551.01 1788.71 1553.14 1791.99 C 1558 1789.32 1562.62 1786.6 1568.06 1785.29 z"/>
<path transform="translate(0,0)" fill="rgb(55,59,90)" d="M 1446.04 1766.32 L 1446.36 1766.61 C 1448.23 1771.24 1447.18 1780.07 1447.18 1785.18 L 1461.89 1785.39 L 1461.9 1798.82 C 1456.99 1798.23 1451.97 1798.21 1447.04 1798 C 1446.98 1805.04 1444.5 1824.33 1449.79 1829.37 C 1451.47 1830.97 1453.26 1831.05 1455.43 1831.16 C 1456.36 1831.21 1457.3 1831.2 1458.23 1831.3 C 1460.94 1831.59 1461.71 1832.04 1463.46 1834.09 C 1464.23 1837.36 1464.35 1839.15 1463.74 1842.45 C 1461.37 1844.7 1459.39 1844.34 1456.2 1844.7 C 1450.89 1844.75 1444.92 1843.93 1440.08 1841.66 C 1424.16 1834.19 1434.29 1810.67 1429.46 1797.58 C 1428.56 1797.32 1427.15 1796.92 1426.33 1796.55 C 1423.98 1795.51 1422.9 1794.55 1422.17 1792.01 C 1421.47 1789.58 1421.72 1787.21 1423.04 1785.19 C 1425.43 1785 1427.8 1784.78 1430.19 1784.48 C 1431.7 1780.74 1430.57 1774.94 1430.32 1770.92 L 1446.04 1766.32 z"/>
<path transform="translate(0,0)" fill="rgb(55,59,90)" d="M 1486.12 1468.32 L 1501.73 1467.96 C 1502.76 1474.19 1502.94 1480.34 1503.13 1486.64 C 1506.19 1487.07 1510.99 1487.26 1513.67 1488.8 C 1516.69 1490.55 1518.12 1492.33 1518.98 1495.67 C 1518.53 1497.5 1518.19 1498.56 1516.78 1499.93 C 1512.8 1503.81 1506.79 1502.96 1501.64 1503.02 C 1501.4 1509.73 1500.21 1518.64 1502.01 1525.11 C 1502.72 1527.69 1503.28 1528.36 1505.61 1529.6 C 1509.38 1529.01 1512.32 1528.37 1516.01 1529.58 C 1519.13 1531.68 1519.71 1535.33 1520.75 1538.73 C 1520.11 1539.99 1520.03 1540.27 1519.04 1541.49 C 1516.2 1544.98 1510.96 1546.59 1506.62 1546.66 C 1502.04 1546.73 1497.32 1545.21 1493.49 1542.72 C 1475.11 1530.75 1489.6 1510.39 1481.6 1502.13 C 1479.6 1502.1 1478.26 1502.13 1476.46 1501.18 C 1475.84 1499.61 1475.47 1498.28 1475.44 1496.58 C 1475.37 1492.46 1475.4 1489.92 1478.41 1486.88 C 1479.82 1486.69 1481.08 1486.57 1482.51 1486.63 C 1482.91 1486.65 1483.31 1486.68 1483.71 1486.7 C 1483.95 1486.47 1484.22 1486.26 1484.43 1486 C 1487.48 1482.21 1486.21 1473 1486.12 1468.32 z"/>
<path transform="translate(0,0)" fill="rgb(55,59,90)" d="M 1243.01 1634.79 C 1246.55 1634.75 1253.55 1633.91 1256.56 1635.35 C 1257.86 1635.97 1258.22 1639.22 1258.59 1640.61 C 1269.79 1634.66 1272.15 1634.49 1284.71 1635.12 C 1287.19 1636.63 1289.96 1638.31 1291.9 1640.49 C 1302.19 1652.08 1298.62 1677.4 1298.32 1691.81 L 1282.18 1691.75 L 1282.1 1672.95 C 1282.15 1665.66 1282.88 1659.57 1278.11 1653.58 C 1276.21 1651.2 1273.54 1649.33 1270.39 1649.26 C 1268 1649.21 1266.11 1650.37 1264.47 1652 C 1256.27 1660.16 1259.19 1681.22 1259.41 1691.98 L 1243.08 1691.91 L 1243.01 1634.79 z"/>
<path transform="translate(0,0)" fill="rgb(55,59,90)" d="M 1614 1785.27 C 1618.42 1785.22 1622.36 1785.18 1626.7 1786.23 C 1627.87 1787.96 1628.97 1789.53 1630.44 1791.02 C 1635.86 1788.58 1642.29 1785.04 1648.31 1785 C 1653.51 1784.97 1658.87 1786.64 1662.54 1790.44 C 1672.95 1801.23 1669.55 1828.52 1669.5 1842.98 L 1652.94 1843.1 L 1652.92 1823.91 C 1652.98 1816.66 1653.91 1809.07 1648.6 1803.29 C 1646.87 1801.42 1644.36 1800.18 1641.78 1800.24 C 1639.19 1800.3 1636.88 1801.69 1635.18 1803.57 C 1627.37 1812.24 1630.17 1832.29 1630.39 1843.28 L 1613.21 1843.28 C 1614.77 1824.09 1614.02 1804.52 1614 1785.27 z"/>
<path transform="translate(0,0)" fill="rgb(55,59,90)" d="M 1361.27 1785.11 C 1361.86 1785.09 1362.44 1785.06 1363.03 1785.05 C 1368.65 1784.96 1375.18 1787.5 1379.04 1791.62 C 1389.77 1803.03 1386.13 1828.8 1385.94 1843.49 C 1380.53 1844.02 1374.98 1843.85 1369.54 1843.91 C 1369.72 1833.29 1371.68 1819.49 1369.2 1809.32 C 1368.39 1806 1366.92 1802.51 1363.56 1801.04 C 1359.64 1799.33 1355.79 1801.02 1352.09 1802.42 C 1343.36 1811.28 1346.83 1832.07 1346.86 1843.95 C 1341.83 1844.27 1336.73 1844.87 1331.71 1844.15 C 1327.54 1834.39 1329.97 1798.76 1330.32 1785.97 L 1335.5 1785.9 C 1338.84 1785.82 1341.08 1785.44 1344.09 1787.25 C 1344.8 1788.66 1345.48 1789.88 1346.36 1791.2 C 1350.94 1788.71 1355.06 1786.4 1360.22 1785.31 C 1360.57 1785.24 1360.92 1785.18 1361.27 1785.11 z"/>
<path transform="translate(0,0)" fill="rgb(55,59,90)" d="M 1262.48 1485.1 C 1270.88 1484.57 1277.63 1485.22 1284.75 1490.13 C 1290.18 1493.88 1294.41 1500.43 1295.4 1507 C 1295.83 1509.85 1295.57 1513.08 1293.52 1515.3 C 1287.65 1521.69 1269.48 1518.64 1261.38 1518.76 C 1258.31 1518.81 1256.36 1518.99 1254.21 1521.21 C 1254.25 1521.54 1254.26 1521.86 1254.33 1522.18 C 1255.01 1525.07 1257.93 1528.06 1260.5 1529.48 C 1268.9 1534.14 1280.88 1529.8 1289.25 1527.07 L 1292.5 1539.42 C 1281.8 1545.04 1270.14 1548.61 1258.18 1544.68 A 29.868 29.868 0 0 1 1240.05 1528.61 C 1236.59 1521.01 1236.32 1511.94 1239.58 1504.21 C 1243.85 1494.09 1252.66 1488.79 1262.48 1485.1 z"/>
<path transform="translate(0,0)" fill="rgb(254,254,254)" d="M 1261.46 1499.04 C 1266.34 1498.66 1270.16 1498.45 1274.64 1500.8 C 1277.18 1502.14 1279.19 1503.63 1280.08 1506.47 C 1278.38 1507.67 1277.3 1507.81 1275.25 1508 L 1254.18 1508.02 C 1256.33 1504.59 1258.57 1501.87 1261.46 1499.04 z"/>
<path transform="translate(0,0)" fill="rgb(55,59,90)" d="M 1548.72 1483.15 A 101.798 101.798 0 0 1 1553.24 1482.93 C 1561 1482.76 1568.66 1484.94 1574.24 1490.54 C 1583.13 1499.47 1583.34 1511.74 1583.33 1523.47 C 1574.13 1523.53 1550 1519.34 1543.34 1524.69 C 1543.81 1527.43 1544.95 1528.87 1547.25 1530.46 C 1554.88 1535.76 1565.66 1532.42 1573.96 1530.76 C 1576.03 1534.14 1577.99 1537.04 1578.73 1541 C 1577.65 1543.45 1576.21 1544.85 1573.7 1545.91 C 1565.53 1549.35 1551.63 1547.9 1543.58 1544.74 C 1535.66 1541.64 1529.03 1535.8 1525.79 1527.85 C 1522.45 1519.62 1522.4 1507.71 1526.26 1499.63 C 1530.74 1490.25 1539.36 1486.16 1548.72 1483.15 z"/>
<path transform="translate(0,0)" fill="rgb(254,254,254)" d="M 1547.42 1499.13 C 1550.79 1498.95 1555.88 1498.14 1559.08 1499.24 C 1561.32 1500 1563.84 1502.31 1564.85 1504.49 C 1565.86 1506.65 1565.5 1507.62 1564.65 1509.6 L 1562.25 1510.25 C 1557.16 1510.35 1548.22 1511.57 1543.83 1508.88 C 1542.49 1508.06 1542.8 1507.33 1542.58 1505.93 C 1543.79 1503.02 1545.28 1501.34 1547.42 1499.13 z"/>
<path transform="translate(0,0)" fill="rgb(55,59,90)" d="M 1448.57 1635.2 C 1454.78 1634.68 1461.06 1634.44 1467.04 1636.46 C 1475.13 1639.2 1481.91 1644.7 1485.41 1652.6 A 27.522 27.522 0 0 1 1485.69 1674.6 C 1481.62 1684.02 1473.84 1688.75 1464.78 1692.43 C 1457.26 1693.64 1450.2 1693.65 1443.07 1690.6 A 30.8122 30.8122 0 0 1 1426.31 1672.99 A 28.2907 28.2907 0 0 1 1427.45 1650.91 C 1431.89 1641.97 1439.51 1638.05 1448.57 1635.2 z"/>
<path transform="translate(0,0)" fill="rgb(254,254,254)" d="M 1449.99 1650.09 C 1452.31 1649.9 1454.72 1649.68 1457.05 1649.82 C 1460.85 1650.04 1464.55 1652.15 1466.98 1655.02 C 1469.57 1658.07 1470.7 1661.95 1470.09 1665.91 C 1469.18 1671.89 1466.12 1675.18 1461.45 1678.69 C 1459.32 1678.93 1457.11 1679.23 1454.96 1679.16 C 1451.53 1679.05 1447.8 1676.88 1445.49 1674.43 C 1442.43 1671.18 1441.3 1666.95 1441.78 1662.55 C 1442.4 1656.81 1445.69 1653.53 1449.99 1650.09 z"/>
<path transform="translate(0,0)" fill="rgb(55,59,90)" d="M 1490.95 1785.21 C 1499.29 1784.84 1506.92 1785.41 1514.21 1789.97 A 29.9793 29.9793 0 0 1 1527.59 1808.94 C 1529.31 1816.55 1528.43 1824.94 1524.05 1831.53 C 1519.01 1839.12 1511.57 1842 1503 1843.82 C 1495.4 1844.39 1488.79 1844.38 1481.79 1840.76 A 28.7725 28.7725 0 0 1 1467.14 1823.08 C 1464.86 1815.08 1465.72 1805.72 1470.1 1798.57 C 1475.01 1790.55 1482.11 1787.28 1490.95 1785.21 z"/>
<path transform="translate(0,0)" fill="rgb(254,254,254)" d="M 1492 1799.96 C 1494.29 1799.81 1496.75 1799.62 1499.03 1799.98 C 1502.91 1800.6 1506.65 1803.54 1508.74 1806.78 A 14.6222 14.6222 0 0 1 1510.81 1817.94 C 1509.59 1823.54 1506.29 1826.64 1501.55 1829.47 C 1499.66 1829.68 1497.68 1829.75 1495.78 1829.59 C 1491.87 1829.27 1488.23 1827.09 1485.83 1824.02 C 1483 1820.41 1482.09 1815.99 1482.95 1811.51 C 1484.07 1805.7 1487.21 1803 1492 1799.96 z"/>
<path transform="translate(0,0)" fill="rgb(55,59,90)" d="M 862.851 1550.86 C 866.002 1550.81 868.655 1550.54 871.152 1552.75 C 874.773 1555.95 875.933 1563.94 876.23 1568.43 C 878.144 1597.33 867.063 1627.47 847.732 1648.86 C 827.128 1671.66 800.547 1684.18 769.982 1685.6 C 767.295 1685.41 764.92 1685.29 762.713 1683.48 A 8.44509 8.44509 0 0 1 759.574 1676.96 C 759.574 1673.68 762.01 1671.41 764.759 1670.07 C 768.813 1668.1 776.122 1668.75 780.752 1668.18 C 801.221 1665.7 820.893 1655.09 834.926 1640.15 C 848.777 1625.41 860.426 1600.04 860.466 1579.65 C 860.48 1572.36 858.261 1564.83 858.597 1557.63 C 858.748 1554.37 860.735 1553.03 862.851 1550.86 z"/>
<path transform="translate(0,0)" fill="rgb(55,59,90)" d="M 1286.87 1784.35 C 1292.75 1784.58 1298.72 1785.42 1304.03 1788.06 C 1311.71 1791.89 1317.76 1798.55 1320.31 1806.8 C 1322.63 1814.32 1322.01 1822.71 1318.23 1829.66 C 1313.35 1838.63 1305.11 1842.55 1295.71 1845.1 C 1286.64 1845.85 1278.95 1845 1271.32 1839.56 A 31.6762 31.6762 0 0 1 1258.42 1817.96 C 1257.38 1810.01 1259.31 1801.66 1264.35 1795.33 C 1270.3 1787.86 1277.86 1785.62 1286.87 1784.35 z"/>
<path transform="translate(0,0)" fill="rgb(254,254,254)" d="M 1288.12 1799.08 C 1290.45 1799.47 1293.1 1799.97 1295.22 1801.03 C 1298.81 1802.84 1301.59 1806.47 1302.86 1810.22 A 15.2174 15.2174 0 0 1 1302.09 1822.08 C 1299.82 1826.58 1296.52 1828.5 1291.89 1830.03 C 1289.48 1829.94 1286.8 1829.57 1284.52 1828.74 C 1280.89 1827.41 1278.02 1823.97 1276.69 1820.42 C 1275.13 1816.26 1275.43 1811.77 1277.4 1807.79 C 1279.86 1802.81 1283.04 1800.92 1288.12 1799.08 z"/>
<path transform="translate(0,0)" fill="rgb(55,59,90)" d="M 1429.51 1487.13 C 1437.71 1486.65 1442.86 1489.7 1450.57 1490.84 C 1453.75 1489.26 1457.62 1486.95 1461.29 1486.99 C 1463.44 1487.01 1464.81 1487.3 1466.43 1488.76 C 1470.66 1503.94 1468.24 1527.87 1468.16 1544.05 C 1461.54 1544.15 1456.08 1544.54 1450.21 1540.93 A 134.012 134.012 0 0 1 1443.92 1543.9 A 23.9364 23.9364 0 0 1 1424.92 1543.97 C 1417.69 1540.9 1412.27 1534.65 1409.48 1527.39 C 1406.4 1519.4 1406.56 1510.01 1410.37 1502.29 C 1414.47 1493.99 1421.01 1489.98 1429.51 1487.13 z"/>
<path transform="translate(0,0)" fill="rgb(254,254,254)" d="M 1434.68 1502.04 C 1437.56 1501.99 1440.98 1501.67 1443.77 1502.47 C 1447.03 1503.4 1449.57 1505.92 1451.22 1508.8 C 1453.22 1512.29 1453.73 1516.15 1452.59 1520.01 C 1451.03 1525.28 1448.23 1528.69 1443.51 1531.37 C 1441.34 1531.37 1439.08 1531.42 1436.93 1531.11 C 1433 1530.56 1429.47 1527.58 1427.36 1524.36 C 1425.14 1520.98 1424.28 1517.08 1425.25 1513.11 C 1426.62 1507.52 1429.87 1504.76 1434.68 1502.04 z"/>
<path transform="translate(0,0)" fill="rgb(55,59,90)" d="M 579.16 534.293 C 583.38 533.635 589.909 532.597 593.903 534.438 C 595.978 535.395 597.381 537.427 598.207 539.497 C 599.397 542.481 598.727 544.534 597.405 547.287 C 592.203 551 583.463 549.31 577.25 550.278 C 552.035 554.206 528.636 570.488 514.001 590.989 C 490.449 623.983 493.248 642.062 499.409 679.124 C 498.167 680.475 496.651 682.012 495.029 682.901 C 492.509 684.284 490.918 683.977 488.25 683.354 C 483.462 679.392 482.066 673.29 481.002 667.389 C 475.49 636.809 483.005 607.502 500.828 582.207 C 519.542 555.646 547.555 539.941 579.16 534.293 z"/>
<path transform="translate(0,0)" fill="rgb(55,59,90)" d="M 1208.16 1793.67 C 1214.61 1788.63 1222.87 1783.7 1231.39 1784.15 C 1236.03 1784.39 1240.14 1786.51 1243.22 1789.98 C 1253.5 1801.57 1250.54 1828.08 1249.38 1842.87 C 1244.07 1843.81 1238.68 1843.77 1233.31 1843.87 C 1233.26 1833.52 1236.86 1813.21 1231.14 1804.31 C 1229.38 1801.57 1226.4 1801.02 1223.47 1800.22 C 1220.86 1800.73 1218.13 1801.45 1216.3 1803.53 C 1209.88 1810.84 1212.95 1833.99 1213.08 1843.83 L 1196.64 1844.03 C 1196.4 1834.42 1200.26 1811.52 1194.34 1803.83 C 1192.6 1801.57 1190.84 1800.6 1187.99 1800.33 C 1184.96 1800.05 1181.33 1801.45 1179.21 1803.53 C 1171.73 1810.86 1174.95 1833.55 1175.06 1843.79 L 1159.02 1843.57 L 1158.98 1785.21 C 1162.87 1785.12 1168.15 1784.63 1171.74 1786.27 C 1173.32 1787 1173.7 1789.41 1174.3 1790.98 C 1180.21 1790.43 1184.73 1784.64 1190.7 1784.45 C 1197.8 1784.22 1203.26 1789.18 1208.16 1793.67 z"/>
<path transform="translate(0,0)" fill="rgb(55,59,90)" d="M 1358.92 1494.2 C 1364.01 1489.84 1370.29 1485.4 1377.32 1485.43 C 1382.82 1485.44 1388.65 1488.84 1392.26 1492.8 C 1403.03 1504.57 1399.38 1529.13 1399.17 1544.12 L 1382.29 1544.24 C 1382.17 1532.22 1384.41 1518 1380.53 1506.51 C 1378.55 1504.05 1376.43 1502.88 1373.32 1502.49 C 1369.9 1502.06 1367.02 1502.63 1364.35 1504.94 C 1358.05 1510.4 1359.99 1526.55 1360.1 1534.25 L 1360.08 1544.45 L 1344.71 1544.38 C 1344.23 1534.31 1347.56 1512.79 1341.47 1504.79 C 1339.89 1502.71 1338.09 1501.36 1335.43 1501.06 C 1331.59 1500.63 1327.13 1502.26 1324.49 1505.06 C 1317.53 1512.47 1320.56 1533.94 1320.45 1543.52 C 1314.82 1544.05 1309.05 1543.9 1303.4 1543.99 C 1304.07 1524.96 1303.3 1505.81 1303.28 1486.76 C 1304.86 1486.73 1306.43 1486.74 1308.01 1486.7 C 1309.58 1486.66 1311.16 1486.55 1312.73 1486.64 C 1315.64 1486.79 1317.75 1488.01 1319.59 1490.22 C 1321.08 1491.99 1320.11 1491.27 1322.06 1492.25 C 1325.17 1490.37 1328.07 1488.28 1331 1486.14 C 1342.98 1485.09 1349.02 1487.97 1358.92 1494.2 z"/>
<path transform="translate(0,0)" fill="rgb(55,59,90)" d="M 1200.85 1612.48 C 1205.2 1615.13 1232.42 1681.07 1237.11 1691.59 C 1230.55 1691.89 1223.85 1691.47 1217.28 1691.32 C 1215.22 1686.56 1213.43 1681.64 1211.53 1676.82 L 1184.82 1676.88 L 1174.4 1677.05 C 1172.57 1682.25 1170.53 1687.27 1168.35 1692.32 C 1161.68 1692.3 1155.01 1692.47 1148.34 1692.55 C 1152.27 1681.77 1157.89 1671.24 1162.73 1660.81 C 1170.14 1644.84 1177.25 1628.47 1185.69 1613.03 L 1200.85 1612.48 z"/>
<path transform="translate(0,0)" fill="rgb(254,254,254)" d="M 1192.26 1634.5 C 1198.3 1639.87 1201.71 1653.78 1204.37 1661.5 L 1193.09 1661.72 C 1189.03 1661.62 1184.95 1661.34 1180.89 1661.14 C 1183.75 1652.12 1187.69 1642.79 1192.26 1634.5 z"/>
<path transform="translate(0,0)" fill="rgb(55,59,90)" d="M 1352.88 1611.21 C 1358.24 1611.09 1363.64 1611.24 1369.01 1611.27 C 1370.02 1638.2 1369.34 1665.35 1369.3 1692.31 C 1364.59 1692.4 1360.01 1692.62 1355.35 1691.76 C 1354.77 1690.76 1354.2 1689.76 1353.57 1688.78 C 1350.51 1684.03 1341.64 1691.92 1336.2 1692.83 C 1332.09 1693.51 1327.94 1692.49 1323.95 1691.59 C 1315.69 1686.87 1310.22 1681.36 1307.77 1671.87 C 1305.61 1663.54 1306.64 1654.13 1311.09 1646.7 A 25.8743 25.8743 0 0 1 1328.31 1634.54 C 1337.21 1632.81 1344.67 1635.87 1351.97 1640.7 C 1351.97 1631.25 1350.88 1620.41 1352.88 1611.21 z"/>
<path transform="translate(0,0)" fill="rgb(254,254,254)" d="M 1337.69 1649.01 C 1339.43 1649.18 1341.34 1649.4 1343 1649.95 C 1346.16 1650.99 1348.78 1653.99 1350.08 1656.95 C 1352.12 1661.58 1351.79 1666.73 1349.7 1671.29 C 1347.4 1676.3 1344.03 1677.82 1339.06 1679.66 C 1336.97 1679.37 1334.62 1679.23 1332.62 1678.5 C 1329.1 1677.22 1326.21 1673.28 1325.02 1669.86 C 1323.49 1665.5 1324.14 1660.7 1326.36 1656.68 C 1329 1651.89 1332.68 1650.55 1337.69 1649.01 z"/>
<path transform="translate(0,0)" fill="rgb(55,59,90)" d="M 1567.92 1607.4 L 1585.37 1607.92 C 1586.33 1635.65 1587.47 1664.71 1585.37 1692.34 C 1579.97 1692.47 1574.58 1693.34 1569.94 1690.09 C 1569.36 1688.68 1568.9 1687.58 1568.01 1686.34 C 1566.78 1687.31 1565.55 1688.27 1564.23 1689.12 C 1557.1 1693.78 1549.41 1693.3 1541.45 1691.55 C 1532.93 1687.46 1526.66 1682.31 1523.61 1673.05 A 33.1828 33.1828 0 0 1 1525.6 1647.96 C 1529.11 1641.16 1535.11 1635.7 1542.55 1633.62 C 1551.76 1631.04 1559.9 1634.14 1567.86 1638.58 A 1024.63 1024.63 0 0 1 1567.92 1607.4 z"/>
<path transform="translate(0,0)" fill="rgb(254,254,254)" d="M 1547.82 1648.1 C 1550.8 1647.76 1553.58 1647.46 1556.53 1648.22 C 1560.16 1649.17 1563.68 1652.84 1565.47 1656 A 16.2012 16.2012 0 0 1 1566.97 1668.69 C 1565.51 1673.66 1562.54 1675.8 1558.11 1678.09 C 1555.77 1678.23 1553.28 1678.41 1550.95 1678.1 C 1547.54 1677.66 1544.15 1675.23 1542.07 1672.58 A 15.1197 15.1197 0 0 1 1538.98 1660.52 C 1540.01 1654.55 1542.89 1651.33 1547.82 1648.1 z"/>
<path transform="translate(0,0)" fill="rgb(55,59,90)" d="M 1705.07 1784.32 C 1712.86 1784.18 1716.38 1789.21 1723.19 1790.35 C 1724.16 1788.9 1725.27 1786.86 1726.55 1785.7 C 1729.67 1782.88 1736.7 1784.08 1740.79 1784.14 C 1740.54 1804.64 1746.28 1847.54 1732.1 1862.82 C 1726.51 1868.84 1719.14 1871.1 1711.14 1871.55 C 1698.69 1872.25 1688.63 1869.09 1679.41 1860.66 L 1686.42 1851.38 C 1690.67 1853.29 1694.89 1855.18 1699.41 1856.36 C 1705.35 1857.92 1711.68 1858.76 1717.11 1855.3 C 1723.07 1851.5 1723.82 1845.19 1725.24 1838.82 L 1721.23 1840.4 C 1719.14 1841.24 1717.06 1842.17 1714.89 1842.8 C 1707.07 1845.07 1697.71 1844.56 1690.67 1840.27 C 1684.11 1836.27 1680.11 1829.57 1678.6 1822.13 C 1676.8 1813.2 1678.13 1803.33 1683.53 1795.84 C 1689.01 1788.25 1696.11 1785.53 1705.07 1784.32 z"/>
<path transform="translate(0,0)" fill="rgb(254,254,254)" d="M 1707.03 1799.14 A 71.4288 71.4288 0 0 1 1711.39 1799.91 A 17.4442 17.4442 0 0 1 1722.65 1807.97 C 1724.71 1811.38 1725.29 1815.34 1724.17 1819.18 C 1722.5 1824.91 1717.94 1827.51 1712.96 1830.09 C 1709.81 1830.32 1706.69 1830.54 1703.73 1829.23 C 1699.98 1827.57 1697.04 1824.28 1695.57 1820.48 A 16.2996 16.2996 0 0 1 1696.19 1807.3 C 1698.6 1802.57 1702.17 1800.71 1707.03 1799.14 z"/>
<path transform="translate(0,0)" fill="rgb(55,59,90)" d="M 1160.54 1460.93 C 1175.97 1460.85 1195.15 1458.66 1210.03 1462.44 C 1217.69 1464.39 1224.57 1468.66 1228.31 1475.8 C 1232.05 1482.93 1232.74 1493.25 1230.06 1500.84 C 1227.24 1508.79 1221.02 1513.37 1213.8 1517.07 C 1219.46 1525.97 1225.99 1534.04 1230.66 1543.56 L 1230.09 1544.71 L 1224.25 1544.92 L 1211.81 1544.96 C 1206.27 1535.2 1201.28 1526.22 1191.97 1519.5 C 1187.33 1519.32 1182.65 1519.6 1178.01 1519.74 L 1178 1544.65 C 1172.16 1544.69 1166.29 1544.5 1160.45 1544.41 A 4646.77 4646.77 0 0 1 1160.54 1460.93 z"/>
<path transform="translate(0,0)" fill="rgb(254,254,254)" d="M 1177.96 1476.03 C 1187.3 1475.93 1199.36 1475.07 1207.87 1479.37 C 1210.89 1480.9 1213.28 1483.11 1214.14 1486.51 C 1215.37 1491.39 1212.96 1496.98 1210.38 1501 C 1201.94 1506.37 1188.03 1504.64 1178.32 1504.46 C 1177.69 1495.03 1177.98 1485.48 1177.96 1476.03 z"/>
<path transform="translate(0,0)" fill="rgb(55,59,90)" d="M 954.575 1527.97 C 957.626 1527.91 960.987 1527.73 963.547 1529.72 C 968.622 1533.66 969.595 1542.01 970.205 1547.9 C 976.314 1606.93 963.694 1660.79 925.557 1707.32 C 889.892 1750.84 840.021 1776.88 784.133 1782.4 C 780.859 1782.39 779.399 1782.12 776.508 1780.59 C 775.359 1779.23 774.313 1778.11 773.999 1776.28 C 773.553 1773.68 774.647 1769.5 776.999 1768.03 C 779.511 1766.46 815.222 1761.06 823.373 1758.61 C 860 1747.61 892.365 1723.56 915.753 1693.63 C 942.722 1659.11 959.75 1615.12 956.673 1570.78 C 955.851 1558.92 951.651 1547.25 951.057 1535.52 C 950.89 1532.23 952.647 1530.4 954.575 1527.97 z"/>
<path transform="translate(0,0)" fill="rgb(55,59,90)" d="M 559.596 441.32 C 559.73 441.292 559.862 441.255 559.997 441.237 C 564.812 440.579 571.282 440.012 574.991 444.075 C 575.978 445.157 576.742 446.251 576.644 447.749 C 576.268 453.506 570.893 454.388 566.284 455.362 C 523.056 464.492 494.24 473.96 460.691 504.402 C 419.865 541.446 393.069 602.67 399.064 658.218 C 400.266 669.354 408.258 695.194 407.45 703.494 C 407.388 704.139 407.28 704.779 407.195 705.421 C 405.608 706.868 403.716 708.503 401.48 708.774 C 399.208 709.05 397.441 708.424 395.69 707.067 C 389.197 702.04 387.214 685.107 385.972 677.415 A 204.688 204.688 0 0 1 421.621 524.5 C 454.641 478.967 504.455 450.166 559.596 441.32 z"/>
<path transform="translate(0,0)" fill="rgb(55,59,90)" d="M 1047.08 1502.66 C 1049.25 1502.94 1051.09 1503.44 1052.96 1504.65 C 1058.74 1508.38 1060.44 1520.21 1061.44 1526.48 C 1073.98 1605.24 1057.17 1690.04 1009.76 1755 A 297.209 297.209 0 0 1 844.015 1869.1 C 829.59 1872.91 814.785 1875.06 800.065 1877.38 C 798.376 1877.12 796.293 1876.96 794.896 1875.84 C 792.337 1873.8 791.309 1869.85 791.23 1866.78 C 792.537 1864.2 793.374 1863.06 796.037 1861.77 C 799.718 1860 832.374 1855.15 840.651 1853.07 C 888.46 1841.05 932.772 1814.13 967.651 1779.66 C 1022.84 1725.1 1052.68 1645.83 1049.45 1568.62 C 1049 1557.65 1048.35 1546.33 1046.4 1535.51 C 1044.78 1526.54 1041.04 1517.59 1041.1 1508.42 C 1042.68 1505.23 1044.16 1504.62 1047.08 1502.66 z"/>
<path transform="translate(0,0)" fill="rgb(55,59,90)" d="M 543.287 346.354 C 545.6 346.057 548.183 345.625 550.431 346.498 C 553.017 347.503 554.146 349.393 555.467 351.626 C 555.645 354.021 555.994 355.392 554.436 357.457 C 549.449 364.067 530.739 364.249 522.899 365.768 C 452.232 379.466 386.63 428.153 347.193 487.457 A 263.452 263.452 0 0 0 307.085 678.245 C 308.768 687.789 310.873 697.086 313.626 706.376 C 315.845 713.864 318.907 721.711 320.204 729.404 C 320.827 733.105 319.501 734.727 317.414 737.511 C 314.638 737.737 311.312 738.146 308.906 736.411 C 299.436 729.583 291.653 685.106 289.852 672.746 C 278.956 597.937 300.206 523.612 345.114 463.427 A 298.378 298.378 0 0 1 543.287 346.354 z"/>
<path transform="translate(0,0)" fill="rgb(55,59,90)" d="M 1616.5 147.474 A 334.756 334.756 0 0 1 1734.4 169.308 C 1822.06 203.004 1888.59 272.105 1926.03 357.503 C 1963.13 442.092 1964.71 547.03 1930.79 632.858 C 1895.4 722.377 1831.27 793.42 1742.01 831.667 A 322.668 322.668 0 0 1 1491.74 834.308 C 1405.4 797.306 1346.12 730.247 1304.9 647.516 C 1291.94 643.861 1278.39 641.573 1265.19 638.915 A 6452.35 6452.35 0 0 0 1186.37 623.803 C 1173.18 621.318 1137.94 616.885 1128.08 610.818 C 1127.47 608.971 1126.91 607.489 1127.34 605.503 C 1127.88 603.041 1129.46 600.845 1131.33 599.22 C 1143.32 588.84 1157.58 579.859 1170.18 570.021 L 1280.87 484.55 C 1281.46 402.749 1314.96 315.805 1371.58 256.346 C 1437.82 186.776 1520.64 149.972 1616.5 147.474 z"/>
<path transform="translate(0,0)" fill="rgb(254,254,254)" d="M 1617.23 163.462 C 1654.46 164.004 1689.62 170.635 1724.59 183.099 C 1805.82 212.049 1871.45 278.077 1907.67 355.411 C 1945.54 436.253 1948.24 535.541 1917.84 619.201 C 1896.79 677.149 1865.66 723.514 1819.3 764.2 C 1797.31 783.498 1773.3 800.28 1746.67 812.572 C 1668.68 848.568 1583.16 850.927 1502.75 821.445 C 1416.85 785.631 1354.43 718.168 1317.09 633.966 C 1301.42 628.83 1283.99 626.344 1267.77 623.218 C 1230.94 616.121 1193.74 610.348 1157.31 601.398 C 1175.01 585.78 1194.42 572.169 1213.32 558.06 C 1228.18 546.958 1242.64 535.31 1257.33 523.974 C 1270.51 513.805 1285.38 503.629 1296.76 491.439 C 1298.05 469.084 1299.43 446.895 1303.71 424.872 C 1314.89 367.432 1344.53 310.101 1384.43 267.297 C 1446.29 200.922 1527.05 166.512 1617.23 163.462 z"/>
<path transform="translate(0,0)" fill="rgb(55,59,90)" d="M 1678.81 200.27 C 1684.38 199.411 1689.46 199.664 1694.68 202.144 C 1697.86 203.66 1699.87 206.334 1700.82 209.667 C 1705.25 225.26 1684.93 251.317 1676.93 264.499 C 1707.92 283.21 1727.78 307.654 1737.9 342.596 C 1753.5 343.088 1783.3 338.638 1795.54 348.897 C 1800.08 352.704 1800.18 356.192 1800.72 361.948 C 1802.39 379.927 1801.02 398.896 1801.12 416.988 L 1801.49 537.787 L 1801.73 665.205 C 1801.85 689.084 1803.53 717.598 1801.22 741.03 C 1800.77 745.595 1799.1 748.648 1796.02 752.017 C 1792.53 755.824 1783.95 756.138 1778.96 756.442 C 1768.04 757.109 1756.78 756.391 1745.84 756.243 L 1687.46 755.754 L 1501.5 756.031 C 1486.14 756.182 1464.2 758.57 1449.67 754.839 C 1443.66 753.295 1435.48 749.161 1432.77 743.155 C 1430.55 738.207 1430.15 729.862 1430.01 724.408 C 1429.44 701.265 1430.2 677.927 1430.32 654.768 L 1430.72 538.189 C 1431.06 482.582 1429.82 426.821 1431.19 371.238 C 1431.3 366.823 1431.43 354.849 1434.06 351.422 C 1445.06 337.072 1481.92 342.309 1498.47 342.605 A 85.4315 85.4315 0 0 1 1499.12 338.212 C 1504.66 305.876 1526.39 283.552 1552.02 265.222 C 1545.76 252.014 1524.3 229.425 1527.64 214.999 C 1528.71 210.405 1531.72 206.501 1535.72 204.045 A 19.6175 19.6175 0 0 1 1550.83 201.824 C 1564.13 205.341 1568.73 221.537 1574.42 232.237 C 1577.85 238.693 1581.66 244.989 1585.37 251.293 C 1605.31 247.225 1624.56 247.387 1644.48 251.381 C 1652.15 236.955 1664.92 208.658 1678.81 200.27 z"/>
<path transform="translate(0,0)" fill="rgb(254,254,254)" d="M 1683.85 212.552 C 1685.26 213.865 1686.26 215.163 1687.41 216.694 C 1688.04 222.337 1667.68 252.284 1663.45 258.199 C 1661.12 257.007 1659.72 256.283 1658.04 254.195 C 1659.64 247.678 1678.87 217.362 1683.85 212.552 z"/>
<path transform="translate(0,0)" fill="rgb(254,254,254)" d="M 1546.08 215.436 C 1552.54 219.016 1567.14 245.548 1571.93 253.166 C 1570.6 255.692 1568.94 256.097 1566.52 257.462 C 1565.57 257.565 1564.87 257.12 1564.16 256.458 C 1559.74 252.341 1542.78 225.556 1542.84 219.721 C 1542.86 218.016 1544.93 216.607 1546.08 215.436 z"/>
<path transform="translate(0,0)" fill="rgb(254,254,254)" d="M 1609.01 263.407 C 1625.92 263.064 1643.26 265.543 1658.75 272.524 C 1690.44 286.808 1709.17 310.155 1721.39 342.151 C 1690.87 343.867 1659.81 342.567 1629.25 342.307 C 1590.78 342.002 1552.2 343.154 1513.77 342.402 A 112.398 112.398 0 0 1 1537.28 298.437 C 1555.21 277.758 1581.9 265.429 1609.01 263.407 z"/>
<path transform="translate(0,0)" fill="rgb(55,59,90)" d="M 1570.6 300.008 C 1571.58 299.886 1572.5 299.739 1573.5 299.781 C 1576.14 299.891 1579.5 301.396 1580.89 303.719 C 1582.02 305.618 1581.93 307.741 1581.43 309.81 C 1579.96 315.776 1576.48 317.513 1571.61 320.593 C 1568.72 320.394 1564.81 319.651 1562.69 317.491 C 1560.97 315.741 1560.77 313.828 1561.01 311.51 C 1561.57 306.225 1566.66 302.736 1570.6 300.008 z"/>
<path transform="translate(0,0)" fill="rgb(55,59,90)" d="M 1655.04 299.878 C 1656.05 300.049 1657.06 300.248 1658.06 300.497 C 1662.13 301.507 1668.58 304.354 1670.36 308.503 C 1671.38 310.88 1671.61 312.774 1670.49 315.181 C 1669.08 318.176 1665.55 319.481 1662.76 320.783 C 1658.42 318.72 1650.96 316.092 1648.33 311.8 C 1646.76 309.221 1647.09 308.426 1647.63 305.637 C 1649.69 302.667 1651.88 301.542 1655.04 299.878 z"/>
<path transform="translate(0,0)" fill="rgb(252,99,97)" d="M 1446.7 655.763 C 1507.85 654.217 1569.45 656.134 1630.64 656.153 L 1728.73 656.166 C 1748.11 656.193 1767.64 655.699 1786.98 656.793 L 1786.87 740.099 L 1785.23 740.215 C 1767.84 741.339 1749.44 739.844 1731.93 739.811 L 1620.78 739.997 L 1513.45 740.016 C 1495.22 740.027 1476.14 741.144 1457.98 739.68 C 1453.89 739.35 1451.63 738.61 1448.53 735.91 C 1444.54 726.611 1446.86 670.035 1446.7 655.763 z"/>
<path transform="translate(0,0)" fill="rgb(254,254,254)" d="M 1453.17 358.476 C 1479.82 357.6 1506.6 358.065 1533.28 358.003 L 1687 358.007 L 1748.14 357.896 C 1758.9 357.854 1771.68 356.545 1782.15 358.669 C 1783.69 359.921 1784.48 360.141 1785.1 362.105 C 1788.74 373.595 1786.29 500.033 1786.29 522.867 C 1786.29 559.833 1787.88 599.918 1786.63 636.46 C 1786.58 638.035 1786.54 637.583 1785.7 639.306 L 1782.25 639.646 A 20564.8 20564.8 0 0 1 1446.09 639.341 C 1446.02 613.443 1444.06 367.373 1447.15 362.008 C 1448.66 359.38 1450.48 359.272 1453.17 358.476 z"/>
<path transform="translate(0,0)" fill="rgb(252,99,97)" d="M 1650.91 406.003 L 1651.59 407.574 C 1639.98 427.57 1624.9 446.037 1614.34 466.464 C 1634.24 482.46 1657.03 494.592 1677.18 510.17 C 1642.83 532.295 1610.09 557.399 1574.86 578.112 C 1572.92 579.312 1571.54 580.251 1569.27 580.662 C 1574.81 571.657 1581.79 563.266 1588.1 554.764 A 1126.01 1126.01 0 0 0 1613.29 519.263 C 1596.59 505.853 1577.09 495.123 1559.64 482.574 C 1569.93 472.667 1582.1 463.944 1593.11 454.736 C 1612.43 438.573 1631.4 421.928 1650.91 406.003 z"/>
<path transform="translate(0,0)" fill="rgb(55,59,90)" d="M 754.603 497.411 C 770.986 496.19 788.709 501.414 803.415 508.281 C 820.815 516.404 836.739 527.915 852.96 538.107 L 924.401 582.668 C 988.342 623.339 1053.09 662.729 1116.28 704.574 C 1139.37 719.868 1153.92 742.599 1159.34 769.754 C 1164.12 793.702 1160.79 821.046 1150.95 843.353 C 1142.67 862.126 1130.55 880.268 1120.06 897.947 A 4121.9 4121.9 0 0 0 1079.92 967.447 L 912.297 1257.94 L 692.704 1647.46 L 621.073 1776.06 C 611.314 1793.24 602.334 1811.55 591.316 1827.94 C 570.548 1858.84 539.347 1878.75 502.991 1885.73 A 232.016 232.016 0 0 1 492.506 1887.16 A 130.4 130.4 0 0 1 425.04 1876.66 C 407.788 1869.08 392.63 1857.38 376.99 1847.02 C 351.253 1829.97 325.508 1812.6 299.552 1795.91 L 186.583 1723.14 C 166.777 1710.36 144.752 1698.26 126.649 1683.29 C 109.239 1668.89 97.0591 1647.38 95.074 1624.7 C 93.6999 1609 95.769 1593.64 102.478 1579.3 C 109.102 1565.14 117.388 1551.4 124.855 1537.66 L 167.705 1459.11 C 176.84 1442.57 185.144 1425.48 194.008 1408.77 A 6381.5 6381.5 0 0 1 233.856 1335.71 A 23089.2 23089.2 0 0 1 547.52 777.531 L 649.674 593.877 C 661.531 572.761 672.102 545.808 687.708 527.707 C 704.772 507.915 729.188 499.36 754.603 497.411 z"/>
<path transform="translate(0,0)" fill="rgb(118,123,151)" d="M 745.606 512.52 C 760.016 510.539 775.205 513.278 788.739 518.271 C 813.162 527.28 835.407 544.779 857.362 558.658 L 944.431 613.085 L 1061.04 686.928 C 1079.02 698.494 1098.61 709.442 1115.39 722.662 C 1125.75 730.823 1132.86 740.261 1138.32 752.258 C 1149.62 777.061 1149.9 804.121 1140.24 829.502 C 1131.2 853.269 1115.66 875.34 1102.7 897.194 L 1056.56 976.568 L 910.1 1230.52 L 677.809 1641.99 C 653.667 1684.77 630.655 1728.17 606.355 1770.86 C 596.371 1788.41 587.029 1806.83 575.67 1823.52 C 563.335 1841.65 543.517 1855.55 523.707 1864.34 C 507.717 1870.14 492.551 1873.21 475.6 1874.63 A 290.223 290.223 0 0 0 484.871 1870.93 C 498.564 1865.1 510.21 1856.33 518.572 1843.95 C 533.239 1822.25 545.091 1798.05 557.984 1775.23 L 634.042 1640.88 L 889.888 1184.75 L 1013.94 961.656 C 1037.55 919.672 1067.37 873.873 1084.89 829.386 C 1094.7 804.484 1096.61 779.74 1085.68 754.806 C 1079.87 741.552 1070.97 728.59 1060 719.081 C 1046.44 707.332 1030.69 697.556 1015.8 687.591 C 986.387 667.895 956.391 649.109 926.868 629.582 L 813.127 554.799 C 794.763 542.727 767.642 522.037 747.722 514.286 L 746.539 513.837 L 745.606 512.52 z"/>
<path transform="translate(0,0)" fill="rgb(254,254,254)" d="M 718.504 525.192 C 728.027 524.507 736.257 524.73 745.063 528.842 C 761.946 536.725 777.938 549.392 793.526 559.714 L 885.556 620.579 L 996.251 692.672 C 1014.35 704.574 1034.37 715.906 1050.71 730.077 C 1060.67 738.718 1067.84 749.751 1072.35 762.12 C 1081.5 787.222 1076.96 811.272 1066.01 834.891 C 1056 856.495 1043.41 876.894 1031.93 897.733 L 954.117 1036.95 A 32575.1 32575.1 0 0 1 695.875 1499.48 L 566.598 1729.32 C 556.133 1748.03 545.051 1766.42 534.786 1785.23 C 525.164 1802.86 516.462 1822.1 504.699 1838.36 C 495.592 1850.94 481.25 1858.39 467.031 1863.61 C 453.968 1865.96 441.511 1866.36 429.086 1860.91 C 410.631 1852.82 393.115 1839.47 376.338 1828.38 L 293.681 1773.92 L 197.121 1711.66 C 177.953 1699.4 156.842 1687.95 139.374 1673.36 C 127.725 1663.64 118.874 1652.8 113.478 1638.51 C 105.901 1618.45 109.89 1602.25 118.494 1583.28 C 124.197 1570.71 131.162 1558.68 137.623 1546.49 A 3182.36 3182.36 0 0 1 174.41 1478.16 L 237.177 1361.1 A 20722.6 20722.6 0 0 1 516.83 863.717 A 16307.9 16307.9 0 0 0 636.923 649.228 L 676.91 574.714 C 683.102 563.286 688.929 550.822 696.227 540.092 C 701.619 532.163 709.884 528.443 718.504 525.192 z"/>
<path transform="translate(0,0)" fill="rgb(55,59,90)" d="M 640.524 1193.17 C 650.043 1192.03 656.794 1192.46 665.262 1197.13 C 681.902 1206.3 697.654 1217.46 713.651 1227.71 C 724.797 1234.85 737.415 1241.49 747.6 1249.85 C 752.805 1254.11 759.238 1260.66 760.864 1267.43 C 762.154 1272.81 762.023 1278.85 760.561 1284.18 C 757.58 1295.04 742.787 1318.26 736.459 1328.48 C 730.281 1338.45 723.986 1346.42 712.031 1349.18 C 705.722 1349.08 700.187 1349.13 694.225 1346.63 C 678.782 1340.16 657.259 1324.46 642.41 1315.23 C 627.816 1306.16 610.505 1297.78 597.472 1286.77 A 26.459 26.459 0 0 1 589.865 1276.07 C 586.992 1268.48 587.918 1260.77 591.395 1253.57 C 594.905 1246.3 600.181 1239.74 604.316 1232.8 C 614.621 1215.49 620.015 1200.13 640.524 1193.17 z"/>
<path transform="translate(0,0)" fill="rgb(254,254,254)" d="M 642.092 1208.17 A 105.263 105.263 0 0 1 644.975 1208.04 C 648.533 1207.95 651.597 1208.11 654.893 1209.57 C 668.339 1215.51 732.468 1257.1 742.735 1267.17 C 745.566 1269.95 746.832 1272.36 746.734 1276.4 C 746.562 1283.53 741.105 1290.08 736.373 1294.93 L 733.639 1294.73 A 1479.83 1479.83 0 0 1 661.849 1250.43 C 649.74 1242.56 636.996 1235.07 625.813 1225.92 C 630.084 1217.6 633.658 1212.57 642.092 1208.17 z"/>
<path transform="translate(0,0)" fill="rgb(252,99,97)" d="M 618.023 1240.07 A 3192.78 3192.78 0 0 0 684.224 1282.31 C 698.916 1291.41 714.429 1299.93 728.338 1310.18 C 723.895 1317.54 719.587 1326.67 713.098 1332.39 C 712.763 1332.51 712.433 1332.65 712.093 1332.76 C 706.577 1334.52 702.089 1334.47 696.919 1331.66 C 690.977 1328.42 685.605 1323.63 679.77 1320.06 C 669.767 1313.92 606.25 1279.1 604.358 1270.59 C 602.398 1261.78 613.688 1247.48 618.023 1240.07 z"/>
<path transform="translate(0,0)" fill="rgb(55,59,90)" d="M 467.826 1080.33 C 476.343 1080.7 481.629 1083.08 488.792 1087.41 C 507.603 1098.81 525.919 1111.12 544.51 1122.87 C 555.028 1129.53 566.922 1135.41 576.499 1143.29 C 580.621 1146.69 584.008 1149.85 585.139 1155.25 C 586.235 1160.49 585.815 1166.14 584.338 1171.26 C 580.31 1185.23 563.478 1213.22 554.928 1225.71 C 547.887 1235.99 541.36 1238.85 529.546 1241.06 C 526.454 1240.7 523.634 1240.14 520.798 1238.81 C 508.281 1232.91 496.23 1224.56 484.422 1217.3 C 466.285 1206.13 447.881 1195.1 430.185 1183.25 C 422.621 1178.19 413.187 1171.86 411.59 1162.3 C 410.681 1156.86 411.399 1151.25 413.177 1146.06 C 417.742 1132.75 434.289 1106.49 442.942 1094.73 C 450.062 1085.06 456.27 1082.1 467.826 1080.33 z"/>
<path transform="translate(0,0)" fill="rgb(254,254,254)" d="M 463.717 1096.17 C 468.187 1096.19 472.593 1096.48 476.693 1098.44 C 486.473 1103.11 495.935 1110.57 505.195 1116.36 C 521.203 1126.38 556.43 1145.6 568.833 1157.93 C 570.756 1159.84 571.336 1161.48 571.083 1164.19 C 570.533 1170.11 562.932 1183.29 558.447 1187.02 L 556.533 1186.54 C 521.678 1161.79 483.768 1140.43 447.025 1118.64 C 451.175 1109.52 455.595 1102.32 463.717 1096.17 z"/>
<path transform="translate(0,0)" fill="rgb(249,201,128)" d="M 438.956 1131.21 C 452.441 1137.03 465.461 1146.63 477.988 1154.42 L 551.806 1200.65 C 547.208 1208.26 542.8 1216.11 537.499 1223.26 C 536.487 1223.66 535.462 1224 534.407 1224.28 C 529.328 1225.63 525.525 1224.07 521.133 1221.53 C 504.304 1211.81 487.867 1201.18 471.289 1191.02 C 459.407 1183.73 446.682 1176.86 435.579 1168.48 C 432.65 1166.27 428.023 1162.91 427.176 1159.22 C 425.09 1150.12 434.341 1138.61 438.956 1131.21 z"/>
<path transform="translate(0,0)" fill="rgb(55,59,90)" d="M 916.71 744.404 C 936.296 745.226 953.814 751.484 968.321 764.974 C 984.7 780.206 994.229 804.237 994.878 826.412 A 81.9985 81.9985 0 0 1 972.635 884.206 C 956.73 900.928 936.842 908.201 914.12 908.889 C 895.126 907.172 878.61 902.557 864.098 889.632 A 85.0603 85.0603 0 0 1 835.132 830.135 C 834.095 808.939 841.368 785.609 855.775 769.804 C 871.842 752.178 893.569 745.641 916.71 744.404 z"/>
<path transform="translate(0,0)" fill="rgb(118,123,151)" d="M 909.975 758.375 C 925.268 756.268 942.391 761.026 954.571 770.397 C 969.491 781.875 978.21 800.924 980.534 819.307 C 982.844 837.583 978.668 854.878 967.19 869.422 C 954.904 884.99 938.644 892.444 919.249 894.606 C 904.178 895.555 889.193 891.929 877.106 882.577 C 862.52 871.294 852.275 852.964 850.041 834.683 C 847.771 816.103 852.511 797.1 864.168 782.362 C 876.053 767.338 891.351 760.694 909.975 758.375 z"/>
<path transform="translate(0,0)" fill="rgb(55,59,90)" d="M 905.836 775.151 C 917.789 773.85 928.848 774.946 939.472 781.097 C 951.518 788.072 960.393 800.182 963.929 813.592 C 967.525 827.226 965.93 842.697 958.375 854.753 C 950.718 866.972 938.96 873.595 925.262 876.876 C 914.692 878.632 903.851 877.679 894.079 873.093 A 49.9398 49.9398 0 0 1 868.175 843.484 C 863.704 829.701 865.296 813.817 872.119 801.06 C 879.527 787.21 891.141 779.527 905.836 775.151 z"/>
<path transform="translate(0,0)" fill="rgb(254,254,254)" d="M 913.13 788.243 C 919.975 787.585 926.802 789.221 932.841 792.473 C 941.575 797.177 947.747 805.402 950.519 814.851 C 953.525 825.1 952.588 836.695 947.398 846.089 C 941.353 857.03 931.966 861.988 920.366 865.138 C 911.676 865.301 904.976 864.226 897.51 859.363 C 888.584 853.548 881.677 843.872 879.527 833.397 A 37.8914 37.8914 0 0 1 885.993 803.797 C 892.712 794.566 902.184 790.191 913.13 788.243 z"/>
<path transform="translate(0,0)" fill="rgb(55,59,90)" d="M 736.271 642.3 C 755.292 640.832 773.579 643.454 789.774 654.156 C 808.153 666.302 821.467 687.855 825.659 709.326 C 829.613 729.586 825.772 752.783 814.066 769.963 C 800.726 789.541 781.032 801.531 758.017 805.905 C 737.219 807.459 718.327 803.571 701.141 791.246 C 683.442 778.553 670.473 757.629 667.086 736.113 A 82.9304 82.9304 0 0 1 682.215 674.199 C 695.48 656.081 714.254 645.711 736.271 642.3 z"/>
<path transform="translate(0,0)" fill="rgb(118,123,151)" d="M 738.3 656.316 C 753.813 655.236 768.586 657.552 781.762 666.346 C 797.058 676.554 808.833 694.785 812.253 712.816 C 815.548 730.192 811.984 749.973 801.694 764.496 C 790.643 780.092 773.734 787.515 755.476 790.758 C 738.82 791.936 723.734 790.059 709.736 780.172 C 694.532 769.433 684.398 751.894 681.561 733.6 A 68.5759 68.5759 0 0 1 694.948 681.997 C 705.605 667.874 720.783 658.718 738.3 656.316 z"/>
<path transform="translate(0,0)" fill="rgb(55,59,90)" d="M 738.301 673.174 C 749.013 672.513 758.893 672.736 768.763 677.651 C 781.032 683.761 789.73 694.962 793.896 707.885 C 798.074 720.843 797.722 736.187 791.254 748.284 C 783.685 762.444 771.331 770.072 756.564 774.721 C 744.252 775.91 733.024 774.602 722.26 767.977 A 53.2365 53.2365 0 0 1 698.471 734.429 A 52.1166 52.1166 0 0 1 705.463 695.291 C 713.19 683.08 724.46 676.277 738.301 673.174 z"/>
<path transform="translate(0,0)" fill="rgb(254,254,254)" d="M 742.893 685.22 C 749.63 684.938 756.577 686.255 762.626 689.257 A 38.4506 38.4506 0 0 1 782.227 712.457 C 785.29 722.48 784.499 733.764 779.288 742.94 C 773.429 753.258 764.452 758.079 753.492 761.282 C 744.788 761.417 737.503 761.134 729.66 756.737 C 720.379 751.533 714.068 742.543 711.425 732.319 C 708.79 722.124 710.256 711.475 715.967 702.578 C 722.271 692.757 731.678 687.478 742.893 685.22 z"/>
<path transform="translate(0,0)" fill="rgb(55,59,90)" d="M 606.896 1333.18 C 608.329 1333.12 610.164 1332.69 611.457 1333.42 C 616.951 1336.51 624.051 1371.44 626.808 1379.57 L 635.449 1383.09 C 639.44 1391.57 656.293 1446.12 655.948 1454.53 C 655.758 1459.15 652.423 1462.06 649.517 1465.29 C 652.558 1474.25 663.209 1500.69 660.931 1508.62 C 652.463 1515.11 632.987 1520.26 622.355 1519.91 C 617.241 1516.95 616.353 1510.17 614.881 1504.88 C 581.969 1515.74 548.543 1524.92 515.476 1535.3 A 18431.2 18431.2 0 0 1 300.433 1601.65 C 301.801 1605.39 304.01 1609.97 302.324 1613.95 C 298.907 1622.03 279.508 1624.53 271.815 1626.77 C 269.41 1627.38 267.94 1627.49 265.491 1627.08 C 255.602 1620.95 253.075 1599.07 249.985 1588.45 C 247.227 1587.47 242.62 1586.14 240.672 1583.92 C 237.091 1579.84 216.222 1508.66 215.421 1500.12 C 216.246 1497.02 217.992 1495.44 220.162 1493.23 C 223.31 1490.01 211.539 1466.46 212.691 1459.12 C 213.131 1456.31 213.702 1455.53 216.004 1453.95 C 222.463 1449.5 245.685 1441.94 253.095 1443.34 C 255.99 1445.15 256.719 1448.07 257.928 1451.09 C 276.535 1443.89 296.183 1439.19 315.408 1433.93 A 1887.2 1887.2 0 0 0 359.851 1420.81 A 11061.8 11061.8 0 0 1 573.079 1357.93 C 571.784 1353.84 570.441 1350.78 572.699 1346.72 C 577.28 1338.49 598.359 1335.6 606.896 1333.18 z"/>
<path transform="translate(0,0)" fill="rgb(254,254,254)" d="M 236.875 1462.31 C 239.523 1462.12 242.571 1461.13 244.662 1463.16 C 249.213 1467.57 249.98 1475.89 250.488 1481.85 C 248.108 1483.99 244.34 1484.63 241.274 1485.55 C 240.194 1485.88 238.984 1486 237.871 1486.2 C 237.615 1485.96 237.337 1485.75 237.102 1485.49 C 232.466 1480.42 230.965 1473.43 230.816 1466.81 C 232.486 1463.73 233.743 1463.7 236.875 1462.31 z"/>
<path transform="translate(0,0)" fill="rgb(254,254,254)" d="M 278.715 1579.06 C 282.17 1582.77 285.63 1599.19 287.573 1604.99 L 272.238 1609.46 C 267.834 1604.12 266.129 1591.75 264.324 1584.9 C 269.173 1583.12 273.935 1581.03 278.715 1579.06 z"/>
<path transform="translate(0,0)" fill="rgb(254,254,254)" d="M 636.095 1471.02 L 637.31 1471.53 C 637.809 1473 638.283 1474.43 638.676 1475.93 C 639.822 1480.3 644.728 1497.04 642.804 1500.44 C 639.097 1502.85 634.997 1503.68 630.769 1504.79 C 626.651 1495.86 624.444 1485.54 622.161 1476 L 636.095 1471.02 z"/>
<path transform="translate(0,0)" fill="rgb(254,254,254)" d="M 599.847 1350.97 L 601.634 1351.2 C 606.676 1356.36 608.917 1373.67 610.373 1380.99 C 605.822 1381.94 601.457 1383.26 597.026 1384.64 C 592.224 1377.47 590.244 1364.4 587.614 1355.91 L 599.847 1350.97 z"/>
<path transform="translate(0,0)" fill="rgb(254,254,254)" d="M 618.79 1395.39 C 620.034 1395.18 620.782 1395.38 622.002 1395.63 C 628.26 1404.03 636.311 1442.69 638.456 1454.32 C 632.617 1457.07 626.587 1459.14 620.502 1461.27 C 619.488 1461.52 620.204 1461.43 618.416 1460.69 C 611.83 1440.47 606.456 1419.25 601.876 1398.48 C 607.379 1396.96 613.156 1396.29 618.79 1395.39 z"/>
<path transform="translate(0,0)" fill="rgb(254,254,254)" d="M 252.606 1497 L 254.366 1497.04 C 259.794 1502.37 273.418 1554.37 276.175 1564.22 C 270.76 1566.74 265.356 1568.47 259.647 1570.18 C 256.925 1570.47 255.028 1570.68 252.332 1569.99 C 244.117 1554.14 237.687 1521.19 233.492 1503.35 L 252.606 1497 z"/>
<path transform="translate(0,0)" fill="rgb(249,201,128)" d="M 575.843 1373.21 C 581.005 1379.82 604.667 1472.58 609.924 1489 C 593.067 1494.81 576.228 1500.36 558.948 1504.79 L 558.423 1504.56 C 553.034 1498.47 529.955 1402.13 526.104 1387.09 A 996.868 996.868 0 0 0 575.843 1373.21 z"/>
<path transform="translate(0,0)" fill="rgb(249,201,128)" d="M 318.157 1449.14 L 319.687 1449.87 C 329.698 1490.09 342.843 1529.47 352.718 1569.69 A 3676.43 3676.43 0 0 1 298.228 1586.83 C 285.664 1546.21 276.714 1504.95 262.461 1464.74 C 281.124 1459.95 299.635 1454.44 318.157 1449.14 z"/>
<path transform="translate(0,0)" fill="rgb(249,201,128)" d="M 509.533 1392.08 L 510.887 1392.37 C 513.953 1396.02 514.906 1404.73 516.074 1409.38 C 524.582 1443.28 534.382 1476.63 544.089 1510.19 A 12486.9 12486.9 0 0 1 368.95 1564.88 L 368.55 1564.87 L 368.172 1563.64 L 367.581 1564.27 C 356.844 1524.27 344.188 1484.77 334.118 1444.59 C 354.938 1436.74 377.214 1431.78 398.545 1425.4 C 435.569 1414.32 472.377 1402.75 509.533 1392.08 z"/>
<path transform="translate(0,0)" fill="rgb(55,59,90)" d="M 665.206 838.154 C 675.691 837.383 685.194 838.048 695.153 841.678 C 708.557 846.563 721.243 856.635 733.226 864.353 L 807.445 913.104 C 819.67 921.264 842.178 934.109 850.496 945.347 C 853.588 949.526 855.665 955.253 857.255 960.196 C 862.353 976.044 865.393 992.918 869.441 1009.09 C 874.714 1030.15 881.138 1051.4 885.267 1072.7 C 888.239 1088.04 887.758 1100.84 878.318 1114.08 C 874.772 1119.06 871.028 1122.04 865.504 1124.58 C 852.717 1130.46 837.198 1132.88 823.49 1136.19 C 800.821 1141.67 778.034 1147.72 754.973 1151.31 C 745.266 1151.95 737.283 1150.23 728.84 1145.36 C 717.918 1139.07 707.674 1131.42 696.956 1124.75 C 680.723 1114.65 588.145 1059.3 580.126 1048.78 C 565.204 1029.2 558.716 995.001 550.618 971.42 C 545.143 955.475 538.502 939.565 534.096 923.303 C 531.06 912.099 530.768 900.816 537.103 890.603 C 540.442 885.221 546.395 881.859 551.918 879.061 C 564.966 872.452 580.365 868.49 594.168 863.421 C 617.243 854.947 641.412 844.041 665.206 838.154 z"/>
<path transform="translate(0,0)" fill="rgb(254,254,254)" d="M 674.199 852.362 C 681.885 851.818 689.373 855.017 696.053 858.483 C 705.601 863.438 714.568 869.998 723.569 875.904 A 3241.73 3241.73 0 0 1 777.335 911.76 C 795.008 923.606 816.813 935.625 832.913 949.046 C 837.389 952.778 839.754 956.293 841.982 961.701 C 849.203 979.234 852.847 1002.31 857.385 1020.97 C 862.111 1040.39 869.437 1061.68 871.062 1081.49 C 871.804 1090.54 870.873 1100.27 864.592 1107.33 C 861.377 1110.95 856.763 1112.72 852.31 1114.31 C 838.645 1119.2 822.894 1121.32 808.702 1124.6 C 788.645 1129.23 767.682 1136.79 747.105 1137.65 C 730.246 1132.47 709.426 1115.33 693.948 1105.63 L 635.952 1068.94 C 625.913 1062.62 615.488 1056.79 605.684 1050.12 C 599.718 1046.06 593.119 1041.15 589.291 1034.96 C 584.557 1027.31 550.368 928.396 548.49 917.817 C 547.381 911.567 547.114 903.784 551.343 898.548 C 554.029 895.223 559.56 892.627 563.421 890.87 C 573.923 886.092 585.346 882.757 596.176 878.736 C 616.972 871.016 654.23 854.658 674.199 852.362 z"/>
<path transform="translate(0,0)" fill="rgb(55,59,90)" d="M 685.951 945.419 C 696.514 947.766 747.573 982.481 758.637 990.845 C 762.251 993.576 765.29 996.628 768.31 999.998 C 764.308 1014.49 752.319 1030.43 742.868 1042.11 L 741.004 1042.69 C 735.409 1041.24 680.863 1004.45 672.587 998.734 C 669.92 996.891 662.828 992.193 662.622 989.054 C 662.02 979.876 680.003 953.367 685.951 945.419 z"/>
<path transform="translate(0,0)" fill="rgb(55,59,90)" d="M 814.854 1004.91 C 817.056 1004.8 819.863 1004.5 821.92 1005.4 C 826.417 1007.36 829.381 1014.45 830.968 1018.68 C 834.549 1028.25 852.816 1084.03 850.061 1090.17 C 840.576 1099.56 808.601 1103.87 794.786 1107.01 C 786.963 1108.78 776.539 1112.36 768.668 1109.84 C 765.21 1108.73 763.253 1106.68 761.672 1103.43 C 762.583 1090.8 804.354 1014.09 814.854 1004.91 z"/>
<path transform="translate(0,0)" fill="rgb(252,99,97)" d="M 816.46 1023.38 L 818.101 1024.42 C 825.958 1038.97 832.328 1066.58 835.941 1083.11 A 1145.66 1145.66 0 0 1 797.273 1092.2 L 777.548 1096.84 C 789.951 1072.43 802.073 1046.67 816.46 1023.38 z"/>
<path transform="translate(0,0)" fill="rgb(55,59,90)" d="M 651.056 882.204 C 653.387 882.194 654.349 882.41 656.438 883.5 C 659.548 885.123 662.69 888.355 663.37 891.91 C 664.958 900.207 631.78 959.006 625.501 970.412 C 618.506 983.116 617.278 987.173 603.058 991.315 C 599.235 989.346 595.717 986.914 592.135 984.545 A 83.1356 83.1356 0 0 1 589.861 979.605 C 585.302 968.704 567.469 922.055 572.867 912.84 C 578.787 902.732 637.565 885.083 651.056 882.204 z"/>
<path transform="translate(0,0)" fill="rgb(252,99,97)" d="M 645.785 897.113 L 647.455 897.326 L 647.703 899.331 C 645.149 906.288 608.293 975.522 605.344 977.617 C 602.547 975.223 601.374 971.117 599.976 967.786 C 594.449 951.569 588.653 935.442 584.289 918.862 C 603.857 910.211 625.369 903.558 645.785 897.113 z"/>
<path transform="translate(0,0)" fill="rgb(55,59,90)" d="M 650.319 1003.05 C 655.871 1003.86 728.409 1052.37 741.209 1060.24 C 740.114 1069.46 740.906 1093.5 736.239 1100.45 C 734.796 1102.6 733.148 1104.09 730.503 1104.49 C 723.711 1105.52 716.777 1099.35 711.513 1095.78 A 4779.94 4779.94 0 0 1 654.704 1058.99 C 643.202 1051.51 631.155 1044.35 620.159 1036.19 C 616.456 1033.43 608.347 1027.85 607.683 1023.14 C 613.887 1014.4 639.953 1006 650.319 1003.05 z"/>
<path transform="translate(0,0)" fill="rgb(252,99,97)" d="M 649.106 1017.19 C 660.653 1022.8 671.963 1032.1 682.789 1039.12 C 697.415 1048.6 712.601 1057.14 727.021 1066.96 C 726.395 1074.1 726.142 1081.29 725.789 1088.44 L 715.553 1081.71 C 686.236 1063.03 657.34 1043.37 627.154 1026.11 C 634.936 1023.92 642.01 1021.05 649.106 1017.19 z"/>
<path transform="translate(0,0)" fill="rgb(55,59,90)" d="M 690.156 879.542 C 693.496 880.322 696.579 881.547 699.568 883.241 C 721.273 895.543 742.092 911.234 762.84 925.14 C 783.375 938.903 805.477 951.931 824.806 967.31 C 823.83 969.805 822.858 972.368 821.501 974.686 C 818.913 979.111 815.976 979.741 811.251 980.842 C 800.668 984.095 790.176 987.238 779.358 989.646 C 763.842 979.409 748.645 968.589 733.132 958.306 C 721.391 950.524 708.278 943.096 697.482 934.07 C 689.24 927.181 688.622 920.195 687.564 910.033 C 686.576 900.552 683.806 887.354 690.156 879.542 z"/>
<path transform="translate(0,0)" fill="rgb(252,99,97)" d="M 700.796 899.944 C 710.224 904.535 799.99 965.278 802.436 969.444 L 800.736 970.433 C 795.113 971.915 789.67 973.828 784.184 975.745 C 757.238 958.383 731.334 939.099 703.826 922.691 C 703.226 914.955 702.451 907.531 700.796 899.944 z"/>
</svg>