<svg width="600" height="600" xmlns="http://www.w3.org/2000/svg" xml:space="preserve" version="1.1">
 <desc>Created with Fabric.js 5.2.4</desc>

 <g>
  <title>Layer 1</title>
  <g id="2a5280c7-7f31-476b-a032-da8210723b47" transform="matrix(1, 0, 0, 1, 540, 540)"/>
  <g id="svg_18" transform="matrix(0.5, 0, 0, 0.5, 798.57, 279.44)">
   <path id="svg_19" fill-rule=" nonzero" fill=" rgb(55,59,90)" stroke-miterlimit="4" stroke-linejoin=" miter" stroke-dashoffset="0" stroke-dasharray=" none" stroke=" none" stroke-linecap=" butt" d="m-972.64001,-313.396c40.29377,0.12298 80.23435,7.51961 117.9,21.834c87.66,33.696 154.19,102.797 191.63,188.195c37.1,84.589 38.68,189.527 4.76,275.355c-35.39,89.519 -99.52,160.562 -188.78,198.809c-79.67021,34.51676 -169.88913,35.4688 -250.27,2.641c-86.34,-37.002 -145.62,-104.061 -186.84,-186.792c-12.96,-3.655 -26.51,-5.943 -39.71,-8.601c-26.24175,-5.20068 -52.51559,-10.23811 -78.82,-15.112c-13.19,-2.485 -48.43,-6.918 -58.29,-12.985c-0.61,-1.847 -1.17,-3.329 -0.74,-5.315c0.54,-2.462 2.12,-4.658 3.99,-6.283c11.99,-10.38 26.25,-19.361 38.85,-29.199l110.69,-85.471c0.59,-81.801 34.09,-168.745 90.71,-228.204c66.24,-69.57 149.06,-106.374 244.92,-108.872z" vector-effect="non-scaling-stroke"/>
  </g>
  <g id="svg_20" transform="matrix(0.5, 0, 0, 0.5, 801.97, 279.3)">
   <path id="svg_21" fill-rule=" nonzero" fill=" rgb(254,254,254)" stroke-miterlimit="4" stroke-linejoin=" miter" stroke-dashoffset="0" stroke-dasharray=" none" stroke=" none" stroke-linecap=" butt" d="m-978.71995,-297.13801c37.23,0.542 72.39,7.173 107.36,19.637c81.23,28.95 146.86,94.978 183.08,172.312c37.87,80.842 40.57,180.13 10.17,263.79c-21.05,57.948 -52.18,104.313 -98.54,144.999c-21.99,19.298 -46,36.08 -72.63,48.372c-77.99,35.996 -163.51,38.355 -243.92,8.873c-85.9,-35.814 -148.32,-103.277 -185.66,-187.479c-15.67,-5.136 -33.1,-7.622 -49.32,-10.748c-36.83,-7.097 -74.03,-12.87 -110.46,-21.82c17.7,-15.618 37.11,-29.229 56.01,-43.338c14.86,-11.102 29.32,-22.75 44.01,-34.086c13.18,-10.169 28.05,-20.345 39.43,-32.535c1.29,-22.355 2.67,-44.544 6.95,-66.567c11.18,-57.44 40.82,-114.771 80.72,-157.575c61.86,-66.375 142.62,-100.785 232.8,-103.835z" vector-effect="non-scaling-stroke"/>
  </g>
  <g id="svg_22" transform="matrix(0.5, 0, 0, 0.5, 836.06, 267.18)">
   <path id="svg_23" fill-rule=" nonzero" fill=" rgb(55,59,90)" stroke-miterlimit="4" stroke-linejoin=" miter" stroke-dashoffset="0" stroke-dasharray=" none" stroke=" none" stroke-linecap=" butt" d="m-985.31,-236.1c5.57,-0.859 10.65,-0.606 15.87,1.874c3.18,1.516 5.19,4.19 6.14,7.523c4.43,15.593 -15.89,41.65 -23.89,54.832c30.99,18.711 50.85,43.155 60.97,78.097c15.6,0.492 45.4,-3.958 57.64,6.301c4.54,3.807 4.64,7.295 5.18,13.051c1.67,17.979 0.3,36.948 0.4,55.04l0.37,120.799l0.24,127.418c0.12,23.879 1.8,52.393 -0.51,75.825c-0.45,4.565 -2.12,7.618 -5.2,10.987c-3.49,3.807 -12.07,4.121 -17.06,4.425c-10.92,0.667 -22.18,-0.051 -33.12,-0.199l-58.38,-0.489l-185.96,0.277c-15.36,0.151 -37.3,2.539 -51.83,-1.192c-6.01,-1.544 -14.19,-5.678 -16.9,-11.684c-2.22,-4.948 -2.62,-13.293 -2.76,-18.747c-0.57,-23.143 0.19,-46.481 0.31,-69.64l0.4,-116.579c0.34,-55.607 -0.9,-111.368 0.47,-166.951c0.11,-4.415 0.24,-16.389 2.87,-19.816c11,-14.35 47.86,-9.113 64.41,-8.817c0.17856,-1.46972 0.3953,-2.93455 0.65,-4.393c5.54,-32.336 27.27,-54.66 52.9,-72.99c-6.26,-13.208 -27.72,-35.797 -24.38,-50.223c1.07,-4.594 4.08,-8.498 8.08,-10.954c4.52989,-2.75097 9.9801,-3.55209 15.11,-2.221c13.3,3.517 17.9,19.713 23.59,30.413c3.43,6.456 7.24,12.752 10.95,19.056c19.94,-4.068 39.19,-3.906 59.11,0.088c7.67,-14.426 20.44,-42.723 34.33,-51.111z" vector-effect="non-scaling-stroke"/>
  </g>
  <g id="svg_24" transform="matrix(0.5, 0, 0, 0.5, 864.37, 145.69)">
   <path id="svg_25" fill-rule=" nonzero" fill=" rgb(254,254,254)" stroke-miterlimit="4" stroke-linejoin=" miter" stroke-dashoffset="0" stroke-dasharray=" none" stroke=" none" stroke-linecap=" butt" d="m-1036.87998,19.172c1.41,1.313 2.41,2.611 3.56,4.142c0.63,5.643 -19.73,35.59 -23.96,41.505c-2.33,-1.192 -3.73,-1.916 -5.41,-4.004c1.6,-6.517 20.83,-36.833 25.81,-41.643z" vector-effect="non-scaling-stroke"/>
  </g>
  <g id="svg_26" transform="matrix(0.5, 0, 0, 0.5, 806.69, 146.23)">
   <path id="svg_27" fill-rule=" nonzero" fill=" rgb(254,254,254)" stroke-miterlimit="4" stroke-linejoin=" miter" stroke-dashoffset="0" stroke-dasharray=" none" stroke=" none" stroke-linecap=" butt" d="m-1059.3,20.97599c6.46,3.58 21.06,30.112 25.85,37.73c-1.33,2.526 -2.99,2.931 -5.41,4.296c-0.95,0.103 -1.65,-0.342 -2.36,-1.004c-4.42,-4.117 -21.38,-30.902 -21.32,-36.737c0.02,-1.705 2.09,-3.114 3.24,-4.285z" vector-effect="non-scaling-stroke"/>
  </g>
  <g id="svg_28" transform="matrix(0.5, 0, 0, 0.5, 836.79, 179.6)">
   <path id="svg_29" fill-rule=" nonzero" fill=" rgb(254,254,254)" stroke-miterlimit="4" stroke-linejoin=" miter" stroke-dashoffset="0" stroke-dasharray=" none" stroke=" none" stroke-linecap=" butt" d="m-1056.56996,2.20699c16.91,-0.343 34.25,2.136 49.74,9.117c31.69,14.284 50.42,37.631 62.64,69.627c-30.52,1.716 -61.58,0.416 -92.14,0.156c-38.47,-0.305 -77.05,0.847 -115.48,0.095c4.44662,-16.23018 12.48092,-31.25475 23.51,-43.965c17.93,-20.679 44.62,-33.008 71.73,-35.03z" vector-effect="non-scaling-stroke"/>
  </g>
  <g id="svg_30" transform="matrix(0.5, 0, 0, 0.5, 813.67, 183.09)">
   <path id="svg_31" fill-rule=" nonzero" fill=" rgb(55,59,90)" stroke-miterlimit="4" stroke-linejoin=" miter" stroke-dashoffset="0" stroke-dasharray=" none" stroke=" none" stroke-linecap=" butt" d="m-1048.75999,31.82801c0.98,-0.122 1.9,-0.269 2.9,-0.227c2.64,0.11 6,1.615 7.39,3.938c1.13,1.899 1.04,4.022 0.54,6.091c-1.47,5.966 -4.95,7.703 -9.82,10.783c-2.89,-0.199 -6.8,-0.942 -8.92,-3.102c-1.72,-1.75 -1.92,-3.663 -1.68,-5.981c0.56,-5.285 5.65,-8.774 9.59,-11.502z" vector-effect="non-scaling-stroke"/>
  </g>
  <g id="svg_32" transform="matrix(0.5, 0, 0, 0.5, 857.6, 183.17)">
   <path id="svg_33" fill-rule=" nonzero" fill=" rgb(55,59,90)" stroke-miterlimit="4" stroke-linejoin=" miter" stroke-dashoffset="0" stroke-dasharray=" none" stroke=" none" stroke-linecap=" butt" d="m-1052.16996,31.54801c1.01,0.171 2.02,0.37 3.02,0.619c4.07,1.01 10.52,3.857 12.3,8.006c1.02,2.377 1.25,4.271 0.13,6.678c-1.41,2.995 -4.94,4.3 -7.73,5.602c-4.34,-2.063 -11.8,-4.691 -14.43,-8.983c-1.57,-2.579 -1.24,-3.374 -0.7,-6.163c2.06,-2.97 4.25,-4.095 7.41,-5.759z" vector-effect="non-scaling-stroke"/>
  </g>
  <g id="svg_34" transform="matrix(0.5, 0, 0, 0.5, 836.29, 376.95)">
   <path id="svg_35" fill-rule=" nonzero" fill=" rgb(252,99,97)" stroke-miterlimit="4" stroke-linejoin=" miter" stroke-dashoffset="0" stroke-dasharray=" none" stroke=" none" stroke-linecap=" butt" d="m-1217.87996,-0.13702c61.15,-1.546 122.75,0.371 183.94,0.39l98.09,0.013c19.38,0.027 38.91,-0.467 58.25,0.627l-0.11,83.306l-1.64,0.116c-17.39,1.124 -35.79,-0.371 -53.3,-0.404l-111.15,0.186l-107.33,0.019c-18.23,0.011 -37.31,1.128 -55.47,-0.336c-4.09,-0.33 -6.35,-1.07 -9.45,-3.77c-3.99,-9.299 -1.67,-65.875 -1.83,-80.147z" vector-effect="non-scaling-stroke"/>
  </g>
  <g id="svg_36" transform="matrix(0.5, 0, 0, 0.5, 836.13, 277.41)">
   <path id="svg_37" fill-rule=" nonzero" fill=" rgb(254,254,254)" stroke-miterlimit="4" stroke-linejoin=" miter" stroke-dashoffset="0" stroke-dasharray=" none" stroke=" none" stroke-linecap=" butt" d="m-1211.09001,-98.34401c26.65,-0.876 53.43,-0.411 80.11,-0.473l153.72,0.004l61.14,-0.111c10.76,-0.042 23.54,-1.351 34.01,0.773c1.54,1.252 2.33,1.472 2.95,3.436c3.64,11.49 1.19,137.928 1.19,160.762c0,36.966 1.59,77.051 0.34,113.593c-0.05,1.575 -0.09,1.123 -0.93,2.846l-3.45,0.34c-112.05229,0.81418 -224.10937,0.71251 -336.16,-0.305c-0.07,-25.898 -2.03,-271.968 1.06,-277.333c1.51,-2.628 3.33,-2.736 6.02,-3.532z" vector-effect="non-scaling-stroke"/>
  </g>
  <g id="svg_38" transform="matrix(0.5, 0, 0, 0.5, 837.21, 274.66)">
   <path id="svg_39" fill-rule=" nonzero" fill=" rgb(252,99,97)" stroke-miterlimit="4" stroke-linejoin=" miter" stroke-dashoffset="0" stroke-dasharray=" none" stroke=" none" stroke-linecap=" butt" d="m-1015.50003,-45.32699l0.68,1.571c-11.61,19.996 -26.69,38.463 -37.25,58.89c19.9,15.996 42.69,28.128 62.84,43.706c-34.35,22.125 -67.09,47.229 -102.32,67.942c-1.94,1.2 -3.32,2.139 -5.59,2.55c5.54,-9.005 12.52,-17.396 18.83,-25.898c8.62464,-11.67024 17.02288,-23.50612 25.19,-35.501c-16.7,-13.41 -36.2,-24.14 -53.65,-36.689c10.29,-9.907 22.46,-18.63 33.47,-27.838c19.32,-16.163 38.29,-32.808 57.8,-48.733z" vector-effect="non-scaling-stroke"/>
  </g>
  <g id="svg_40">
   <g id="svg_2" transform="matrix(0.5, 0, 0, 0.5, 868.2, 527.38)">
    <path id="svg_3" fill-rule=" nonzero" fill=" rgb(55,59,90)" stroke-miterlimit="4" stroke-linejoin=" miter" stroke-dashoffset="0" stroke-dasharray=" none" stroke=" none" stroke-linecap=" butt" d="m-815.15901,-219.34996c3.151,-0.05 5.804,-0.32 8.301,1.89c3.621,3.2 4.781,11.19 5.078,15.68c1.914,28.9 -9.167,59.04 -28.498,80.43c-20.604,22.8 -47.185,35.32 -77.75,36.74c-2.687,-0.19 -5.062,-0.31 -7.269,-2.12c-1.97162,-1.59225 -3.12396,-3.98577 -3.139,-6.52c0,-3.28 2.436,-5.55 5.185,-6.89c4.054,-1.97 11.363,-1.32 15.993,-1.89c20.469,-2.48 40.141,-13.09 54.174,-28.03c13.851,-14.74 25.5,-40.11 25.54,-60.5c0.014,-7.29 -2.205,-14.82 -1.869,-22.02c0.151,-3.26 2.138,-4.6 4.254,-6.77z" vector-effect="non-scaling-stroke"/>
   </g>
   <g id="svg_10" transform="matrix(0.5, 0, 0, 0.5, 895.58, 545.86)">
    <path id="svg_11" fill-rule=" nonzero" fill=" rgb(55,59,90)" stroke-miterlimit="4" stroke-linejoin=" miter" stroke-dashoffset="0" stroke-dasharray=" none" stroke=" none" stroke-linecap=" butt" d="m-778.21498,-279.20004c3.051,-0.06 6.412,-0.24 8.972,1.75c5.075,3.94 6.048,12.29 6.658,18.18c6.109,59.03 -6.511,112.89 -44.648,159.42c-35.665,43.52 -85.536,69.56 -141.424,75.08c-3.274,-0.01 -4.734,-0.28 -7.625,-1.81c-1.149,-1.36 -2.195,-2.48 -2.509,-4.31c-0.446,-2.6 0.648,-6.78 3,-8.25c2.512,-1.57 38.223,-6.97 46.374,-9.42c36.627,-11 68.992,-35.05 92.38,-64.98c26.969,-34.52 43.997,-78.51 40.92,-122.85c-0.822,-11.86 -5.022,-23.53 -5.616,-35.26c-0.167,-3.29 1.59,-5.12 3.518,-7.55z" vector-effect="non-scaling-stroke"/>
   </g>
   <g id="svg_14" transform="matrix(0.5, 0, 0, 0.5, 923.36, 563.28)">
    <path id="svg_15" fill-rule=" nonzero" fill=" rgb(55,59,90)" stroke-miterlimit="4" stroke-linejoin=" miter" stroke-dashoffset="0" stroke-dasharray=" none" stroke=" none" stroke-linecap=" butt" d="m-741.26003,-339.36002c2.17,0.28 4.01,0.78 5.88,1.99c5.78,3.73 7.48,15.56 8.48,21.83c12.54,78.76 -4.27,163.56 -51.68,228.52c-40.30114,56.14794 -98.91058,96.49508 -165.745,114.1c-14.425,3.81 -29.23,5.96 -43.95,8.28c-1.689,-0.26 -3.772,-0.42 -5.169,-1.54c-2.559,-2.04 -3.587,-5.99 -3.666,-9.06c1.307,-2.58 2.144,-3.72 4.807,-5.01c3.681,-1.77 36.337,-6.62 44.614,-8.7c47.809,-12.02 92.121,-38.94 127,-73.41c55.189,-54.56 85.029,-133.83 81.799,-211.04c-0.45,-10.97 -1.1,-22.29 -3.05,-33.11c-1.62,-8.97 -5.36,-17.92 -5.3,-27.09c1.58,-3.19 3.06,-3.8 5.98,-5.76z" vector-effect="non-scaling-stroke"/>
   </g>
  </g>
  <g id="svg_41">
   <g id="svg_4" transform="matrix(0.5, 0, 0, 0.5, 669.99, 174.42)">
    <path id="svg_5" fill-rule=" nonzero" fill=" rgb(55,59,90)" stroke-miterlimit="4" stroke-linejoin=" miter" stroke-dashoffset="0" stroke-dasharray=" none" stroke=" none" stroke-linecap=" butt" d="m-983.87003,-82.34701c4.22,-0.658 10.749,-1.696 14.743,0.145c2.075,0.957 3.478,2.989 4.304,5.059c1.19,2.984 0.52,5.037 -0.802,7.79c-5.202,3.713 -13.942,2.023 -20.155,2.991c-25.215,3.928 -48.614,20.21 -63.249,40.711c-23.552,32.994 -20.753,51.073 -14.592,88.135c-1.242,1.351 -2.758,2.888 -4.38,3.777c-2.52,1.383 -4.111,1.076 -6.779,0.453c-4.788,-3.962 -6.184,-10.064 -7.248,-15.965c-5.512,-30.58 2.003,-59.887 19.826,-85.182c18.714,-26.561 46.727,-42.266 78.332,-47.914z" vector-effect="non-scaling-stroke"/>
   </g>
   <g id="svg_12" transform="matrix(0.5, 0, 0, 0.5, 640.45, 157.51)">
    <path id="svg_13" fill-rule=" nonzero" fill=" rgb(55,59,90)" stroke-miterlimit="4" stroke-linejoin=" miter" stroke-dashoffset="0" stroke-dasharray=" none" stroke=" none" stroke-linecap=" butt" d="m-944.33399,-141.49c0.134,-0.028 0.266,-0.065 0.401,-0.083c4.815,-0.658 11.285,-1.225 14.994,2.838c0.987,1.082 1.751,2.176 1.653,3.674c-0.376,5.757 -5.751,6.639 -10.36,7.613c-43.228,9.13 -72.044,18.598 -105.593,49.04c-40.826,37.044 -67.622,98.268 -61.627,153.816c1.202,11.136 9.194,36.976 8.386,45.276c-0.062,0.645 -0.17,1.285 -0.255,1.927c-1.587,1.447 -3.479,3.082 -5.715,3.353c-2.272,0.276 -4.039,-0.35 -5.79,-1.707c-6.493,-5.027 -8.476,-21.96 -9.718,-29.652c-8.91687,-53.68395 3.91106,-108.70888 35.649,-152.915c33.02,-45.533 82.834,-74.334 137.975,-83.18z" vector-effect="non-scaling-stroke"/>
   </g>
   <g id="svg_16" transform="matrix(0.5, 0, 0, 0.5, 611.15, 141.02)">
    <path id="svg_17" fill-rule=" nonzero" fill=" rgb(55,59,90)" stroke-miterlimit="4" stroke-linejoin=" miter" stroke-dashoffset="0" stroke-dasharray=" none" stroke=" none" stroke-linecap=" butt" d="m-902.04299,-203.49598c2.313,-0.297 4.896,-0.729 7.144,0.144c2.586,1.005 3.715,2.895 5.036,5.128c0.178,2.395 0.527,3.766 -1.031,5.831c-4.987,6.61 -23.697,6.792 -31.537,8.311c-70.667,13.698 -136.269,62.385 -175.706,121.689c-37.27416,56.12749 -51.62724,124.40302 -40.108,190.788c1.683,9.544 3.788,18.841 6.541,28.131c2.219,7.488 5.281,15.335 6.578,23.028c0.623,3.701 -0.703,5.323 -2.79,8.107c-2.776,0.226 -6.102,0.635 -8.508,-1.1c-9.47,-6.828 -17.253,-51.305 -19.054,-63.665c-10.896,-74.809 10.354,-149.134 55.262,-209.319c47.74154,-63.95785 119.11628,-106.1233 198.173,-117.073z" vector-effect="non-scaling-stroke"/>
   </g>
  </g>
 </g>
</svg>