<?xml version="1.0" encoding="UTF-8" standalone="no"?>
<svg
   fill="none"
   height="24"
   viewBox="0 0 24 24"
   width="24"
   version="1.1"
   id="svg6"
   sodipodi:docname="notification-on-mobile(24x24)@1x.svg"
   inkscape:version="1.4 (e7c3feb1, 2024-10-09)"
   xmlns:inkscape="http://www.inkscape.org/namespaces/inkscape"
   xmlns:sodipodi="http://sodipodi.sourceforge.net/DTD/sodipodi-0.dtd"
   xmlns="http://www.w3.org/2000/svg"
   xmlns:svg="http://www.w3.org/2000/svg">
  <defs
     id="defs6" />
  <sodipodi:namedview
     id="namedview6"
     pagecolor="#505050"
     bordercolor="#eeeeee"
     borderopacity="1"
     inkscape:showpageshadow="0"
     inkscape:pageopacity="0"
     inkscape:pagecheckerboard="0"
     inkscape:deskcolor="#505050"
     inkscape:zoom="36.583333"
     inkscape:cx="12"
     inkscape:cy="12"
     inkscape:window-width="1920"
     inkscape:window-height="1027"
     inkscape:window-x="0"
     inkscape:window-y="25"
     inkscape:window-maximized="1"
     inkscape:current-layer="g6" />
  <g
     stroke="#265f58"
     stroke-miterlimit="10"
     id="g6">
    <path
       clip-rule="evenodd"
       d="m11 12c0 2.76 2.24 5 5 5v3c0 1.1-.9 2-2 2h-8c-1.1 0-2-.9-2-2v-16c0-1.1.9-2 2-2h8c1.1 0 2 .9 2 2v3c-2.76 0-5 2.24-5 5z"
       fill="#98eed5"
       fill-rule="evenodd"
       stroke-linecap="round"
       stroke-linejoin="round"
       id="path1" />
    <path
       d="m11.47 3h-2.94c-.02 0-.03-.01-.03-.03v-.97h3v.97c0 .02-.01.03-.03.03z"
       stroke-linecap="round"
       id="path2" />
    <g
       stroke-linejoin="round"
       id="g5"
       style="fill:#ffd5d5">
      <path
         d="m16 17c2.7614 0 5-2.2386 5-5 0-2.76142-2.2386-5-5-5s-5 2.23858-5 5c0 2.7614 2.2386 5 5 5z"
         fill="#85d0cc"
         stroke-linecap="round"
         id="path3"
         style="fill:#ffaaaa;opacity:1" />
      <path
         d="m16 9v3"
         id="path4"
         style="fill:#ffd5d5" />
      <path
         d="m16 14h.01"
         stroke-linecap="round"
         id="path5"
         style="fill:#ff8080" />
    </g>
  </g>
</svg>
