<svg version="1.1" xmlns="http://www.w3.org/2000/svg" style="display: block;" viewBox="0 0 2048 2048" width="1024" height="1024">
<path transform="translate(0,0)" fill="rgb(254,254,254)" d="M 0 0 L 2048 0 L 2048 2048 L 0 2048 L 0 0 z"/>
<path transform="translate(0,0)" fill="rgb(89,87,87)" d="M 1517.57 688.414 A 265.434 265.434 0 0 1 1711.1 760.285 C 1759.88 806.089 1790.89 874.27 1793 941.162 C 1795.19 1011.03 1770.09 1082.24 1721.81 1133.32 C 1707.3 1148.68 1691.28 1162.96 1673.57 1174.52 C 1639.11 1197.01 1590.39 1213.88 1549.1 1215.16 C 1480.61 1219.56 1413.04 1194 1361.13 1149.8 C 1309.57 1105.9 1278.43 1037.78 1273.44 970.934 C 1268.36 902.753 1289.94 831.708 1335.13 779.947 C 1381.95 726.307 1446.39 693.141 1517.57 688.414 z"/>
<path transform="translate(0,0)" fill="rgb(254,254,254)" d="M 1521.47 713.427 C 1578.66 709.907 1641.27 733.515 1684.79 770.245 C 1734.8 812.448 1762.08 870.942 1767.23 935.642 A 239.721 239.721 0 0 1 1710.64 1108.35 C 1668.85 1157.1 1611.97 1184.98 1548.25 1189.94 C 1488.71 1192.11 1431.2 1175.34 1385.22 1136.55 C 1334.46 1093.72 1303.71 1035.94 1298.46 969.575 A 237.685 237.685 0 0 1 1354.9 794.985 C 1397.2 745.977 1457.38 718.188 1521.47 713.427 z"/>
<path transform="translate(0,0)" fill="rgb(89,87,87)" d="M 1521.18 797.396 C 1521.98 797.296 1522.79 797.184 1523.59 797.121 C 1564.4 793.953 1601.78 808.215 1632.81 834.005 C 1662.63 858.794 1683.22 896.733 1686.71 935.509 A 155.976 155.976 0 0 1 1650.24 1050.2 C 1624.58 1080.92 1588.32 1101.43 1548.24 1104.86 C 1509.98 1108.79 1469.79 1098.35 1439.76 1073.94 C 1407.37 1047.63 1384.93 1008.75 1380.68 966.99 A 152.047 152.047 0 0 1 1415.39 852.681 C 1441.93 820.536 1479.86 801.412 1521.18 797.396 z"/>
<path transform="translate(0,0)" fill="rgb(254,254,254)" d="M 1519.59 811.377 C 1519.93 811.325 1520.26 811.255 1520.6 811.219 C 1555.25 807.567 1590.87 819.301 1618.2 840.432 A 139.113 139.113 0 0 1 1670.91 933.003 A 139.966 139.966 0 0 1 1641.97 1037.54 C 1617.47 1068.6 1586.02 1085.86 1546.97 1090.62 C 1546.69 1090.66 1546.41 1090.72 1546.13 1090.75 C 1511.83 1094.84 1479.46 1085.34 1451.85 1064.5 C 1422.38 1042.25 1401.07 1009.29 1396.12 972.407 C 1390.76 932.581 1400 894.707 1424.7 862.83 C 1448 832.752 1482.31 815.966 1519.59 811.377 z"/>
<path transform="translate(0,0)" fill="rgb(206,46,46)" d="M 1571.78 832.091 L 1572 832.236 C 1573.7 841.254 1547.27 911.489 1543.14 925.865 C 1561.18 939.314 1580.88 950.591 1600.08 962.273 C 1566.92 995.63 1533 1027.89 1498.71 1060.08 L 1496.26 1061.7 L 1495.3 1060.71 C 1496.51 1049.85 1517.7 994.154 1522.88 982.629 C 1504.96 971.157 1487.15 959.803 1470.01 947.181 A 4136.79 4136.79 0 0 1 1529.07 878.221 C 1542.82 862.475 1556.46 846.343 1571.78 832.091 z"/>
<path transform="translate(0,0)" fill="rgb(89,87,87)" d="M 1706.6 1203.44 C 1743.74 1202.06 1782.26 1209.99 1816.35 1224.49 C 1887.21 1254.62 1941.07 1307.79 1969.66 1379.71 A 276.766 276.766 0 0 1 1965.66 1591.28 C 1936.02 1659.19 1882.19 1713.11 1812.77 1740.08 C 1734.74 1770.39 1659.54 1765.17 1583.74 1731.55 C 1553.18 1716.28 1527.92 1698.94 1504.32 1674.04 A 280.847 280.847 0 0 1 1428.22 1512.84 C 1425.96 1492.33 1426.46 1472.05 1427.03 1451.48 L 1355.83 1396.25 C 1340.26 1384.41 1323.36 1373.36 1309.25 1359.8 C 1305.7 1356.39 1300.9 1351.72 1300.35 1346.63 C 1300.15 1344.84 1300.69 1344.86 1301.77 1343.65 C 1312.53 1341.45 1427.94 1369.57 1449.44 1373.69 C 1461.99 1344.8 1478.5 1318.9 1499.92 1295.77 C 1540.63 1251.8 1596.39 1219.48 1655.51 1208.31 C 1672.5 1205.1 1689.37 1204.12 1706.6 1203.44 z"/>
<path transform="translate(0,0)" fill="rgb(254,254,254)" d="M 1689.03 1228.58 A 273.702 273.702 0 0 1 1811.74 1249.59 C 1870.88 1275.23 1921.23 1325.06 1944.94 1385.15 C 1970.38 1449.57 1970.21 1517.73 1942.51 1581.59 A 253.116 253.116 0 0 1 1801.2 1717.35 C 1733.01 1744.05 1662.78 1739.25 1596.42 1710.13 C 1567.16 1696.5 1538.46 1675.47 1516.94 1651.47 C 1467.1 1595.87 1448.25 1532.68 1452.19 1458.54 C 1409.73 1425.59 1367.91 1391.65 1325.91 1358.11 A 3740.07 3740.07 0 0 0 1469.93 1387.8 C 1480.17 1364.08 1492.63 1342.57 1509.06 1322.59 A 264.821 264.821 0 0 1 1689.03 1228.58 z"/>
<path transform="translate(0,0)" fill="rgb(41,81,169)" d="M 1904.83 1456.83 C 1907.14 1459.79 1906.88 1469.28 1907.11 1473.36 C 1908.07 1490.64 1899.61 1504.44 1888.42 1516.94 C 1850.61 1559.21 1784.4 1572.15 1730.1 1574.74 C 1672.27 1577.5 1584.37 1566.22 1540.66 1525.95 C 1530.39 1516.49 1524.34 1505.6 1523.78 1491.58 C 1523.85 1479.94 1523.35 1468.25 1523.07 1456.62 C 1524.38 1459.09 1525.69 1461.62 1527.22 1463.96 C 1548.12 1496.08 1597.27 1510.38 1632.48 1517.66 C 1628.62 1521.8 1624.52 1524.48 1623.09 1530.26 C 1623.73 1531.74 1623.38 1532 1624.71 1532.36 C 1632.24 1534.35 1644.39 1524.41 1650 1520.44 C 1683.8 1529.53 1746.93 1526.79 1781.63 1521.2 C 1826.33 1513.99 1877.28 1494.79 1904.83 1456.83 z"/>
<path transform="translate(0,0)" fill="rgb(41,81,169)" d="M 1906.68 1512.72 C 1908.81 1521.65 1908.27 1541.31 1905.68 1550.1 C 1897.98 1576.18 1871.69 1595.9 1848.69 1607.83 C 1780.55 1643.18 1672.91 1643.4 1600.48 1620.01 C 1572.47 1610.97 1540.59 1596.89 1526.48 1569.45 C 1522.27 1554.41 1523.31 1537.63 1523.01 1522.13 C 1528.65 1529.72 1534.69 1536.37 1542.05 1542.32 C 1595.42 1585.51 1691.18 1592.57 1757.59 1585.17 C 1817.68 1578.48 1868 1561.09 1906.68 1512.72 z"/>
<path transform="translate(0,0)" fill="rgb(41,81,169)" d="M 1683.59 1327.42 C 1709.76 1324.76 1737.62 1328.3 1763.61 1331.32 C 1734.03 1354.17 1702.31 1375.55 1671.62 1396.91 C 1657.86 1406.48 1641.49 1415.53 1629.6 1427.34 C 1666.95 1430.95 1705 1431.86 1742.5 1434.16 C 1725.22 1451.25 1703.43 1464.41 1683.57 1478.32 A 1197.2 1197.2 0 0 0 1644.5 1506.64 C 1610.37 1501.18 1570.31 1489.42 1543.71 1466.5 C 1531.82 1456.25 1523.78 1443.18 1522.71 1427.2 C 1521.52 1409.47 1525.08 1394.6 1537.05 1381.02 C 1570.28 1343.3 1635.3 1330.39 1683.59 1327.42 z"/>
<path transform="translate(0,0)" fill="rgb(41,81,169)" d="M 1784.99 1334.38 C 1822.28 1338.16 1867.04 1356.57 1892.49 1384.83 C 1901.87 1395.25 1908.1 1408.03 1907.11 1422.35 C 1905.95 1439.31 1894.85 1453.26 1882.62 1464.12 C 1828.94 1511.74 1743.94 1515.97 1675.76 1511.88 C 1670.77 1511.15 1665.64 1511.04 1660.6 1510.75 C 1687.31 1491.04 1714.66 1471.93 1741.73 1452.7 C 1754.88 1443.36 1771.14 1434.75 1781.68 1422.53 C 1743.49 1419.49 1705.08 1418.79 1666.82 1415.64 C 1695.56 1396.55 1723.56 1376.51 1751.82 1356.72 C 1762.74 1349.07 1774.26 1342.28 1784.99 1334.38 z"/>
<path transform="translate(0,0)" fill="rgb(89,87,87)" d="M 1409.01 65.4565 A 78.846 78.846 0 0 1 1411.22 65.4037 C 1485.64 65.0608 1556.2 96.2162 1608.93 147.947 C 1663.41 201.39 1692.51 276.008 1692.99 351.997 C 1693.45 425.064 1661.58 502.073 1610.18 553.978 A 282.128 282.128 0 0 1 1411.26 638.863 C 1326.2 639.03 1256.3 604.716 1197.15 545.481 C 1178.69 559.594 1161.91 577.173 1144.17 592.307 C 1103.64 626.869 1062.47 660.428 1023.16 696.401 C 1032.24 715.865 1039.15 737.327 1047.21 757.314 L 1102.76 893.117 L 1263.43 1283.04 C 1298.15 1368.51 1330.35 1455.31 1366.85 1540.03 C 1378.77 1567.68 1393.05 1599.04 1380.78 1629.09 C 1375.71 1641.5 1367.56 1651.93 1355.92 1658.83 C 1337.62 1669.67 1314.91 1676.89 1295.16 1685.03 L 1175.44 1734.24 L 781.872 1896.53 C 756.217 1907.36 730.204 1917.52 704.403 1928.02 C 685.701 1935.64 658.583 1949.38 638.863 1952.02 C 625.499 1953.8 611.408 1952.32 598.94 1947.14 C 568.9 1934.66 558.499 1910.89 547.787 1882.36 A 1531.06 1531.06 0 0 0 530.947 1838.35 C 490.305 1732.15 446.142 1627.1 404.03 1521.46 L 183.364 965.598 L 93.3819 739.141 C 87.0912 723.165 81.3053 706.969 74.764 691.099 C 68.2868 675.385 60.5662 659.505 55.7741 643.203 C 51.8323 629.794 52.9205 615.04 57.7467 601.983 C 64.4612 583.818 77.9437 571.25 95.2686 563.343 C 128.732 548.069 163.554 535.222 197.691 521.498 L 307.206 476.302 L 556.056 372.601 L 721.357 302.99 C 743.461 293.828 765.998 282.488 788.771 275.444 C 802.756 271.119 817.031 270.093 830.952 275.384 C 842.118 279.627 852.648 286.932 859.356 296.912 C 867.675 309.287 872.582 325.509 878.12 339.36 A 4973.57 4973.57 0 0 1 906.956 412.445 C 919.384 444.066 932.94 475.33 945.638 506.866 C 963.096 550.228 979.971 594.078 998.988 636.773 C 1023.11 601.476 1045.55 564.941 1069.69 529.659 C 1093.6 494.718 1119.48 460.884 1141.73 424.847 C 1134.87 402.266 1130.46 379.562 1129.57 355.913 C 1126.88 283.866 1157.28 208.08 1206.35 155.718 C 1259.68 98.8192 1331.42 68.0651 1409.01 65.4565 z"/>
<path transform="translate(0,0)" fill="rgb(254,254,254)" d="M 1399.7 91.422 C 1402.69 90.9954 1405.78 91.0412 1408.79 90.9785 C 1476.23 89.5792 1542.57 117.63 1590.87 164.173 C 1639.53 211.068 1666.65 282.132 1667.5 349.069 A 265.744 265.744 0 0 1 1590.61 538.616 A 255.967 255.967 0 0 1 1411.47 613.643 A 265.567 265.567 0 0 1 1245.38 556.275 C 1232.23 545.71 1220.49 533.137 1208.5 521.278 C 1185.56 544.354 1159.31 564.876 1134.7 586.196 L 999.139 702.398 C 979.857 718.886 961.591 736.88 941.624 752.495 C 958.352 721.133 978.569 691.665 997.295 661.5 C 1036.18 598.867 1077.37 538.044 1119.03 477.25 C 1133.74 455.779 1147.54 433.749 1162.65 412.551 A 240.656 240.656 0 0 1 1155.67 371.933 A 260.092 260.092 0 0 1 1215.74 183.49 C 1263.62 126.511 1326.46 98.0195 1399.7 91.422 z"/>
<path transform="translate(0,0)" fill="rgb(89,87,87)" d="M 1441.81 142.982 C 1443.13 145.773 1428.83 298.502 1427.91 316.175 C 1441.22 319.567 1454.5 324.998 1467.49 329.503 C 1487.99 336.607 1508.77 343.429 1528.9 351.503 C 1514.51 372.069 1499.3 392.029 1484.64 412.404 L 1409.21 518.862 C 1399.09 533.256 1387.23 546.33 1377.89 561.268 C 1375.02 548.145 1394.56 409.9 1397.85 386.63 C 1363.68 375.877 1330.35 362.705 1296.18 351.948 C 1305.46 337.28 1316.06 323.511 1325.85 309.194 C 1364 253.447 1403.97 198.904 1441.81 142.982 z"/>
<path transform="translate(0,0)" fill="rgb(254,254,254)" d="M 803.652 295.259 C 810.815 294.91 817.846 295.755 824.423 298.767 C 837.401 304.709 843.91 316.369 848.388 329.205 L 451.396 495.578 C 351.933 536.82 251.215 575.747 152.811 619.448 C 148.463 621.379 137.06 625.682 134.553 629.687 C 130.969 635.411 134.856 642.964 136.947 648.429 A 11379.7 11379.7 0 0 0 202.446 813.596 L 361.506 1213.1 A 42927.6 42927.6 0 0 0 579.315 1763.17 C 583.135 1772.5 586.241 1782.73 596.601 1786.68 C 600.746 1788.26 605.389 1789.07 609.716 1787.78 C 620.292 1784.62 630.995 1779.54 641.276 1775.43 L 710 1747.51 A 13416.1 13416.1 0 0 0 923.328 1659.67 L 1198.07 1545.38 C 1236.07 1529.29 1274.81 1514.05 1312.11 1496.41 A 1207.2 1207.2 0 0 0 1307.78 1482.6 C 1294.07 1490.33 1278.64 1495.85 1264.14 1501.98 L 1195.9 1531.12 A 24973.9 24973.9 0 0 1 900.537 1653.47 L 680.037 1744.28 C 662.437 1751.41 618.703 1772.62 602.211 1774.07 C 597.271 1771.23 595.724 1766.05 593.514 1761.04 C 581.423 1733.62 570.999 1705.08 559.891 1677.21 L 484.25 1485.53 L 287.888 990.887 L 221.327 823.356 C 197.066 761.461 173.48 699.395 147.609 638.144 C 174.099 625.701 201.655 615.204 228.749 604.153 L 360.613 549.705 A 15673.4 15673.4 0 0 0 744.128 388.839 C 780.155 372.97 817.927 360.682 853.074 342.928 L 948.22 578.003 C 959.65 606.712 973.437 635.114 983.079 664.43 C 976.259 676.757 967.898 688.651 960.403 700.618 L 917.353 770.341 C 915.671 773.114 912.608 776.921 913.393 780.051 C 915.272 781.854 915.557 782.748 918.203 783.178 C 930.855 778.243 987.484 725.269 1003.03 712.333 C 1017.09 744.657 1029.22 778.219 1042.44 810.943 L 1131.66 1030.33 C 1149.13 1072.98 1167.76 1115.22 1185.43 1157.82 L 1346.5 1553.6 C 1354.62 1574.07 1367.51 1598.81 1357.31 1620.86 C 1353.3 1629.53 1345.82 1635.91 1337.48 1640.27 C 1316.55 1651.2 1292.77 1658.71 1270.98 1667.97 C 1208.01 1694.73 1144.47 1719.91 1081.33 1746.18 L 781.33 1870.04 L 709.314 1899.34 C 694.849 1905.33 680.43 1911.93 665.702 1917.23 C 655.027 1921.07 644.153 1921.94 633.689 1916.65 C 625.452 1912.49 618.273 1904.59 614.656 1896.14 C 604.299 1871.95 596.361 1846.39 586.904 1821.78 L 527.194 1670.74 L 299.038 1096.11 L 179.072 794.998 L 138.136 692.097 C 129.803 671.105 120.297 650.192 113.878 628.519 C 110.036 615.545 109.875 601.305 116.83 589.27 C 120.64 582.678 126.997 577.01 133.887 573.808 C 146.067 568.148 158.906 563.464 171.342 558.356 L 266.963 519.665 L 556.408 398.97 L 742.399 320.854 C 760.096 313.579 786.47 299.457 803.652 295.259 z"/>
<path transform="translate(0,0)" fill="rgb(89,87,87)" d="M 616.455 712.381 C 620.793 712.17 625.455 712.497 629.693 713.479 C 638.046 715.413 656.443 723.395 660.115 731.45 C 661.103 733.618 660.998 735.714 659.751 737.746 C 656.279 743.4 640.138 748.073 633.815 750.575 C 625.972 749.203 617.542 748.109 609.638 749.466 C 596.361 751.743 588.805 760.136 581.447 770.536 C 578.894 773.973 575.89 777.943 572.045 779.983 C 565.324 783.548 558.527 781.144 551.775 779.171 C 549.689 774.794 548.344 770.623 547.083 765.965 C 549.073 755.775 553.32 746.122 560.068 738.173 C 573.758 722.047 595.934 714.206 616.455 712.381 z"/>
<path transform="translate(0,0)" fill="rgb(89,87,87)" d="M 997.889 1649.4 C 1008.57 1649.71 1018.48 1651.46 1028.01 1656.55 C 1041.91 1663.97 1053.49 1677.83 1057.72 1693.08 C 1061.52 1706.77 1059.84 1720.87 1052.55 1733.14 C 1043.01 1749.2 1028.17 1757.02 1010.49 1761.23 C 996.22 1761.52 982.618 1757.63 970.97 1749.31 A 56.8942 56.8942 0 0 1 947.858 1711.62 A 53.9806 53.9806 0 0 1 958.491 1670.21 C 968.426 1657.31 982.046 1651.18 997.889 1649.4 z"/>
<path transform="translate(0,0)" fill="rgb(89,87,87)" d="M 598.481 634.373 C 624.468 630.471 659.914 638.595 682.194 652.346 C 688.992 656.542 695.527 662.442 697.107 670.636 C 698.201 676.312 696.69 683.061 693.358 687.784 C 689.616 693.089 683.911 693.939 678 695.082 C 668.942 691.321 660.451 686.071 651.512 681.985 C 633.921 673.944 612.757 671.51 593.712 674.583 C 562.587 679.606 538.278 697.785 520.122 722.85 C 514.505 731.727 509.366 741.356 505.476 751.114 C 502.191 759.35 500.027 769.425 495.089 776.745 C 492.487 780.602 487.775 783.84 483.202 784.737 C 478.227 785.713 471.722 785.166 467.481 782.186 C 462.95 779.003 460.856 773.649 460.129 768.332 C 456.909 744.77 480.364 707.302 494.407 689.622 C 520.373 656.93 557.413 638.949 598.481 634.373 z"/>
<path transform="translate(0,0)" fill="rgb(89,87,87)" d="M 595.886 558.429 C 628.576 556.439 690.89 568.601 718.043 588.001 C 722.43 591.135 726.361 595.078 727.055 600.647 C 727.842 606.97 724.989 613.319 721.086 618.144 C 717.375 622.732 713.003 625.804 706.884 625.163 C 698.032 624.236 687.634 617.584 679.44 614.046 C 650.767 601.667 620.137 597.588 589.132 600.397 A 188.164 188.164 0 0 0 462.201 668.429 C 451.912 681.928 442.509 697.453 435.938 713.125 C 430.881 725.184 427.284 737.174 421.105 748.795 C 417.741 751.201 414.451 752.842 410.298 753.394 C 404.219 754.203 398.531 751.873 393.955 747.909 C 389.795 744.306 387.649 739.516 387.418 734.04 C 386.334 708.376 422.681 649.411 439.353 630.851 C 478.992 586.727 537.263 561.82 595.886 558.429 z"/>
<path transform="translate(0,0)" fill="rgb(89,87,87)" d="M 725.412 764.447 C 752.512 755.272 780.117 732.7 809.738 744.854 C 819.678 748.933 829.437 756.653 835.276 765.702 C 841.809 775.827 847.226 794.007 851.858 805.613 C 863.119 833.825 874.334 861.974 886.385 889.858 C 893.704 906.793 900.143 924.131 907.099 941.222 A 7687.45 7687.45 0 0 1 962.58 1079.45 C 988.854 1145.22 1016.37 1210.52 1041.6 1276.7 A 2581.19 2581.19 0 0 0 1065.9 1339.23 C 1074.24 1359.34 1084.48 1380.06 1089.81 1401.16 C 1092.65 1412.38 1091 1423.58 1086.72 1434.16 C 1082.99 1443.39 1076.21 1452.95 1067.66 1458.33 C 1050.36 1469.22 1027.78 1475.9 1008.87 1484 L 842.743 1553.35 C 819.529 1562.35 797.03 1574.38 773.518 1582.41 C 759.748 1587.11 745.784 1587.1 732.66 1580.29 C 723.511 1575.54 714.122 1566.6 709.57 1557.13 C 705.658 1549 702.778 1540.14 699.372 1531.76 A 6091.03 6091.03 0 0 1 672.03 1463.22 L 590.621 1260.63 L 495.102 1027.03 L 470.477 965.499 C 465.177 952.428 458.926 939.147 454.772 925.671 C 450.522 911.888 451.38 897.757 458.31 884.959 C 470.777 861.932 507.171 850.466 530.899 843.036 C 528.535 837.511 526.575 831.932 524.667 826.236 C 525.67 820.509 526.875 814.779 530.206 809.904 C 532.181 807.014 534.548 805.44 537.681 803.935 C 547.461 799.237 558.084 795.758 568.165 791.679 L 623.71 768.705 C 641.96 761.058 671.953 744.643 689.394 741.187 C 693.977 740.889 698.875 740.545 703.317 741.918 C 714.509 745.379 720.393 754.617 725.412 764.447 z"/>
<path transform="translate(0,0)" fill="rgb(254,254,254)" d="M 711.378 800.645 C 728.763 793.522 769.302 773.177 784.866 770.323 A 30.8794 30.8794 0 0 1 800.561 771.493 C 806.518 773.566 811.67 777.569 814.331 783.391 C 818.348 792.177 821.346 801.651 824.967 810.63 L 852.363 877.964 L 962.506 1151.46 L 1023.56 1304.4 C 1036.29 1336.11 1050.88 1367.57 1060.94 1400.27 C 1063.2 1407.61 1065.25 1417.06 1062.27 1424.44 C 1060.72 1428.31 1057.04 1433.02 1053.57 1435.36 C 1040.58 1444.11 1012.9 1453.02 997.404 1459.63 C 944.942 1481.99 892.652 1504.29 839.753 1525.62 C 811.835 1537.03 783.441 1551.7 754.401 1559.69 C 744.484 1556.34 737.2 1553.13 731.947 1543.51 C 723.506 1528.05 717.802 1509.34 711.195 1492.86 C 694.455 1451.11 678.604 1409.03 661.542 1367.41 L 559.436 1113.17 C 534.204 1051.02 506.553 989.436 482.897 926.674 C 480.539 920.419 477.276 911.767 479.483 905.246 C 481.318 899.824 484.352 895.06 488.813 891.421 C 501.326 881.215 544.117 866.73 561.927 858.497 A 623.864 623.864 0 0 0 552.174 830.434 C 568.175 823.361 584.603 817.115 600.713 810.271 A 3900.97 3900.97 0 0 0 695.549 769.074 C 701.116 774.572 707.58 792.731 711.378 800.645 z"/>
<path transform="translate(0,0)" fill="rgb(88,167,76)" d="M 963.293 1298.35 C 969.641 1298.67 975.424 1299.67 981.01 1302.88 C 985.672 1305.56 989.203 1309.52 991.969 1314.09 C 997.316 1322.93 1015.33 1371.69 1017.93 1382.7 C 1019.97 1391.29 1018.47 1399 1013.6 1406.4 C 1010.18 1411.59 1004.89 1414.79 999.449 1417.54 C 964.496 1435.21 923.641 1449.01 887.245 1464.35 L 808.08 1497.12 C 797.14 1501.57 786.285 1507.61 774.72 1510.16 C 768.002 1510.21 761.709 1509.71 756.033 1505.76 C 752.366 1503.21 750.193 1500.04 748.018 1496.21 C 740.289 1482.59 720.98 1434.41 718.726 1419.79 C 717.714 1413.22 719.339 1405.82 723.337 1400.47 C 727.098 1395.43 732.619 1391.69 738.171 1388.88 C 748.098 1383.86 759.001 1379.98 769.3 1375.72 A 3012.78 3012.78 0 0 1 827.487 1351.75 L 901.409 1321.13 C 919.629 1313.52 943.927 1300.58 963.293 1298.35 z"/>
<path transform="translate(0,0)" fill="rgb(88,167,76)" d="M 897.009 1141.14 C 904.001 1140.72 910.204 1140.82 916.637 1144.1 A 34.6453 34.6453 0 0 1 928.812 1154.58 C 937.882 1167.22 949.868 1202.72 955.5 1219.06 C 959.127 1229.59 961.022 1239.7 955.531 1250.1 C 952.643 1255.57 947.099 1259.13 941.735 1261.87 C 917.31 1274.36 889.753 1282.83 864.38 1293.48 L 775.601 1330.3 C 756.381 1338.18 737.503 1346.87 717.48 1352.56 C 710.663 1353.3 704.17 1352.77 698.015 1349.51 C 692.68 1346.68 688.562 1342.44 685.333 1337.39 C 680.348 1329.59 659.521 1278.29 656.429 1267.91 C 654.071 1259.99 654.283 1252.35 658.586 1245.14 C 661.804 1239.75 669.189 1235.42 674.656 1232.52 C 687.494 1225.72 701.385 1220.29 714.783 1214.66 L 792.612 1182.87 L 859.065 1155.25 C 871.404 1150.23 884.108 1144.42 897.009 1141.14 z"/>
<path transform="translate(0,0)" fill="rgb(88,167,76)" d="M 764.707 823.115 C 771.62 822.284 778.528 822.344 785.063 824.983 C 791.447 827.562 796.657 832.119 800.51 837.784 C 807.364 847.858 811 860.937 815.336 872.264 C 820.237 885.067 825.318 897.683 830.675 910.294 C 833.32 916.521 832.909 923.299 830.183 929.458 C 828.283 933.751 825.341 937.754 821.313 940.257 C 805.49 950.092 778.259 958.623 760.229 966.382 C 703.989 990.585 648.017 1014.87 591.075 1037.4 C 584.207 1039.28 578.144 1039.68 571.457 1036.73 C 567.764 1035.11 563.769 1032.53 561.213 1029.37 C 552.016 1018.02 532.016 964.962 526.251 949.215 C 523.702 942.252 523.567 936.761 526.934 929.951 C 529.926 923.901 534.051 919.852 539.89 916.595 C 555.998 907.613 575.364 902.421 592.356 895.035 C 614.13 885.57 636.167 876.72 657.917 867.21 C 693.02 851.86 728.5 835.673 764.707 823.115 z"/>
<path transform="translate(0,0)" fill="rgb(254,254,254)" d="M 757.24 865.243 C 764.357 864.436 771.124 864.156 778.01 866.597 A 32.3315 32.3315 0 0 1 796.842 883.911 A 32.3135 32.3135 0 0 1 797.487 909.514 C 793.539 919.213 786.22 924.605 777.018 928.743 C 770.822 929.491 764.88 929.998 758.749 928.304 A 32.1603 32.1603 0 0 1 738.778 912.437 A 32.5992 32.5992 0 0 1 736.548 886.957 C 740.019 876.359 747.602 870.016 757.24 865.243 z"/>
<path transform="translate(0,0)" fill="rgb(88,167,76)" d="M 832.696 981.076 A 46.2541 46.2541 0 0 1 849.838 983.299 C 858.946 986.358 864.897 993.078 868.942 1001.57 C 873.376 1010.89 876.374 1021.19 880.059 1030.84 C 885.505 1045.09 893.194 1059.97 896.238 1074.91 C 897.046 1078.87 897.688 1083.33 896.157 1087.21 C 894.351 1091.78 890.623 1097.25 886.446 1099.98 C 880.602 1103.79 872.932 1106.44 866.507 1109.3 C 845.365 1118.71 823.858 1127.15 802.443 1135.9 L 653.975 1197.66 C 648.08 1199.2 642.653 1199.37 636.921 1196.99 C 621.299 1190.48 612.124 1157.02 605.869 1141.86 C 600.339 1128.47 586.099 1102.93 592.456 1088.89 C 595.658 1081.81 602.224 1076.73 608.88 1073.09 C 620.305 1066.86 632.992 1062.41 645.078 1057.63 L 698.167 1036.45 L 795.166 996.789 C 807.734 991.675 819.94 985.719 832.696 981.076 z"/>
</svg>