<svg version="1.1" xmlns="http://www.w3.org/2000/svg" style="display: block;" viewBox="0 0 2048 2048" width="1024" height="1024">
<defs>
	<linearGradient id="Gradient1" gradientUnits="userSpaceOnUse" x1="995.124" y1="1475.26" x2="970.171" y2="1319.34">
		<stop class="stop0" offset="0" stop-opacity="1" stop-color="rgb(76,139,192)"/>
		<stop class="stop1" offset="1" stop-opacity="1" stop-color="rgb(100,164,208)"/>
	</linearGradient>
</defs>
<path transform="translate(0,0)" fill="rgb(251,251,251)" d="M 0 0 L 2048 0 L 2048 2048 L 0 2048 L 0 0 z"/>
<path transform="translate(0,0)" fill="rgb(38,46,61)" d="M 389.043 1836.15 C 392.946 1835.81 396.327 1835.52 400.123 1836.8 A 21.5686 21.5686 0 0 1 412.917 1848 A 23.374 23.374 0 0 1 413.291 1867.08 C 410.375 1873.92 405.505 1877.13 398.882 1879.95 C 395.32 1880.19 391.706 1880.36 388.232 1879.36 A 21.8951 21.8951 0 0 1 375.246 1868.98 C 372.392 1863.77 371.844 1857.32 373.638 1851.68 C 376.239 1843.5 381.635 1839.73 389.043 1836.15 z"/>
<path transform="translate(0,0)" fill="rgb(251,251,251)" d="M 392.126 1842.18 C 394.638 1842.36 397.024 1842.61 399.401 1843.5 C 403.178 1844.93 406.398 1847.9 408 1851.62 C 409.79 1855.77 409.462 1860.59 407.561 1864.65 C 405.041 1870.02 401.162 1872.4 395.798 1874.46 C 393.256 1874.26 390.897 1873.93 388.5 1873.01 C 384.355 1871.41 380.91 1867.9 379.294 1863.77 A 15.1902 15.1902 0 0 1 379.699 1851.86 C 382.221 1846.34 386.676 1844.14 392.126 1842.18 z"/>
<path transform="translate(0,0)" fill="rgb(38,46,61)" d="M 259.907 1698.35 C 267.536 1698.56 273.812 1699.76 280.419 1703.83 C 289.021 1709.12 294.633 1717.73 296.799 1727.52 C 299.041 1737.65 297.964 1748.8 292.128 1757.57 C 284.948 1768.36 273.657 1772.76 261.427 1774.93 C 252.904 1774.67 246.006 1773.64 238.792 1768.76 C 230.007 1762.82 224.23 1753.12 222.549 1742.7 A 38.0737 38.0737 0 0 1 229.949 1713.18 C 237.492 1703.55 248.174 1699.72 259.907 1698.35 z"/>
<path transform="translate(0,0)" fill="rgb(251,251,251)" d="M 254.301 1708.09 C 260.129 1707.37 266.323 1707.63 271.762 1710.01 C 278.92 1713.14 284.308 1719.12 287.032 1726.41 C 289.786 1733.78 289.736 1741.91 286.261 1749.03 C 282.148 1757.47 275.189 1761.97 266.616 1765.05 C 260.953 1765.82 255.338 1765.89 249.903 1763.89 A 27.8875 27.8875 0 0 1 233.528 1748.11 C 230.613 1741.05 230.392 1733.02 233.491 1725.98 C 237.624 1716.58 245.129 1711.74 254.301 1708.09 z"/>
<path transform="translate(0,0)" fill="rgb(38,46,61)" d="M 530.503 319.403 C 547.769 316.894 568.296 318.8 585.474 320.987 C 613.187 324.515 670.002 338.195 687.508 362.03 C 694.92 372.12 698.027 385.946 696.054 398.252 A 55.9217 55.9217 0 0 1 673.667 434.356 C 647.893 452.682 631 439.636 606.222 430.866 C 597.523 427.787 587.868 425.969 578.772 424.569 C 522.574 415.917 473.464 433.224 428.448 466.164 A 236.19 236.19 0 0 0 400.376 490.945 C 385.392 506.375 375.665 523.071 352.032 525.618 C 338.748 527.05 326.084 523.593 315.636 515.265 A 50.046 50.046 0 0 1 296.611 480.48 C 294.914 462.56 302.29 448.267 313.39 435.002 C 369.057 368.475 443.806 327.324 530.503 319.403 z"/>
<path transform="translate(0,0)" fill="rgb(185,226,246)" d="M 539.594 330.426 A 242.768 242.768 0 0 1 577.109 331.298 C 601.542 333.571 660.885 346.616 677.174 367.063 C 683.735 375.297 686.407 385.85 685.077 396.255 A 42.6809 42.6809 0 0 1 668.014 424.976 C 646.177 441.045 630.937 427.778 609.934 420.252 C 598.638 416.205 585.846 413.851 573.977 412.292 C 518.022 404.942 463.852 424.083 419.758 457.912 C 410.294 465.327 401.02 473.449 392.69 482.122 C 383.846 491.329 375.712 502.986 364.904 509.94 C 360.537 512.749 354.866 514.257 349.733 514.709 C 339.277 515.631 329.673 512.044 321.801 505.231 C 313.656 498.183 308.454 488.837 307.901 477.98 C 306.904 458.42 322.451 442.298 334.613 428.677 A 294.73 294.73 0 0 1 539.594 330.426 z"/>
<path transform="translate(0,0)" fill="rgb(38,46,61)" d="M 524.529 164.434 A 505.979 505.979 0 0 1 601.436 167.764 C 615.087 169.445 628.994 171.565 642.358 174.836 C 665.088 180.401 712.606 197.169 731.956 208.589 A 47.4492 47.4492 0 0 1 745.647 220.958 C 754.202 232.402 757.341 247.882 754.759 261.858 C 752.143 276.013 743.082 289.2 731.055 297.022 C 722.681 302.468 711.307 305.911 701.286 304.564 C 685.778 302.478 669.598 291.664 654.971 285.757 C 640.887 280.069 625.447 275.793 610.62 272.537 C 518.827 252.381 427.814 277.691 350.042 327.145 C 328.093 340.767 306.825 359.267 288.997 377.907 C 276.356 391.124 265.278 408.055 249.499 417.753 C 244.622 420.75 236.789 422.041 231.063 422.549 C 216.898 423.806 202.755 418.442 192.105 409.223 A 51.9554 51.9554 0 0 1 173.923 372.523 C 173.032 354.737 181.114 340.539 192.657 327.856 C 280.81 231.003 392.028 170.394 524.529 164.434 z"/>
<path transform="translate(0,0)" fill="rgb(185,226,246)" d="M 536.215 175.46 C 560.066 175.12 584.577 176.936 608.173 180.422 C 620.583 182.255 633.124 184.516 645.262 187.689 C 665.553 192.992 725.384 212.201 736.979 228.65 C 743.548 237.971 745.522 250.386 743.131 261.436 C 740.826 272.083 734.828 281.579 725.558 287.481 A 35.0931 35.0931 0 0 1 701.149 292.588 C 687.932 290.477 675.27 281.842 662.948 276.745 C 646.442 269.917 628.349 264.557 610.868 261.009 C 516.185 241.793 419.536 267.083 339.923 319.891 C 319.975 333.993 299.549 350.443 282.601 368.048 C 271.803 379.265 262.265 394.238 249.879 403.532 C 244.275 407.737 236.641 410.165 229.704 410.775 C 218.312 411.778 207.405 407.657 199.001 400.027 C 190.909 392.681 186.279 383.411 185.813 372.441 C 185.185 357.673 192.102 346.123 201.602 335.523 C 291.961 234.702 400.85 182.236 536.215 175.46 z"/>
<path transform="translate(0,0)" fill="rgb(38,46,61)" d="M 1555.94 96.4243 C 1595.57 93.0118 1640.5 100.021 1677.96 112.712 C 1768.15 143.261 1841.34 211.542 1883.05 296.582 C 1923.2 378.427 1928.59 479.006 1899.34 565.087 C 1865.59 664.382 1802.19 726.545 1709.36 772.417 C 1718.47 794.316 1729.7 815.357 1738.8 837.284 C 1762.7 894.888 1782.2 956.633 1793.41 1018.05 C 1802.81 1020.38 1812.33 1024.03 1821.37 1027.53 C 1866.71 1045.1 1905.04 1076.21 1924.65 1121.46 C 1943.52 1165.02 1938.46 1211.97 1921.12 1255.14 C 1894.64 1321.1 1827.71 1383.53 1762.56 1411.06 C 1749.36 1442.49 1735.69 1473.66 1719.87 1503.88 C 1643.25 1650.34 1529.63 1775.96 1383.57 1855.18 C 1199.28 1955.15 992.455 1974.21 791.791 1914.55 C 779.344 1910.84 767.388 1906.37 755.375 1901.48 C 743.096 1903.94 731.303 1905 718.952 1902.3 C 695.325 1897.13 679.665 1882.25 666.85 1862.5 C 643.923 1851.47 620.417 1835.45 599.495 1820.94 C 544.917 1783.09 493.908 1741.96 448.98 1692.75 A 820.096 820.096 0 0 1 243.463 1266.65 A 724.827 724.827 0 0 1 233.578 1115.96 A 741.022 741.022 0 0 1 368.552 716.624 C 389.139 686.926 410.763 657.148 437.58 632.682 C 427.221 625.315 419.151 617.375 414.536 605.209 C 409.171 591.068 410.243 575.286 416.599 561.666 C 432.66 527.253 476.517 497.645 511.236 485.07 C 544.12 473.159 587.069 471.868 619.259 487.019 C 624.969 482.92 631.016 479.162 637.102 475.651 C 672.133 455.437 710.114 438.825 748.044 424.948 A 780.589 780.589 0 0 1 1223.08 404.51 A 358.283 358.283 0 0 1 1309.07 213.987 C 1374.7 139.945 1457.86 102.407 1555.94 96.4243 z"/>
<path transform="translate(0,0)" fill="rgb(52,103,146)" d="M 324.841 961.962 L 325.454 963.969 C 322.552 969.954 318.356 975.233 315.117 981.042 C 306.898 995.782 301.811 1017.13 306.764 1033.6 C 312.491 1052.63 322.785 1071.33 330.833 1089.56 C 347.74 1127.85 364.383 1166.01 382.162 1203.92 L 500.029 1459.79 L 570.001 1611.9 C 584.75 1643.42 600.388 1674.52 614.692 1706.25 L 663.235 1812.58 C 670.62 1828.76 676.66 1846.31 685.521 1861.69 C 693.909 1876.25 705.685 1885.05 720.255 1893 L 719.573 1893.83 C 709.124 1891.81 699.97 1886.3 692.14 1879.24 C 686.889 1874.5 682.463 1869.25 679.174 1862.95 C 673.066 1851.26 668.475 1838.54 662.914 1826.55 L 620.615 1734.82 L 513.166 1502.11 A 12023.9 12023.9 0 0 1 379.537 1211.62 C 355.287 1157.95 329.212 1104.78 308.029 1049.77 C 304.068 1039.48 300.335 1028.05 300.026 1016.94 C 299.439 995.841 311.166 976.981 324.841 961.962 z"/>
<path transform="translate(0,0)" fill="rgb(185,226,246)" d="M 547.999 488.388 A 129.46 129.46 0 0 1 550.964 488.113 C 578.814 485.761 619.144 491.48 640.908 510.633 C 649.198 517.929 654.433 527.912 655.07 539.001 C 655.701 549.984 652.094 562.269 644.401 570.296 C 625.011 590.525 607.691 577.522 586.384 571.377 C 577.608 568.846 568.35 568.037 559.243 568.253 C 537.831 568.76 522.384 575.327 507.592 590.865 C 505.936 593.108 504.433 595.496 502.853 597.798 C 493.741 611.07 485.219 623.563 467.973 626.341 A 39.1055 39.1055 0 0 1 438.688 619.146 C 430.108 612.745 424.748 602.682 423.43 592.131 C 421.349 575.475 429.772 560.443 439.802 547.91 C 465.992 515.186 506.512 493.152 547.999 488.388 z"/>
<path transform="translate(0,0)" fill="rgb(251,251,251)" d="M 1704.2 1019.42 C 1761.3 1015.77 1822.59 1031.19 1867.99 1066.44 C 1898.91 1090.45 1920.2 1123.82 1924.82 1163.09 C 1930.87 1214.55 1908.95 1267.73 1877.33 1307.44 C 1824.15 1374.22 1744.25 1416.71 1661.46 1434.31 C 1644.88 1437.83 1628.35 1439.55 1611.53 1441.46 C 1597.8 1456.2 1585.26 1472.48 1572.32 1487.94 A 1129.83 1129.83 0 0 0 1533.21 1533.47 C 1519.72 1497.07 1505.5 1459.94 1495.08 1422.54 C 1479.39 1412.82 1463.12 1403.34 1449.08 1391.27 C 1417.64 1364.23 1393.96 1329.88 1391.12 1287.49 C 1387.6 1235.08 1413.38 1188.67 1446.91 1150.32 C 1510.98 1077.04 1606.65 1025.83 1704.2 1019.42 z"/>
<path transform="translate(0,0)" fill="rgb(38,46,61)" d="M 1736.06 1059.67 C 1738.05 1060.25 1738.95 1060.57 1740.41 1062.17 C 1744.1 1066.21 1746.93 1072.71 1749.77 1077.48 L 1773.39 1116.96 C 1791.46 1147.01 1811.44 1176.36 1828.47 1206.98 C 1830.49 1210.62 1833.91 1215.94 1833.56 1220.17 C 1827.42 1228.04 1810.72 1234.49 1801.48 1238.45 C 1805.03 1245.65 1814.04 1255.08 1814.09 1263.22 C 1807.4 1268.58 1799.36 1272.39 1791.99 1276.76 A 3134.2 3134.2 0 0 1 1741.6 1306.36 L 1595.59 1392.03 C 1593.47 1393.39 1590.69 1394.25 1588.36 1395.25 C 1580.58 1384.61 1574.2 1372.3 1567.79 1360.8 A 6740.82 6740.82 0 0 1 1534.99 1300.39 C 1525 1281.88 1510.07 1258.12 1502.78 1239.09 C 1514.48 1230.59 1527.46 1223.46 1539.87 1216.01 C 1534.34 1205.42 1527.57 1194.51 1523.8 1183.18 C 1544.45 1169.61 1567.19 1158.04 1588.54 1145.47 A 8351.3 8351.3 0 0 1 1736.06 1059.67 z"/>
<path transform="translate(0,0)" fill="rgb(251,251,251)" d="M 1733.86 1073.84 C 1739.25 1078.61 1764.56 1124.31 1770.37 1133.79 C 1786.81 1160.67 1805.88 1186.99 1820.08 1215.1 C 1812.44 1220.08 1804.85 1224.92 1796.81 1229.26 C 1779.13 1202.07 1763.49 1173.64 1746.93 1145.77 C 1739.85 1133.85 1733.12 1121.22 1724.85 1110.09 C 1707.57 1118.45 1691.05 1129.12 1674.49 1138.83 C 1632.5 1163.05 1590.41 1187.57 1547.84 1210.74 C 1544.22 1203.72 1541.32 1196.17 1538.15 1188.92 C 1560.8 1172.54 1586.64 1159.35 1610.73 1145.19 C 1651.7 1121.11 1692.19 1096.73 1733.86 1073.84 z"/>
<path transform="translate(0,0)" fill="rgb(251,251,251)" d="M 1719.61 1124.91 C 1721.14 1125.28 1721.53 1125.68 1722.54 1126.97 C 1730.28 1136.78 1736.51 1149.96 1742.91 1160.75 C 1761.99 1192.93 1779.8 1226.58 1800.59 1257.63 C 1775.2 1275.59 1747.08 1290.81 1720.01 1306.08 C 1698.6 1318.17 1677.67 1331.18 1656.49 1343.68 C 1636.08 1355.72 1615.03 1367.35 1595.45 1380.7 L 1592.94 1381.98 C 1589.14 1378.82 1521.38 1252.94 1516.39 1241.44 C 1530.69 1232.83 1545.51 1225.17 1560.03 1216.94 L 1636.52 1173.08 C 1664.15 1157.22 1691.24 1139.33 1719.61 1124.91 z"/>
<path transform="translate(0,0)" fill="rgb(38,46,61)" d="M 1614.38 1249.5 C 1615.71 1249.96 1616.37 1250.41 1617.49 1251.23 C 1620.79 1260.49 1627.56 1294.62 1624.73 1303.09 C 1623.26 1301.62 1622.39 1300.5 1621.82 1298.5 C 1619.61 1290.71 1611.41 1254.99 1614.38 1249.5 z"/>
<path transform="translate(0,0)" fill="rgb(38,46,61)" d="M 1704.3 1230.5 L 1706.2 1231.55 C 1706.25 1231.89 1706.33 1232.23 1706.34 1232.57 C 1706.54 1238.91 1694.5 1272 1690.49 1276.81 C 1689.19 1275.83 1688.47 1275.13 1687.44 1273.91 C 1687.11 1265.49 1698.75 1236.97 1704.3 1230.5 z"/>
<path transform="translate(0,0)" fill="rgb(38,46,61)" d="M 1716.46 1153.34 L 1720.05 1154.33 C 1728.59 1167.83 1735.2 1183.14 1743.09 1197.13 C 1753.1 1214.9 1764.88 1232.21 1774.12 1250.33 C 1775.24 1252.54 1775.41 1253.62 1775.29 1256.02 C 1772.43 1254.94 1771.47 1254.73 1769.61 1252.23 C 1759.37 1238.45 1721.76 1173.88 1716.74 1158.6 C 1716.13 1156.75 1716.24 1155.23 1716.46 1153.34 z"/>
<path transform="translate(0,0)" fill="rgb(38,46,61)" d="M 1594.72 1228.06 C 1621.13 1229.9 1647.53 1232.48 1673.92 1234.62 C 1670.93 1251.45 1658.87 1279.63 1652.78 1296.75 C 1650.92 1297.88 1651.09 1297.56 1649.08 1297.25 C 1646.36 1289.51 1662.91 1250.38 1666.02 1240.03 C 1654.46 1238.76 1601.02 1237.59 1595.21 1232.16 C 1593.94 1230.98 1594.6 1229.64 1594.72 1228.06 z"/>
<path transform="translate(0,0)" fill="rgb(251,251,251)" d="M 1549.59 107.416 C 1569.3 104.999 1590.9 107.016 1610.55 109.576 C 1700.97 121.356 1779.79 167.553 1835.12 239.947 A 348.72 348.72 0 0 1 1902.93 500.068 A 330.666 330.666 0 0 1 1774.96 720.249 C 1698.99 778.353 1603.64 801.844 1509.22 789.13 C 1467.69 781.106 1424.14 766.272 1389.76 741.117 C 1376.12 743.75 1361.91 749.597 1348.63 753.806 C 1312.41 765.283 1276.61 778.168 1240.2 788.98 A 5224.56 5224.56 0 0 1 1258.94 701.612 C 1265.39 673.38 1272.72 644.945 1277.55 616.403 C 1253.2 572.699 1237.68 528.305 1232.84 478.334 A 342.087 342.087 0 0 1 1310.93 228.772 C 1372.2 155.119 1454.9 115.886 1549.59 107.416 z"/>
<path transform="translate(0,0)" fill="rgb(38,46,61)" d="M 1446.77 166.958 C 1452.47 163.159 1457.86 158.549 1464.1 155.764 C 1469.4 157.726 1519.49 236.997 1525.35 247.551 C 1559.05 239.319 1589.11 236.973 1622.76 247.183 C 1641.3 216.237 1659.51 184.731 1679.05 154.432 C 1685.44 158.22 1691.79 162.089 1698.34 165.579 C 1682.28 196.484 1660.48 224.568 1644.34 255.386 C 1679.08 273.429 1703.94 299.243 1722.3 333.626 C 1726.51 341.503 1731.04 349.71 1733.8 358.214 C 1735.37 363.078 1736.38 369.293 1733.94 374.064 C 1731.92 378.011 1728.14 380.304 1723.99 381.447 C 1723.69 381.53 1723.38 381.584 1723.08 381.653 C 1721.26 384.41 1721.6 387.234 1721.35 390.498 C 1710.8 389.209 1699.46 389.947 1688.82 389.945 L 1627.76 390.064 A 16367.2 16367.2 0 0 1 1425.03 389.708 C 1426.5 388.811 1428.18 388.702 1429.86 388.375 C 1431.63 386.858 1433.32 385.816 1434.18 383.594 C 1430.41 381.315 1426.23 381.54 1421.94 381.308 C 1417.63 379.749 1413.79 378.057 1411.89 373.573 C 1408.3 365.085 1413.77 353.792 1417.31 346.041 C 1435.56 306.042 1463.46 275.897 1502.67 255.962 C 1491.59 234.376 1476.46 214.221 1463.1 193.975 C 1457.45 185.413 1450.84 176.383 1446.77 166.958 z"/>
<path transform="translate(0,0)" fill="rgb(52,103,146)" d="M 1682.59 165.568 C 1682.81 165.756 1683.07 165.917 1683.27 166.131 C 1684.19 167.111 1685.91 168.631 1685.82 170.064 C 1685.76 171.031 1641.97 247.494 1636.91 253.191 C 1634.54 251.832 1632.52 251.379 1631.5 248.76 C 1637.59 235.741 1646.33 223.297 1653.83 210.989 C 1663.05 195.851 1671.76 179.594 1682.59 165.568 z"/>
<path transform="translate(0,0)" fill="rgb(52,103,146)" d="M 1461.46 164.558 C 1464.1 166.005 1510.56 237.58 1517.48 247.954 C 1516.24 250.479 1514.87 251.02 1512.56 252.563 C 1510.56 251.786 1509.79 250.758 1508.6 249.033 C 1500.49 237.271 1493.43 224.722 1485.47 212.838 C 1476 198.698 1465.69 185.061 1456.71 170.603 C 1457.47 167.444 1459.07 166.685 1461.46 164.558 z"/>
<path transform="translate(0,0)" fill="rgb(112,167,210)" d="M 1421.94 381.308 C 1448.14 380.097 1474.57 380.63 1500.8 380.627 L 1634.91 380.802 C 1649.73 380.816 1713.45 378.994 1723.08 381.653 C 1721.26 384.41 1721.6 387.234 1721.35 390.498 C 1710.8 389.209 1699.46 389.947 1688.82 389.945 L 1627.76 390.064 A 16367.2 16367.2 0 0 1 1425.03 389.708 C 1426.5 388.811 1428.18 388.702 1429.86 388.375 C 1431.63 386.858 1433.32 385.816 1434.18 383.594 C 1430.41 381.315 1426.23 381.54 1421.94 381.308 z"/>
<path transform="translate(0,0)" fill="rgb(112,167,210)" d="M 1556.74 249.364 C 1570.76 246.903 1588.67 248.401 1602.6 250.721 C 1643.51 257.539 1679.32 284.332 1702.87 317.782 C 1710.29 328.328 1728.12 356.922 1725.84 369.708 C 1724.2 371.288 1722.42 371.438 1720.24 371.653 C 1705.94 373.064 1690.49 371.924 1676.11 371.869 L 1589.5 371.512 C 1567.84 371.42 1425.58 372.868 1421.1 370.468 C 1420.04 369.899 1419.42 368.61 1419.19 367.472 C 1417.22 357.67 1440.4 320.616 1446.61 312.468 C 1473.87 276.696 1512.29 255.355 1556.74 249.364 z"/>
<path transform="translate(0,0)" fill="rgb(38,46,61)" d="M 1501.13 290.256 C 1507.44 289.295 1513.26 289.488 1519.22 292.061 A 30.9722 30.9722 0 0 1 1536.07 310.331 C 1538.57 317.514 1538.44 325.564 1535.05 332.448 C 1531.02 340.659 1524.28 344.97 1515.87 347.8 C 1509.77 348.985 1503.8 348.965 1497.88 346.835 C 1490.71 344.257 1484.8 339.045 1481.74 332.021 A 29.6316 29.6316 0 0 1 1481.46 309.023 C 1485.27 299.459 1492.13 294.398 1501.13 290.256 z"/>
<path transform="translate(0,0)" fill="rgb(251,251,251)" d="M 1506.76 298.044 C 1510.77 298.072 1514.32 298.32 1517.96 300.134 A 21.2049 21.2049 0 0 1 1529.08 313.403 C 1530.75 319.176 1530.12 325.305 1527.02 330.48 C 1523.16 336.929 1517.46 339.287 1510.42 340.858 C 1506.61 340.704 1503.11 340.32 1499.6 338.719 A 20.538 20.538 0 0 1 1488.44 326.241 C 1486.65 320.624 1487.45 314.29 1490.39 309.207 C 1494.17 302.685 1499.76 300.04 1506.76 298.044 z"/>
<path transform="translate(0,0)" fill="rgb(38,46,61)" d="M 1631.2 290.151 C 1636.46 289.852 1641.3 289.75 1646.38 291.432 C 1654.52 294.132 1661.42 299.684 1665.16 307.489 C 1668.46 314.373 1669.09 322.385 1666.35 329.568 C 1662.58 339.464 1655 344.552 1645.7 348.468 C 1640.24 349.381 1634.35 349.376 1629.06 347.613 A 28.6511 28.6511 0 0 1 1612.14 332.649 A 29.9994 29.9994 0 0 1 1611.19 308.534 C 1614.93 299.035 1622.09 293.932 1631.2 290.151 z"/>
<path transform="translate(0,0)" fill="rgb(251,251,251)" d="M 1635.27 298.22 C 1639.29 298.208 1643.11 298.409 1646.83 300.085 A 20.9672 20.9672 0 0 1 1658.38 312.903 A 21.1719 21.1719 0 0 1 1656.97 329.054 C 1653.44 335.828 1647.82 338.7 1640.87 341.066 C 1636.69 341.079 1633.17 340.803 1629.36 338.937 C 1623.9 336.256 1619.71 331.864 1617.82 326.015 A 20.5293 20.5293 0 0 1 1619.16 310.09 C 1622.68 303.43 1628.4 300.509 1635.27 298.22 z"/>
<path transform="translate(0,0)" fill="rgb(38,46,61)" d="M 1425.03 389.708 A 16367.2 16367.2 0 0 0 1627.76 390.064 L 1688.82 389.945 C 1699.46 389.947 1710.8 389.209 1721.35 390.498 C 1735.86 392.363 1783.82 387.966 1792.77 394.856 C 1794.55 396.221 1795.13 399.484 1795.42 401.62 C 1797.81 418.858 1795.49 443.466 1795.56 461.578 L 1796.04 520.242 C 1796.12 530.417 1796.86 541.088 1796 551.22 C 1795.65 555.373 1795.12 558.981 1792.38 562.281 C 1789.33 565.945 1784.75 567.587 1780.12 568.02 C 1773.75 568.613 1765.92 568 1761.01 563.416 C 1758.81 561.373 1757.1 558.989 1756.46 556.036 C 1753.88 544.129 1755.71 528.736 1755.77 516.459 L 1756.25 431.916 C 1747.71 431.691 1739.15 431.713 1730.6 431.621 C 1728.9 479.591 1730.71 528.274 1731.01 576.301 C 1731.12 594.281 1734.03 635.998 1728.94 651.184 C 1719.51 655.401 1683.36 652.739 1670.5 652.823 C 1670.55 670.419 1672.32 705.627 1669.62 721.004 C 1668.75 725.965 1666.87 730.709 1663.56 734.565 C 1658.85 740.055 1652.22 742.465 1645.12 742.637 C 1638.2 742.805 1631.45 740.829 1626.43 735.904 C 1622.92 732.454 1620.67 727.986 1619.59 723.206 C 1616.63 710.068 1618.93 668.979 1619.1 653.125 C 1590.06 652.031 1560.76 652.861 1531.69 652.876 C 1531.36 671.701 1534.98 707.872 1531.57 724.122 C 1529.85 732.309 1526.64 735.484 1519.75 739.923 C 1512 740.582 1503.3 741.708 1495.6 740.445 C 1487.62 739.135 1483.84 736.037 1479.09 729.731 C 1476.38 708.026 1478.6 676.051 1478.79 653.184 C 1467.69 653.126 1424.22 656.315 1417.87 651.186 C 1413.07 634.956 1415.79 595.986 1415.7 577.677 A 6084.93 6084.93 0 0 1 1415.62 431.812 C 1406.04 431.503 1396.43 431.775 1386.85 431.895 C 1386.34 459.364 1386.76 486.936 1386.8 514.414 C 1386.81 527.63 1387.93 542.174 1386.1 555.251 C 1385.48 559.664 1384.26 562.791 1380.41 565.328 C 1375.92 568.292 1370.06 569.008 1364.84 567.987 C 1360.34 567.104 1356.18 564.881 1353.6 560.996 C 1351.59 557.969 1351.21 554.835 1350.95 551.289 C 1348.78 521.98 1350.93 491.218 1351 461.802 C 1351.04 446.453 1348.48 416.294 1351.66 402.428 C 1352.33 399.511 1353.53 396.542 1356.02 394.703 C 1367.59 386.147 1415.3 397.193 1423.92 390.647 C 1424.3 390.353 1424.66 390.021 1425.03 389.708 z"/>
<path transform="translate(0,0)" fill="rgb(112,167,210)" d="M 1656.3 653.49 C 1658.94 653.576 1659.94 653.068 1661.97 654.952 C 1661.92 669.479 1664.45 708.568 1662.01 719.839 C 1660.93 724.789 1658.44 729.181 1653.96 731.763 C 1648.15 735.108 1641.77 733.944 1635.6 732.514 C 1634.32 731.585 1633.02 730.637 1631.89 729.529 C 1623.28 721.104 1627.38 668.469 1627.63 653.577 L 1656.3 653.49 z"/>
<path transform="translate(0,0)" fill="rgb(112,167,210)" d="M 1486.15 653.156 L 1524 653.116 C 1523.83 671.962 1526.35 705.761 1523.57 722.704 C 1523.13 725.355 1521.77 727.671 1520.42 729.955 C 1517.04 732.215 1514.63 733.114 1510.56 733.315 C 1504.43 733.617 1493.4 733.758 1489.04 728.895 C 1487.24 726.884 1486.72 725.347 1486.36 722.703 C 1485.2 714.11 1485.99 704.783 1486.06 696.112 L 1486.15 653.156 z"/>
<path transform="translate(0,0)" fill="rgb(112,167,210)" d="M 1380.32 401.5 A 1692.92 1692.92 0 0 1 1415.1 401.419 L 1415.11 422.907 L 1378.15 422.967 C 1376.2 463.426 1377.85 504.708 1377.97 545.25 C 1378.07 550.307 1378.5 553.903 1375.39 558.142 C 1370.91 560.788 1367.67 559.951 1362.89 558.866 C 1360.11 555.281 1359.63 550.109 1359.28 545.716 C 1358.05 530.08 1359.15 513.592 1359.15 497.881 L 1359.02 402.075 C 1366.08 401.585 1373.23 401.632 1380.32 401.5 z"/>
<path transform="translate(0,0)" fill="rgb(112,167,210)" d="M 1730.46 400.876 L 1785.85 401.109 L 1786.13 505.371 C 1786.21 520.68 1787.48 536.56 1786.7 551.8 C 1786.58 554.114 1786.12 555.753 1785.24 557.876 C 1782.42 559.158 1779.31 560.134 1776.2 560.343 C 1772.78 560.574 1769.94 560.202 1767.38 557.69 C 1765.56 555.902 1765.36 553.253 1765.13 550.812 C 1763.81 536.876 1764.86 522.066 1764.91 508.058 L 1765.28 422.924 L 1730.5 422.669 C 1730.39 415.41 1730.46 408.137 1730.46 400.876 z"/>
<path transform="translate(0,0)" fill="rgb(112,167,210)" d="M 1459.2 398.509 A 18135.8 18135.8 0 0 1 1721.14 398.142 L 1721.98 643.943 L 1683.75 644.067 A 23789.1 23789.1 0 0 0 1424.32 645.022 C 1423.56 614.702 1424.67 584.203 1424.51 553.848 C 1424.23 502.245 1423.15 450.493 1424.42 398.902 L 1459.2 398.509 z"/>
<path transform="translate(0,0)" fill="rgb(38,46,61)" d="M 1564.44 442.158 C 1578.1 441.258 1590.55 442.87 1602.66 449.568 A 63.8587 63.8587 0 0 1 1633.1 488.617 C 1637.71 505.231 1634.92 522.168 1626.38 537.023 C 1616.06 554.967 1601.65 563.192 1582.19 568.351 C 1567.9 570.604 1552.52 567.473 1540.14 560.049 A 63.3564 63.3564 0 0 1 1511.6 520.582 C 1507.6 503.947 1510.91 485.307 1520.06 470.89 C 1530.23 454.865 1546.28 446.081 1564.44 442.158 z"/>
<path transform="translate(0,0)" fill="rgb(251,251,251)" d="M 1568.53 449.28 C 1580.37 449.124 1591.09 451.49 1601.39 457.604 A 53.8538 53.8538 0 0 1 1626.44 492.016 A 57.5681 57.5681 0 0 1 1618.54 536.058 C 1608.89 551.043 1595.13 557.405 1578.37 560.966 C 1564.55 561.482 1551.94 559.064 1540.37 551 C 1528.26 542.556 1520.09 528.501 1517.74 514.006 A 55.5121 55.5121 0 0 1 1527.87 472.152 C 1537.89 458.806 1552.34 451.772 1568.53 449.28 z"/>
<path transform="translate(0,0)" fill="rgb(251,251,251)" d="M 996.628 388.463 A 772.605 772.605 0 0 1 1221.92 415.089 C 1219.98 428.103 1220.44 442.187 1220.68 455.329 C 1221.85 518.583 1238.91 563.996 1265.84 619.609 C 1263.27 635.706 1259.18 651.692 1255.72 667.627 C 1249.96 694.133 1244.35 720.697 1238.21 747.116 C 1235.25 759.815 1231.67 772.474 1229.21 785.27 C 1228.19 790.6 1226.78 797.273 1229.99 802.034 C 1230.8 802.344 1231.55 802.916 1232.41 802.966 C 1236 803.176 1374.42 757.114 1387.46 752.96 C 1395.98 758.632 1405.19 763.614 1414.31 768.259 C 1488.03 805.811 1568.29 812.157 1648.42 793.187 C 1665.64 789.111 1682.47 783.357 1699.28 777.886 C 1728.63 838.33 1752.37 898.837 1769.73 963.848 C 1774.23 980.732 1779.07 997.703 1782.2 1014.91 C 1730.21 1005.8 1678.66 1007.4 1627.83 1022.11 C 1539.79 1047.57 1446.55 1113.45 1402.24 1194.55 C 1382 1231.6 1373.28 1276.7 1385.5 1317.78 C 1400.29 1367.46 1441.74 1405.49 1486.35 1429.35 C 1493.24 1453.2 1501.71 1476.77 1509.55 1500.32 C 1514.48 1515.15 1520.41 1539.78 1528.79 1552.47 C 1531.37 1552.14 1532.51 1551.21 1534.29 1549.38 C 1538.81 1544.72 1542.71 1538.96 1546.97 1533.98 L 1590.92 1482.73 C 1599.49 1472.74 1607.81 1461.9 1617.51 1453 L 1618.57 1452.04 C 1662.79 1448.27 1705.8 1434.67 1746.97 1418.59 C 1682.54 1574.14 1579.9 1713.08 1440.06 1808.7 A 756.34 756.34 0 0 1 905.987 1929.03 A 651.357 651.357 0 0 1 822.343 1911.6 C 805.918 1907.06 789.131 1900.22 772.409 1897.29 L 771.072 1897.06 C 783.057 1891.63 794.526 1884.87 806.294 1878.96 A 10222.8 10222.8 0 0 0 911.412 1825.47 L 1187.51 1685.83 L 1336.48 1611.45 C 1353.58 1602.77 1372.25 1595.94 1388.38 1585.55 C 1402.3 1576.59 1412.53 1563.94 1418.56 1548.52 A 87.3604 87.3604 0 0 0 1422.81 1499.76 C 1418.42 1478.28 1405.73 1457.65 1397.04 1437.61 L 1328.34 1281.25 C 1318.76 1262.34 1310.86 1242.06 1302.25 1222.66 L 1253.73 1113.86 L 1116.35 807.667 L 1070.06 706.279 C 1064.11 693.543 1058.85 678.379 1051.09 666.803 C 1042.72 654.325 1029.59 644.164 1015.62 638.752 A 68.9638 68.9638 0 0 0 961.601 640.068 C 948.328 646.029 935.391 653.155 922.354 659.656 L 845.502 697.671 L 560.646 838.478 C 501.703 867.467 442.317 895.454 383.593 924.942 C 364.943 934.308 342.747 942.171 325.581 953.499 A 73.6833 73.6833 0 0 0 296.441 990.335 C 290.819 1005.54 289.274 1022.27 293.989 1037.94 C 302.825 1067.3 318.942 1097.37 331.695 1125.38 L 396.636 1269.05 L 662.679 1847.9 C 644.958 1836.39 626.526 1825.97 608.85 1814.38 A 782.645 782.645 0 0 1 512.151 1740.08 A 809.145 809.145 0 0 1 244.944 1182.49 A 696.48 696.48 0 0 1 258.964 1000.49 A 733.234 733.234 0 0 1 413.486 674.589 C 424.393 661.191 436.339 648.584 447.838 635.689 C 503.528 650.111 501.772 592.42 543.912 581.119 C 579.73 571.513 603.164 598.923 633.682 589.809 C 645.412 586.306 653.95 578.353 659.628 567.66 C 666.543 554.637 668.074 537.945 663.347 523.923 C 657.865 507.66 646.088 499.152 631.587 491.706 C 658.87 478.18 685.125 463.001 713.046 450.686 A 761.361 761.361 0 0 1 996.628 388.463 z"/>
<path transform="translate(0,0)" fill="rgb(112,167,210)" d="M 983.555 644.155 A 108.206 108.206 0 0 1 986.09 643.932 C 1002.53 642.723 1020.4 649.071 1032.77 659.928 C 1040.4 666.615 1046.03 675.843 1050.59 684.823 C 1060.2 703.734 1068.46 723.54 1077.17 742.892 L 1125.98 852.322 A 26781 26781 0 0 1 1243.21 1114.7 L 1353.45 1361.98 C 1371.75 1403.13 1391.22 1443.93 1407.8 1485.81 C 1411.42 1494.96 1414.35 1504.43 1414.95 1514.3 C 1416.05 1532.33 1408.7 1551.2 1396.68 1564.58 C 1390.5 1571.47 1383.02 1576.78 1374.92 1581.19 C 1364.45 1586.91 1353.46 1591.75 1342.83 1597.18 A 3740.68 3740.68 0 0 1 1245.88 1645.6 L 1075.4 1731.42 C 1021.62 1758.74 967.171 1784.89 913.604 1812.6 A 5641.77 5641.77 0 0 1 820.517 1860.73 C 805.513 1868.39 790.617 1876.61 775.236 1883.47 C 765.609 1887.76 757.005 1890.47 746.443 1891.05 C 734.625 1890.28 724.528 1887.87 714.41 1881.59 C 703.082 1874.56 695.47 1865.19 689.338 1853.47 C 682.486 1840.38 676.782 1826.5 670.714 1813.01 A 7015.53 7015.53 0 0 0 636.563 1737.64 L 496.916 1436.17 A 12449.8 12449.8 0 0 1 394.361 1214.09 C 378.752 1179.81 362.726 1145.79 347.7 1111.25 A 1888.28 1888.28 0 0 0 330.349 1072.03 C 324.562 1059.34 316.816 1045.46 313.947 1031.81 C 309.921 1012.66 315.341 993.514 325.784 977.333 C 331.962 967.762 339.301 959.571 349.186 953.769 C 379.373 936.05 417.152 919.756 449.083 903.942 L 665.175 797.686 A 23647.1 23647.1 0 0 1 906.862 678.604 C 930.939 667.144 957.658 649.72 983.555 644.155 z"/>
<path transform="translate(0,0)" fill="rgb(38,46,61)" d="M 987.12 651.219 C 987.543 651.185 987.966 651.143 988.391 651.119 C 1002.32 650.309 1019.49 659.024 1029.5 668.397 C 1036.25 674.724 1040.99 682.492 1045.07 690.725 C 1063.03 726.984 1078.01 764.762 1094.4 801.742 L 1195.35 1027.82 L 1348.98 1372.06 C 1364.58 1407.94 1382.33 1443.32 1396.79 1479.62 C 1401.31 1490.97 1405.17 1501.62 1405.38 1513.99 C 1405.67 1531.07 1399.38 1548.63 1387.18 1560.82 C 1374.9 1573.09 1305.2 1603.35 1284.69 1613.7 L 928.385 1792.3 L 829.498 1842.7 C 811.103 1852.22 792.757 1862.7 773.945 1871.3 C 763.857 1875.92 754.863 1877.69 743.761 1877.7 C 734.576 1876.88 726.059 1874.71 718.182 1869.81 C 708.209 1863.62 702.702 1854.16 697.625 1843.93 C 688.666 1825.89 681.041 1806.94 672.827 1788.53 L 629.235 1692.92 L 433.892 1271.53 L 370.537 1136.6 C 363.3 1120.79 356.808 1104.64 349.759 1088.75 C 342.463 1072.29 327.619 1044.83 324.105 1028.11 C 320.587 1011.37 325.571 992.147 335.22 978.165 C 340.318 970.777 346.864 964.3 354.67 959.822 C 370.173 950.93 386.775 943.524 402.831 935.681 L 472.961 901.064 L 681.429 797.947 L 871.654 704.009 L 933.921 673.352 C 950.67 665.219 968.75 654.645 987.12 651.219 z"/>
<path transform="translate(0,0)" fill="rgb(171,170,169)" d="M 1068.73 771.964 C 1068.92 771.986 1069.12 771.95 1069.29 772.029 C 1074.33 774.324 1082.07 796.235 1084.6 802.05 C 1056.09 818.649 1024.87 831.675 995.304 846.414 L 775.103 954.796 L 506.687 1087.14 C 466.687 1106.67 427.372 1128.96 386.312 1146.09 C 381.235 1141.33 373.985 1121.27 370.718 1114.01 C 392.753 1101.13 417.462 1091.78 440.306 1080.29 L 628.527 986.335 A 16576.4 16576.4 0 0 1 988.574 810.879 C 1015.41 798.121 1041.71 784.374 1068.73 771.964 z"/>
<path transform="translate(0,0)" fill="rgb(251,251,251)" d="M 987.187 661.203 C 992.691 661.097 998.626 662.103 1003.87 663.783 A 49.8224 49.8224 0 0 1 1027.48 680.259 C 1042.05 698.391 1055.12 738.689 1066.39 761.362 A 27781.7 27781.7 0 0 0 549.851 1012.86 C 499.386 1037.87 449.538 1064.1 398.737 1088.44 C 388.007 1093.69 377.681 1099.72 366.881 1104.84 C 358.244 1083.14 339.137 1048.99 334.499 1028.74 C 331.072 1013.77 334.946 996.857 343.355 984.097 C 349.795 974.325 359.783 968.333 369.811 962.832 C 391.257 951.069 413.782 940.884 435.79 930.199 L 545.047 876.935 L 829.028 736.563 L 922.337 690.339 C 942.809 680.193 964.843 665.916 987.187 661.203 z"/>
<path transform="translate(0,0)" fill="rgb(38,46,61)" d="M 926.775 726.203 C 933.917 725.506 940.527 725.792 947.156 728.857 C 954.628 732.311 960.172 738.666 962.924 746.389 A 31.8724 31.8724 0 0 1 961.586 771.429 C 956.499 781.79 947.991 787.046 937.547 790.805 C 929.409 791.415 922.576 791.489 915.124 787.486 A 31.3184 31.3184 0 0 1 899.778 768.197 C 897.33 759.193 899.038 749.104 904.017 741.246 C 909.473 732.635 917.045 728.345 926.775 726.203 z"/>
<path transform="translate(0,0)" fill="rgb(112,167,210)" d="M 926.078 736.052 C 930.002 735.92 933.925 735.701 937.711 736.946 C 943.496 738.848 948.513 742.907 951.21 748.406 A 22.2194 22.2194 0 0 1 952.096 765.597 C 949.212 773.6 943.334 777.468 935.941 780.904 C 932.21 781.113 928.209 781.53 924.586 780.421 C 918.868 778.672 914 774.326 911.486 768.923 A 23.4854 23.4854 0 0 1 911.178 750.064 C 914.13 743.01 919.272 739.027 926.078 736.052 z"/>
<path transform="translate(0,0)" fill="rgb(38,46,61)" d="M 822.771 775.146 C 830.122 774.312 836.02 774.602 842.869 777.703 A 33.1578 33.1578 0 0 1 860.29 796.284 A 33.4375 33.4375 0 0 1 858.766 823.057 C 853.294 833.644 843.98 838.662 833.154 842.25 C 826.067 843.188 819.089 842.328 812.623 839.141 A 32.5968 32.5968 0 0 1 796.187 819.885 A 35.1788 35.1788 0 0 1 798.473 792.513 C 803.837 782.482 812.265 778.074 822.771 775.146 z"/>
<path transform="translate(0,0)" fill="rgb(112,167,210)" d="M 826.648 785.169 C 830.955 785.129 835.542 786.08 839.33 788.168 A 22.3654 22.3654 0 0 1 850.129 802.038 A 24.1031 24.1031 0 0 1 847.25 821.295 C 843.005 827.916 837.432 830.396 830.007 832.087 C 825.883 832.008 821.677 831.246 817.935 829.454 C 812.389 826.796 807.965 822.206 805.97 816.342 A 22.237 22.237 0 0 1 807.211 799.124 C 811.414 791.01 818.226 787.595 826.648 785.169 z"/>
<path transform="translate(0,0)" fill="rgb(38,46,61)" d="M 724.085 825.232 C 730.72 824.931 737.049 826.405 742.878 829.643 C 750.561 833.91 755.98 841.268 758.293 849.694 C 760.8 858.822 759.771 869.028 754.755 877.135 C 748.758 886.827 739.798 890.627 729.16 892.96 C 720.494 892.953 713.522 892.567 705.924 887.663 A 33.4079 33.4079 0 0 1 691.566 866.371 C 689.791 857.811 691.293 848.718 696.186 841.422 C 702.644 831.793 713.069 827.266 724.085 825.232 z"/>
<path transform="translate(0,0)" fill="rgb(112,167,210)" d="M 724.7 836.309 C 728.383 836.193 732.613 836.546 735.992 838.098 C 741.479 840.617 745.42 845.387 747.155 851.128 A 25.3733 25.3733 0 0 1 745.094 870.648 C 740.912 878.129 734.846 881.145 726.875 883.393 C 721.986 883.089 717.49 881.914 713.314 879.266 A 23.4698 23.4698 0 0 1 702.803 864.495 A 22.6067 22.6067 0 0 1 706.039 847.1 C 710.563 840.326 716.954 837.687 724.7 836.309 z"/>
<path transform="translate(0,0)" fill="rgb(251,251,251)" d="M 1086.63 812.916 L 1088.17 813.054 C 1095.95 819.937 1233.28 1137.25 1252.51 1180.9 L 1370.09 1444.27 A 835.526 835.526 0 0 1 1316.22 1477.33 C 1303.98 1484.26 1291.3 1490.72 1279.52 1498.39 C 1312.06 1490.22 1343.99 1472.61 1373.88 1457.67 C 1377.86 1464.57 1381.31 1471.82 1384.89 1478.93 C 1344.39 1497.78 1302.66 1521.82 1263.08 1543.06 A 4736.43 4736.43 0 0 0 1186.83 1584.82 C 1168.57 1594.95 1150.04 1604.76 1132.57 1616.22 C 1155.42 1610.05 1178.02 1597.63 1199.29 1587.4 A 3299.01 3299.01 0 0 0 1311.77 1531.3 C 1338.03 1517.74 1364.35 1502.56 1391.74 1491.53 C 1395.42 1504.69 1397.07 1518.05 1392.83 1531.34 C 1390.24 1539.46 1384.4 1550.81 1377.37 1555.87 C 1361.69 1567.16 1341.2 1574.99 1323.75 1583.4 A 4278.79 4278.79 0 0 0 1244.06 1622.9 A 23549.8 23549.8 0 0 0 869.467 1811.5 C 836.636 1827.57 804.627 1845.66 771.673 1861.37 C 758.208 1867.79 744.059 1869.66 729.812 1864.28 C 722.359 1861.47 715.815 1855.87 711.645 1849.1 C 700.756 1831.43 688.199 1799.24 679.308 1779.36 L 626.282 1663.82 L 420.532 1220.2 C 437.338 1209.94 455.04 1200.11 470.207 1187.47 A 732.893 732.893 0 0 1 416.359 1211.12 C 413.752 1205.5 410.843 1200.03 407.982 1194.53 C 423.158 1186.1 438.863 1178.54 454.149 1170.28 A 1823.25 1823.25 0 0 0 548.793 1115.72 L 548.42 1115.01 C 529.213 1124.19 509.517 1132.36 490.161 1141.24 A 4606.43 4606.43 0 0 0 402.897 1183.03 A 1802.2 1802.2 0 0 1 390.713 1156.32 C 419.14 1144.13 446.159 1128.8 473.9 1115.15 A 19887.3 19887.3 0 0 0 667.898 1019.1 L 908.44 900.658 A 7049.66 7049.66 0 0 0 1086.63 812.916 z"/>
<path transform="translate(0,0)" fill="rgb(38,46,61)" d="M 810.032 1038.8 C 811.72 1039.34 813.214 1039.98 814.483 1041.27 C 818.836 1045.7 822.482 1052.62 826.087 1057.76 A 1541.83 1541.83 0 0 1 849.53 1091.52 C 856.437 1101.88 862.949 1113.28 871.519 1122.34 C 884.565 1121.89 896.991 1122.67 909.778 1125.32 C 921.393 1110.79 948.408 1064.89 959.609 1056.25 C 968.248 1054.43 1029.57 1082.09 1039.95 1087.63 C 1033.75 1116.66 1036.98 1147.15 1031.55 1176.04 A 437.496 437.496 0 0 0 1044.67 1191.27 A 2227 2227 0 0 0 1120.88 1172.18 C 1137.33 1202.01 1150.64 1234.01 1168.13 1263.13 C 1159.15 1271.17 1147.71 1277.39 1137.74 1284.24 C 1124.48 1293.33 1111.62 1303.15 1098.99 1313.1 C 1100.21 1323.49 1101.05 1333.86 1103.72 1344 C 1122.42 1360.7 1153.76 1373.56 1170.98 1390.29 C 1171.25 1395.83 1135.73 1476.15 1130.37 1487.94 C 1106.24 1481.9 1082.25 1470.47 1059.08 1461.27 C 1047.82 1477.16 1035.94 1491.97 1023.21 1506.7 C 1027.71 1517.44 1031.17 1528.84 1035.02 1539.84 C 1040.28 1554.86 1045.93 1569.85 1050.28 1585.16 C 1039.21 1593.12 1025.27 1598.53 1013.07 1604.57 A 1181.46 1181.46 0 0 0 960.467 1631.95 C 958.238 1629.84 956.169 1627.58 954.06 1625.35 C 934.781 1599.46 914.441 1574.29 894.547 1548.87 C 885.098 1546.72 875.349 1545.97 865.725 1544.93 C 858.971 1554.03 853.204 1564.32 847.17 1573.93 C 837.444 1589.43 827.46 1604.86 818.573 1620.86 C 795.301 1615.13 755.827 1595.44 733.925 1583.44 C 737.622 1558.45 743.018 1533.73 746.627 1508.71 C 736.116 1500.24 726.495 1490.78 716.896 1481.31 C 691.241 1488.06 666.189 1498.32 640.438 1504.29 C 632.979 1493.57 627.477 1480.85 621.57 1469.17 A 4724.77 4724.77 0 0 0 592.048 1411.1 C 611.189 1390.71 637.231 1373.01 658.814 1354.88 L 658.407 1331.77 C 633.928 1313.54 608.808 1296.04 584.572 1277.52 C 590.574 1261.66 600.054 1245.93 607.637 1230.67 C 615.487 1214.88 622.506 1193.98 633.391 1180.54 C 638.608 1178.27 694.068 1197.08 705.713 1199.61 C 717.118 1188.56 728.685 1177.62 739.649 1166.12 C 734.33 1148.98 719.355 1101.69 718.172 1085.95 C 723.378 1080.17 796.341 1045.82 810.032 1038.8 z"/>
<path transform="translate(0,0)" fill="rgb(112,167,210)" d="M 807.485 1051.96 C 815.169 1060.11 821.116 1071.24 827.363 1080.56 C 839.71 1098.97 852.171 1117.48 865.338 1135.32 C 882.459 1134.6 899.094 1134.37 916.028 1137.33 C 932.738 1114.49 948.636 1091.52 964.031 1067.79 C 984.819 1076.83 1006.37 1084.28 1027.27 1093.15 C 1025.62 1122 1021.07 1150.65 1019.72 1179.59 C 1026.45 1187.96 1034.67 1196.53 1042.91 1203.43 C 1066.78 1197.47 1090.88 1190.95 1115.03 1186.32 C 1128.91 1208.07 1141.27 1236.95 1152.43 1260.6 C 1130.44 1274.97 1109.01 1290.66 1087.83 1306.22 C 1087.82 1320.71 1089.53 1335.58 1091.18 1349.97 C 1112.46 1366.23 1136.37 1378.74 1157.61 1394.88 C 1146.08 1421 1135.48 1447.42 1124.47 1473.75 C 1100.67 1465.31 1077.36 1455.53 1053.52 1447.19 C 1040.85 1466.79 1027.62 1485.59 1011.25 1502.31 C 1015.9 1527.97 1027.44 1554.18 1036.31 1578.73 C 1011.42 1590.52 987.449 1604.12 962.405 1615.66 L 951.296 1601.51 C 934.828 1579.75 917.438 1556.22 898.764 1536.39 C 885.631 1536.6 872.648 1534.91 859.661 1533.18 C 840.981 1554.88 828.293 1583.32 812.642 1607.34 C 790.303 1599.22 768.519 1587.07 747.4 1576.21 C 751.528 1551.27 757.284 1526.54 762.633 1501.83 C 749.347 1489.68 734.022 1479.79 720.65 1467.46 C 699.021 1476 668.614 1483.18 645.56 1489.98 C 631.54 1465.18 620.16 1438.82 606.391 1413.81 C 626.919 1394.6 650.441 1378.31 671.353 1359.42 C 670.94 1347.73 669.854 1336.01 668.984 1324.34 C 645.927 1307.16 621.644 1291.35 599.093 1273.53 C 613.43 1247.04 625.52 1219.3 638.14 1191.97 A 1074.48 1074.48 0 0 0 677.301 1204.7 C 687.942 1207.9 699.792 1210.42 709.755 1215.26 C 724.138 1201.88 739.157 1187.13 751.898 1172.2 A 3889.76 3889.76 0 0 0 731.377 1092.16 C 755.357 1077.02 782.498 1065.5 807.485 1051.96 z"/>
<path transform="translate(0,0)" fill="rgb(38,46,61)" d="M 1042.2 1303.95 L 1041.9 1300.81 L 1042.7 1300.37 C 1057.16 1328.14 1057.22 1370.58 1047.84 1399.91 A 130.933 130.933 0 0 1 981.593 1476.66 A 186.446 186.446 0 0 1 899.282 1496.11 L 898.824 1495.68 C 900.997 1493.85 905.567 1493.68 908.462 1493.21 C 919.751 1491.4 930.68 1487.68 941.443 1483.9 C 974.989 1473.27 1006.66 1449.08 1025.82 1419.61 C 1048.76 1384.32 1050.64 1344.26 1042.2 1303.95 z"/>
<path transform="translate(0,0)" fill="rgb(251,251,251)" d="M 886.603 1492.06 C 854.232 1492.78 829.123 1489.2 800.551 1473.1 C 763.941 1452.48 739.074 1420.34 727.892 1379.69 A 160.739 160.739 0 0 1 743.177 1257.27 C 764.364 1220.42 796.696 1194.88 837.871 1183.83 C 880.508 1172.39 922.74 1178.16 960.968 1200.19 C 997.648 1221.33 1022.53 1254.63 1034.35 1295.09 C 1036.81 1303.52 1037.09 1312.32 1039.42 1320.56 L 1039.77 1321.75 C 1041.34 1315.89 1038.79 1309.4 1042.2 1303.95 C 1050.64 1344.26 1048.76 1384.32 1025.82 1419.61 C 1006.66 1449.08 974.989 1473.27 941.443 1483.9 C 930.68 1487.68 919.751 1491.4 908.462 1493.21 C 905.567 1493.68 900.997 1493.85 898.824 1495.68 L 899.282 1496.11 C 895.823 1497.89 888.447 1497.49 884.598 1496.92 C 882.374 1496.59 881.609 1496.71 880.181 1494.88 C 882.202 1492.91 883.909 1492.79 886.603 1492.06 z"/>
<path transform="translate(0,0)" fill="rgb(52,103,146)" d="M 886.603 1492.06 C 901.844 1491.19 916.237 1487.07 930.734 1482.64 L 930.801 1484.14 C 928.699 1484.87 926.606 1485.57 924.582 1486.49 C 930.135 1487.27 935.216 1483.22 941.443 1483.9 C 930.68 1487.68 919.751 1491.4 908.462 1493.21 C 905.567 1493.68 900.997 1493.85 898.824 1495.68 L 899.282 1496.11 C 895.823 1497.89 888.447 1497.49 884.598 1496.92 C 882.374 1496.59 881.609 1496.71 880.181 1494.88 C 882.202 1492.91 883.909 1492.79 886.603 1492.06 z"/>
<path transform="translate(0,0)" fill="url(#Gradient1)" d="M 1042.2 1303.95 C 1050.64 1344.26 1048.76 1384.32 1025.82 1419.61 C 1006.66 1449.08 974.989 1473.27 941.443 1483.9 C 935.216 1483.22 930.135 1487.27 924.582 1486.49 C 926.606 1485.57 928.699 1484.87 930.801 1484.14 L 930.734 1482.64 C 936.255 1479.28 942.545 1476.66 948.22 1473.46 C 965.409 1463.77 981.964 1451.94 995.694 1437.7 C 1027.9 1404.3 1040.46 1367.41 1039.77 1321.75 C 1041.34 1315.89 1038.79 1309.4 1042.2 1303.95 z"/>
<path transform="translate(0,0)" fill="rgb(38,46,61)" d="M 875.539 1212.31 C 898.651 1209.06 923.981 1215.77 944.206 1226.83 C 974.43 1243.36 996.992 1272.94 1006.6 1305.85 C 1014.33 1332.32 1013.26 1359.19 999.914 1383.62 C 1004.92 1349.11 1001.65 1313.79 983.724 1283.28 C 967.931 1256.39 942.783 1236.47 912.338 1228.94 C 883.413 1221.78 854.753 1228.03 829.566 1243.5 C 799.169 1262.17 778.134 1290.25 769.73 1324.76 C 768.976 1330.16 768.511 1335.74 768.4 1341.19 C 767.77 1372.15 778.681 1400.5 800.171 1422.86 C 831.03 1454.96 868.161 1458.82 910.268 1459.44 C 903.037 1462.78 896.041 1465.25 888.155 1466.56 C 859.652 1471.27 829.025 1462.25 805.837 1445.58 C 779.426 1426.59 762.157 1396.64 757.044 1364.67 A 124.952 124.952 0 0 1 779.407 1270.25 C 803.497 1237.32 835.575 1218.71 875.539 1212.31 z"/>
<path transform="translate(0,0)" fill="rgb(38,46,61)" d="M 863.389 1241.29 C 884.592 1239.59 908.352 1245.34 925.897 1257.51 C 951.729 1275.43 971.844 1304.09 977.148 1335.26 C 981.105 1358.52 976.997 1382.57 963.173 1401.97 C 948.709 1422.27 928.372 1434.62 903.953 1438.71 C 876.232 1442.44 849.723 1438.3 826.419 1422.07 C 805.284 1407.35 791.615 1384.65 787.374 1359.32 C 782.637 1331.02 788.747 1298.32 805.712 1274.86 C 819.678 1255.55 840.154 1244.95 863.389 1241.29 z"/>
<path transform="translate(0,0)" fill="rgb(251,251,251)" d="M 860.653 1254.25 A 90.072 90.072 0 0 1 919.376 1268.52 C 943.162 1284.16 959.286 1309.92 964.659 1337.7 C 968.669 1358.43 965.641 1379.73 953.582 1397.33 C 941.729 1414.63 925.002 1422.92 904.838 1426.82 C 879.868 1429.19 856.454 1425.75 835.329 1411.43 A 82.0162 82.0162 0 0 1 800.259 1357.53 C 795.766 1333.29 798.853 1304.7 813.272 1284.12 C 824.724 1267.78 841.079 1257.66 860.653 1254.25 z"/>
</svg>