<svg version="1.1" xmlns="http://www.w3.org/2000/svg" style="display: block;" viewBox="0 0 2048 2048" width="1024" height="1024">
<defs>
	<linearGradient id="Gradient1" gradientUnits="userSpaceOnUse" x1="379.514" y1="1348.44" x2="1117.38" y2="975.976">
		<stop class="stop0" offset="0" stop-opacity="1" stop-color="rgb(215,214,214)"/>
		<stop class="stop1" offset="1" stop-opacity="1" stop-color="rgb(255,255,255)"/>
	</linearGradient>
</defs>
<path transform="translate(0,0)" fill="rgb(254,254,254)" d="M 0 0 L 2048 0 L 2048 2048 L 0 2048 L 0 0 z"/>
<path transform="translate(0,0)" fill="rgb(20,34,64)" d="M 1071.87 723.639 C 1070.43 721.956 1069.14 720.176 1067.82 718.394 C 1068.61 716.415 1068.12 716.928 1069.52 715.7 C 1074.47 711.343 1082.16 699.807 1088.33 699.146 L 1091.7 702.066 C 1085.36 709.529 1078.94 716.852 1071.87 723.639 z"/>
<path transform="translate(0,0)" fill="rgb(20,34,64)" d="M 1091.7 702.066 L 1096.8 707.336 C 1093.56 713.637 1082.31 725.591 1076.05 728.723 C 1074.62 727.049 1073.19 725.404 1071.87 723.639 C 1078.94 716.852 1085.36 709.529 1091.7 702.066 z"/>
<path transform="translate(0,0)" fill="rgb(20,34,64)" d="M 862.256 172.777 C 872.678 172.687 883.343 172.132 893.716 173.199 C 895.446 175.134 894.82 180.268 894.863 182.995 L 862.576 183.189 L 862.256 172.777 z"/>
<path transform="translate(0,0)" fill="rgb(20,34,64)" d="M 483.934 433.986 C 487.389 435.062 491.454 434.857 495.058 435.006 L 494.624 465 C 490.827 465.117 487.376 465.31 483.673 464.36 C 481.983 454.852 483.404 443.658 483.934 433.986 z"/>
<path transform="translate(0,0)" fill="rgb(20,34,64)" d="M 570.827 171.375 L 573.716 171.49 C 575.924 174.397 575.765 179.032 576.117 182.577 C 566.883 183.029 558.093 185.54 549.314 188.26 L 548.809 188.439 L 547.481 187.788 L 544.255 176.915 C 553.055 174.079 561.655 172.433 570.827 171.375 z"/>
<path transform="translate(0,0)" fill="rgb(20,34,64)" d="M 702.864 171.738 C 713.459 171.738 724.184 171.389 734.744 172.327 C 736.452 174.12 735.773 179.965 735.793 182.633 C 725.493 182.992 713.993 183.924 703.828 182.42 C 702.403 179.355 702.874 175.108 702.864 171.738 z"/>
<path transform="translate(0,0)" fill="rgb(20,34,64)" d="M 483.77 280.998 C 487.353 280.919 491.121 280.53 494.555 281.68 C 496.118 291.776 495.066 303.015 494.973 313.254 C 491.699 313.36 487.209 313.983 484.312 312.331 C 482.87 302.21 483.727 291.235 483.77 280.998 z"/>
<path transform="translate(0,0)" fill="rgb(20,34,64)" d="M 1074.72 172.448 A 1982.54 1982.54 0 0 1 1107.52 172.759 L 1107.54 183.284 C 1098.41 183.308 1087.76 185.234 1078.89 183.271 C 1076.13 182.66 1075.2 182.14 1073.64 179.825 C 1073.6 176.988 1073.84 175.146 1074.72 172.448 z"/>
<path transform="translate(0,0)" fill="rgb(20,34,64)" d="M 809.279 172.202 C 819.102 172.373 832.575 169.306 841.356 173.716 C 843.367 177.086 842.967 179.301 843.063 183.177 C 832.115 183.186 821.143 183.363 810.211 182.701 C 808.391 180.805 809.268 174.97 809.279 172.202 z"/>
<path transform="translate(0,0)" fill="rgb(20,34,64)" d="M 756.59 172.032 C 766.991 172.045 777.928 171.355 788.236 172.731 C 789.69 175.944 789.171 179.917 789.091 183.397 L 756.427 183.48 L 756.59 172.032 z"/>
<path transform="translate(0,0)" fill="rgb(20,34,64)" d="M 1021.12 172.25 C 1030.13 172.356 1044.65 169.212 1052.22 174.095 C 1054.11 177.031 1053.36 180.219 1053.08 183.53 C 1042.74 183.642 1032.21 184.165 1021.91 183.28 C 1020.26 180.363 1021.04 175.544 1021.12 172.25 z"/>
<path transform="translate(0,0)" fill="rgb(20,34,64)" d="M 1182.16 172.416 C 1191.85 172.443 1205.3 169.194 1213.89 173.84 C 1215.57 177.134 1214.93 179.414 1214.71 183.062 C 1204.28 183.545 1193.12 184.464 1182.75 183.328 C 1181.29 180.319 1182.05 175.719 1182.16 172.416 z"/>
<path transform="translate(0,0)" fill="rgb(20,34,64)" d="M 490.825 228.368 C 494.512 229.556 497.786 231.51 501.16 233.376 C 498.228 242.552 496.819 251.73 495.452 261.246 C 491.804 261.229 487.472 261.803 484.144 260.273 C 483.193 251.005 486.777 236.653 490.825 228.368 z"/>
<path transform="translate(0,0)" fill="rgb(20,34,64)" d="M 483.729 332.187 C 487.528 332.215 490.316 331.711 493.666 333.719 C 498.052 341.798 495.21 355.577 495.182 364.746 L 483.874 364.851 L 483.729 332.187 z"/>
<path transform="translate(0,0)" fill="rgb(20,34,64)" d="M 483.205 383.334 L 495.164 383.34 L 495.089 415.186 C 491.46 415.193 487.287 415.804 484.007 414.19 C 482.599 404.164 483.261 393.462 483.205 383.334 z"/>
<path transform="translate(0,0)" fill="rgb(20,34,64)" d="M 596.346 171.731 C 606.8 171.445 618.213 170.673 628.56 172.094 C 629.768 175.406 629.224 179.441 629.184 182.958 L 596.073 183.003 L 596.346 171.731 z"/>
<path transform="translate(0,0)" fill="rgb(20,34,64)" d="M 648.995 172.003 C 659.822 171.951 671.087 171.245 681.846 172.459 C 683.387 175.539 682.922 179.864 682.949 183.291 C 671.884 183.284 660.755 183.527 649.709 182.828 C 648.273 180.358 649.013 174.976 648.995 172.003 z"/>
<path transform="translate(0,0)" fill="rgb(20,34,64)" d="M 914.953 172.449 C 926.156 172.036 937.457 172.228 948.672 172.157 C 948.73 175.668 949.397 180.247 947.754 183.419 C 941.416 183.446 935.165 183.955 928.846 184.131 C 924.123 184.263 918.928 184.223 915.304 180.807 C 914.146 177.835 914.571 175.509 914.953 172.449 z"/>
<path transform="translate(0,0)" fill="rgb(20,34,64)" d="M 967.243 172.493 C 978.191 172.398 989.285 171.931 1000.21 172.703 C 1001.73 175.635 1001.06 180.253 1001.01 183.516 C 989.733 183.806 978.422 183.755 967.14 183.87 L 967.243 172.493 z"/>
<path transform="translate(0,0)" fill="rgb(20,34,64)" d="M 524.066 186.954 C 526.719 189.547 528.846 193.905 530.898 197.061 C 522.682 202.596 516.758 209.462 510.287 216.868 L 504.195 213.31 C 502.858 211.026 502.246 210.2 502.877 207.419 C 504.603 199.81 518.054 191.641 524.066 186.954 z"/>
<path transform="translate(0,0)" fill="rgb(20,34,64)" d="M 1157.12 172.484 C 1158.19 172.512 1159.16 172.803 1160.2 173.046 C 1160.77 174.003 1160.89 174.119 1161.28 175.314 C 1162.14 177.996 1161.63 180.234 1160.43 182.703 C 1155.12 185.929 1138.57 183.986 1131.75 184.022 C 1129.32 183.882 1128.99 184.367 1127.19 182.57 C 1126.91 179.876 1126.83 177.676 1127.17 174.962 C 1132.27 170.31 1150.31 172.457 1157.12 172.484 z"/>
<path transform="translate(0,0)" fill="rgb(20,34,64)" d="M 1194.07 599.717 C 1197.38 601.35 1200.52 605.795 1203.07 608.545 C 1195.85 615.85 1188.2 622.774 1180.65 629.727 C 1177.68 626.137 1174.24 622.852 1171 619.497 L 1194.07 599.717 z"/>
<path transform="translate(0,0)" fill="rgb(20,34,64)" d="M 1159.31 630.956 C 1162.41 634.513 1165.09 638.329 1167.84 642.162 C 1160.51 649.831 1151.09 656.562 1142.96 663.516 L 1134.6 653.649 C 1143.07 646.289 1151.3 638.812 1159.31 630.956 z"/>
<path transform="translate(0,0)" fill="rgb(20,34,64)" d="M 1122.58 664.04 C 1125.69 667.377 1128.14 671.883 1130.69 675.697 L 1106.05 698.079 C 1104.11 693.089 1100.96 690.153 1097.29 686.43 C 1106.41 679.889 1114.26 671.564 1122.58 664.04 z"/>
<path transform="translate(0,0)" fill="rgb(20,34,64)" d="M 1254.77 469.329 C 1272.2 467.736 1288.45 470.711 1303.41 480.179 A 70.8369 70.8369 0 0 1 1334.67 524.561 A 71.1625 71.1625 0 0 1 1324.82 579.424 C 1313.08 597.691 1296.72 607.104 1275.91 611.756 A 72.6357 72.6357 0 0 1 1222.63 600.503 C 1206.5 589.572 1196.38 571.859 1193.03 552.85 C 1189.57 533.238 1194.66 513.839 1206.25 497.787 C 1218.19 481.251 1234.91 472.489 1254.77 469.329 z"/>
<path transform="translate(0,0)" fill="rgb(98,121,154)" d="M 1257.37 478.274 C 1272.13 476.088 1287.41 480.279 1299.51 488.824 A 64.6133 64.6133 0 0 1 1326.32 532.042 C 1328.72 548.086 1323.94 565.266 1314.35 578.238 C 1303.85 592.425 1288.3 599.343 1271.25 601.624 C 1256.26 603.916 1240.16 600.592 1227.69 591.931 C 1214.12 582.501 1205.73 567.039 1202.97 550.927 C 1200.15 534.413 1205.13 516.505 1214.82 502.996 C 1225.31 488.359 1240.01 481.259 1257.37 478.274 z"/>
<path transform="translate(0,0)" fill="rgb(20,34,64)" d="M 1231.85 309.626 C 1276.87 312.68 1326.17 332.367 1361.97 359.062 C 1415.85 399.241 1452.07 457.614 1461.48 524.366 C 1462.71 533.104 1466.98 556.953 1461.94 563.585 L 1459.25 563.933 A 1536.68 1536.68 0 0 1 1393.89 563.4 C 1394.84 524.35 1383.22 488.362 1359.94 456.906 C 1326.07 411.152 1280.48 387.245 1224.98 378.927 C 1224.98 356.159 1229.39 332.289 1231.85 309.626 z"/>
<path transform="translate(0,0)" fill="rgb(98,121,154)" d="M 1240.48 318.967 C 1275.98 326.811 1309.19 336.493 1340.59 355.688 C 1396.77 390.028 1434.22 445.327 1449.31 508.938 C 1451.39 517.681 1458.06 547.14 1453.83 553.988 L 1450.82 554.657 A 2303.76 2303.76 0 0 1 1403.13 554.019 A 181.303 181.303 0 0 0 1368.61 452.502 A 199.762 199.762 0 0 0 1234.47 371.432 C 1237.72 354.32 1239 336.337 1240.48 318.967 z"/>
<path transform="translate(0,0)" fill="rgb(20,34,64)" d="M 1244.23 195.54 C 1286.08 196.803 1330.97 210.56 1368.62 228.717 A 381.38 381.38 0 0 1 1562.97 445.124 A 340.205 340.205 0 0 1 1581.41 544.565 C 1581.65 550.582 1582.9 558.855 1580.22 564.307 L 1577.25 564.929 A 1306.11 1306.11 0 0 0 1508.13 563.806 A 294.632 294.632 0 0 0 1431.78 365.538 C 1384.16 312.039 1308.7 270.848 1236.49 266.758 C 1238.25 242.949 1242.4 219.379 1244.23 195.54 z"/>
<path transform="translate(0,0)" fill="rgb(98,121,154)" d="M 1253.21 205.476 C 1269.21 206.838 1285.39 210.329 1300.9 214.446 A 365.771 365.771 0 0 1 1526.04 386.968 A 349.12 349.12 0 0 1 1571.61 531.863 C 1572.11 538.303 1574.17 548.397 1572.52 554.548 L 1570.25 555.069 L 1517.48 554.797 C 1514.13 493.604 1501.03 447.109 1466.79 395.385 C 1413.06 314.239 1340.96 275.913 1247.83 257.032 C 1248.96 239.801 1252.29 222.778 1253.21 205.476 z"/>
<path transform="translate(0,0)" fill="rgb(20,34,64)" d="M 1539.59 1166.76 C 1548.84 1166.88 1557.98 1167.68 1567.17 1168.69 C 1568.64 1175.92 1569.12 1183.08 1569.58 1190.43 C 1576.89 1190.9 1583.5 1193.8 1590.26 1196.42 C 1593.9 1189.36 1598.7 1183.88 1604.22 1178.27 A 2063.48 2063.48 0 0 1 1630.68 1194.31 L 1618.91 1217.8 C 1624.56 1223.99 1629.81 1230.4 1635.01 1236.97 C 1640.92 1235.02 1653.16 1229.38 1659.2 1232.21 C 1664.91 1234.88 1669.75 1250.6 1672.26 1256.2 C 1664.14 1260.33 1656.08 1264.45 1648.85 1270.03 C 1650.26 1276.91 1651.47 1283.67 1652.2 1290.66 C 1660 1291.06 1667.76 1292.62 1675.59 1293.17 C 1675.31 1303.86 1674.52 1314.56 1673.93 1325.24 C 1666.36 1325.8 1658.6 1325.21 1651.02 1324.95 L 1641.52 1345.72 A 768.172 768.172 0 0 1 1660.65 1360.73 C 1653.95 1369.94 1646.72 1378.76 1640.04 1388.01 C 1632.67 1385.08 1626.17 1380.97 1619.44 1376.84 C 1614.68 1382.28 1609.65 1386.89 1603.96 1391.33 C 1607.37 1398.22 1610.54 1404.91 1612.9 1412.23 L 1583.2 1424.67 A 335.794 335.794 0 0 0 1570.67 1402.58 C 1564.38 1403.76 1558.18 1404.74 1551.81 1405.37 L 1547.97 1420.5 L 1545.08 1430.34 C 1534.85 1429.44 1524.7 1428.55 1514.57 1426.83 C 1514.12 1418.85 1514.73 1410.75 1515.03 1402.77 C 1507.72 1400.58 1500.5 1397.73 1493.29 1395.21 L 1477.79 1411.36 C 1471.33 1406.41 1464.49 1401.91 1457.79 1397.29 C 1460.12 1389.36 1463.55 1381.63 1466.59 1373.95 C 1462.03 1368.41 1456.74 1363.44 1451.65 1358.39 L 1430.82 1367.16 C 1425.29 1359.03 1419.62 1350.72 1415.61 1341.72 A 148.57 148.57 0 0 1 1437.1 1327.56 C 1436.07 1320.31 1435.32 1313.08 1434.67 1305.78 C 1426.34 1302.09 1417.23 1299.86 1408.62 1296.79 C 1409.24 1287.11 1411.56 1277.63 1413.54 1268.15 C 1421.73 1267.75 1429.75 1268.12 1437.91 1268.76 A 1537.32 1537.32 0 0 1 1448.23 1244.72 A 2346.25 2346.25 0 0 1 1430.92 1227.87 C 1436.88 1219.93 1443.22 1212.02 1449.8 1204.58 C 1456.76 1208.57 1463.15 1213.03 1469.6 1217.79 L 1483.78 1207.45 C 1482.84 1198.67 1482.12 1190.36 1480.29 1181.68 A 946.347 946.347 0 0 1 1504.5 1171.97 C 1508.36 1178.4 1512.56 1184.67 1516.61 1191 C 1522.28 1188.87 1527.75 1188.04 1533.8 1188.17 C 1536.79 1181.14 1538.43 1174.27 1539.59 1166.76 z"/>
<path transform="translate(0,0)" fill="rgb(98,121,154)" d="M 1546.5 1173.26 L 1561.19 1173.7 A 342.56 342.56 0 0 0 1561.56 1197.52 C 1573.04 1199.57 1582.72 1202.47 1593.27 1207.48 C 1597.84 1201.15 1601.61 1194.32 1605.5 1187.55 L 1620.36 1197.04 C 1615.48 1205.08 1612.28 1212.58 1609.85 1221.68 C 1618.65 1229.46 1625.08 1236.54 1631.25 1246.58 C 1636.9 1244.57 1642.51 1241.85 1648.25 1240.19 C 1651.3 1239.31 1653.51 1239.68 1656.3 1241.23 C 1659.11 1244.4 1659.56 1248.48 1660.47 1252.51 C 1654.51 1257.42 1647.1 1261.2 1640.48 1265.21 C 1641.75 1276.08 1643.67 1286.93 1645.34 1297.75 C 1652.05 1297.94 1658.8 1298.9 1665.47 1299.64 C 1665.74 1305.38 1665.44 1311.17 1665.3 1316.91 C 1658.09 1316.92 1651.19 1317.21 1644.05 1318.2 C 1640.58 1328.42 1635.86 1338.49 1631.81 1348.51 C 1637.08 1353.71 1643.04 1358.4 1648.68 1363.22 C 1644.89 1367.85 1640.8 1371.84 1636.43 1375.91 C 1630.76 1372.66 1625.17 1369.27 1619.07 1366.86 C 1610.45 1374.04 1602.57 1381.58 1593.29 1387.99 A 388.404 388.404 0 0 1 1604.02 1404.95 L 1587.41 1412.57 L 1575.46 1392.77 C 1564.88 1396.99 1556.1 1397.14 1544.94 1397.12 C 1542.91 1404.66 1543.46 1412.87 1539.03 1419.5 C 1535.93 1421.27 1534.28 1420.75 1530.77 1420.59 L 1528.75 1420.49 C 1526.93 1420.38 1523.95 1420.4 1522.83 1418.78 C 1521.16 1416.37 1521.26 1413.33 1521.84 1410.58 C 1522.79 1406.06 1523.23 1401.48 1523.76 1396.9 C 1513.13 1394.15 1503.25 1390.3 1494.49 1383.58 C 1487.98 1388.78 1482.67 1395.16 1477.19 1401.39 C 1473.86 1399.08 1470.42 1396.92 1467.01 1394.72 C 1469.1 1388.97 1472 1382.88 1473.27 1376.92 C 1475.68 1365.62 1462.7 1358.41 1457.17 1349.82 C 1456.95 1349.49 1456.75 1349.15 1456.54 1348.81 C 1449.11 1351.23 1441.91 1355.13 1434.82 1358.44 C 1430.89 1353.91 1428.39 1349.38 1425.79 1344.03 C 1432.28 1338.46 1440.35 1334.56 1447.79 1330.39 C 1443.42 1318.98 1443.06 1308.39 1443.02 1296.27 C 1433.96 1294.72 1425.11 1293.02 1416.22 1290.66 L 1419.88 1275.22 C 1428.14 1276.55 1436.74 1278.48 1445.12 1278.53 L 1446.51 1276.78 C 1445.3 1266.35 1454.38 1252.99 1458.82 1243.51 C 1453.81 1237.98 1447.23 1233.54 1441.7 1228.45 C 1444.37 1223.21 1447.48 1218.66 1450.91 1213.91 C 1457.86 1218.41 1463.98 1224.18 1470.2 1229.62 C 1477.95 1221.35 1486.57 1215.34 1495.94 1209.09 C 1492.66 1201.76 1490.88 1194.42 1489.38 1186.56 L 1501.89 1181.88 C 1506 1187.73 1509.12 1194.12 1512.38 1200.46 C 1522.69 1197.83 1532.6 1196.05 1543.22 1195.19 L 1546.5 1173.26 z"/>
<path transform="translate(0,0)" fill="rgb(20,34,64)" d="M 1536.05 1208.35 C 1555.25 1205.24 1580.89 1213.47 1596.38 1224.72 C 1615.76 1238.79 1628.81 1263.61 1632.19 1287.04 C 1635.51 1309.98 1628.45 1332.47 1614.6 1350.85 C 1598.95 1371.62 1577.37 1382.15 1551.98 1385.65 C 1531.07 1388.03 1506.68 1381.34 1489.74 1368.91 C 1471.01 1355.17 1459.16 1333.93 1455.75 1311.1 A 92.442 92.442 0 0 1 1472.93 1243.15 C 1488.38 1222.52 1511.04 1212 1536.05 1208.35 z"/>
<path transform="translate(0,0)" fill="rgb(254,254,254)" d="M 1538.96 1216.39 C 1559.14 1215.09 1580.54 1222.04 1596.08 1234.97 A 81.1426 81.1426 0 0 1 1624.77 1290.41 A 79.6053 79.6053 0 0 1 1605.86 1348.83 C 1590.96 1366.36 1570.95 1375.72 1548.25 1377.57 C 1528.93 1380 1507.01 1372.17 1491.93 1360.34 C 1475.9 1347.77 1465.84 1327.15 1463.48 1307.12 A 82.3528 82.3528 0 0 1 1481.18 1246.15 C 1495.35 1228.72 1516.94 1218.79 1538.96 1216.39 z"/>
<path transform="translate(0,0)" fill="rgb(20,34,64)" d="M 1539.69 1234.32 C 1552.72 1233.37 1566.37 1237.32 1577.34 1244.3 C 1592.03 1253.64 1601.67 1268.62 1605.14 1285.55 A 58.5904 58.5904 0 0 1 1596.25 1330.72 C 1585.16 1347.16 1569.34 1355.16 1550.34 1358.93 C 1533.58 1359.38 1518.95 1357.42 1505.28 1346.92 C 1491.86 1336.6 1483.68 1320.59 1481.57 1303.93 A 60.6452 60.6452 0 0 1 1494.31 1258.84 C 1505.49 1244.51 1521.92 1236.61 1539.69 1234.32 z"/>
<path transform="translate(0,0)" fill="rgb(254,254,254)" d="M 1541.49 1241.36 C 1552.97 1241.44 1563.8 1244.15 1573.57 1250.29 A 55.4934 55.4934 0 0 1 1598.31 1286.58 A 53.3704 53.3704 0 0 1 1589.48 1328.34 C 1579.31 1342.58 1565.3 1349.26 1548.37 1351.97 C 1534.39 1352.48 1521.91 1350.41 1510.45 1341.78 A 56.9057 56.9057 0 0 1 1488.55 1304.01 C 1486.61 1289.49 1490.3 1275.18 1499.32 1263.6 C 1509.94 1249.95 1524.73 1243.48 1541.49 1241.36 z"/>
<path transform="translate(0,0)" fill="rgb(20,34,64)" d="M 1255.4 78.6594 L 1255.91 78.6957 C 1382.16 88.685 1503.62 157.192 1585.09 252.782 A 498.699 498.699 0 0 1 1698.5 512.826 C 1700.39 529.13 1702.88 547.75 1701.52 564.082 C 1699.9 565.92 1698.11 565.421 1695.75 565.582 C 1672.3 564.653 1648.6 564.26 1625.13 564.56 C 1622.68 499.233 1611.66 443.695 1582.94 384.578 C 1573.51 365.176 1563.34 346.627 1550.7 329.089 A 429.204 429.204 0 0 0 1328.45 167.712 C 1302.27 159.735 1275.78 154.973 1248.81 150.575 C 1249.55 126.619 1253.57 102.581 1255.4 78.6594 z"/>
<path transform="translate(0,0)" fill="rgb(98,121,154)" d="M 1264.48 88.6156 A 497.362 497.362 0 0 1 1411.48 131.746 A 488.35 488.35 0 0 1 1664.86 410.798 C 1679.06 449.843 1686.63 490.609 1690.64 531.879 C 1691.23 537.961 1693.56 549.75 1691.01 555.182 L 1688.75 555.471 A 2899.06 2899.06 0 0 0 1634.78 555.303 C 1632.89 535.538 1632.08 515.948 1628.92 496.283 A 414.772 414.772 0 0 0 1541.66 301.853 C 1471.22 216.759 1370.27 154.008 1258.73 143.445 C 1261.51 125.379 1262.66 106.816 1264.48 88.6156 z"/>
<path transform="translate(0,0)" fill="rgb(20,34,64)" d="M 1689.98 753.454 C 1698.35 753.379 1719.28 750.887 1725.92 755.291 C 1733.89 760.579 1735.39 783.112 1736.73 792.346 A 96.8294 96.8294 0 0 1 1756.6 796.993 C 1762.77 799.166 1769.52 803.78 1775.96 804.06 C 1782.98 801.498 1793.87 779.539 1798.37 772.124 C 1813.47 779.83 1828.22 789.08 1842.5 798.239 C 1833.79 808.615 1826.46 820.29 1818.06 830.976 C 1829.75 841.746 1840 853.178 1850.71 864.863 C 1861.27 859.741 1871.95 850.411 1883.28 847.678 C 1889.4 853.115 1903.62 884.258 1906.85 893.039 C 1896.05 899.411 1884.04 904.552 1872.82 910.205 C 1878.33 925.567 1881.86 940.833 1883.92 957.021 L 1919.85 957.126 C 1921.03 975.071 1920.13 992.279 1918.61 1010.14 C 1905.94 1009.33 1893.39 1008.31 1880.82 1006.47 A 220.622 220.622 0 0 1 1865.69 1051.89 C 1876.37 1059.42 1887.86 1065.83 1898.64 1073.24 C 1890.52 1088.6 1880.08 1102.95 1870 1117.07 L 1837.41 1095 C 1828.07 1107.32 1816.55 1116.2 1803.85 1124.73 C 1809.65 1135.71 1814.3 1147.6 1819.3 1158.98 C 1804.18 1164.85 1790.04 1172.88 1774.86 1178.71 C 1768.96 1167.65 1763.91 1156.11 1757.98 1145.02 A 171.118 171.118 0 0 1 1712.17 1155.67 C 1711.99 1162.03 1711.55 1168.4 1711.19 1174.75 C 1710.99 1180.58 1710.3 1186.47 1709.8 1192.29 C 1693.54 1192.19 1677.19 1190.84 1660.96 1189.86 C 1660.29 1176.88 1660.46 1163.77 1660.28 1150.77 C 1647 1147.15 1634.36 1142.54 1621.72 1137.13 C 1621.59 1137.36 1621.45 1137.58 1621.31 1137.81 C 1615.04 1148.56 1607.11 1158.16 1599.49 1167.98 A 586.828 586.828 0 0 1 1559.71 1139.81 A 1024.76 1024.76 0 0 0 1579.42 1110.44 C 1571.08 1102.54 1563.41 1094.3 1555.81 1085.71 C 1544.12 1094.14 1531.83 1101.1 1519.53 1108.58 A 1670.86 1670.86 0 0 0 1495.9 1066.6 C 1507.41 1058.58 1520.33 1051.89 1532.36 1044.63 C 1526.27 1030.05 1521.42 1015.4 1518.51 999.85 A 691.802 691.802 0 0 1 1480.15 999.941 C 1479.72 982.925 1479.97 965.85 1479.95 948.827 A 901.121 901.121 0 0 1 1518.3 949.085 C 1520.49 932.427 1525.85 916.524 1532.15 901.032 C 1520.3 894.551 1509.19 886.713 1497.56 879.818 C 1506.24 864.895 1516.21 850.825 1526.03 836.644 C 1537.46 843.059 1549.56 849.016 1561.6 854.227 C 1568.94 843.704 1577.9 835.797 1587.79 827.72 A 568.25 568.25 0 0 0 1576.14 790.398 C 1586.96 782.339 1601.46 776.319 1613.68 770.595 C 1622.17 779.526 1628.97 789.542 1635.63 799.877 C 1649.38 796.092 1663.25 792.186 1677.39 790.178 C 1679.7 781.344 1683.81 758.433 1689.98 753.454 z"/>
<path transform="translate(0,0)" fill="rgb(98,121,154)" d="M 1794.87 1128.81 C 1800.4 1132.87 1803.68 1148.1 1805.86 1154.81 C 1797.25 1159.78 1787.95 1163.4 1778.79 1167.22 C 1775.58 1158.67 1772.4 1149.91 1767.59 1142.11 C 1777.01 1138.13 1786.03 1133.98 1794.87 1128.81 z"/>
<path transform="translate(0,0)" fill="rgb(98,121,154)" d="M 1884.12 966.234 C 1893.12 966.251 1902.09 966.299 1911.08 966.782 C 1911.61 977.849 1911.63 989.062 1910.56 1000.1 C 1901.2 999.499 1891.86 998.907 1882.54 997.861 C 1883.45 987.248 1884.03 976.888 1884.12 966.234 z"/>
<path transform="translate(0,0)" fill="rgb(98,121,154)" d="M 1609.93 780.926 C 1610.1 780.966 1610.27 780.991 1610.44 781.045 C 1617.36 783.335 1623.65 797.626 1626.95 803.851 C 1617.77 807.469 1609.13 812.2 1600.68 817.269 C 1599.19 818.569 1598.53 819.09 1596.63 819.797 C 1590.86 814.942 1588.56 801.083 1586.49 793.891 A 222.893 222.893 0 0 1 1609.93 780.926 z"/>
<path transform="translate(0,0)" fill="rgb(98,121,154)" d="M 1800.53 784.463 C 1809.68 789.924 1819.58 794.662 1827.92 801.292 C 1823.14 809.168 1817.12 816.431 1810.75 823.067 L 1810.05 823.526 C 1805.15 823.927 1790.43 812.661 1785.62 809.652 C 1791.18 801.782 1795.19 792.592 1800.53 784.463 z"/>
<path transform="translate(0,0)" fill="rgb(98,121,154)" d="M 1669.75 1152.22 C 1680.72 1154.08 1691.84 1154.83 1702.91 1155.79 C 1703.08 1164.87 1702.8 1173.98 1702.69 1183.05 A 992.999 992.999 0 0 1 1669.06 1181.21 A 507.522 507.522 0 0 1 1669.75 1152.22 z"/>
<path transform="translate(0,0)" fill="rgb(98,121,154)" d="M 1878.86 858.757 C 1884.11 862.559 1892.26 882.239 1895.59 888.767 A 188.192 188.192 0 0 1 1870.39 900.65 L 1869.63 900.667 C 1865.18 897.487 1858.06 880.555 1855.04 874.753 C 1862.39 868.835 1870.95 863.913 1878.86 858.757 z"/>
<path transform="translate(0,0)" fill="rgb(98,121,154)" d="M 1693.11 762.788 C 1702.85 762.508 1712.52 762.613 1722.25 762.85 C 1723.46 768.839 1729.48 785.454 1726.86 790.755 L 1723.77 790.569 C 1711.49 788.943 1698.98 789.727 1686.64 790.122 C 1688.53 780.916 1690.4 771.801 1693.11 762.788 z"/>
<path transform="translate(0,0)" fill="rgb(98,121,154)" d="M 1585.52 1114.48 C 1595.21 1121.17 1604.87 1127.39 1615.05 1133.28 A 1254.22 1254.22 0 0 0 1598.53 1155.52 L 1597.66 1156.6 C 1591.95 1156 1576.17 1142.72 1570.6 1138.66 C 1575.41 1130.46 1581.04 1122.92 1585.52 1114.48 z"/>
<path transform="translate(0,0)" fill="rgb(98,121,154)" d="M 1861.68 1059.44 C 1869.94 1064.87 1878.98 1070.21 1886.28 1076.87 A 246.826 246.826 0 0 1 1866.7 1103.13 C 1862.84 1103.14 1847.59 1091 1842.89 1088.02 A 272.877 272.877 0 0 0 1861.68 1059.44 z"/>
<path transform="translate(0,0)" fill="rgb(98,121,154)" d="M 1487.73 958.354 L 1517.92 957.971 C 1516.99 969.204 1517.54 980.318 1518.13 991.544 L 1488.06 991.908 A 2239.76 2239.76 0 0 1 1487.73 958.354 z"/>
<path transform="translate(0,0)" fill="rgb(98,121,154)" d="M 1535.56 1052.19 C 1541.25 1057.86 1547.46 1072.19 1552.18 1079.47 A 427.3 427.3 0 0 1 1523.5 1095.75 C 1518.02 1093.74 1510.36 1074.8 1507.39 1069.07 C 1516.96 1063.75 1526.24 1057.93 1535.56 1052.19 z"/>
<path transform="translate(0,0)" fill="rgb(98,121,154)" d="M 1528.56 847.559 C 1537.68 852.602 1546.69 857.526 1556.25 861.715 C 1548.81 872.024 1542.63 882.507 1536.94 893.867 C 1531.79 893.4 1514.92 880.164 1509.74 876.677 C 1514.95 866.518 1521.72 856.678 1528.56 847.559 z"/>
<path transform="translate(0,0)" fill="rgb(98,121,154)" d="M 1691.52 798.381 C 1691.94 798.326 1692.36 798.254 1692.79 798.215 C 1733.35 794.49 1779.72 811.319 1810.89 836.86 C 1845.53 865.241 1869.84 908.392 1873.98 953.204 C 1878.33 1000.2 1863.32 1049.8 1832.87 1086.08 C 1804.25 1120.17 1757.19 1141.25 1713.25 1145.04 C 1670.8 1148.63 1626.06 1135.04 1592.51 1108.95 A 175.488 175.488 0 0 1 1527.1 993.003 C 1521.41 945.953 1538.53 896.669 1567.86 859.983 C 1599.22 820.76 1642.84 803.893 1691.52 798.381 z"/>
<path transform="translate(0,0)" fill="rgb(20,34,64)" d="M 1687.65 826.4 C 1687.84 826.37 1688.04 826.33 1688.23 826.311 C 1721.93 823.006 1759.02 834.146 1785.85 854.591 C 1817.54 878.74 1839.01 913.817 1844.25 953.421 C 1849.44 992.699 1839.79 1031.49 1815.29 1062.89 C 1790.35 1094.85 1753.06 1112.97 1713.34 1117.94 C 1673.6 1119.47 1640.55 1111.07 1608.98 1086.12 C 1580.12 1063.31 1558.91 1026.5 1554.96 989.777 A 148.13 148.13 0 0 1 1586.47 880.839 C 1612.18 848.981 1647.04 830.607 1687.65 826.4 z"/>
<path transform="translate(0,0)" fill="rgb(254,254,254)" d="M 1698.03 835.446 C 1733.53 836.218 1765.6 848.013 1791.88 872.24 A 139.465 139.465 0 0 1 1836.28 968.483 C 1837.65 1003.05 1824.89 1039.76 1801.26 1065.26 C 1775.93 1092.58 1738.8 1108.06 1701.84 1109.23 A 138.957 138.957 0 0 1 1610.35 1075.23 C 1583.79 1052.49 1566.64 1017.33 1564.18 982.567 A 138.338 138.338 0 0 1 1597.75 882.159 C 1624.51 851.519 1658.09 838.04 1698.03 835.446 z"/>
<path transform="translate(0,0)" fill="rgb(20,34,64)" d="M 1689.14 872.378 C 1714.27 870.539 1738.8 876.032 1759.38 890.936 A 103.905 103.905 0 0 1 1801.23 959.49 A 99.5573 99.5573 0 0 1 1782.96 1033.58 C 1765.53 1056.76 1738.98 1069.83 1710.62 1073.66 C 1710.38 1073.7 1710.16 1073.76 1709.92 1073.78 C 1683.71 1076.22 1657.29 1069.69 1636.51 1053.18 A 101.049 101.049 0 0 1 1598.7 985.122 C 1595.67 957.604 1602.56 931.734 1619.98 910.137 C 1637.63 888.269 1661.29 875.468 1689.14 872.378 z"/>
<path transform="translate(0,0)" fill="rgb(254,254,254)" d="M 1688.63 881.308 C 1709.5 878.168 1734.99 885.497 1752.2 897.277 C 1772.19 910.956 1786.97 933.664 1791.31 957.5 A 90.3795 90.3795 0 0 1 1776.39 1025.81 C 1760.76 1048.04 1737.43 1059.27 1711.23 1063.79 C 1688.01 1066.43 1665.93 1061.47 1646.6 1048.12 C 1626.54 1034.27 1613.03 1013.91 1608.8 989.847 A 93.5073 93.5073 0 0 1 1625.29 918.19 C 1640.53 897.03 1663.33 885.406 1688.63 881.308 z"/>
<path transform="translate(0,0)" fill="rgb(20,34,64)" d="M 814.512 359.335 C 834.266 357.978 868.014 363.302 885.019 374.101 C 897.931 382.302 908.602 395.966 915.375 409.537 C 933.052 444.963 947.958 481.847 964.486 517.821 L 1063.79 733.132 L 1303.04 1253.85 L 1401.12 1464.45 C 1412.72 1489.55 1437.89 1536.51 1443.23 1561.35 A 101.463 101.463 0 0 1 1428.97 1638.45 C 1419.68 1652.74 1408.35 1662.99 1393.52 1671.2 C 1379.14 1679.16 1363.76 1685.4 1348.8 1692.15 L 1292.09 1718.17 A 15197.5 15197.5 0 0 1 1079.98 1814.92 L 858.314 1916.63 A 3597.09 3597.09 0 0 0 806.166 1940.97 C 786.005 1950.48 767.173 1960.06 745.234 1964.81 C 728.919 1967.34 713.166 1966.16 697.797 1959.87 C 679.241 1952.27 663.898 1937.95 654.095 1920.58 C 643.463 1901.73 636.026 1880.39 627.594 1860.45 L 591.165 1776.46 C 572.959 1733.87 553.016 1691.98 533.982 1649.75 C 519.37 1617.33 505.864 1584.41 491.242 1551.99 L 258.445 1032.6 A 19284 19284 0 0 1 170.449 836.236 C 159.518 811.734 147.416 787.64 137.085 762.889 C 127.288 739.414 126.391 713.946 136.321 690.29 C 142.075 676.58 151.832 663.512 163.946 654.784 C 178.744 644.121 196.537 636.715 212.982 628.883 C 242.939 614.617 273.183 601.113 303.378 587.375 C 362.777 560.352 421.609 530.974 481.971 506.219 C 481.977 499.051 482.689 491.787 483.132 484.628 L 494.876 484.417 L 494.982 499.377 C 506.329 493.303 518.645 488.381 530.35 482.988 L 608.071 447.51 A 9287.8 9287.8 0 0 1 723.396 394.971 C 749.057 383.484 788.017 362.314 814.512 359.335 z"/>
<path transform="translate(0,0)" fill="rgb(254,254,254)" d="M 1419.81 1632.01 C 1419.76 1632.55 1419.77 1633.1 1419.66 1633.63 C 1417.86 1641.79 1403.08 1653.06 1396.3 1657.46 C 1380.5 1667.7 1354.49 1676.77 1336.69 1684.77 L 1223.12 1737.14 L 915.305 1877.89 C 873.017 1896.96 831.333 1918.43 788.364 1935.85 C 781.31 1938.71 777.854 1939.77 770.245 1938.1 L 769.709 1937.33 C 769.958 1934.85 778.005 1932.32 780.558 1931.18 C 904.164 1876.28 1026.41 1818.17 1149.51 1762.15 L 1306.46 1690.67 C 1341.96 1674.33 1391.44 1657.07 1419.81 1632.01 z"/>
<path transform="translate(0,0)" fill="url(#Gradient1)" d="M 813.056 369.245 C 815.787 369.096 818.555 369.245 821.29 369.291 C 820.227 370.507 820.751 370.192 819.271 370.784 C 818.786 370.978 818.291 371.144 817.803 371.329 C 779.676 385.774 742.787 404.949 705.65 421.882 A 20784.1 20784.1 0 0 0 467.293 531.429 A 8901.26 8901.26 0 0 0 289.792 612.729 C 263.706 624.724 231.386 636.525 207.372 651.621 C 193.591 660.284 183.99 672.803 177.404 687.58 C 167.776 709.184 166.242 731.692 174.72 753.85 C 183.604 777.067 195.631 799.367 205.682 822.139 L 282.004 994.534 L 529.115 1547.09 L 642.949 1804.59 A 3178.31 3178.31 0 0 1 666.301 1858.79 C 673.354 1875.43 679.848 1893.44 690.214 1908.34 C 708.805 1935.06 739.128 1935.33 766.315 1947.49 C 758.834 1950 751.361 1951.95 743.676 1953.73 C 725.759 1956.31 707.423 1953.36 691.692 1944.14 C 677.847 1936.03 668.268 1924.17 661.229 1909.91 C 653.881 1895.03 648.144 1879.16 641.615 1863.89 C 624.619 1824.14 608.194 1783.96 590.327 1744.61 L 333.602 1172.27 L 199.576 873.097 C 188.538 848.48 177.941 823.646 166.753 799.102 C 158.583 781.182 148.061 763.34 143.274 744.126 C 138.577 725.279 140.739 703.778 150.917 687.009 C 159.746 672.464 172.647 661.693 187.335 653.402 C 213.899 638.408 243.472 626.926 271.168 614.04 L 472.718 522.058 A 22470 22470 0 0 1 698.161 418.278 L 760.537 389.938 C 777.596 382.254 794.803 373.662 813.056 369.245 z"/>
<path transform="translate(0,0)" fill="rgb(254,254,254)" d="M 840.95 374.101 C 854.385 373.957 866.891 376.028 878.509 383.234 C 890.167 390.465 898.216 400.77 904.304 412.92 C 924.538 453.303 941.843 495.619 960.486 536.798 L 1042.55 715.085 L 1282.96 1238 L 1374.56 1435.31 A 6087.18 6087.18 0 0 1 1411.97 1514.45 C 1419.6 1531.12 1428.88 1548.87 1432.73 1566.86 C 1435.79 1581.15 1430.51 1600.67 1422.63 1612.87 C 1415.91 1623.26 1406.24 1631.68 1395.4 1637.55 C 1380.43 1645.65 1363.58 1651.85 1348.07 1659.05 A 12211.1 12211.1 0 0 1 1231.91 1712.23 L 957.781 1837.02 L 835.607 1893.41 C 812.008 1904.38 782.595 1921.1 757.78 1926.51 C 750.398 1927.12 743.41 1926.89 736.203 1925.12 C 719.698 1921.06 704.084 1909.58 695.368 1894.96 C 686.572 1880.21 680.989 1862.97 674.208 1847.18 L 635.464 1758.35 L 499.73 1453.51 L 285.499 974.082 L 214.54 813.69 C 204.655 791.11 192.93 768.579 184.388 745.516 C 179.543 732.434 179.799 719.4 183.259 706.042 C 187.173 690.933 194.799 674.468 207.207 664.482 C 220.208 654.019 252.835 641.754 269.17 634.249 C 308.161 616.335 346.82 597.533 386.039 580.146 C 417.342 566.268 451.052 553.901 480.638 536.718 C 481.189 541.228 481.282 548.433 484.505 551.838 C 485.508 552.897 487.146 553.181 488.575 553.06 C 490.067 552.934 491.878 552.312 492.922 551.209 C 495.288 548.708 495.365 545.937 495.292 542.705 C 495.193 538.342 495.51 534.089 495.838 529.743 C 523.427 518.283 550.245 505.101 577.436 492.734 L 729.274 423.256 A 4990.51 4990.51 0 0 1 793.055 394.09 C 808.565 387.01 824.485 378.573 840.95 374.101 z"/>
<path transform="translate(0,0)" fill="rgb(20,34,64)" d="M 629.677 512.082 C 631.516 511.938 633.325 511.759 635.158 512.063 C 639.31 512.752 643.505 515.644 645.529 519.379 C 646.787 521.702 646.894 524.192 645.936 526.644 C 644.281 530.88 639.031 534.122 635.315 536.275 C 629.135 539.854 622.247 542.139 615.788 545.153 L 572.02 565.743 C 530.667 585.024 489.379 605.194 447.567 623.382 C 447.235 623.459 446.904 623.539 446.572 623.613 C 446.053 623.727 445.531 623.829 445.012 623.946 C 443.048 624.387 440.853 625.148 438.85 624.5 C 435.704 623.482 432.475 619.21 431.166 616.321 C 430.006 613.759 430.142 610.877 431.275 608.331 C 433.185 604.042 437.54 600.775 441.489 598.483 C 449.025 594.108 457.726 591.027 465.697 587.453 L 510.786 567.008 C 550.553 548.846 589.49 529.382 629.677 512.082 z"/>
<path transform="translate(0,0)" fill="rgb(20,34,64)" d="M 1190.04 1642.83 L 1191.54 1643.22 C 1196.48 1648.15 1208.05 1677 1209.17 1684.27 C 1204.85 1690.48 955.041 1803.93 924.399 1817.02 C 923.149 1817.03 922.4 1816.75 921.228 1816.36 C 914.734 1807.55 907.174 1784.83 903.367 1773.88 C 922.12 1765.84 940.454 1756.87 959.061 1748.5 A 6067.26 6067.26 0 0 0 1098.87 1684.7 C 1129.16 1670.58 1160.13 1657.76 1190.04 1642.83 z"/>
<path transform="translate(0,0)" fill="rgb(98,121,154)" d="M 1185.66 1653.95 L 1186.89 1654.01 C 1192.12 1657.56 1196.49 1674.45 1198.74 1680.83 C 1188.08 1686.61 1176.59 1691.34 1165.56 1696.43 L 1108.42 1722.88 A 9000.98 9000.98 0 0 0 926.311 1807.6 C 921.109 1799.97 917.473 1786.86 913.926 1778.09 C 928.072 1772.76 941.908 1765.73 955.699 1759.51 L 1032.15 1724.97 L 1122.01 1683.13 C 1143.23 1673.43 1164.84 1664.49 1185.66 1653.95 z"/>
<path transform="translate(0,0)" fill="rgb(20,34,64)" d="M 905.99 439.957 C 910.23 443.331 1015.59 674.878 1027.16 700.986 C 1052.55 758.271 1079.93 814.655 1105.84 871.681 L 1277.44 1246.57 A 12879.4 12879.4 0 0 1 1362.52 1429.21 C 1375.64 1457.61 1390.4 1485.49 1402.32 1514.41 C 1381.02 1526.81 1356.07 1535.05 1333.56 1545.2 L 1171.42 1618.18 L 698.758 1834.39 C 693.754 1836.89 688.869 1838.76 683.553 1840.49 C 676.369 1828.95 671.369 1815.25 665.927 1802.78 C 654.191 1775.88 643.29 1748.59 631.242 1721.83 L 273.726 919.314 C 263.239 895.3 207.738 777.629 206.153 761.199 C 218.756 752.948 237.16 746.799 251.146 740.175 L 386.535 677.488 L 679.034 543 C 754.679 508.856 831.234 475.974 905.99 439.957 z"/>
<path transform="translate(0,0)" fill="rgb(254,254,254)" d="M 900.882 454.037 C 904.24 458.454 906.728 466.366 909.081 471.509 L 930.486 518.351 L 1034.81 745.679 A 79292.6 79292.6 0 0 0 1387.21 1508.94 C 1360.36 1522.06 1332.72 1533.6 1305.4 1545.73 L 1139.6 1619.92 A 27034.7 27034.7 0 0 1 703.749 1819.6 C 698.725 1821.98 693.473 1823.83 688.279 1825.8 C 678.976 1797.21 661.309 1763.27 649.087 1734.98 A 21544.2 21544.2 0 0 0 543.977 1498.64 L 219.818 767.921 C 266.383 743.671 315.424 723.258 362.97 700.894 L 719.525 536.876 C 779.954 509.34 841.116 482.991 900.882 454.037 z"/>
<path transform="translate(0,0)" fill="rgb(20,34,64)" d="M 859.985 828.416 C 878.57 826.455 899.725 828.643 917.891 832.562 C 970.826 843.982 1005.62 869.689 1034.67 914.65 C 1011.47 900.282 990.384 886.737 963.332 880.846 C 928.706 873.307 892.94 876.846 859.107 886.596 C 742.011 920.342 668.22 1008.15 570.777 1071.07 C 527.757 1100.15 473.89 1124.41 423.15 1135.97 C 470.183 1105.57 512.003 1070.25 551.844 1030.95 C 644.7 939.351 718.378 839.31 859.985 828.416 z"/>
<path transform="translate(0,0)" fill="rgb(20,34,64)" d="M 847.488 952.423 C 864.226 951.055 881.66 952.061 898.403 953.09 C 979.074 958.049 1056.42 979.813 1132.28 1006.77 C 1135.76 1008.01 1140.61 1009.34 1142.31 1012.93 C 1140.59 1036.05 1063.91 1148.54 1045.62 1171.07 C 969.129 1265.29 894.564 1317.68 771.757 1330.27 C 700.39 1339.92 594.805 1320.34 525.262 1300.91 C 511.051 1296.94 495.666 1293.39 482.216 1287.33 C 479.088 1285.92 476.711 1285.03 475.409 1281.76 C 476.521 1270.62 483.271 1258.55 487.771 1248.39 C 513.99 1189.15 551.71 1123.88 594.846 1075.5 C 665.541 996.215 740.676 958.5 847.488 952.423 z"/>
<path transform="translate(0,0)" fill="rgb(254,254,254)" d="M 850.924 966.432 C 933.638 961.1 1047.58 991.547 1125.54 1020.09 C 1120.66 1029.73 1114.56 1043.54 1106.06 1050.23 C 1105.8 1050.43 1105.54 1050.63 1105.28 1050.83 L 1106.17 1055.45 C 1102.33 1063.52 1096.8 1070.94 1092.1 1078.54 C 1073.2 1109.07 1053.15 1139.16 1030.36 1166.98 C 957.985 1255.32 882.421 1304.92 766.818 1316.3 C 674.57 1324.88 579.627 1302.94 492.049 1276.07 C 518.561 1207.96 560.601 1133.45 609.835 1079.18 C 675.25 1007.07 754.163 971.097 850.924 966.432 z"/>
<path transform="translate(0,0)" fill="rgb(20,34,64)" d="M 854.03 978.453 C 929.297 975.015 1028.34 997.117 1098.54 1023.75 C 1101.73 1024.96 1105.5 1026.15 1106.97 1029.39 C 1103.37 1041.64 1094.05 1054.13 1087.28 1064.96 C 1065.31 1100.11 1042.49 1134.66 1016.16 1166.73 C 969.24 1223.9 909.997 1272.56 837.553 1292.31 C 812.451 1299.15 787.068 1302.33 761.238 1304.86 C 694.821 1307.61 630.915 1301.1 566.266 1285.4 C 546.334 1280.56 526.407 1275.51 507.354 1267.82 C 513.144 1250.81 521.555 1234.34 529.7 1218.35 C 553.613 1171.4 581.306 1125.79 617.437 1087.14 C 686.182 1013.59 754.122 981.949 854.03 978.453 z"/>
<path transform="translate(0,0)" fill="rgb(254,254,254)" d="M 842.991 993.424 C 857.098 992.117 872.191 992.954 886.342 993.662 C 956.075 997.155 1021.46 1015.25 1087.82 1035.59 C 1062.81 1077.82 1036.92 1117.26 1005.82 1155.3 C 940.549 1235.14 874.33 1278.8 769.76 1289.26 C 686.412 1297.67 605.247 1281.7 525.312 1259.48 C 556.732 1197.03 577.268 1157.25 623.543 1103.57 C 684.84 1032.46 749.451 1000.38 842.991 993.424 z"/>
<path transform="translate(0,0)" fill="rgb(20,34,64)" d="M 788.595 1010.38 C 819.46 1005.83 852.851 1017.02 877.405 1035.4 A 132.116 132.116 0 0 1 928.173 1122.49 A 122.814 122.814 0 0 1 903.935 1214.88 C 881.459 1244.53 849.891 1261.96 813.244 1266.82 C 780.373 1270.31 749.091 1262.96 722.76 1242.52 C 695.735 1221.55 675.177 1190.25 671.236 1155.86 A 135.851 135.851 0 0 1 700.147 1056.02 C 721.747 1029.11 754.787 1014.17 788.595 1010.38 z"/>
<path transform="translate(0,0)" fill="rgb(254,254,254)" d="M 787.5 1045.3 C 809.089 1041.92 833.799 1049.64 851.531 1061.77 A 92.3713 92.3713 0 0 1 890.702 1122.52 C 895.156 1147.85 888.493 1173.15 873.604 1193.96 C 858.306 1215.34 837.002 1226.59 811.393 1230.71 A 89.0693 89.0693 0 0 1 747.325 1214.93 A 94.3425 94.3425 0 0 1 708.967 1154 C 704.955 1129.46 711.024 1102.36 725.77 1082.26 A 94.2571 94.2571 0 0 1 787.5 1045.3 z"/>
<path transform="translate(0,0)" fill="rgb(20,34,64)" d="M 823.581 1073.16 C 832.448 1076.45 840.875 1081.87 847.729 1088.39 C 861.167 1101.18 868.487 1120.41 868.788 1138.83 A 66.1891 66.1891 0 0 1 849.738 1186 A 71.427 71.427 0 0 1 799.731 1207.21 C 780.388 1207.44 764.294 1199.38 750.595 1186.13 C 738.344 1171.77 730.775 1156.23 730.679 1137.03 C 730.589 1119.11 735.645 1102.43 748.523 1089.61 C 748.698 1092.65 748.863 1095.74 749.391 1098.75 C 751.386 1110.12 757.92 1121.05 767.613 1127.48 C 775.893 1132.97 786.003 1134.62 795.671 1132.5 A 39.781 39.781 0 0 0 820.766 1114.48 C 828.946 1101.16 827.099 1087.49 823.581 1073.16 z"/>
</svg>