<svg version="1.1" xmlns="http://www.w3.org/2000/svg" style="display: block;" viewBox="0 0 2048 2048" width="1024" height="1024">
<path transform="translate(0,0)" fill="rgb(252,252,252)" d="M 0 0 L 2048 0 L 2048 2048 L 0 2048 L 0 0 z"/>
<path transform="translate(0,0)" fill="rgb(152,207,213)" d="M 1902.33 791.469 C 1909.08 805.215 1913.24 819.736 1917.61 834.352 A 784.974 784.974 0 0 1 1947.99 1026.75 A 836.324 836.324 0 0 1 1843.44 1469.37 C 1833.06 1488.22 1821.21 1506.34 1809.72 1524.53 C 1780.46 1570.87 1748.72 1615.54 1711.41 1655.82 A 992.748 992.748 0 0 1 1031.98 1969.02 A 973.639 973.639 0 0 1 338.076 1709.17 C 163.415 1547.18 52.4011 1335.1 43.5504 1094.56 C 41.5378 1039.86 46.0974 987.032 55.28 933.191 A 868.233 868.233 0 0 1 278 485.124 A 1028.3 1028.3 0 0 1 932.379 166.179 C 967.726 162.697 1004.34 160.713 1039.84 161.041 C 1063.88 161.262 1087.9 163.477 1111.93 162.649 C 1101.18 169.943 1090.88 178.41 1079.95 185.317 C 1071.5 182.123 1033.45 184.522 1022.65 184.698 A 1032.2 1032.2 0 0 0 607.988 276.406 C 423.859 359.848 263.778 500.893 166.672 678.986 C 145.62 717.596 127.989 759.697 112.567 800.798 C 97.4003 841.22 86.8876 884.074 79.163 926.511 C 48.8322 1093.14 71.9001 1252.9 141.788 1406.49 C 201.398 1537.49 301.547 1659.49 416.126 1746.5 A 1066.39 1066.39 0 0 0 686.49 1893.33 C 909.835 1976.47 1171.92 1959.07 1387.3 1860.33 C 1488.49 1813.95 1595.59 1740.53 1673.74 1660.9 C 1758.28 1574.77 1832.33 1461.6 1874.18 1348.3 C 1928.99 1199.94 1939.54 1049.89 1908.81 894.99 C 1905.23 876.926 1894.94 826.157 1886.59 812.238 C 1885.94 811.164 1885.75 811.061 1884.96 810.312 C 1891.06 804.315 1896.66 797.865 1902.33 791.469 z"/>
<path transform="translate(0,0)" fill="rgb(252,252,252)" d="M 1111.93 162.649 C 1135.52 148.493 1158.37 134.723 1183.47 123.283 C 1289.28 75.0667 1410.89 62.2304 1525.37 79.6597 C 1549.77 83.3757 1574.4 89.3242 1598.34 95.3482 C 1616.75 99.9813 1634.71 106.5 1652.48 113.13 C 1765.88 155.448 1880.27 236.2 1942.85 341.652 C 1995.1 429.694 2013.71 532.404 1987.91 632.357 C 1972.68 691.344 1941.17 745.033 1902.33 791.469 C 1896.66 797.865 1891.06 804.315 1884.96 810.312 C 1885.75 811.061 1885.94 811.164 1886.59 812.238 C 1894.94 826.157 1905.23 876.926 1908.81 894.99 C 1939.54 1049.89 1928.99 1199.94 1874.18 1348.3 C 1832.33 1461.6 1758.28 1574.77 1673.74 1660.9 C 1595.59 1740.53 1488.49 1813.95 1387.3 1860.33 C 1171.92 1959.07 909.835 1976.47 686.49 1893.33 A 1066.39 1066.39 0 0 1 416.126 1746.5 C 301.547 1659.49 201.398 1537.49 141.788 1406.49 C 71.9001 1252.9 48.8322 1093.14 79.163 926.511 C 86.8876 884.074 97.4003 841.22 112.567 800.798 C 127.989 759.697 145.62 717.596 166.672 678.986 C 263.778 500.893 423.859 359.848 607.988 276.406 A 1032.2 1032.2 0 0 1 1022.65 184.698 C 1033.45 184.522 1071.5 182.123 1079.95 185.317 C 1090.88 178.41 1101.18 169.943 1111.93 162.649 z"/>
<path transform="translate(0,0)" fill="rgb(195,48,58)" d="M 1473.29 1068.46 A 291.957 291.957 0 0 1 1679.91 1151.34 A 295.763 295.763 0 0 1 1769.84 1359.13 C 1770.82 1416.75 1751.63 1480.28 1719.47 1528.25 C 1708.51 1544.6 1694.85 1559.97 1681.14 1574.08 A 281.137 281.137 0 0 1 1481.56 1660.06 C 1412.24 1660.71 1335.85 1632.72 1284.48 1585.52 C 1225.36 1531.2 1187 1454.99 1183.76 1374.3 A 300.6 300.6 0 0 1 1261.96 1162.7 C 1317.87 1102.46 1391.73 1071.77 1473.29 1068.46 z"/>
<path transform="translate(0,0)" fill="rgb(252,252,252)" d="M 1460.71 1112.43 C 1516.44 1106.5 1585.35 1128.71 1628.75 1163.33 C 1683.43 1206.93 1717.85 1268.31 1725.16 1338.06 C 1732.23 1405.6 1710.46 1472.22 1667.73 1524.4 C 1624.71 1576.94 1563.55 1608.44 1496.25 1614.95 C 1427.84 1617.51 1365.04 1597.18 1312.75 1552.23 C 1262.19 1508.76 1232.4 1444.52 1227.78 1378.45 A 253.011 253.011 0 0 1 1289.62 1195.34 C 1333.71 1145.28 1394.44 1116.64 1460.71 1112.43 z"/>
<path transform="translate(0,0)" fill="rgb(195,48,58)" d="M 1472.63 1125.45 C 1532.09 1125.42 1591.63 1146.13 1635.65 1186.85 A 240.713 240.713 0 0 1 1711.61 1353.85 A 243.45 243.45 0 0 1 1644.92 1529.37 A 230.593 230.593 0 0 1 1484.15 1601.02 A 238.239 238.239 0 0 1 1320.78 1539.97 A 238.433 238.433 0 0 1 1242.01 1376.15 A 238.464 238.464 0 0 1 1303.39 1201.24 C 1347.8 1152.47 1407.38 1128.28 1472.63 1125.45 z"/>
<path transform="translate(0,0)" fill="rgb(252,252,252)" d="M 1513.61 1196.19 C 1517.75 1195.82 1522.03 1195.55 1526.18 1195.74 C 1533.94 1196.1 1542.89 1196.95 1548.33 1203.01 C 1549.09 1204.99 1548.73 1206.66 1548.48 1208.71 C 1546.63 1224.27 1543.18 1239.81 1540.23 1255.19 C 1533.63 1289.64 1526.11 1323.94 1519.12 1358.32 L 1498.91 1458.4 C 1495.06 1477.57 1491.81 1497.16 1486.88 1516.06 C 1485.94 1519.66 1485.15 1524.27 1482.03 1526.58 C 1473.7 1532.75 1455.03 1531.65 1445.12 1530.06 C 1438.88 1529.06 1432.81 1527.64 1429 1522.29 C 1426.53 1513.09 1440.63 1455.23 1443.44 1440.83 C 1454.68 1389.61 1463.72 1337.76 1473.73 1286.29 C 1450.81 1303.24 1429.3 1322.97 1405.26 1338.26 C 1396.79 1325.01 1385.23 1313.92 1378.94 1299.42 C 1379.1 1299.16 1379.26 1298.9 1379.43 1298.64 C 1387.62 1286.27 1443.63 1244.31 1457.85 1232.77 C 1470.05 1222.86 1482.19 1210.74 1495.49 1202.47 C 1501.22 1198.91 1507.11 1197.47 1513.61 1196.19 z"/>
<path transform="translate(0,0)" fill="rgb(15,18,52)" d="M 578.661 781.428 C 584.374 780.932 590.4 781.069 596.117 781.413 C 639.348 784.016 685.887 804.921 714.535 837.91 C 723.958 848.759 731.181 861.361 738.892 873.437 C 752.164 894.223 765.105 915.06 777.76 936.221 A 4803.79 4803.79 0 0 1 950.044 1245.67 A 3701.49 3701.49 0 0 1 1035.38 1429.18 C 1048.87 1459.57 1085.53 1534.76 1082.3 1567.23 C 1077.67 1613.92 1040.9 1679.36 1004.46 1708.82 C 950.807 1752.22 804.01 1831.04 735.619 1846.4 C 717.565 1850.45 700.157 1850.78 681.823 1848.78 A 127.249 127.249 0 0 1 618.472 1819.06 C 604.126 1806.59 592.719 1790.76 581.188 1775.76 C 553.422 1739.66 527.966 1701.9 502.292 1664.32 C 487.583 1642.79 472.379 1621.58 457.959 1599.85 A 9425.83 9425.83 0 0 1 304.774 1358.55 A 3002.05 3002.05 0 0 1 231.721 1237.69 C 216.943 1212.47 201.28 1187.52 188.904 1161 C 180.788 1143.6 175.632 1125.69 174.317 1106.49 C 170.294 1047.76 202.234 1001.61 239.342 959.553 A 543.234 543.234 0 0 1 330.779 877.988 C 395.456 832.923 499.726 786.317 578.661 781.428 z"/>
<path transform="translate(0,0)" fill="rgb(252,252,252)" d="M 788.857 1802.43 L 788.976 1802.44 L 789.106 1803.11 C 770 1812.65 748.399 1820.17 727.502 1824.23 L 726.892 1823.05 A 292.157 292.157 0 0 0 735.27 1811.75 C 753.843 1810.88 770.955 1807.13 788.857 1802.43 z"/>
<path transform="translate(0,0)" fill="rgb(252,252,252)" d="M 1032.76 1626.92 L 1033.48 1628.34 C 1028.69 1640.77 1020.32 1653.86 1012.56 1664.75 A 130.102 130.102 0 0 1 989.279 1689.41 C 959.138 1714.08 922.415 1733.14 888.165 1751.36 C 870.057 1761 851.87 1771.21 832.673 1778.51 C 806.149 1788.59 777.353 1795.26 749.383 1799.84 L 748.908 1799.58 C 748.914 1797.54 755.008 1792.46 756.853 1790.58 C 767.646 1779.52 778.012 1767.54 786.018 1754.31 C 797.233 1753.05 808.193 1751.63 819.155 1748.82 C 888.097 1731.14 983.146 1677.55 1032.76 1626.92 z"/>
<path transform="translate(0,0)" fill="rgb(195,48,58)" d="M 321.962 1199.14 C 322.268 1199.09 322.574 1199.05 322.88 1199.01 C 330.071 1198.09 336.281 1200.03 341.96 1204.56 C 356.693 1216.32 366.705 1237 376.161 1253.07 C 394.565 1284.36 424.239 1332.6 428.514 1368.57 C 429.306 1375.23 429.558 1383.82 424.905 1389.23 C 421.96 1392.66 418.7 1392.87 414.479 1393.11 C 387.502 1386.67 365.153 1350.85 350.777 1328.82 C 335.495 1305.41 300.813 1244.88 306.942 1218.44 C 308.996 1209.58 314.438 1203.78 321.962 1199.14 z"/>
<path transform="translate(0,0)" fill="rgb(252,252,252)" d="M 212.54 1034.69 C 215.132 1046.51 215.344 1058.68 218.61 1070.53 C 227.852 1104.05 244.46 1134.41 260.945 1164.78 C 271.719 1184.62 282.4 1204.72 295.894 1222.89 C 295.773 1229.35 295.987 1235.45 297.429 1241.76 C 306.336 1280.72 346.949 1347.57 374.386 1377.07 C 383.036 1386.37 392.183 1393.59 402.91 1400.36 C 409.172 1415.84 425.724 1439.72 434.845 1454.96 A 4414.35 4414.35 0 0 0 528.033 1605.21 A 3191.42 3191.42 0 0 0 601.769 1712.63 C 616.22 1732.98 642.411 1773.88 661.434 1787.9 C 680.066 1801.64 701.856 1806.53 724.038 1811.29 C 719.941 1816.8 716.021 1821.69 709.896 1825.08 C 690.016 1825.62 670.621 1821.7 653 1812.27 C 636.888 1803.65 624.604 1791.77 613.015 1777.79 C 595.649 1756.85 580.258 1733.97 564.547 1711.77 C 531.586 1665.2 500.139 1618.03 468.87 1570.31 C 453.053 1546.18 436.618 1522.46 420.934 1498.22 A 6770.58 6770.58 0 0 1 265.777 1247.68 C 247.833 1217.37 212.955 1166.96 203.68 1135.4 C 193.679 1101.37 195.594 1066.17 212.54 1034.69 z"/>
<path transform="translate(0,0)" fill="rgb(252,252,252)" d="M 290.824 941.933 C 290.565 949.56 284.672 963.674 283.189 972.878 A 117.797 117.797 0 0 0 289.559 1033.11 C 296.431 1050.97 307.192 1067.32 316.621 1083.92 A 4718.8 4718.8 0 0 1 357.167 1156.61 A 6385.28 6385.28 0 0 0 601.325 1566.73 C 631.232 1612.78 660.508 1660.04 692.758 1704.46 C 713.003 1732.35 741.069 1748.49 775.018 1753.82 C 762.973 1770.79 748.806 1785.88 734.636 1801.06 C 716.483 1800.48 700.076 1796.17 683.458 1789.05 A 78.4627 78.4627 0 0 1 658.925 1771.82 C 637.493 1749.81 611.078 1709.06 592.73 1682.51 A 3949.34 3949.34 0 0 1 455.78 1470.92 C 442.116 1448.74 429.226 1426.11 415.512 1403.97 A 72.763 72.763 0 0 0 419.296 1403.16 C 425.975 1401.58 432.155 1397.44 435.635 1391.42 C 442.11 1380.22 438.847 1364.76 435.611 1352.96 C 425.035 1314.38 403.46 1278.74 382.76 1244.92 C 371.884 1227.15 359.329 1201.78 340.116 1191.57 A 26.3928 26.3928 0 0 0 319.922 1189.75 C 309.24 1193.02 303.733 1200.67 298.72 1209.97 C 271.055 1167.22 219.859 1081.19 224.186 1029.76 C 224.806 1022.4 226.29 1014.17 229.969 1007.69 C 239.436 991.026 275.285 955.091 290.824 941.933 z"/>
<path transform="translate(0,0)" fill="rgb(252,252,252)" d="M 578.634 805.413 C 583.442 804.963 588.219 804.929 593.043 805.103 C 629.422 806.415 670.626 825.37 695.248 852.218 C 712.65 871.193 732.295 906.937 746.349 929.867 A 4156.46 4156.46 0 0 1 943.191 1286.21 C 977.457 1355.73 1010.68 1425.06 1037.64 1497.83 C 1044.94 1517.53 1058.29 1542.7 1056.88 1564 C 1055.14 1590.3 1036.49 1611.85 1017.76 1628.44 C 968.663 1671.93 871.112 1729.42 806.546 1741.23 C 794.319 1743.46 782.333 1743.57 769.963 1742.83 C 751.746 1739.08 734.805 1732.03 720.121 1720.44 C 700.36 1704.85 671.181 1655.04 655.705 1631.88 A 6955.8 6955.8 0 0 1 508.87 1402.53 C 490.812 1372.55 473.888 1341.91 456.43 1311.58 A 7641.41 7641.41 0 0 1 336.738 1099.79 C 325.51 1079.43 311.858 1059.7 302.022 1038.68 C 296.625 1027.15 292.92 1015.08 291.549 1002.4 C 288.714 976.162 295.259 945.751 312.088 924.953 C 326.215 907.495 347.052 895.221 366.131 883.822 C 427.866 846.938 506.644 812.602 578.634 805.413 z"/>
<path transform="translate(0,0)" fill="rgb(15,18,52)" d="M 573.75 818.402 A 117.092 117.092 0 0 1 578.617 817.972 C 616.148 815.3 652.799 830.34 680.677 854.925 C 701.52 873.306 714.496 902.02 729.106 925.351 A 4178.23 4178.23 0 0 1 875.344 1181.57 C 927.314 1279.46 976.775 1378.28 1018.34 1481.14 C 1026.98 1502.53 1043.83 1536.52 1044.72 1559.03 C 1045.42 1576.88 1032.86 1593.46 1021.12 1605.68 C 972.276 1656.5 848.571 1729 778.15 1730.7 C 761.405 1729.12 746.761 1724.9 733.35 1714.37 C 708.248 1694.65 672.434 1633.28 653.583 1604.48 A 6848.91 6848.91 0 0 1 543.815 1433.03 C 490.908 1346.09 441.266 1257.43 390.858 1169.06 A 6140.24 6140.24 0 0 1 335.064 1070.95 C 327.274 1056.75 318.741 1042.62 312.08 1027.85 A 93.5821 93.5821 0 0 1 304.126 999.478 C 301.398 975.579 307.966 952.625 323.081 933.902 C 354.428 895.07 453.3 850.699 500.594 835.121 C 524.254 827.328 548.971 821.121 573.75 818.402 z"/>
<path transform="translate(0,0)" fill="rgb(51,49,67)" d="M 577.601 826.427 C 583.765 825.764 590.55 826.122 596.719 826.68 C 628.731 829.571 666.564 847.851 686.971 872.996 C 695.869 883.96 701.847 897.262 709.282 909.222 C 720.881 927.88 733.173 946.061 744.643 964.836 C 773.001 1011.26 798.679 1058.88 825.069 1106.41 C 883.641 1211.91 940.692 1319.54 988.335 1430.51 C 996.131 1448.67 1002.61 1467.27 1009.96 1485.59 C 1017.74 1504.98 1037.31 1542.14 1034.75 1562.81 C 1031.75 1587.05 1005.4 1609.13 987.693 1623.26 C 942.201 1659.53 828.529 1727.85 770.547 1721.32 C 757.838 1718.38 746.454 1713.55 736.375 1705.15 C 720.92 1692.25 713.039 1676.69 702.252 1660.26 C 693.379 1646.74 683.984 1633.51 675.012 1620.04 A 6619.04 6619.04 0 0 1 453.484 1264.44 C 443.681 1247.62 435.527 1229.83 425.806 1212.94 L 365.005 1105.37 C 355.219 1088.22 346.036 1070.84 336.522 1053.56 C 330.407 1042.45 323.476 1031.62 318.316 1020.03 C 314.714 1011.94 312.365 1003.55 311.582 994.709 C 309.693 973.372 318.371 953.49 331.999 937.4 C 344.714 922.388 362.415 911.908 379.081 901.833 C 433.439 868.973 513.662 831.568 577.601 826.427 z"/>
<path transform="translate(0,0)" fill="rgb(15,18,52)" d="M 534.279 880.775 L 536.555 881.498 C 538.146 883.869 538.427 884.163 538.462 886.984 C 533.544 893.519 424.491 946.741 407.786 955.339 C 406.243 955.073 405.627 954.637 404.332 953.809 C 403.887 952.455 403.195 951.448 403.675 950.025 C 404.509 947.556 406.503 946.339 408.569 944.975 C 421.674 936.318 437.132 929.732 451.131 922.591 A 4902.92 4902.92 0 0 1 534.279 880.775 z"/>
<path transform="translate(0,0)" fill="rgb(15,18,52)" d="M 535.758 910.854 L 538.002 911.113 C 540.202 912.9 541.364 913.664 542.189 916.497 C 541.153 919.502 539.997 920.097 537.379 921.81 C 524.704 930.103 510.058 936.114 496.558 943.028 L 418.608 983.09 L 416.035 982.864 C 414.081 981.52 413.659 980.301 412.783 978.143 C 413.036 977.283 412.985 976.264 413.543 975.563 C 415.384 973.252 523.005 917.953 535.758 910.854 z"/>
<path transform="translate(0,0)" fill="rgb(15,18,52)" d="M 557.868 933.984 C 560.685 935.121 561.919 935.926 563.087 938.64 C 561.862 940.972 559.352 941.939 557.125 943.15 C 541.812 951.474 525.752 958.483 510.359 966.714 C 482.369 981.681 454.877 997.847 426.344 1011.76 C 424.404 1011.9 424.489 1011.56 422.97 1010.5 C 422.103 1007.63 422.136 1007.29 422.956 1004.41 C 432.223 995.333 543.661 938.337 557.868 933.984 z"/>
<path transform="translate(0,0)" fill="rgb(15,18,52)" d="M 596.853 852.279 C 604.025 852.59 610.733 853.431 617.203 856.807 A 38.5536 38.5536 0 0 1 636.593 880.899 C 639.043 889.741 638.457 899.542 633.512 907.441 C 628.082 916.114 619.678 919.818 610.121 922.023 C 601.134 922.342 594.507 921.441 586.834 916.37 C 577.455 910.172 569.927 899.724 568.125 888.513 A 31.2902 31.2902 0 0 1 574.365 864.136 C 580.139 856.773 587.812 853.44 596.853 852.279 z"/>
<path transform="translate(0,0)" fill="rgb(82,184,95)" d="M 590.888 859.204 C 596.68 858.487 602.431 858.419 608.078 860.071 C 617.209 862.742 625.458 868.879 629.849 877.42 C 633.292 884.116 634.396 892.227 631.844 899.416 C 628.714 908.233 621.865 912.881 613.708 916.598 C 608.554 917.791 603.2 917.718 598.143 916.131 C 588.796 913.198 581.183 905.938 576.905 897.228 C 573.48 890.253 572.123 882.153 574.792 874.69 C 577.653 866.688 583.465 862.615 590.888 859.204 z"/>
<path transform="translate(0,0)" fill="rgb(15,18,52)" d="M 746.808 1553.83 C 747.124 1553.86 747.444 1553.85 747.756 1553.91 C 750.942 1554.48 752.171 1555.53 754.071 1558.1 C 759.209 1565.04 778.945 1603.47 777.551 1610.46 C 777.204 1612.2 715.692 1648.08 708.406 1652.05 C 706.657 1650.38 705.035 1648.63 703.445 1646.81 C 695.793 1638.04 674.862 1608.69 675.627 1597.35 C 683.23 1588.56 703.99 1580.38 714.808 1573.96 C 725.631 1567.54 736.214 1560.62 746.808 1553.83 z"/>
<path transform="translate(0,0)" fill="rgb(51,49,67)" d="M 744.15 1566.7 C 744.585 1566.78 745.033 1566.8 745.455 1566.93 C 749.451 1568.19 765.172 1599.55 769.377 1605.66 C 751.319 1618.39 730.655 1629.41 711.433 1640.41 C 711.202 1640.39 710.966 1640.41 710.739 1640.37 C 705.243 1639.25 689.142 1607.39 685.126 1600.32 C 706.657 1591.84 723.958 1577.37 744.15 1566.7 z"/>
<path transform="translate(0,0)" fill="rgb(15,18,52)" d="M 903.62 1470.23 C 912.055 1465.45 968.11 1431.87 972.147 1431.05 C 980.463 1434.91 993.278 1467.03 996.7 1476.53 C 997.898 1479.86 1000.03 1485.11 998.189 1488.44 C 994.687 1494.8 940.035 1523.49 932.023 1525.14 L 930.78 1525.29 C 934.416 1551.74 932.218 1579.09 915.541 1600.87 C 900.865 1620.05 876.253 1632.61 852.468 1635.52 A 72.5344 72.5344 0 0 1 798.681 1620.44 C 778.18 1604.22 760.277 1563.28 757.493 1537.75 C 754.847 1513.48 761.431 1489.66 776.901 1470.71 C 790.686 1453.83 810.05 1442.31 831.875 1440.12 C 852.759 1438.03 873.857 1443.06 890.19 1456.62 C 895.083 1460.68 899.33 1465.55 903.62 1470.23 z"/>
<path transform="translate(0,0)" fill="rgb(51,49,67)" d="M 909.368 1476.54 C 930.736 1467.35 951.259 1454.89 971.973 1444.22 C 977.26 1458.01 984.115 1471.41 988.888 1485.33 C 982.853 1488.49 933.54 1512.84 931.313 1516.19 C 930.851 1516.88 930.775 1517.77 930.506 1518.56 C 930.895 1520.84 931.166 1522.98 932.023 1525.14 L 930.78 1525.29 C 926.043 1507.47 918.814 1492.3 909.368 1476.54 z"/>
<path transform="translate(0,0)" fill="rgb(252,252,252)" d="M 833.521 1450.2 C 849.132 1448.97 864.67 1451.94 877.981 1460.44 C 898.784 1473.73 914.091 1500.24 919.062 1524.04 C 923.738 1546.42 920.759 1572.27 908.056 1591.63 C 895.745 1610.4 877.288 1620.46 855.706 1624.79 C 839.029 1626.67 824.567 1624.93 810.286 1615.59 C 789.028 1601.69 776.867 1574.11 771.789 1550.07 C 766.826 1526.57 768.87 1503.46 782.456 1483.16 C 794.729 1464.82 812.083 1454.4 833.521 1450.2 z"/>
<path transform="translate(0,0)" fill="rgb(15,18,52)" d="M 854.671 1474.6 C 857.423 1474.8 859.525 1474.72 861.755 1476.57 C 863.62 1483.24 851.552 1522.77 849.327 1531.73 C 864.878 1537.28 889.035 1543.01 902.723 1549.75 C 905.154 1550.95 907.539 1552.37 908.393 1555.09 C 907.814 1557.29 907.006 1557.92 905.074 1559.2 C 901.908 1561.28 853.068 1544.36 845.592 1542.33 A 1727.49 1727.49 0 0 1 832.132 1594.48 C 831.772 1595.67 831.407 1596.87 830.91 1598 C 829.624 1600.94 826.947 1602.57 824.093 1603.77 L 823.111 1603.24 C 819.554 1595.68 832.688 1549.92 835.605 1538.93 C 823.012 1534.36 793.766 1528.29 784.96 1519.53 C 784.809 1517.34 784.755 1517.17 785.886 1515.33 C 794.415 1512.47 828.405 1525.75 838.762 1528.86 C 843.669 1511.3 847.282 1491.23 854.671 1474.6 z"/>
<path transform="translate(0,0)" fill="rgb(15,18,52)" d="M 648.9 950.263 C 663.149 948.996 677.162 950.113 690.058 956.72 C 701.767 962.718 710.441 971.956 718.094 982.477 C 728.084 996.212 736.097 1011.92 744.688 1026.59 L 797.087 1117.97 C 822.743 1163.37 847.562 1206.68 870.971 1253.43 C 877.802 1267.07 886.383 1281.07 891.029 1295.56 C 894.326 1305.84 896.639 1320.81 891.262 1330.56 C 888.998 1334.67 885.902 1338.04 882.092 1340.76 C 871.229 1348.49 858.878 1354.87 847.359 1361.63 L 793.847 1393.62 C 763.447 1411.9 687.056 1464.23 657.815 1472.01 A 52.9994 52.9994 0 0 1 618.398 1463.69 C 603.501 1453.71 591.416 1435.39 581.637 1420.62 C 567.646 1399.48 555.679 1376.83 543.155 1354.8 L 488.804 1260.6 C 476.706 1239.88 464.911 1218.36 452.022 1198.2 C 441.7 1182.06 429.496 1166.89 420.014 1150.22 C 416.076 1143.3 412.987 1135.91 411.64 1128.03 C 408.709 1110.88 413.373 1090.33 423.433 1076.14 C 427.098 1070.97 431.516 1066.38 436.811 1062.87 C 467.381 1042.59 502.136 1027.22 534.413 1009.79 C 566.563 992.437 598.899 972.007 631.551 956.181 C 637.245 953.422 642.618 951.35 648.9 950.263 z"/>
<path transform="translate(0,0)" fill="rgb(252,252,252)" d="M 825.865 1185.88 L 827.058 1186.26 C 836.608 1199.14 879.374 1276.81 884.424 1291.76 C 887.919 1302.11 889.779 1316.27 884.353 1326.2 C 882.285 1329.98 879.068 1333.04 875.539 1335.45 C 862.611 1344.29 848.743 1352.08 835.286 1360.09 A 8631.63 8631.63 0 0 1 753.931 1407.83 C 733.152 1420.1 675.021 1458.9 656.235 1463.18 C 642.293 1466.36 628.456 1461.82 616.952 1454.06 C 590.968 1431.79 561.86 1375.89 544.847 1344.25 C 596.692 1313.58 650.024 1284.94 702.621 1255.55 C 743.819 1232.53 784.447 1208.49 825.865 1185.88 z"/>
<path transform="translate(0,0)" fill="rgb(4,0,11)" d="M 690.123 1290.4 L 690.818 1296.43 C 684.054 1305.81 683.521 1318.45 685.378 1329.53 C 687.562 1342.57 693.901 1356.73 704.885 1364.56 A 62.0692 62.0692 0 0 0 716.603 1371.08 L 717.914 1372.27 C 719.575 1373.75 721.327 1374.92 723.184 1376.15 L 722.953 1377.33 C 715.965 1376.45 709.111 1373.22 703.331 1369.25 C 691.551 1361.15 684.029 1348.3 681.291 1334.42 C 678.17 1318.59 681.187 1303.82 690.123 1290.4 z"/>
<path transform="translate(0,0)" fill="rgb(224,53,65)" d="M 690.123 1290.4 C 697.275 1281.24 706.524 1275.21 718.184 1273.62 C 731.311 1271.82 744.365 1276.08 754.768 1284.08 A 60.1352 60.1352 0 0 1 777.462 1324.91 C 778.795 1338 775.43 1352.1 766.565 1362.08 C 764.234 1364.71 761.147 1367.56 757.967 1369.1 C 748.681 1375.21 735.376 1380.35 724.058 1377.72 C 723.678 1377.63 723.321 1377.46 722.953 1377.33 L 723.184 1376.15 C 721.327 1374.92 719.575 1373.75 717.914 1372.27 L 716.603 1371.08 A 62.0692 62.0692 0 0 1 704.885 1364.56 C 693.901 1356.73 687.562 1342.57 685.378 1329.53 C 683.521 1318.45 684.054 1305.81 690.818 1296.43 L 690.123 1290.4 z"/>
<path transform="translate(0,0)" fill="rgb(252,252,252)" d="M 728.889 1352.75 C 730.194 1351.93 730.717 1351.83 732.291 1351.78 C 738.084 1351.58 742.299 1350.56 747.611 1348.18 C 746.862 1351.26 746.942 1353.19 744.139 1355.15 C 740.359 1357.79 735.32 1356.51 731.328 1355.29 L 728.889 1352.75 z"/>
<path transform="translate(0,0)" fill="rgb(16,3,26)" d="M 754.269 1366.13 L 754.034 1367.9 L 749.377 1370.76 L 748.893 1369.1 L 750.446 1371.79 L 749.197 1370.73 C 753.351 1371.16 753.896 1368.41 757.967 1369.1 C 748.681 1375.21 735.376 1380.35 724.058 1377.72 C 723.678 1377.63 723.321 1377.46 722.953 1377.33 L 723.184 1376.15 C 721.327 1374.92 719.575 1373.75 717.914 1372.27 L 716.603 1371.08 C 730.658 1373.89 741.424 1372.29 754.269 1366.13 z"/>
<path transform="translate(0,0)" fill="rgb(15,18,52)" d="M 690.123 1290.4 C 697.275 1281.24 706.524 1275.21 718.184 1273.62 C 731.311 1271.82 744.365 1276.08 754.768 1284.08 A 60.1352 60.1352 0 0 1 777.462 1324.91 C 778.795 1338 775.43 1352.1 766.565 1362.08 C 764.234 1364.71 761.147 1367.56 757.967 1369.1 C 753.896 1368.41 753.351 1371.16 749.197 1370.73 L 750.446 1371.79 L 748.893 1369.1 L 749.377 1370.76 L 754.034 1367.9 L 754.269 1366.13 A 151.801 151.801 0 0 0 759.121 1361.58 C 768.49 1352.32 772.627 1340.01 772.439 1326.97 C 772.237 1312.98 767.084 1300.15 756.791 1290.54 C 747.619 1281.97 735.748 1276.93 723.1 1277.8 C 716.66 1278.25 704.408 1280.95 699.471 1285.78 C 696.471 1288.71 694.269 1292.65 691.397 1295.8 L 690.818 1296.43 L 690.123 1290.4 z"/>
<path transform="translate(0,0)" fill="rgb(252,252,252)" d="M 692.918 1309.07 C 695.565 1308.71 698.393 1308.42 700.968 1307.71 C 707.23 1305.98 709.593 1303.24 712.618 1297.68 L 713.249 1296.49 L 715.382 1295.86 C 726.424 1300.84 727.637 1294.09 736.957 1295.42 C 740.739 1295.95 743.955 1298.36 746.079 1301.46 C 751.986 1310.09 752.191 1320.89 750.64 1330.82 C 750.863 1336.25 751.23 1341.49 750.241 1346.87 C 749.35 1347.39 748.592 1347.85 747.611 1348.18 C 742.299 1350.56 738.084 1351.58 732.291 1351.78 C 730.717 1351.83 730.194 1351.93 728.889 1352.75 L 727.043 1352.45 C 724.761 1353.75 723.134 1353.73 720.488 1353.4 C 706.067 1351.6 704.758 1330.25 700.154 1319.78 C 698.48 1315.97 695.416 1312.39 692.918 1309.07 z"/>
<path transform="translate(0,0)" fill="rgb(195,48,58)" d="M 718.43 1336.67 C 718.606 1337.37 718.876 1338.56 719.172 1339.19 C 719.659 1340.22 720.267 1341.2 721.446 1341.36 C 725.61 1341.95 733.907 1338.69 737.38 1336.37 C 738.118 1333.9 738.467 1331.88 740.649 1330.26 C 743.771 1330.84 746.514 1331.06 749.692 1330.88 L 750.64 1330.82 C 750.863 1336.25 751.23 1341.49 750.241 1346.87 C 749.35 1347.39 748.592 1347.85 747.611 1348.18 C 742.299 1350.56 738.084 1351.58 732.291 1351.78 C 730.717 1351.83 730.194 1351.93 728.889 1352.75 L 727.043 1352.45 C 724.227 1351.37 721.501 1349.9 718.854 1348.46 C 712.577 1345.04 709.63 1341.29 707.586 1334.5 C 711.24 1334.9 715.104 1335.01 718.43 1336.67 z"/>
<path transform="translate(0,0)" fill="rgb(224,53,65)" d="M 716.786 1304.51 C 724.335 1301.27 731.763 1298.88 740.076 1299.25 C 748.228 1307.73 747.07 1314.16 748.802 1325.17 L 739.235 1329.25 C 732.712 1332.55 726.329 1336.57 718.868 1336.6 C 718.72 1336.6 718.576 1336.65 718.43 1336.67 C 715.104 1335.01 711.24 1334.9 707.586 1334.5 C 708.178 1325.61 704.815 1319.04 699.503 1312.14 C 705.574 1310.13 711.092 1307.38 716.786 1304.51 z"/>
<path transform="translate(0,0)" fill="rgb(195,48,58)" d="M 716.786 1304.51 C 724.335 1301.27 731.763 1298.88 740.076 1299.25 C 738.197 1301.44 737.308 1301.7 737.585 1304.67 C 737.968 1308.77 740.293 1312.47 738.945 1316.59 L 737.668 1317.85 C 736.002 1316.49 734.84 1314.97 733.515 1313.3 L 731.83 1313.01 L 730.241 1315.59 C 728.873 1313.96 727.985 1311.91 726.746 1310.17 C 725.353 1308.21 723.929 1306.37 721.478 1305.87 C 721.54 1308.8 725.015 1311.72 726.655 1314.26 C 722.488 1311.93 719.802 1308.12 716.786 1304.51 z"/>
<path transform="translate(0,0)" fill="rgb(252,252,252)" d="M 655.191 957.289 C 662.416 956.914 669.592 957.697 676.484 959.932 C 687.595 963.536 697.482 970.528 705.271 979.158 C 724.118 1000.04 737.784 1028.32 751.956 1052.54 C 776.642 1094.71 801.553 1136.56 823.474 1180.27 C 757.013 1215.27 692.347 1253.73 626.654 1290.17 L 574.876 1195.35 C 566.955 1180.86 542.376 1143.11 540.49 1129.05 C 539.703 1123.17 540.41 1115.74 544.291 1110.98 C 552.23 1101.25 648.954 1051.4 668.637 1040.3 C 675.541 1036.4 687.426 1031.61 692.119 1025.63 L 691.914 1024.29 C 691.518 1024.13 691.132 1023.95 690.726 1023.81 C 684.104 1021.63 642.923 1046.8 635.51 1050.85 A 4961.31 4961.31 0 0 0 574.44 1084.29 C 564.363 1089.91 552.822 1095.22 543.898 1102.54 C 540.353 1105.45 537.799 1109.16 536.176 1113.44 C 533.412 1120.74 533.373 1129.32 535.668 1136.74 C 539.71 1149.81 551.23 1166.16 558.013 1178.29 L 595.694 1246.87 C 604.077 1262.09 613.219 1277.26 620.426 1293.06 C 595.479 1310.1 566.788 1321.45 542.006 1338.65 A 5322.88 5322.88 0 0 0 483.026 1236.19 A 5641.98 5641.98 0 0 0 449.984 1182.72 C 439.935 1166.71 424.67 1148.66 420.443 1129.93 C 416.824 1113.9 420.95 1095.87 430.297 1082.38 C 434.484 1076.33 440.917 1071.65 447.082 1067.73 C 460.304 1059.34 474.923 1052.53 488.724 1045.1 L 550.279 1011.19 C 578.172 995.925 610.327 975.583 638.469 962.543 C 643.95 960.003 649.275 958.435 655.191 957.289 z"/>
<path transform="translate(0,0)" fill="rgb(195,48,58)" d="M 676.737 1051.99 C 680.084 1052 683.318 1052.08 686.532 1053.12 C 689.645 1054.14 692.017 1056.16 693.363 1059.2 C 696.92 1067.24 688.893 1204.08 685.152 1213.32 C 682.853 1215.71 681.541 1216.42 678.39 1217.46 C 671.361 1216.4 628.122 1181.69 619.163 1175 C 611.207 1169.71 595.417 1161.48 592.455 1152.23 C 591.558 1149.43 592.42 1146.93 593.926 1144.55 C 595.423 1142.19 597.693 1140.61 600.463 1140.13 C 612.795 1137.98 649.858 1167.92 660.919 1175.62 C 660.805 1153.01 663.721 1130.21 665.213 1107.65 C 666.173 1093.13 665.382 1073.74 669.001 1060.06 C 670.122 1055.82 673.242 1054.11 676.737 1051.99 z"/>
<path transform="translate(0,0)" fill="rgb(15,18,52)" d="M 1111.93 162.649 C 1135.52 148.493 1158.37 134.723 1183.47 123.283 C 1289.28 75.0667 1410.89 62.2304 1525.37 79.6597 C 1549.77 83.3757 1574.4 89.3242 1598.34 95.3482 C 1616.75 99.9813 1634.71 106.5 1652.48 113.13 C 1765.88 155.448 1880.27 236.2 1942.85 341.652 C 1995.1 429.694 2013.71 532.404 1987.91 632.357 C 1972.68 691.344 1941.17 745.033 1902.33 791.469 C 1896.66 797.865 1891.06 804.315 1884.96 810.312 C 1870.88 823.085 1857.56 836.314 1842.73 848.265 C 1793.01 888.323 1733.1 919.208 1672.04 937.805 C 1508.28 987.689 1330 961.966 1180.21 882.244 C 1157.55 896.124 1135.91 912.306 1114.2 927.625 L 1010.51 1000.27 C 998.299 1008.71 975.05 1028.15 962.583 1031.96 C 956.284 1033.88 948.691 1032.64 943.116 1029.24 C 938.391 1026.36 935.274 1021.83 934.146 1016.42 C 933.108 1011.44 933.617 1005.36 935.686 1000.68 C 940.476 989.866 959.598 965.012 967.343 953.319 L 1072.19 797.53 C 1054.5 782.044 1038.61 765.478 1023.6 747.392 C 955.316 665.093 914.842 561.885 924.958 453.953 C 931.079 388.641 958.509 320.195 998.185 268.017 C 1022 236.699 1049.8 210.369 1079.95 185.317 C 1090.88 178.41 1101.18 169.943 1111.93 162.649 z"/>
<path transform="translate(0,0)" fill="rgb(252,252,252)" d="M 1407.33 101.428 C 1485.24 96.7001 1577.02 115.809 1649.62 143.369 C 1771.57 189.665 1886.32 279.425 1940.57 400.249 A 340.742 340.742 0 0 1 1948.11 660.434 C 1909.15 762.103 1819.26 843.634 1720.83 887.188 C 1566.29 955.567 1410.22 944.873 1255.26 885.307 A 726.861 726.861 0 0 1 1226.16 872.6 C 1215.04 867.327 1203.17 859.999 1191.24 857.059 L 1040.94 961.809 C 1015.82 979.355 991.224 998.153 965.792 1015.18 C 963.48 1016.73 961.124 1017.99 958.416 1018.68 C 955.371 1019.45 952.392 1019.24 949.826 1017.22 C 942.442 1011.41 952.046 1000.4 955.612 995.149 C 969.872 974.172 1091.9 794.85 1093.61 786.814 C 1094.29 783.654 1093.51 780.185 1091.91 777.411 C 1088.46 771.405 1071.88 758.722 1065.92 752.254 C 1002.58 683.493 958.778 598.503 953.599 504.006 C 948.62 413.181 983.969 325.485 1044.18 258.277 C 1136.7 155.017 1271.88 108.832 1407.33 101.428 z"/>
<path transform="translate(0,0)" fill="rgb(195,48,58)" d="M 1254.88 401.04 C 1260.75 400.729 1265.05 401.762 1269.45 405.923 C 1273.19 409.465 1275.6 414.342 1275.43 419.559 C 1274.99 433.926 1260.01 436.04 1250.16 441.82 C 1242.77 446.155 1235.56 451.364 1229.37 457.297 C 1209.92 475.94 1205.37 497.084 1204.85 523.107 C 1200.23 529.41 1197.21 531.691 1189.73 534.18 C 1185.93 534.117 1182.1 534.103 1178.54 532.618 C 1174.2 530.809 1171.1 526.941 1169.56 522.573 C 1163.54 505.573 1174.12 477.561 1181.89 462.326 C 1197.09 432.483 1223.01 411.339 1254.88 401.04 z"/>
<path transform="translate(0,0)" fill="rgb(195,48,58)" d="M 1245.69 321.137 C 1247.87 320.895 1250.09 320.642 1252.29 320.732 C 1257.45 320.944 1263.09 323.439 1266.54 327.313 C 1269.8 330.97 1270.98 335.751 1270.72 340.568 C 1270.49 344.857 1268.75 349.317 1265.38 352.1 C 1258.29 357.943 1246.47 360.17 1237.96 363.74 A 185.661 185.661 0 0 0 1183.08 398.865 C 1154.04 425.679 1135.27 467.728 1130.94 506.735 C 1129.88 516.295 1131.27 525.947 1130.61 535.517 C 1130.17 541.926 1127.26 544.603 1122.58 548.684 C 1117.47 550.592 1111.69 551.686 1106.48 549.497 C 1102.78 547.945 1100.22 544.71 1098.75 541.065 C 1096.04 534.343 1096.29 526.427 1096.39 519.299 A 212.5 212.5 0 0 1 1115.81 433.531 C 1142.39 374.246 1186.98 343.379 1245.69 321.137 z"/>
<path transform="translate(0,0)" fill="rgb(195,48,58)" d="M 1237.11 243.07 C 1239.52 242.926 1241.94 242.792 1244.31 243.349 C 1248.84 244.411 1252.71 247.444 1255.11 251.388 A 17.5356 17.5356 0 0 1 1256.88 265.78 C 1255.7 269.613 1253.33 273.239 1250.16 275.728 C 1241.54 282.515 1210.12 291.439 1197.05 298.429 A 264.317 264.317 0 0 0 1060.64 493.955 A 160.708 160.708 0 0 0 1059.04 517.482 C 1059.05 527.367 1061.98 543.28 1058.77 552.338 C 1056.51 558.738 1052.2 561.01 1046.28 563.635 C 1041.81 563.886 1037.61 564.146 1033.45 562.184 C 1029.72 560.428 1027.39 557.191 1026.08 553.364 C 1023.5 545.804 1024.02 536.041 1023.82 528.06 C 1022.56 478.452 1036.35 430.928 1059.36 387.334 C 1095.97 317.97 1162.73 266.194 1237.11 243.07 z"/>
<path transform="translate(0,0)" fill="rgb(15,18,52)" d="M 1444.57 136.323 C 1446.56 136.457 1448.15 136.955 1449.9 137.91 C 1470.36 149.091 1490.15 163.15 1509.95 175.577 L 1652.75 265.826 L 1794.2 355.117 L 1834.58 380.457 C 1843.02 385.715 1852 390.659 1859.74 396.929 C 1847.17 426.826 1836.74 457.761 1825.06 488.03 L 1729.9 738.164 L 1702.91 809.613 C 1697.13 825.283 1692.06 841.656 1684.93 856.758 A 1658.54 1658.54 0 0 0 1645.96 876.828 L 1638.93 880.378 C 1629.54 875.031 1620.77 868.374 1611.84 862.305 A 1433.99 1433.99 0 0 0 1568.92 834.24 L 1395.66 725.82 A 6732.54 6732.54 0 0 1 1281.97 653.078 C 1266.07 642.785 1248.28 633.506 1233.67 621.481 C 1233.45 616.175 1389.56 204.137 1405.81 165.058 C 1407.9 160.036 1410.27 154.917 1413.7 150.659 C 1421.54 140.9 1432.7 137.805 1444.57 136.323 z"/>
<path transform="translate(0,0)" fill="rgb(252,252,252)" d="M 1441.26 155.777 C 1443.67 155.565 1445.13 156.383 1447.16 157.55 C 1473.63 172.789 1499.36 190.665 1525.25 206.961 L 1741.7 344.705 C 1772.79 364.197 1804.52 382.781 1835.96 401.712 C 1830.18 405.069 1824.39 407.815 1818.25 410.425 L 1816.91 410.871 C 1800.24 409.108 1600.15 277 1567.57 256.208 L 1423.7 165.091 C 1429.47 161.855 1435.4 158.862 1441.26 155.777 z"/>
<path transform="translate(0,0)" fill="rgb(252,252,252)" d="M 1841.69 410.997 L 1842.19 411.439 C 1842.79 414.878 1840.1 420.312 1838.84 423.715 C 1829.67 448.435 1819.24 472.724 1809.75 497.325 L 1760.75 627.011 L 1717.87 739.517 C 1704.48 775.047 1691.42 810.917 1676.85 845.975 C 1668.99 850.658 1660.77 854.307 1652.43 858.033 L 1651.79 857.594 C 1651.61 857.086 1651.29 856.607 1651.24 856.07 C 1651.16 855.124 1662.82 827.237 1664.01 824.112 A 19441.7 19441.7 0 0 1 1819.79 420.062 L 1841.69 410.997 z"/>
<path transform="translate(0,0)" fill="rgb(252,252,252)" d="M 1419.84 173.48 C 1450.04 191.524 1479.13 211.103 1508.84 229.879 A 10033.1 10033.1 0 0 1 1695.62 348.8 C 1721.48 365.377 1747.93 381.026 1773.83 397.554 C 1785.4 404.943 1798.5 412.129 1808.63 421.451 L 1706.91 681.441 C 1684.18 740.887 1662.28 800.768 1638.28 859.711 L 1637.14 862.212 L 1635.73 862.565 C 1617.21 851.517 1599.91 838.255 1582.11 826.093 A 2489.66 2489.66 0 0 0 1491.19 766.096 L 1339.58 669.87 C 1311.13 651.839 1281.34 634.653 1254.15 614.825 C 1263.45 587.88 1274.23 561.403 1284.13 534.662 L 1365.38 319.719 C 1384.06 271.28 1404.08 222.966 1419.84 173.48 z"/>
<path transform="translate(0,0)" fill="rgb(15,18,52)" d="M 1445.21 243.202 C 1450.52 242.807 1456.09 242.433 1461.36 243.395 C 1469.15 244.819 1521.05 281.192 1532.04 288.242 L 1665.91 373.066 C 1683.82 384.441 1702.8 394.983 1720.11 407.19 C 1726.89 411.968 1732.86 417.551 1737.52 424.445 C 1745.97 436.955 1751.47 455.67 1748.24 470.66 C 1744.76 486.791 1731 514.857 1724.32 531.379 L 1667.06 673.019 C 1657.52 696.614 1648.42 720.408 1639.18 744.124 C 1635.13 754.507 1631.74 765.846 1626.76 775.762 C 1624.06 781.142 1619.26 785.13 1614.38 788.432 C 1608.21 790.691 1602.21 790.936 1595.75 790.957 L 1594.25 790.125 C 1580.42 782.609 1567.82 772.6 1554.7 763.883 C 1530.11 747.533 1505.25 731.442 1480.34 715.571 L 1382.1 652.784 C 1365.81 642.515 1346.63 633.007 1331.89 620.768 C 1325.73 615.644 1319.93 606.927 1316.94 599.469 C 1312.75 589.058 1311.27 576.575 1313.58 565.598 C 1318.02 544.439 1327.96 523.56 1335.83 503.422 L 1374.89 403.003 A 4162.03 4162.03 0 0 0 1408.37 313.193 C 1415.17 294.356 1421.1 274.259 1429.57 256.174 C 1432.92 249.024 1438.03 245.92 1445.21 243.202 z"/>
<path transform="translate(0,0)" fill="rgb(252,252,252)" d="M 1452.59 250.24 C 1454.9 250.293 1457.26 250.458 1459.53 250.901 C 1467.53 252.462 1511.97 284.711 1522.43 291.429 L 1649.03 371.446 C 1671.31 385.449 1694.59 398.898 1716.05 414.118 C 1722.36 418.595 1727.68 423.603 1731.93 430.136 C 1739.53 441.832 1743.69 457.805 1740.4 471.552 C 1736.66 487.167 1726.41 507.964 1720.27 523.242 L 1667.08 653.386 L 1632.17 741.743 C 1628.08 751.892 1624.93 763.342 1619.96 773.031 C 1617.66 777.501 1613.44 780.221 1609.35 782.874 C 1605.01 784.411 1600.46 785.018 1596.22 782.91 C 1584.32 776.99 1573 767.037 1561.9 759.584 C 1536.78 742.726 1511.29 726.382 1485.89 709.938 L 1383.7 644.744 C 1369.07 635.397 1352.14 626.624 1338.68 615.756 C 1330.98 609.543 1325.62 601.717 1322.61 592.275 C 1319.69 583.136 1319.31 574.206 1321.64 564.86 C 1327.25 542.413 1337.9 519.59 1346.43 497.998 L 1383.88 400.983 L 1416.65 312.959 C 1423.66 293.832 1429.91 273.769 1439.19 255.609 C 1443.72 253.148 1447.52 251.378 1452.59 250.24 z"/>
<path transform="translate(0,0)" fill="rgb(82,184,95)" d="M 1645.58 419.158 C 1655 418.743 1662.41 419.531 1670.23 425.341 A 28.8347 28.8347 0 0 1 1681.62 445.195 C 1682.47 452.565 1680.29 461.398 1675.49 467.171 C 1663.54 481.553 1637.39 499.331 1621.57 511.527 L 1552.91 565.126 L 1480.09 623.216 C 1469.88 631.22 1459.69 639.977 1448.89 647.149 C 1444.71 649.92 1439.54 651.617 1434.55 651.948 C 1426.26 652.498 1417.13 649.758 1410.88 644.223 C 1395.76 630.833 1398.69 593.326 1397.85 574.15 C 1395.72 557.771 1395.52 540.915 1394.12 524.434 C 1393.04 511.633 1389.94 497.766 1390.88 485.008 C 1391.24 480.182 1392.69 475.67 1395.65 471.79 C 1399.8 466.363 1406.27 463.112 1412.99 462.323 C 1419.76 461.526 1426.84 463.294 1432.19 467.588 A 22.8191 22.8191 0 0 1 1439.31 477.648 C 1445.21 494.272 1446.5 548.016 1449.09 569.463 C 1459.78 562.586 1469.3 553.522 1479.24 545.609 C 1489.84 537.182 1500.85 529.291 1511.44 520.862 C 1538.61 499.237 1565.25 477.034 1592.75 455.809 C 1606.61 445.116 1620.35 432.434 1635.21 423.294 C 1638.53 421.251 1641.82 420.131 1645.58 419.158 z"/>
</svg>