<svg version="1.1" xmlns="http://www.w3.org/2000/svg" style="display: block;" viewBox="0 0 2048 2048" width="1024" height="1024">
<path transform="translate(0,0)" fill="rgb(48,105,155)" d="M 0 0 L 1.79813 0 L 975.999 0 L 2048 0 L 2048 451.84 L 2048 460.984 L 2048 2048 L 0 2048 L 0 1962.01 L 0 1952.07 L 0 1515.94 L 0 0 z"/>
<path transform="translate(0,0)" fill="rgb(189,216,219)" d="M 0 0 L 1.79813 0 L 1.80174 1035.35 L 1.84614 1343.53 C 1.84965 1401.06 1.00983 1458.73 2.13482 1516.24 L 0 1515.94 L 0 0 z"/>
<path transform="translate(0,0)" fill="rgb(118,196,166)" d="M 671.501 482.232 A 62.9687 62.9687 0 0 1 711.171 490.49 A 58.2943 58.2943 0 0 1 737.867 527.091 C 741.785 543.296 739.319 561.411 730.389 575.574 C 721.08 590.337 706.875 599.091 690.058 602.791 C 674.673 604.034 660.403 602.086 647.333 593.27 A 60.6033 60.6033 0 0 1 621.963 553.914 C 618.973 537.854 622.079 520.719 631.395 507.186 C 641.148 493.017 654.806 485.255 671.501 482.232 z"/>
<path transform="translate(0,0)" fill="rgb(118,196,166)" d="M 689.09 366.414 C 712.797 365.427 741.67 368.536 763.667 377.854 C 757.152 396.919 749.508 415.26 744.166 434.738 C 716.306 426.573 688.791 425.138 660.797 433.839 C 627.224 444.274 602.224 465.605 585.921 496.567 C 583.231 502.183 581.077 508.048 578.804 513.843 A 905.009 905.009 0 0 0 520.008 497.23 C 527.324 472.053 541.878 447.929 558.98 428.217 C 591.503 390.73 640.125 369.757 689.09 366.414 z"/>
<path transform="translate(0,0)" fill="rgb(118,196,166)" d="M 682.156 254.419 C 722.775 251.304 763.804 259.979 802.064 272.962 C 795.816 292.156 788.361 311.214 781.166 330.08 C 740.875 315.012 693.267 310.602 651.127 319.684 A 241.941 241.941 0 0 0 497.094 426.836 C 486.46 444.904 478.632 463.608 471.533 483.257 C 453.277 476.807 434.245 471.143 415.276 467.209 C 424.233 425.734 449.18 385.158 476.951 353.281 C 528.737 293.837 604.148 259.748 682.156 254.419 z"/>
<path transform="translate(0,0)" fill="rgb(118,196,166)" d="M 689.648 137.452 C 742.599 134.894 792.738 147.029 842.368 164.078 C 834.522 182.457 827.865 201.359 821.014 220.125 A 339.892 339.892 0 0 0 622.407 206.109 A 356.286 356.286 0 0 0 397.13 367.972 C 380.674 394.082 369.711 422.568 360.62 451.92 C 341.671 445.613 322.535 439.042 303.077 434.488 C 315.09 379.537 357.116 312.128 395.132 270.761 C 473.068 185.954 575.469 142.21 689.648 137.452 z"/>
<path transform="translate(0,0)" fill="rgb(83,152,200)" d="M 1337.62 320.475 A 270.692 270.692 0 0 1 1467.68 349.607 A 271.515 271.515 0 0 1 1605.85 508.794 C 1627.94 575.228 1623.83 650.769 1591.94 713.368 C 1564.47 767.257 1517.01 811.261 1462.59 837.196 C 1446.66 844.791 1429.96 850.463 1413.2 855.914 A 2794.84 2794.84 0 0 1 1441.41 778.736 C 1453.24 744.929 1466.14 711.343 1478.98 677.899 C 1485.51 660.881 1492.74 643.88 1498.44 626.576 C 1501.39 617.594 1504.35 607.536 1499.61 598.725 C 1497.05 593.961 1493.32 589.443 1488.46 586.935 C 1476.65 580.847 1462.31 577.022 1449.73 572.591 L 1369.88 544.582 L 1245.84 501.222 C 1201.59 485.269 1157.54 468.233 1112.65 454.173 C 1121.13 438.284 1132.24 423.632 1144.34 410.336 C 1194.59 355.146 1263.45 324.18 1337.62 320.475 z"/>
<path transform="translate(0,0)" fill="rgb(254,254,254)" d="M 378.782 655.221 C 388.969 653.936 399.304 654.509 408.934 658.347 C 427.165 665.613 435.194 681.11 442.561 697.98 C 465.345 687.145 488.17 671.955 514.284 680.42 C 529.498 685.351 538.719 695.836 545.792 709.654 C 570.251 757.442 590.432 808.064 611.931 857.259 C 619.545 874.679 636.879 908.805 640.535 925.111 C 642.381 933.341 641.067 943.147 638.353 951.031 C 635.745 958.606 631.54 966.052 624.859 970.654 C 614.148 978.033 601.111 982.735 589.255 988.012 L 541.759 1009.42 L 356.364 1094.18 L 304.513 1118.08 C 291.887 1123.89 278.492 1131.39 264.879 1134.32 C 257.876 1135.82 250.428 1135.79 243.596 1133.51 C 232.672 1129.87 225.757 1122.18 220.919 1112.03 C 213.41 1096.28 207.026 1079.78 200.119 1063.74 L 160.421 972.093 C 150.627 949.544 132.045 914.019 125.984 891.723 C 122.832 880.128 122.256 868.607 126.484 857.148 C 136.387 830.31 170.168 820.179 194.159 809.313 C 192.186 804.265 190.204 799.036 188.894 793.771 C 184.528 776.231 187.611 759.088 197.268 743.866 C 201.639 736.977 209.434 731.863 216.442 727.851 C 237.528 715.778 271.2 702.65 294.34 692.156 A 4441.94 4441.94 0 0 0 341.318 670.5 C 353.445 664.872 365.668 658.158 378.782 655.221 z"/>
<path transform="translate(0,0)" fill="rgb(48,105,155)" d="M 381.879 662.14 C 389.955 661.876 397.417 662.217 405.087 665.179 C 423.944 672.463 431.705 690.728 439.261 707.86 C 460.804 697.522 488.688 679.267 512.97 688.226 C 532.122 695.293 539.4 712.487 546.993 729.699 C 511.89 746.834 475.854 762.252 440.293 778.422 L 259.744 860.339 C 246.06 865.93 232.651 872.681 219.179 878.793 A 3000.18 3000.18 0 0 0 142.981 913.961 C 135.617 897.312 127.1 879.445 133.246 860.955 C 139.932 840.841 159.493 833.7 176.961 825.531 L 204.684 812.29 C 201.401 804.895 197.756 797.373 195.912 789.465 C 192.72 775.78 195.387 760.4 203.341 748.702 C 206.532 744.009 210.946 739.535 215.879 736.674 C 223.775 732.096 232.737 728.62 241.065 724.84 L 285.564 704.63 L 343.489 678.018 C 355.613 672.449 368.825 664.783 381.879 662.14 z"/>
<path transform="translate(0,0)" fill="rgb(254,254,254)" d="M 367.556 718.931 C 370.004 718.743 371.196 718.999 373.433 720.002 C 375.152 722.155 375.577 722.273 375.586 724.98 C 374.388 726.996 373.264 727.976 371.221 729.155 C 360.295 735.459 347.498 740.077 335.981 745.362 L 263.329 779.068 C 262.769 779.151 262.213 779.271 261.648 779.317 C 259.384 779.498 257.118 778.993 255.407 777.504 L 255.269 774.802 C 257.067 771.347 260.114 768.917 263.396 766.882 C 272.17 761.442 294.365 752.99 304.551 748.454 C 325.711 739.031 346.569 728.75 367.556 718.931 z"/>
<path transform="translate(0,0)" fill="rgb(48,105,155)" d="M 549.019 736.905 L 549.937 737.134 C 557.35 745.699 578.88 801.185 585.354 815.86 L 613.64 879.703 C 619.22 892.182 625.507 904.71 630.121 917.566 C 634.659 930.212 635.714 940.782 629.581 953.311 C 626.926 958.733 622.702 963.802 617.344 966.728 C 601.512 975.371 583.556 981.734 567.086 989.255 L 452.434 1041.71 L 338.505 1093.57 C 315.397 1104.21 291.714 1117 267.687 1125.21 C 256.886 1128.9 248.348 1127.44 238.148 1122.39 C 233.87 1119.3 231.552 1116.44 229.038 1111.79 C 217.697 1090.81 209.44 1066.96 199.999 1045.02 A 12952 12952 0 0 1 146.104 920.48 C 174.21 906.68 203.349 894.556 231.894 881.668 L 414.005 799.054 C 459.078 778.737 504.889 759.186 549.019 736.905 z"/>
<path transform="translate(0,0)" fill="rgb(83,152,200)" d="M 2.13482 1516.24 C 16.2443 1502.73 30.3739 1489.77 46.6832 1478.86 C 129.611 1423.38 241.859 1405.13 340.008 1407.36 C 383.595 1408.34 426.447 1411.4 470.056 1408.11 C 499.981 1405.85 529.158 1399.23 558.662 1396.63 A 2259.52 2259.52 0 0 1 541.536 1441.59 C 538.061 1450.6 533.62 1460.02 531.739 1469.5 C 530.881 1473.82 530.786 1478.67 532.667 1482.76 C 534.614 1486.98 538.179 1489.88 542.205 1492.03 C 551.935 1497.22 563.953 1500.05 574.445 1503.74 A 1232.4 1232.4 0 0 1 622.118 1521.99 C 596.888 1540.68 569.552 1557.23 543.661 1575.08 L 356.849 1704 L 136.43 1856.54 A 7552.22 7552.22 0 0 1 1.88557 1949.62 L 0 1952.07 L 0 1515.94 L 2.13482 1516.24 z"/>
<path transform="translate(0,0)" fill="rgb(254,254,254)" d="M 0 1515.94 L 2.13482 1516.24 C 0.455459 1621.69 2.00238 1727.39 2.0124 1832.86 C 2.01609 1871.68 3.0893 1910.84 1.88557 1949.62 L 0 1952.07 L 0 1515.94 z"/>
<path transform="translate(0,0)" fill="rgb(83,152,200)" d="M 975.999 0 L 2048 0 L 2048 451.84 C 1996.7 489.7 1943.71 525.403 1891.45 561.9 L 1635.5 741.213 C 1573.44 784.744 1512.13 829.515 1450.55 873.745 C 1430.66 888.029 1411.47 903.596 1391.2 917.29 C 1396.99 899.52 1402.83 881.658 1410.06 864.41 C 1489.89 836.891 1551.31 799.998 1594.04 723.995 C 1628.89 662.02 1635.39 586.898 1616.1 518.873 A 283.21 283.21 0 0 0 1481.64 348.628 C 1413.87 311.009 1338.19 304.879 1264.27 326.05 C 1199.7 344.543 1138.03 393.01 1105.34 451.966 C 1089.67 445.966 1073.7 440.151 1057.65 435.261 C 1064.71 416.285 1073.64 397.938 1080.87 378.981 C 1102.49 322.271 1121.57 251.608 1112.41 190.71 C 1100.48 111.438 1038.39 45.7712 975.999 0 z"/>
<path transform="translate(0,0)" fill="rgb(254,254,254)" d="M 915.357 447.15 C 919.102 447.087 922.679 447.817 926.218 448.993 C 975.316 465.324 1023.89 483.741 1072.68 501.025 L 1279.43 573.413 L 1382.7 609.762 C 1397.28 614.945 1414.23 618.959 1427.82 626.37 C 1434.87 630.216 1436.46 637.676 1438.53 644.841 C 1435.86 656.803 1430.76 668.687 1426.66 680.264 L 1404.07 743.781 L 1339.72 926.874 L 1133.74 1514.68 L 1101.83 1605.08 C 1099.31 1612.18 1096.13 1619.03 1093.68 1626.11 C 1088.77 1640.31 1085.35 1655.1 1080.14 1669.17 C 1079 1672.25 1077.24 1676.67 1074.73 1678.91 C 1071.49 1681.8 1068.15 1681.57 1064.11 1681.47 C 1009.19 1661.75 954.942 1639.85 900.428 1619.02 A 17054.6 17054.6 0 0 1 695.491 1541 L 598.944 1504.17 C 582.823 1498.12 566.175 1492.73 550.354 1485.98 C 547.094 1484.59 541.454 1482.15 540.253 1478.53 C 539.362 1475.85 539.484 1473.42 540.216 1470.72 C 543.627 1458.1 549.126 1445.55 553.678 1433.28 A 4380.35 4380.35 0 0 0 577.354 1368.18 A 17448.7 17448.7 0 0 1 661.232 1133.1 L 832.345 648.325 L 863.451 559.174 C 871.04 536.983 878.171 514.632 886.876 492.858 C 890.951 482.666 893.198 471.58 898.155 461.759 C 902.192 453.762 907.034 450.042 915.357 447.15 z"/>
<path transform="translate(0,0)" fill="rgb(48,105,155)" d="M 1010.66 510.175 C 1014.48 509.823 1018.31 509.41 1022.06 510.456 C 1027.11 511.866 1031.84 515.555 1034.13 520.316 C 1036.2 524.605 1036.55 529.355 1034.9 533.839 C 1032.66 539.95 1028.09 543.351 1022.42 546.071 C 1019.24 546.73 1016.27 547.225 1013.02 546.731 C 1008.01 545.969 1003.51 543.262 1000.75 538.972 C 997.898 534.528 997.314 528.99 998.666 523.932 C 1000.5 517.058 1004.87 513.762 1010.66 510.175 z"/>
<path transform="translate(0,0)" fill="rgb(48,105,155)" d="M 1289.52 603.117 C 1293.39 603.068 1297.65 603.904 1301.12 605.639 C 1306.02 608.083 1309.77 612.195 1311.47 617.426 C 1313.18 622.675 1312.64 628.262 1310.14 633.163 C 1306.74 639.838 1301.49 642.83 1294.63 645.14 C 1290.25 645.235 1286.12 645.478 1282.05 643.573 C 1276.83 641.126 1272.72 636.936 1270.91 631.401 A 20.2454 20.2454 0 0 1 1272.67 614.71 C 1276.47 608.184 1282.53 605.191 1289.52 603.117 z"/>
<path transform="translate(0,0)" fill="rgb(48,105,155)" d="M 766.586 1504.28 C 773.959 1504.98 874.385 1541.67 884.655 1547.12 C 890.506 1550.22 895.112 1554.29 896.823 1560.92 C 898.332 1566.76 897.011 1572.94 893.642 1577.9 C 889.54 1583.93 883.673 1586.4 876.728 1587.63 C 856.311 1583.38 834.202 1572.48 814.472 1565.2 C 798.017 1559.14 766.751 1550.56 753.287 1542.07 C 749.195 1539.49 746 1534.63 744.939 1529.93 C 743.783 1524.82 745.127 1519.49 748.008 1515.18 C 752.641 1508.24 758.664 1505.83 766.586 1504.28 z"/>
<path transform="translate(0,0)" fill="rgb(254,254,254)" d="M 763.27 1511.86 C 771.809 1512.03 862.284 1546.12 874.948 1551.85 C 878.812 1553.6 884.615 1556.17 887.383 1559.37 C 889.418 1561.72 889.823 1565.2 889.192 1568.12 C 888.047 1573.41 882.907 1576.67 878.591 1579.13 C 871.213 1579.12 757.899 1537.54 754.17 1533 C 752.233 1530.64 751.913 1526.63 752.623 1523.85 C 754.075 1518.17 758.532 1514.75 763.27 1511.86 z"/>
<path transform="translate(0,0)" fill="rgb(48,105,155)" d="M 1077.32 529.104 C 1095.36 532.422 1113.96 541.847 1131.4 547.882 L 1202.73 572.559 C 1214.73 576.75 1227.75 580.275 1239.17 585.827 C 1244.27 588.304 1248.52 591.888 1250.26 597.492 C 1251.66 602.001 1250.93 606.723 1248.74 610.853 C 1245.53 616.901 1241.18 619.244 1234.85 621.151 C 1223.8 620.05 1211.98 614.979 1201.51 611.409 C 1175.15 602.429 1149.18 592.397 1122.96 583.068 C 1105.78 576.958 1085.77 572.341 1069.71 563.822 C 1065.67 561.676 1062.43 558.021 1061.18 553.576 C 1059.83 548.758 1061.05 543.685 1063.42 539.398 C 1066.62 533.604 1071.16 530.999 1077.32 529.104 z"/>
<path transform="translate(0,0)" fill="rgb(254,254,254)" d="M 1075.11 538.876 C 1077.95 538.87 1080.3 539.258 1083.04 540.036 C 1102.34 545.512 1121.45 553.777 1140.44 560.387 C 1169.86 570.629 1200.32 579.769 1229.05 591.737 C 1233.23 593.48 1237.46 595.284 1240.92 598.266 C 1241.68 599.8 1242.49 601.172 1242.37 602.96 C 1242.12 606.811 1239.22 609.189 1236.46 611.412 C 1233.28 611.448 1230.38 611.044 1227.31 610.178 C 1210.94 605.559 1077.98 560.118 1070.99 553.901 C 1069.45 552.529 1068.41 550.066 1068.58 548.006 C 1068.91 543.855 1072.18 541.338 1075.11 538.876 z"/>
<path transform="translate(0,0)" fill="rgb(48,105,155)" d="M 884.963 519.342 C 911.078 526.557 936.641 537.471 962.148 546.612 L 1097.53 594.121 L 1279.99 658.465 C 1323.33 673.634 1367.13 688.074 1409.82 704.985 L 1189.01 1333.7 A 12271.1 12271.1 0 0 0 1122.25 1525.15 C 1112.04 1554.38 1100.99 1583.21 1091.45 1612.69 C 1089.08 1613.41 1086.08 1611.7 1083.84 1610.77 C 1026.79 1587.16 968.455 1566.21 910.768 1544.2 L 568.291 1415.13 L 790.499 788.807 C 822.116 699.087 855.212 609.692 884.963 519.342 z"/>
<path transform="translate(0,0)" fill="rgb(254,254,254)" d="M 900.504 554.164 L 1236.13 673.155 C 1282.74 689.807 1329.78 705.373 1375.96 723.194 C 1367.46 749.313 1357.47 775.079 1348.4 801.025 A 22666.1 22666.1 0 0 1 1272.24 1015.43 L 1181.52 1273.25 A 23305.9 23305.9 0 0 0 1076.72 1570.72 C 1069.22 1571.35 655.189 1411.19 602.729 1392.93 C 629.261 1328.02 651.131 1261.16 674.784 1195.16 L 828.873 760.865 C 852.993 692.182 874.558 622.142 900.504 554.164 z"/>
<path transform="translate(0,0)" fill="rgb(118,196,166)" d="M 1020.73 923.16 C 1027.28 922.803 1033.41 923.391 1039.32 926.488 A 29.5175 29.5175 0 0 1 1053.93 944.457 C 1056.07 951.78 1055.31 959.656 1051.46 966.288 C 1046.71 974.488 1039.71 978.561 1030.81 981.016 C 1023.55 981.347 1017.24 981.217 1010.62 977.829 A 28.6127 28.6127 0 0 1 996.081 960.551 C 993.931 953.286 994.948 945.063 998.663 938.473 C 1003.58 929.744 1011.35 925.629 1020.73 923.16 z"/>
<path transform="translate(0,0)" fill="rgb(118,196,166)" d="M 1012.75 866.348 A 87.9661 87.9661 0 0 1 1021.5 865.805 C 1048.65 865.348 1072.03 874.135 1091.49 893.25 C 1097.75 899.398 1112.35 915.991 1111.77 925.046 C 1111.63 927.175 1109.25 929.417 1107.7 930.726 C 1103.78 934.018 1094.5 940.84 1089.25 940.049 C 1086.07 939.57 1084.29 935.799 1082.79 933.332 L 1082.11 932.188 C 1067.75 905.89 1044.7 889.399 1013.58 895.232 C 1006.16 896.622 993.715 903.796 986.778 899.887 C 982.642 897.556 979.009 891.722 977.983 887.168 C 977.281 884.053 977.853 881.031 979.797 878.464 C 986.164 870.058 1002.88 867.627 1012.75 866.348 z"/>
<path transform="translate(0,0)" fill="rgb(229,101,83)" d="M 1034.97 1379.27 C 1043.8 1379.12 1052.41 1380.43 1060.35 1384.51 C 1070.13 1389.53 1076.95 1398.04 1080.24 1408.47 C 1084.08 1420.63 1083.04 1433.62 1076.66 1444.73 C 1069.68 1456.87 1059.04 1462.83 1046 1466.47 C 1035.27 1467.72 1024.55 1465.94 1015.39 1459.97 C 1005.74 1453.68 999.453 1443.58 997.429 1432.29 C 995.228 1420.02 998.624 1406.54 1005.75 1396.38 C 1013.09 1385.91 1022.76 1381.38 1034.97 1379.27 z"/>
<path transform="translate(0,0)" fill="rgb(118,196,166)" d="M 1066.01 1272.14 C 1077.24 1271.25 1087.4 1271.29 1097.52 1277.12 A 40.1445 40.1445 0 0 1 1116.44 1302.2 C 1119.51 1314.17 1118.1 1328.44 1111.64 1339.09 C 1104.85 1350.28 1095.04 1354.81 1082.87 1357.79 C 1071.82 1358.83 1061.26 1357.75 1051.5 1352.02 C 1042.1 1346.49 1034.97 1337.56 1032.26 1326.94 C 1029.22 1315.01 1031.53 1301.38 1038.11 1291.01 C 1044.72 1280.6 1054.25 1274.93 1066.01 1272.14 z"/>
<path transform="translate(0,0)" fill="rgb(90,204,242)" d="M 1113.27 1165.35 C 1123.76 1165.69 1133.59 1168.83 1141.73 1175.61 A 44.6004 44.6004 0 0 1 1157.5 1206.35 A 48.8961 48.8961 0 0 1 1146.04 1241.58 C 1138.24 1250.6 1128.18 1255.11 1116.44 1256.16 C 1106.52 1256.18 1097.49 1254.37 1089.12 1248.74 A 45.2169 45.2169 0 0 1 1070.29 1219.76 A 45.167 45.167 0 0 1 1078.58 1184.36 C 1087.35 1172.55 1099.07 1167.23 1113.27 1165.35 z"/>
<path transform="translate(0,0)" fill="rgb(118,196,166)" d="M 1012.81 809.393 C 1043.17 805.678 1077.2 815.298 1103.17 830.74 C 1123.81 843.015 1139.54 860.131 1153.55 879.367 C 1156.31 883.147 1161.21 889.047 1161.76 893.736 C 1162.08 896.485 1161.16 898.233 1159.28 900.186 C 1155.36 904.277 1147.27 910.979 1141.36 910.575 C 1133.6 910.045 1125.37 891.614 1120.8 885.466 C 1092.12 849.516 1041.93 831.192 996.811 841.332 C 988.741 843.146 972.134 853.139 964.485 850.859 C 960.398 849.641 957.494 844.161 955.261 840.812 C 954.782 836.947 954.626 833.056 954.408 829.169 C 968.876 814.476 993.319 811.517 1012.81 809.393 z"/>
<path transform="translate(0,0)" fill="rgb(118,196,166)" d="M 1009.1 753.393 C 1048.35 746.544 1105.11 764.917 1138.01 786.074 C 1163.41 802.416 1184.09 823.945 1200.85 848.937 C 1203.73 853.231 1208.85 860.011 1209.39 865.227 C 1209.67 868.047 1209.06 869.987 1207.33 872.221 C 1204.07 876.444 1194.58 881.968 1189.15 881.771 C 1184.15 881.59 1162.5 848.291 1157.28 841.922 A 174.096 174.096 0 0 0 1121.6 811.804 C 1078.92 784.237 1029.32 776.181 979.978 788.287 C 968.45 791.115 957.569 797.555 945.987 799.726 C 942.866 800.311 940.722 799.891 938.227 797.895 C 934.614 795.005 932.285 789.661 931.773 785.153 C 931.401 781.874 931.92 779.102 934.071 776.516 C 936.882 773.136 941.443 771.978 945.308 770.246 C 965.792 761.07 986.839 755.957 1009.1 753.393 z"/>
<path transform="translate(0,0)" fill="rgb(48,105,155)" d="M 823.414 970.294 C 831.847 970.251 840.118 972.625 846.284 978.583 C 851.203 983.336 854.174 990.104 854.071 996.972 C 853.925 1006.6 849.212 1012.55 842.637 1018.88 A 3001.96 3001.96 0 0 0 866.771 1076.15 C 869.445 1075.05 872.186 1073.87 875.033 1073.31 C 881.801 1071.98 889.108 1073.3 894.839 1077.17 A 24.3446 24.3446 0 0 1 905.2 1093.94 C 906.423 1102.58 903.686 1108.73 898.738 1115.59 A 435.098 435.098 0 0 0 937.71 1136.62 C 942.691 1132.9 948.099 1129.37 954.383 1128.47 C 960.419 1127.59 964.895 1129.48 969.687 1132.96 C 999.006 1118.7 1031.11 1105.95 1062.08 1095.74 C 1063.47 1088.44 1064.97 1078.92 1070.33 1073.37 C 1075.72 1067.79 1083.47 1063.37 1091.41 1063.57 C 1098.46 1063.75 1104.91 1067.43 1109.4 1072.74 C 1114.47 1078.73 1116.97 1086.41 1116.01 1094.24 C 1115.17 1101.09 1112.04 1107.57 1106.43 1111.74 C 1100.3 1116.28 1091.34 1118.02 1083.88 1116.75 C 1075.4 1115.32 1070.62 1109.8 1066.05 1103.09 C 1036.79 1113.67 1007.52 1125.71 978.873 1137.84 C 982.435 1145.76 983.523 1151.32 982.988 1159.99 C 995.848 1164.12 1061.53 1184.77 1067.47 1192.39 C 1067.03 1194.3 1066.59 1195.01 1065.19 1196.39 C 1046.64 1193.56 1000.2 1175.44 981.297 1167.64 C 979.453 1170.55 977.282 1173.61 974.712 1175.92 C 968.02 1181.94 960.624 1182.27 952.139 1181.89 L 932.973 1244.15 C 940.737 1250.15 944.301 1254.61 947.033 1264.12 C 964.955 1271.65 983.923 1278.16 1002.22 1284.77 C 1008.83 1287.16 1019.92 1289.51 1025.45 1293.47 C 1026.24 1294.03 1026.63 1295.01 1027.22 1295.79 C 1027.39 1298.47 1027.63 1298.76 1026.15 1300.95 C 1014.98 1301.15 961.393 1279.21 947.365 1273.52 C 943.764 1281.86 939.068 1289.76 930.369 1293.55 C 922.823 1296.83 915.385 1295.36 908.052 1292.45 C 888.179 1311.63 862.743 1330.74 840.251 1346.91 A 796.681 796.681 0 0 0 875.807 1360.04 C 893.222 1366.66 992.228 1400.81 996.688 1406.41 C 995.783 1408.64 995.368 1410.41 993.274 1411.78 C 979.203 1409.22 963.637 1401.58 950.111 1396.68 C 911.516 1382.7 873.202 1367.8 834.411 1354.38 C 835.16 1362.46 835.376 1369.63 830.813 1376.81 C 827.346 1382.27 821.836 1385.8 815.538 1387.08 A 26.5946 26.5946 0 0 1 795.427 1382.97 A 25.5518 25.5518 0 0 1 784.33 1366.04 C 782.668 1356.17 787.115 1348.42 792.671 1340.79 C 777.157 1316.94 761.26 1293.29 746.653 1268.87 A 134.576 134.576 0 0 1 743.454 1269.05 C 734.872 1269.41 725.551 1267.21 719.223 1261.03 C 714.536 1256.45 713.014 1250.72 713.147 1244.31 C 713.306 1236.64 715.497 1228.62 721.428 1223.38 C 726.538 1218.87 733.88 1216.91 740.605 1217.43 A 28.4845 28.4845 0 0 1 760.325 1227.8 C 764.65 1233.1 766.785 1239.82 765.899 1246.65 C 764.885 1254.47 759.564 1261.51 753.487 1266.17 C 770.314 1288.72 785.379 1312.96 799.581 1337.22 C 803.679 1335.84 807.759 1334.91 812.115 1334.97 C 820.623 1335.1 825.453 1338.83 831.117 1344.78 L 901.257 1287.6 C 897.284 1282 894.829 1276.83 894.336 1269.85 C 893.851 1262.98 895.943 1256.35 900.66 1251.28 C 907.364 1244.07 915.595 1242.26 924.953 1241.77 C 930.426 1220.69 937.689 1200.15 943.877 1179.28 C 939.179 1176.19 934.697 1172.42 932.153 1167.3 C 928.309 1159.57 930.167 1151.77 932.594 1143.99 C 919.216 1136.97 905.792 1129.97 893.042 1121.85 C 888.195 1123.75 883.253 1125.74 877.968 1125.84 A 26.9195 26.9195 0 0 1 858.312 1117.62 A 24.6194 24.6194 0 0 1 851.277 1099.6 C 851.594 1091.77 854.334 1086.63 860.057 1081.51 C 851.471 1061.89 843.559 1042.07 834.437 1022.67 C 826.443 1024.2 819.405 1024.43 812.175 1020.16 C 806.064 1016.55 802.122 1010.23 800.672 1003.38 C 799.108 995.993 800.248 987.942 804.544 981.64 C 809.131 974.911 815.643 971.828 823.414 970.294 z"/>
<path transform="translate(0,0)" fill="rgb(254,254,254)" d="M 735.164 1226.03 C 737.944 1225.79 740.702 1225.63 743.433 1226.36 C 748.263 1227.66 752.447 1231.17 754.69 1235.62 A 17.7281 17.7281 0 0 1 755.131 1250.48 C 752.695 1256.29 748.456 1258.62 742.901 1260.94 C 740.529 1261.02 737.915 1261.02 735.588 1260.55 C 730.629 1259.54 725.931 1256.08 723.469 1251.68 C 721.172 1247.57 720.842 1242.75 722.331 1238.31 C 724.536 1231.73 729.226 1228.92 735.164 1226.03 z"/>
<path transform="translate(0,0)" fill="rgb(254,254,254)" d="M 806.168 1344.08 C 809.57 1343.87 813.408 1343.56 816.665 1344.77 C 820.854 1346.32 824.455 1349.77 826.236 1353.86 C 828.165 1358.29 828.116 1363.3 826.346 1367.76 C 823.911 1373.9 819.659 1376.82 813.742 1379.2 C 810.963 1379.18 808.078 1379.12 805.406 1378.26 C 800.514 1376.7 796.158 1373.16 793.885 1368.53 A 16.0905 16.0905 0 0 1 793.281 1355.68 C 795.646 1349.38 800.284 1346.63 806.168 1344.08 z"/>
<path transform="translate(0,0)" fill="rgb(254,254,254)" d="M 876.318 1081.11 C 880.746 1081.24 884.643 1081.64 888.434 1084.12 A 17.9555 17.9555 0 0 1 896.073 1095.47 A 18.6733 18.6733 0 0 1 893.119 1109.93 C 889.747 1114.82 885.216 1116.6 879.594 1117.72 C 876.745 1117.69 873.828 1117.5 871.119 1116.53 C 866.971 1115.05 863.317 1111.53 861.571 1107.51 C 859.459 1102.64 859.897 1097.21 862.075 1092.46 C 865.053 1085.96 869.935 1083.57 876.318 1081.11 z"/>
<path transform="translate(0,0)" fill="rgb(254,254,254)" d="M 1087.5 1072.12 C 1090.5 1072.13 1093.53 1072.46 1096.39 1073.45 C 1100.72 1074.94 1104.37 1078.69 1106.23 1082.81 C 1108.36 1087.52 1108.27 1092.96 1106.27 1097.7 C 1103.68 1103.86 1099.28 1106.7 1093.32 1109.15 C 1089.41 1109.16 1085.6 1109.33 1082 1107.57 A 17.9771 17.9771 0 0 1 1072.56 1096.3 A 19.2912 19.2912 0 0 1 1074.51 1081.11 C 1077.68 1075.79 1081.72 1073.75 1087.5 1072.12 z"/>
<path transform="translate(0,0)" fill="rgb(254,254,254)" d="M 915.083 1251.12 C 918.369 1250.82 921.777 1250.57 925.05 1251.15 C 929.949 1252.03 934.784 1255.5 937.266 1259.8 C 939.625 1263.88 940.021 1268.72 938.61 1273.2 C 936.554 1279.72 931.831 1283.17 926.1 1286.35 C 923.065 1286.88 920.082 1287.26 917.015 1286.68 A 17.5782 17.5782 0 0 1 905.488 1279.05 C 902.636 1274.65 901.994 1269.16 903.33 1264.14 C 905.141 1257.34 909.144 1254.33 915.083 1251.12 z"/>
<path transform="translate(0,0)" fill="rgb(254,254,254)" d="M 820.949 979.045 C 824.289 978.71 827.697 978.468 831.009 979.203 C 835.605 980.223 840.066 983.412 842.56 987.394 C 845.247 991.684 845.824 996.872 844.426 1001.71 C 842.458 1008.52 838.075 1011.35 832.195 1014.74 C 828.891 1015.48 825.847 1015.89 822.488 1015.18 C 817.769 1014.18 813.659 1011.51 811.094 1007.39 C 808.365 1003.01 807.853 997.577 809.168 992.64 C 810.971 985.87 815.132 982.458 820.949 979.045 z"/>
<path transform="translate(0,0)" fill="rgb(254,254,254)" d="M 949.933 1138.29 C 953.776 1137.78 957.78 1137.12 961.626 1137.95 C 966.074 1138.9 970.271 1142.13 972.715 1145.91 C 975.435 1150.13 976.326 1155.59 974.968 1160.44 C 973.073 1167.2 969.001 1170.62 963.076 1173.9 C 960.109 1174.25 957.233 1174.51 954.277 1173.91 C 948.747 1172.79 943.263 1169.21 940.402 1164.3 C 938.123 1160.38 937.36 1155.59 938.616 1151.2 C 940.418 1144.92 944.354 1141.28 949.933 1138.29 z"/>
<path transform="translate(0,0)" fill="rgb(118,196,166)" d="M 2048 460.984 L 2048 2048 L 0 2048 L 0 1962.01 C 34.6867 1934.32 72.8799 1910.02 109.435 1884.83 A 10983.7 10983.7 0 0 1 277.651 1768.78 L 631.293 1525.13 C 707.989 1556.58 786.261 1584.39 863.721 1613.89 C 926.251 1637.71 988.335 1663.6 1051.36 1686.02 C 1056.89 1687.98 1064.14 1690.46 1069.99 1690.15 C 1076.62 1689.8 1109.64 1676.16 1116.66 1672.78 C 1123.31 1669.58 1125.49 1666.41 1128.41 1659.87 C 1141.1 1631.48 1150.39 1600.38 1160.55 1570.98 L 1206.66 1440.85 L 1386.74 929.107 C 1415.74 910.355 1443.34 888.268 1471.32 867.958 L 1614.75 765.214 L 2048 460.984 z"/>
<path transform="translate(0,0)" fill="rgb(48,105,155)" d="M 1589.63 1265.41 C 1624.73 1260.23 1679.81 1270.71 1713.74 1282.39 A 325.319 325.319 0 0 1 1900.89 1446.86 A 350.23 350.23 0 0 1 1919.92 1494.69 C 1924.08 1508.26 1938.68 1577.02 1932.61 1588.45 C 1931.31 1590.89 1930.4 1590.91 1927.93 1591.64 C 1924.96 1590.81 1924.43 1590.51 1922.23 1588.35 A 377.647 377.647 0 0 0 1920.73 1556.29 C 1907.8 1417.7 1800.59 1307.38 1665.64 1281.08 C 1646.37 1277.33 1627.11 1275.26 1607.47 1275.55 C 1598.45 1275.68 1589.04 1277.41 1580.09 1276.79 C 1577.5 1276.62 1576.19 1275.88 1574.28 1274.18 C 1572.67 1272.75 1573.06 1272.76 1572.92 1270.81 C 1577.21 1265.99 1583.65 1265.82 1589.63 1265.41 z"/>
<path transform="translate(0,0)" fill="rgb(254,254,254)" d="M 839.352 1818.36 C 851.283 1816.46 865.218 1817.74 877.355 1817.79 L 952.7 1817.93 L 1121.4 1817.62 C 1150.37 1817.51 1186.58 1815.48 1214.97 1818.26 C 1224.88 1819.23 1236.3 1824.34 1244.39 1830.14 A 66.4836 66.4836 0 0 1 1271.2 1873.37 C 1273.93 1890.16 1270.11 1908.71 1260.11 1922.54 C 1247.94 1939.38 1231.34 1946.58 1211.41 1949.94 C 1188.08 1950.98 1164.44 1950.35 1141.06 1950.57 A 13025.4 13025.4 0 0 1 966.038 1950.91 L 887.696 1950.87 C 871.275 1950.94 853.972 1952.07 837.675 1950.06 C 825.212 1948.52 812.975 1944.73 802.771 1937.23 C 789.139 1927.21 780.756 1912.33 778.35 1895.66 C 775.813 1878.09 780.819 1857.63 791.889 1843.62 C 803.656 1828.74 820.848 1820.75 839.352 1818.36 z"/>
<path transform="translate(0,0)" fill="rgb(0,0,0)" d="M 1039.98 1862.22 C 1040.73 1862.43 1041.42 1862.59 1042.14 1862.95 C 1044.78 1864.3 1045.23 1864.87 1046.36 1867.45 C 1046.07 1870.61 1044.41 1872.14 1042.42 1874.42 C 1041.74 1874.57 1041.04 1874.21 1040.36 1874.07 C 1039.53 1872.98 1039.3 1872.8 1038.7 1871.42 C 1037.36 1868.35 1038.75 1865.04 1039.98 1862.22 z"/>
<path transform="translate(0,0)" fill="rgb(0,0,0)" d="M 1039.58 1878.79 L 1043.72 1880.15 C 1047.4 1886.45 1045.21 1909.82 1045.03 1918.11 C 1042.53 1917.57 1041.44 1917.48 1039.31 1916.01 C 1038.17 1904.01 1038.58 1890.81 1039.58 1878.79 z"/>
<path transform="translate(0,0)" fill="rgb(0,0,0)" d="M 1132.8 1878.39 C 1134.45 1878.7 1135.87 1878.82 1137.27 1879.84 C 1138.51 1880.74 1138.33 1883.86 1138.5 1885.38 L 1139.43 1885.64 C 1140.66 1883.93 1142.1 1882.46 1143.77 1881.16 C 1146.18 1879.28 1148.26 1878.7 1151.26 1878.99 L 1151.88 1880.1 C 1149.8 1883.89 1145.89 1886.23 1142.7 1889.03 C 1139.9 1891.49 1139.72 1893.14 1139.48 1896.75 C 1139.62 1901.34 1139.89 1906.01 1139.74 1910.6 C 1139.64 1913.38 1139.49 1915.82 1137.41 1917.85 C 1135.18 1917.82 1135.21 1917.86 1133.54 1916.39 C 1131.32 1910.29 1132.83 1886.2 1132.8 1878.39 z"/>
<path transform="translate(0,0)" fill="rgb(0,0,0)" d="M 1060.06 1870.34 C 1063.13 1870.81 1064.23 1870.66 1066.59 1872.77 A 112.576 112.576 0 0 1 1066.51 1878.11 C 1069.71 1880.22 1074.57 1878.61 1078.45 1880.11 C 1079.03 1882.51 1078.9 1881.97 1077.9 1883.94 C 1074.47 1885.78 1070.24 1885.16 1066.45 1885.09 C 1066.25 1891.57 1065.33 1899.32 1066.47 1905.65 C 1067.03 1908.74 1067.96 1910.6 1070.62 1912.43 C 1074.08 1913.19 1075.89 1912.14 1078.93 1910.7 C 1079.03 1911.5 1079.22 1912.75 1079.17 1913.53 C 1079.09 1914.87 1078.93 1916.2 1077.69 1916.87 C 1075.32 1918.15 1070.88 1918.46 1068.28 1917.69 C 1054 1913.47 1064.17 1894.38 1059.47 1885.49 L 1054.98 1885.07 C 1053.45 1883.17 1053.79 1883.58 1053.86 1881.39 C 1055.8 1879.73 1056.46 1879.79 1059.04 1879.39 C 1060.93 1877.27 1060.12 1873.21 1060.06 1870.34 z"/>
<path transform="translate(0,0)" fill="rgb(0,0,0)" d="M 993.195 1878.3 C 995.206 1878.58 997.103 1879 999.069 1879.5 L 1000.21 1882.81 C 1005.2 1882.31 1008.91 1878.11 1014.08 1878.22 C 1017.3 1878.29 1020.96 1880.21 1023.04 1882.62 C 1027.82 1888.15 1027.42 1898.48 1027.12 1905.41 C 1026.95 1909.3 1026.76 1914.89 1023.72 1917.7 L 1022.71 1917.29 C 1018.32 1910.93 1019.65 1900.72 1019.78 1893.29 C 1019.43 1891.45 1018.93 1889.62 1018.49 1887.8 C 1016.82 1885.35 1013.84 1884.06 1010.98 1883.47 C 1008.8 1883.02 1006.56 1882.99 1004.77 1884.5 C 997.492 1890.67 1001.21 1907.48 1000.12 1916.03 L 998.396 1917.25 L 995.677 1916.7 C 991.784 1911.23 993.298 1886.07 993.195 1878.3 z"/>
<path transform="translate(0,0)" fill="rgb(0,0,0)" d="M 911.742 1906.97 C 914.2 1901.27 926.097 1868.67 928.774 1866.65 C 930.415 1866.75 931.35 1866.47 932.707 1867.55 C 935.084 1869.45 935.742 1872.17 936.225 1875.03 C 937.29 1881.36 938.996 1913.2 936.536 1916.71 L 934.8 1916.22 C 929.576 1908.31 930.914 1896.75 930.468 1887.55 C 930.344 1884.68 930.139 1882.22 929.319 1879.43 C 927.19 1881.38 920.244 1902.59 917.898 1907.43 C 916.218 1910.9 914.625 1914.73 910.734 1916.07 C 904.812 1913.54 897.604 1886.53 894.541 1879.42 C 893.919 1887.09 893.627 1911.87 890.62 1917 C 888.267 1917.82 888.041 1917.53 885.636 1916.74 C 883.843 1911.42 888.814 1874.9 889.558 1866.63 C 891.793 1866.64 894.458 1866.34 896.466 1867.45 C 898.895 1868.78 909.781 1901.77 911.742 1906.97 z"/>
<path transform="translate(0,0)" fill="rgb(0,0,0)" d="M 963.213 1878.2 C 966.789 1878.08 970.564 1878.21 973.876 1879.71 C 978.724 1881.9 982.492 1886.35 984.162 1891.37 A 21.0779 21.0779 0 0 1 982.626 1908.27 C 979.363 1914.12 974.598 1916.41 968.356 1918.03 C 964.733 1917.94 961.129 1917.63 957.818 1916.04 C 953.088 1913.76 949.522 1909.4 948.034 1904.38 A 21.3563 21.3563 0 0 1 949.675 1888.36 C 952.845 1882.48 957.044 1880.18 963.213 1878.2 z"/>
<path transform="translate(0,0)" fill="rgb(254,254,254)" d="M 962.074 1884.06 C 964.068 1883.89 966.161 1883.67 968.151 1883.96 C 971.456 1884.43 974.347 1886.29 976.295 1888.99 C 978.627 1892.21 979.313 1896.21 978.599 1900.09 C 977.546 1905.79 974.711 1909.19 970.072 1912.43 C 968.968 1912.63 967.634 1912.95 966.493 1912.9 C 963.296 1912.76 960.394 1911.75 958.137 1909.42 C 954.92 1906.1 954.082 1901.45 954.509 1896.98 C 955.083 1890.98 957.438 1887.67 962.074 1884.06 z"/>
<path transform="translate(0,0)" fill="rgb(0,0,0)" d="M 1097.76 1879.17 C 1101.41 1878.66 1105.86 1878.11 1109.48 1879.03 C 1114.43 1880.28 1118.95 1884.24 1121.29 1888.72 A 20.8456 20.8456 0 0 1 1122.4 1905.28 C 1120.09 1911.73 1115.91 1914.91 1109.98 1917.89 C 1106.92 1918.15 1103.8 1918.49 1100.76 1917.9 C 1095.55 1916.88 1091.01 1913.52 1088.21 1909.04 A 20.3073 20.3073 0 0 1 1085.88 1892.76 C 1087.82 1886.01 1091.77 1882.41 1097.76 1879.17 z"/>
<path transform="translate(0,0)" fill="rgb(254,254,254)" d="M 1099.83 1884.03 C 1102.04 1883.83 1104.47 1883.49 1106.67 1883.87 C 1109.89 1884.43 1113.03 1886.77 1114.86 1889.42 C 1117.24 1892.87 1117.75 1896.95 1117 1901.01 C 1115.89 1907.01 1112.86 1909.71 1107.93 1912.93 C 1106.86 1912.98 1105.79 1913.05 1104.72 1913.03 C 1100.78 1912.97 1097.42 1911.43 1094.8 1908.48 C 1091.77 1905.05 1090.84 1901.04 1091.4 1896.54 C 1092.13 1890.69 1095.34 1887.46 1099.83 1884.03 z"/>
<path transform="translate(0,0)" fill="rgb(48,105,155)" d="M 1624.13 1383.43 C 1627.81 1383.32 1631.61 1383.65 1635.29 1383.77 C 1638.99 1398.7 1639.78 1416.47 1647.09 1430.08 C 1656.37 1434.39 1667.07 1436.16 1676.69 1439.96 C 1687.86 1444.37 1698.14 1450.81 1709.13 1455.69 C 1724.18 1448.61 1737.2 1437.24 1751.35 1428.52 C 1760.47 1435.52 1769.38 1443.08 1777.48 1451.24 C 1770.42 1466.54 1759.42 1480.11 1751.96 1495.38 C 1757.8 1505.05 1763.54 1514.81 1767.48 1525.43 C 1769.68 1531.37 1774.41 1548.73 1778.57 1552.64 C 1787.5 1561.03 1818.44 1552.43 1825.92 1562.28 C 1829.08 1566.44 1829.48 1584.18 1829.4 1589.92 C 1829 1617.43 1793.83 1602.87 1780.57 1616.58 C 1774.9 1622.45 1774.23 1638.73 1771.76 1646.8 C 1768.35 1657.92 1757.07 1669.24 1756.17 1680.3 C 1755.19 1692.59 1786.52 1708.98 1785.47 1719.26 C 1784.49 1728.77 1765.73 1742.78 1758.97 1749.13 C 1744.64 1740.42 1732.82 1727.95 1718.43 1719.21 C 1708.1 1725.95 1697.86 1732.43 1686.58 1737.55 C 1678.07 1741.41 1669.16 1744.24 1660.65 1748.11 C 1654.98 1762.45 1657.39 1787.96 1649.73 1799.61 C 1642.09 1802.56 1621.07 1802.19 1613.16 1800.13 C 1608.17 1784.1 1606.03 1766.81 1601.87 1750.45 C 1577.81 1746.37 1558.8 1738.74 1537.46 1727.25 C 1522.08 1736.93 1510.06 1751.38 1495.05 1761.61 C 1487.82 1756.72 1472.92 1746.56 1469.84 1738.19 C 1468.8 1735.36 1468.96 1732.28 1469.94 1729.47 C 1473.13 1720.35 1486.01 1701.66 1491.39 1691.24 C 1475.09 1669.11 1467.71 1651.3 1459.44 1625.28 C 1443.56 1624.92 1425.08 1622.92 1409.81 1618.32 C 1408.21 1606.25 1407.72 1593.37 1407.89 1581.2 C 1422.53 1575.37 1441.46 1570.9 1457.15 1569.65 C 1460.9 1556.63 1463.57 1543.33 1468.75 1530.76 C 1472.82 1520.88 1478.59 1511.88 1482.7 1502.07 L 1483.1 1501.09 C 1472.81 1488.41 1461.56 1475.58 1453.17 1461.54 C 1461.53 1451.31 1471.69 1442.01 1480.96 1432.57 C 1494.58 1441.51 1508.65 1451.19 1520.77 1462.09 C 1531.98 1454.6 1543.3 1447.44 1555.76 1442.13 C 1566.66 1437.49 1577.84 1434.47 1588.2 1428.55 C 1594.41 1418.38 1595.9 1396.59 1598.16 1384.2 A 750.854 750.854 0 0 0 1624.13 1383.43 z"/>
<path transform="translate(0,0)" fill="rgb(118,196,166)" d="M 1606.45 1477.33 C 1633.98 1474.41 1660.2 1480.39 1683.28 1495.81 A 112.571 112.571 0 0 1 1731.61 1567.27 A 115.109 115.109 0 0 1 1714.22 1653.05 C 1695.63 1680.74 1668 1696.19 1635.7 1702.43 C 1607.24 1706.24 1578.15 1700.11 1554.7 1683.31 A 115.017 115.017 0 0 1 1508.37 1607.66 C 1503.65 1577.73 1511.24 1545.28 1529.23 1520.81 C 1547.47 1496.02 1576.49 1481.76 1606.45 1477.33 z"/>
<path transform="translate(0,0)" fill="rgb(48,105,155)" d="M 1609.64 1486.39 C 1633.21 1482.39 1662.52 1492.06 1681.68 1505.53 C 1704.1 1521.3 1718.62 1544.82 1723.28 1571.75 A 103.537 103.537 0 0 1 1704.94 1651 C 1688.24 1674.16 1662.07 1688.32 1634.15 1692.88 L 1632.86 1693.06 C 1605.98 1696.51 1578.59 1690.56 1557.1 1673.66 C 1534.94 1656.24 1520.07 1631.66 1516.79 1603.53 C 1513.56 1575.79 1520.88 1546.05 1538.53 1524.16 C 1556.2 1502.25 1581.88 1489.34 1609.64 1486.39 z"/>
<path transform="translate(0,0)" fill="rgb(118,196,166)" d="M 1611.5 1511.32 C 1628.14 1508.69 1648.22 1514.07 1662.16 1523.21 A 81.5376 81.5376 0 0 1 1696.74 1574.42 C 1701.06 1595.42 1695.87 1616.94 1683.99 1634.63 C 1671.17 1653.71 1652.06 1663.63 1629.99 1667.91 C 1609.55 1669.17 1590.13 1665.55 1573.26 1653.39 A 79.0449 79.0449 0 0 1 1541.6 1602.17 A 78.2104 78.2104 0 0 1 1555.92 1543.49 C 1569.99 1524.27 1588.35 1514.9 1611.5 1511.32 z"/>
<path transform="translate(0,0)" fill="rgb(48,105,155)" d="M 1612.64 1521.3 C 1628.44 1518.95 1645.97 1523.18 1659.14 1532.06 A 69.8538 69.8538 0 0 1 1688.23 1576.73 A 68.5362 68.5362 0 0 1 1677.84 1628.32 C 1666.55 1644.85 1649.36 1654.05 1630.06 1657.81 C 1611.83 1660.11 1593.66 1656.67 1578.49 1645.92 A 68.3436 68.3436 0 0 1 1550.55 1601.29 C 1547.54 1583.32 1551.31 1565.21 1562.03 1550.39 C 1574.35 1533.37 1592.21 1524.44 1612.64 1521.3 z"/>
<path transform="translate(0,0)" fill="rgb(118,196,166)" d="M 1615.23 1555.16 C 1623.61 1554.64 1631.81 1555.81 1639.1 1560.24 C 1646.86 1564.95 1652.17 1572.62 1654.24 1581.43 C 1656.59 1591.47 1655.02 1602.22 1649.29 1610.85 C 1643.32 1619.84 1634.57 1624.74 1624.17 1626.79 C 1616.44 1627.08 1608.71 1625.47 1601.98 1621.57 A 36.4336 36.4336 0 0 1 1584.64 1597.88 A 34.8451 34.8451 0 0 1 1589.39 1571.16 C 1595.57 1561.68 1604.57 1557.49 1615.23 1555.16 z"/>
<path transform="translate(0,0)" fill="rgb(48,105,155)" d="M 1614.55 1564.09 C 1620.15 1563.72 1625.3 1563.79 1630.5 1566.18 A 27.654 27.654 0 0 1 1645.31 1582.51 A 25.4024 25.4024 0 0 1 1643.84 1602.54 C 1640.06 1609.83 1633.36 1614.45 1625.74 1617.01 C 1619.35 1617.35 1613.37 1617.16 1607.57 1614.12 A 26.2711 26.2711 0 0 1 1594.45 1598.52 C 1592.37 1591.8 1592.76 1584.28 1596.09 1578.03 C 1600.15 1570.37 1606.62 1566.78 1614.55 1564.09 z"/>
</svg>