<svg version="1.1" xmlns="http://www.w3.org/2000/svg" style="display: block;" viewBox="0 0 2048 2048" width="1024" height="1024">
<path transform="translate(0,0)" fill="rgb(252,251,251)" d="M 0 0 L 2048 0 L 2048 2048 L 0 2048 L 0 0 z"/>
<path transform="translate(0,0)" fill="rgb(23,26,81)" d="M 1784.29 1054.21 C 1785.49 1050.45 1786.63 1045.43 1790.22 1043.22 C 1791.65 1042.34 1792.39 1042.92 1793.91 1043.26 C 1802.66 1051.44 1803.25 1067.97 1808.22 1078.75 C 1813.48 1080.38 1818.73 1082.01 1824.07 1083.37 C 1829.81 1085.01 1835.06 1086.18 1839.94 1089.79 C 1840.95 1092.15 1841.29 1093.49 1841.13 1096.06 C 1838.55 1100.41 1833.18 1102.18 1828.5 1103.41 C 1821.49 1105.24 1814.06 1106.57 1806.91 1107.77 C 1803.82 1116.07 1800.18 1139.1 1792.6 1143.37 C 1789.93 1142.69 1788.96 1141.48 1787.5 1139.15 C 1781.95 1130.31 1780.44 1118.02 1777.5 1108.1 C 1767.29 1105.96 1749.05 1104.2 1741.46 1096.82 C 1741.63 1095.21 1741.7 1093.17 1742.55 1091.73 C 1747.06 1084.11 1766.95 1081.17 1775.18 1078.21 C 1779.89 1074.8 1782.65 1060.03 1784.29 1054.21 z"/>
<path transform="translate(0,0)" fill="rgb(252,251,251)" d="M 1788.53 1055.59 C 1789.41 1052.8 1789.47 1051.53 1791.72 1049.6 C 1798.93 1054.11 1799.95 1080.12 1804.93 1082.79 C 1809.19 1085.07 1817.67 1086.22 1822.58 1087.74 L 1834.53 1091.5 L 1835.84 1094.04 C 1834.88 1096.35 1834.1 1096.81 1831.81 1097.63 C 1824.16 1100.39 1805.25 1100.75 1801.12 1107.57 C 1796.17 1115.77 1797.52 1127.54 1793.07 1136.15 L 1791.26 1136.2 C 1784.86 1129.55 1783.12 1113 1781.38 1104.06 C 1770.38 1102.28 1755.2 1100.64 1745.64 1094.58 C 1755.85 1088.78 1767.61 1085.74 1778.74 1082.19 C 1778.94 1082.09 1779.15 1082.02 1779.33 1081.9 C 1784.22 1078.77 1787.04 1061.5 1788.53 1055.59 z"/>
<path transform="translate(0,0)" fill="rgb(23,26,81)" d="M 1254.91 403.952 C 1258.64 403.442 1262.44 403.491 1265.77 405.443 C 1275.87 411.371 1279.03 441.029 1281.81 452.558 C 1291.91 456.171 1302.7 457.069 1312.78 460.613 C 1317.83 462.388 1323.21 465.352 1325.36 470.547 C 1326.61 473.568 1326.63 477.191 1325 480.078 C 1318.88 490.911 1293.56 491.865 1282.28 495.255 L 1281.12 495.618 C 1278.12 506.915 1277.58 518.948 1273.97 530.066 C 1271.72 536.97 1269.65 540.92 1263.16 544.314 C 1259.87 544.17 1256.59 544.184 1253.7 542.386 C 1244.22 536.492 1240.69 505.697 1237.42 494.538 C 1223.22 490.496 1205.36 490.868 1193.96 480.747 C 1191.47 478.537 1190.15 476.54 1189.94 473.122 C 1194.5 457.263 1229.92 459.204 1237.03 452.761 C 1246.64 444.045 1238.5 416.212 1254.91 403.952 z"/>
<path transform="translate(0,0)" fill="rgb(252,251,251)" d="M 1258.39 408.696 C 1259.24 409.004 1259.39 409.03 1260.3 409.518 C 1269.12 414.249 1273.94 446.789 1276.89 457.197 C 1286.95 461.291 1312.03 463.728 1318.46 471.484 C 1320.12 473.484 1320 473.982 1319.63 476.34 C 1311.68 485.694 1289.48 486.168 1277.85 489.597 L 1276.61 489.973 C 1272.6 501.806 1271.91 514.744 1268.54 526.795 C 1266.88 532.741 1265.66 536.648 1260.14 539.791 C 1259.86 539.634 1259.56 539.488 1259.28 539.321 C 1247.89 532.603 1248.85 508.454 1245.3 496.839 C 1240.8 482.089 1215.22 486.959 1201.71 478.853 C 1198.95 477.195 1198.52 475.905 1197.92 472.983 C 1204.7 461.357 1230.84 465.93 1241.39 458.225 C 1248.5 453.043 1248.5 420.195 1258.39 408.696 z"/>
<path transform="translate(0,0)" fill="rgb(23,26,81)" d="M 1521.56 1023.37 C 1532.97 1023.99 1542.99 1025.86 1552.78 1032.31 C 1564.25 1039.86 1572.74 1051.81 1575.27 1065.38 A 50.8749 50.8749 0 0 1 1567.09 1103.35 C 1557.52 1117.47 1544.29 1123.87 1528.04 1127 C 1515.18 1127.37 1503.09 1124.39 1492.68 1116.55 A 51.5541 51.5541 0 0 1 1472.45 1081.53 A 50.2779 50.2779 0 0 1 1483.25 1043.45 C 1493 1031.35 1506.24 1024.77 1521.56 1023.37 z"/>
<path transform="translate(0,0)" fill="rgb(196,202,214)" d="M 1515.6 1034.21 C 1524.66 1033.42 1533.13 1033.81 1541.49 1037.79 A 41.8674 41.8674 0 0 1 1563.24 1062.93 C 1566.55 1073.36 1565.31 1084.39 1560.15 1094 C 1553.77 1105.87 1543.94 1112.11 1531.38 1115.83 C 1522.86 1117.15 1514.97 1116.54 1507.01 1112.96 A 41.4354 41.4354 0 0 1 1485.45 1089.72 A 40.7214 40.7214 0 0 1 1486.83 1057.07 C 1492.94 1044.79 1503 1038.34 1515.6 1034.21 z"/>
<path transform="translate(0,0)" fill="rgb(23,26,81)" d="M 1511.47 918.391 C 1521.04 917.391 1531.23 917.783 1540.77 919.089 C 1578.8 924.295 1626.2 949.079 1648.93 980.352 C 1654.13 987.514 1657.29 995.558 1655.73 1004.51 C 1654.41 1012.06 1649.75 1019.56 1643.45 1023.95 C 1617.05 1042.32 1598.33 1007.76 1578.43 994.227 C 1564.7 984.894 1549.5 980.062 1533.26 977.322 C 1523.88 976.17 1513.64 977.26 1504.4 979.035 C 1488.05 982.175 1474.33 988.376 1461.03 998.363 C 1448.39 1007.85 1436.02 1026.71 1419.65 1028.71 C 1411.5 1029.71 1404.45 1026.04 1398.18 1021.12 C 1392.73 1016.84 1389.25 1011.05 1388.64 1004.1 C 1387.81 994.507 1391.86 986.224 1397.83 978.997 C 1424.73 946.442 1469.51 922.507 1511.47 918.391 z"/>
<path transform="translate(0,0)" fill="rgb(196,202,214)" d="M 1521.33 928.45 C 1559.41 929.185 1594.85 943.053 1623.02 968.838 C 1630.94 976.093 1646.05 988.048 1646.19 999.321 C 1646.26 1004.64 1643.9 1009.71 1640.13 1013.4 C 1634.89 1018.54 1627.78 1020.31 1621.02 1017.16 C 1613.39 1013.62 1608.03 1006.27 1602.08 1000.51 C 1580.96 980.038 1554.21 967.827 1524.77 966.96 C 1494.34 966.941 1466.89 979.042 1444.26 998.952 C 1437.16 1005.19 1429.47 1017.46 1419.64 1018.82 C 1414.6 1019.52 1409.64 1017.72 1405.79 1014.48 C 1401.75 1011.07 1398.99 1006.07 1398.68 1000.75 C 1398.31 994.483 1401.51 989.678 1405.56 985.195 C 1436.32 951.197 1475.33 930.645 1521.33 928.45 z"/>
<path transform="translate(0,0)" fill="rgb(23,26,81)" d="M 1508.23 821.4 C 1513.43 820.759 1518.91 820.876 1524.17 820.817 C 1599.13 819.989 1669.37 855.87 1721.87 907.619 C 1729.51 915.151 1737.31 924.64 1737.03 935.98 C 1736.84 943.776 1733.04 951.044 1727.36 956.281 C 1719.91 963.152 1709.57 966.245 1700 962.068 C 1688 956.832 1678.59 943.977 1668.89 935.307 C 1631.43 901.829 1584.42 880.591 1534.14 877.328 C 1495.39 876.688 1451.62 888.337 1417.7 907.343 C 1404.37 914.812 1392.1 923.996 1380.2 933.531 C 1369.57 942.041 1361.23 953.968 1350.32 961.696 C 1345.63 965.01 1339.7 966.349 1334.02 966.376 C 1326.15 966.412 1318.82 963.015 1313.5 957.267 C 1305.41 948.529 1304.83 939.255 1305.26 928.074 C 1306.78 925.376 1308.53 922.992 1310.5 920.61 C 1358.64 862.583 1434.14 828.279 1508.23 821.4 z"/>
<path transform="translate(0,0)" fill="rgb(196,202,214)" d="M 1506.68 831.419 C 1508.42 831.162 1510.18 831.144 1511.93 831.074 C 1578.75 828.371 1650.3 854.007 1699.58 899.748 C 1708.67 908.186 1726.65 923.036 1726.63 936.1 A 17.988 17.988 0 0 1 1720.56 949.461 C 1715.93 953.59 1709.7 954.842 1703.87 952.707 C 1694.05 949.116 1686.12 936.947 1678.5 930.022 C 1639.87 894.908 1589.43 870.239 1536.89 867.927 C 1484.04 867.178 1436.01 881.308 1392.28 911.408 C 1381.75 918.657 1370.68 926.95 1361.59 936.024 C 1356 941.606 1351.14 948.413 1344.78 953.166 A 15.9629 15.9629 0 0 1 1336.61 956.351 C 1331.76 956.818 1327.11 955.17 1323.37 952.12 C 1319.19 948.721 1316.31 943.732 1315.79 938.347 C 1315.27 932.904 1317.32 928.929 1320.71 924.854 C 1326.58 917.809 1333.84 911.484 1340.6 905.281 A 285.877 285.877 0 0 1 1506.68 831.419 z"/>
<path transform="translate(0,0)" fill="rgb(23,26,81)" d="M 884.627 157.422 C 907.871 155.297 934.764 160.445 955.899 170.24 C 980.832 181.794 1006.27 203.86 1018.95 228.467 C 1033.12 255.98 1040.68 286.947 1049.89 316.381 C 1068.7 376.498 1085.85 437.05 1104.03 497.351 L 1232.68 916.686 A 13162.7 13162.7 0 0 0 1295.87 1119.67 C 1305 1148.11 1313.04 1177.03 1323.36 1205.07 C 1358.56 1188.9 1394.6 1177.06 1433.17 1172.33 C 1542.2 1158.97 1646 1198.87 1721.31 1277.96 C 1731.58 1288.74 1741.65 1299.93 1750.43 1311.96 C 1757.72 1321.96 1764.57 1335.01 1773.5 1343.49 C 1783.28 1352.77 1799.78 1352.57 1810.73 1361.54 C 1819.88 1369.03 1826.64 1382.39 1827.34 1394.22 C 1828.47 1413.38 1818.87 1428.27 1806.47 1441.76 A 340.631 340.631 0 0 1 1814.74 1580.41 A 366.933 366.933 0 0 1 1671.01 1819.03 A 347.763 347.763 0 0 1 1415.35 1881.51 A 341.366 341.366 0 0 1 1213.93 1774.36 C 1200.95 1760.15 1189.79 1744.18 1178.38 1728.7 C 1157.42 1734.27 1136.83 1741.61 1116.24 1748.42 L 821.958 1843.76 L 745.857 1868.85 C 722.828 1876.46 698.619 1885.92 674.346 1888.1 C 632.771 1891.83 583.756 1880.94 551.258 1853.7 C 535.646 1840.61 521.226 1823.98 513.722 1804.83 C 508.665 1791.92 504.868 1778.28 500.58 1765.09 C 490.358 1733.63 480.693 1702.09 470.948 1670.49 L 408.071 1467.75 L 249.126 952.503 A 17573 17573 0 0 1 147.75 622.111 A 5470.37 5470.37 0 0 0 128.777 560.239 C 122.605 540.66 113.895 519.324 112.221 498.845 C 109.65 467.385 122.036 434.39 142.359 410.601 C 157.252 393.169 175.234 380.457 196.322 371.566 C 227.071 358.602 260.825 350.775 292.655 340.723 L 482.356 280.376 L 713.138 206.83 L 797.017 179.54 C 826.191 170.122 853.825 159.774 884.627 157.422 z"/>
<path transform="translate(0,0)" fill="rgb(252,251,251)" d="M 1224.12 1368.85 C 1233.48 1369.96 1251.09 1376.97 1257.6 1383.8 C 1259.71 1386.02 1261.11 1388.72 1260.61 1391.89 C 1260.1 1395.08 1257.47 1396.98 1255.18 1398.95 C 1244.87 1396.13 1230.51 1389.61 1222.53 1382.27 C 1220.09 1380.03 1218.73 1378.11 1218.54 1374.69 C 1219.56 1371.57 1221.53 1370.57 1224.12 1368.85 z"/>
<path transform="translate(0,0)" fill="rgb(252,251,251)" d="M 1270.25 1394.81 C 1291.53 1403.08 1312.5 1412.61 1333.68 1421.25 C 1352.97 1429.12 1374.1 1436.13 1392.26 1446.28 C 1392.28 1448.71 1390.22 1451.02 1388.95 1453.1 L 1387.59 1453.89 C 1380.14 1453.15 1358.47 1440.92 1349.78 1436.92 C 1332.99 1429.2 1316.06 1422.05 1299.06 1414.84 C 1289.27 1410.68 1278.91 1406.9 1269.67 1401.67 C 1268.55 1398.83 1269.4 1397.68 1270.25 1394.81 z"/>
<path transform="translate(0,0)" fill="rgb(196,202,214)" d="M 1810.61 1393.83 L 1811.08 1394.33 C 1813.19 1400.29 1811.51 1409.21 1810.73 1415.38 C 1773.72 1466.35 1733.47 1515.44 1694.68 1565.08 C 1683.22 1579.75 1672.47 1594.96 1661.15 1609.73 L 1575.35 1719.6 A 2350.64 2350.64 0 0 0 1529.26 1779.56 C 1520.77 1790.87 1512.32 1804.47 1502.17 1814.21 C 1494.04 1822.02 1481.93 1827.76 1470.49 1827.22 C 1452.61 1826.38 1361.8 1785.08 1340.07 1776.1 C 1308.61 1763.09 1275.49 1751.69 1245.17 1736.28 C 1237.72 1732.49 1232.35 1729.19 1226.74 1722.96 C 1224.29 1718.81 1222.99 1714.39 1221.51 1709.84 C 1236.64 1720.03 1254.97 1726.32 1271.73 1733.39 A 6446.97 6446.97 0 0 0 1356.02 1768.34 C 1388.75 1781.96 1426.07 1800.4 1459.2 1811.27 C 1463.37 1812.64 1467.08 1813.12 1471.46 1812.58 C 1480.57 1811.46 1488.85 1806.91 1495.23 1800.39 C 1509.92 1785.39 1521.76 1766.49 1534.69 1749.9 A 7479.5 7479.5 0 0 0 1624.18 1633.85 C 1685.17 1553.03 1748.5 1473.81 1810.61 1393.83 z"/>
<path transform="translate(0,0)" fill="rgb(129,147,183)" d="M 891.594 174.428 C 897.451 174.566 903.292 175.045 909.134 175.457 A 685.097 685.097 0 0 0 898.438 177.522 C 881.561 180.933 865.665 186.883 849.27 191.992 A 3308.9 3308.9 0 0 0 763.152 219.423 L 540.754 291.75 L 333.544 356.477 C 308.139 364.66 280.54 370.432 256.322 381.562 C 231.443 392.996 212.307 408.69 197.174 431.704 C 180.082 457.698 170.38 490.284 177.152 521.217 C 180.767 537.728 187.314 553.969 191.906 570.314 A 8583.01 8583.01 0 0 0 250.07 761.787 L 396.691 1241.21 A 16392.9 16392.9 0 0 0 445.768 1402.66 A 10434.7 10434.7 0 0 1 505.134 1591.98 C 516.846 1631.82 529.319 1671.46 540.614 1711.41 C 546.632 1732.7 552.997 1753.84 559.331 1775.03 C 563.726 1789.73 567.637 1804.96 573.785 1819.03 C 583.849 1842.07 602.955 1856.31 623.496 1869.46 C 615.722 1867.15 608.203 1864.23 600.637 1861.33 C 584.349 1853.94 568.903 1844.64 555.558 1832.65 C 542.303 1820.74 535.561 1808.59 529.505 1791.96 C 510.575 1739.98 495.364 1686.45 478.926 1633.63 A 12650.7 12650.7 0 0 1 402.728 1387.83 L 236.888 850.413 L 190.65 698.672 C 178.026 657.799 164.79 617.164 152.637 576.137 C 146.376 554.997 131.062 515.412 130.147 495.426 C 128.829 466.649 140.883 438.596 160.045 417.547 C 171.423 405.049 186.074 394.267 201.729 387.781 C 213.011 383.107 225.238 379.969 236.922 376.423 A 1912.18 1912.18 0 0 0 288.767 360.153 L 517.119 287.231 A 9366 9366 0 0 0 641.47 247.481 C 656.662 242.658 672.04 238.467 687.195 233.508 L 779.675 203.449 C 816.242 191.469 852.801 176.212 891.594 174.428 z"/>
<path transform="translate(0,0)" fill="rgb(129,147,183)" d="M 1287.5 1607.59 C 1290.12 1601.29 1311.82 1577.26 1317.51 1570.05 L 1473.06 1376.13 C 1492.62 1351.63 1510.37 1325.36 1530.62 1301.47 C 1535.61 1295.57 1540.83 1290.8 1548.05 1287.71 C 1555.52 1284.5 1561.03 1284.14 1568.96 1285.77 C 1588.82 1289.87 1614.04 1302.12 1633.88 1309.25 C 1678.57 1325.3 1723.2 1341.08 1767.42 1358.38 C 1775.27 1361.45 1783.49 1363.7 1791.27 1366.9 C 1796.18 1368.91 1801 1371.76 1803.96 1376.25 C 1804.8 1380.79 1801.43 1385.57 1798.95 1389.14 C 1792.28 1398.74 1784.42 1407.82 1777.17 1417 L 1743.75 1459.78 L 1656.38 1572.28 L 1544.75 1716.14 A 3842.92 3842.92 0 0 0 1514.48 1755.53 C 1505.91 1766.97 1497.72 1778.95 1488.14 1789.56 C 1482.14 1796.2 1476.86 1799.07 1468.47 1801.62 C 1454.06 1796.61 1440.02 1790.16 1425.93 1784.31 L 1355.16 1755.06 L 1279.1 1723.35 C 1266.81 1718.32 1253.85 1714.18 1241.87 1708.5 C 1238.05 1706.68 1227.48 1701.75 1226.03 1697.84 C 1223.75 1691.64 1226.57 1683.71 1229.58 1678.24 C 1233.28 1671.51 1260.93 1636.45 1266.26 1632.66 C 1270.2 1628.96 1283.31 1612.71 1287.5 1607.59 z"/>
<path transform="translate(0,0)" fill="rgb(23,26,81)" d="M 1572.77 1302.38 C 1583.02 1301.64 1594.87 1305.61 1602.98 1311.76 C 1613.01 1319.35 1619.11 1331.73 1620.51 1344.11 C 1622.3 1359.99 1616.74 1377.06 1606.96 1389.58 C 1595.06 1404.82 1578.36 1413.39 1559.43 1415.84 C 1548.52 1416.09 1537.45 1413.32 1528.59 1406.77 C 1519.06 1399.71 1513.4 1388.51 1511.93 1376.87 C 1509.67 1359 1515.55 1341.4 1526.87 1327.57 C 1538.71 1313.11 1554.14 1304.22 1572.77 1302.38 z"/>
<path transform="translate(0,0)" fill="rgb(252,251,251)" d="M 1571.8 1314.33 C 1578.74 1313.35 1587.04 1315.62 1592.95 1319.24 C 1600.45 1323.84 1605.25 1331.68 1607.21 1340.13 C 1610.32 1353.5 1607.1 1368.09 1599.61 1379.47 C 1590.6 1393.15 1576.13 1400.92 1560.43 1404.01 C 1552.18 1404.22 1543.98 1402.68 1537.06 1397.95 C 1529.22 1392.59 1524.75 1384 1523.4 1374.74 C 1521.38 1360.87 1526.94 1346.29 1535.23 1335.28 C 1544.54 1322.92 1556.63 1316.36 1571.8 1314.33 z"/>
<path transform="translate(0,0)" fill="rgb(23,26,81)" d="M 1690.28 1351.18 C 1701.6 1350.18 1712.44 1350.82 1722.8 1356.1 A 43.0092 43.0092 0 0 1 1744.61 1382.27 C 1749.51 1398.42 1746.4 1415.88 1738.51 1430.51 C 1728.4 1449.24 1712.95 1459.92 1692.87 1465.88 C 1681.7 1468.35 1667.22 1465.68 1657.44 1459.82 C 1647.32 1453.76 1640.36 1443.74 1637.6 1432.32 C 1633.45 1415.16 1638.49 1396.67 1647.53 1381.91 C 1657.62 1365.41 1671.53 1355.66 1690.28 1351.18 z"/>
<path transform="translate(0,0)" fill="rgb(252,251,251)" d="M 1694.35 1362.18 C 1702.49 1361.48 1710.55 1362.53 1717.82 1366.45 C 1725.67 1370.68 1731.06 1377.89 1733.45 1386.43 C 1737.14 1399.63 1734.25 1414.3 1727.52 1426.04 C 1718.83 1441.17 1705.7 1449.52 1689.21 1454.29 C 1679.86 1455.2 1670.6 1454.21 1662.56 1448.92 C 1654.59 1443.67 1649.72 1434.91 1648.15 1425.62 C 1645.83 1411.85 1651.67 1395.59 1659.56 1384.31 C 1668.1 1372.11 1679.69 1364.81 1694.35 1362.18 z"/>
<path transform="translate(0,0)" fill="rgb(23,26,81)" d="M 1287.5 1607.59 C 1299.97 1598.63 1314.4 1593 1330.06 1595.66 C 1343.69 1597.97 1356.73 1605.84 1364.74 1617.15 C 1372.26 1627.78 1373.37 1640.97 1370.99 1653.49 C 1367.65 1671.11 1355.87 1690.4 1340.83 1700.41 A 56.8917 56.8917 0 0 1 1297.48 1708.5 C 1284.91 1705.79 1272.48 1698.35 1265.58 1687.34 C 1258.29 1675.72 1257.53 1661.07 1260.89 1648.02 C 1262.24 1642.78 1264.22 1637.67 1266.26 1632.66 C 1270.2 1628.96 1283.31 1612.71 1287.5 1607.59 z"/>
<path transform="translate(0,0)" fill="rgb(252,251,251)" d="M 1312.67 1607.22 C 1322.8 1606.04 1332.32 1607.12 1341.23 1612.46 C 1349.52 1617.43 1355.74 1625.5 1357.81 1635 C 1360.68 1648.12 1355.4 1662.92 1348.46 1674.05 C 1341.14 1685.8 1331.24 1693.8 1317.61 1696.95 C 1307.74 1697.32 1298.84 1697.07 1289.73 1692.55 C 1281.68 1688.55 1275.61 1681.91 1272.81 1673.32 C 1268.92 1661.35 1272.13 1648.44 1277.62 1637.51 C 1285.48 1621.87 1296.11 1612.76 1312.67 1607.22 z"/>
<path transform="translate(0,0)" fill="rgb(23,26,81)" d="M 1501.74 1429.38 C 1510.54 1427.84 1521.19 1428.1 1530.07 1429.08 C 1563.18 1432.72 1599.96 1450.6 1620.81 1476.98 A 92.8321 92.8321 0 0 1 1639.8 1546 C 1635.71 1578.48 1614.31 1608.35 1588.88 1627.93 C 1555.18 1653.89 1524.99 1658.28 1483.91 1652.89 C 1487.6 1655.97 1491.04 1659.21 1493.99 1663.02 C 1501.71 1672.99 1504.6 1684.47 1502.74 1696.9 C 1499.42 1719.22 1485.46 1739.29 1467.57 1752.45 C 1460 1757.17 1451.65 1760.35 1442.67 1760.77 C 1427.58 1761.47 1409.32 1754.66 1398.35 1744.23 A 42.5952 42.5952 0 0 1 1384.95 1713.34 C 1384.76 1694.82 1395.67 1675.3 1408.45 1662.43 C 1421.76 1649.03 1435.63 1643.98 1454.4 1643.95 C 1443.33 1638.4 1432.47 1632.18 1422.62 1624.63 C 1402.2 1608.98 1386.7 1585.41 1383.44 1559.58 C 1379.83 1530.86 1390.48 1504.29 1407.88 1481.88 C 1431.91 1450.94 1463.19 1434.38 1501.74 1429.38 z"/>
<path transform="translate(0,0)" fill="rgb(252,251,251)" d="M 1581.64 1548.35 A 339.658 339.658 0 0 1 1622.02 1559.59 C 1615.3 1582.95 1602.01 1600.48 1583.5 1615.8 C 1579.78 1618.67 1575.83 1621.26 1571.96 1623.93 C 1564.93 1612.35 1556.26 1601.86 1549.41 1590.12 C 1567 1579.03 1575.52 1568.22 1581.64 1548.35 z"/>
<path transform="translate(0,0)" fill="rgb(252,251,251)" d="M 1593.85 1468.69 C 1600.42 1473.66 1606.54 1480.05 1611.36 1486.74 C 1624.46 1504.9 1629.16 1526.39 1625.67 1548.43 C 1618.51 1545.99 1611.07 1544.09 1603.79 1541.98 C 1596.48 1540.04 1589.6 1537.49 1582.65 1534.54 C 1579.21 1519.9 1572.58 1509.96 1561.94 1499.67 C 1571.85 1488.83 1583.43 1479.13 1593.85 1468.69 z"/>
<path transform="translate(0,0)" fill="rgb(252,251,251)" d="M 1454.8 1455.73 C 1458.94 1458.26 1474.34 1490.85 1476.97 1497.12 C 1460.91 1507.08 1453.74 1519.7 1448.3 1537.24 L 1427.91 1533.24 C 1418.06 1531.38 1408.03 1530.16 1398.14 1528.48 C 1407.05 1495.88 1426.89 1473.87 1454.8 1455.73 z"/>
<path transform="translate(0,0)" fill="rgb(252,251,251)" d="M 1396.03 1539.44 C 1413.27 1543.01 1430.92 1545.02 1448.36 1547.32 C 1451.94 1562.5 1456.85 1574.47 1469.12 1584.69 L 1454.13 1602.23 L 1437.86 1619.48 C 1430.36 1614.96 1424.04 1610.19 1418.16 1603.67 C 1402.2 1585.96 1394.66 1563.06 1396.03 1539.44 z"/>
<path transform="translate(0,0)" fill="rgb(252,251,251)" d="M 1477.98 1591.6 C 1498.54 1602.1 1517.41 1601.76 1539.17 1595.1 L 1561.9 1630.3 C 1553.66 1634.84 1544.89 1637.76 1535.91 1640.45 C 1506.67 1645.88 1474.72 1642.45 1448.61 1627.41 C 1459.1 1616.1 1468.45 1603.72 1477.98 1591.6 z"/>
<path transform="translate(0,0)" fill="rgb(252,251,251)" d="M 1513.18 1440.42 C 1539.25 1440.09 1562.79 1447.96 1585 1461.31 C 1574.36 1472 1562.99 1482.06 1553 1493.38 C 1548.35 1490.61 1543.46 1488.66 1538.47 1486.61 C 1520.11 1481.63 1505.29 1483.78 1488.03 1491.1 C 1482.26 1477.43 1474.86 1461.32 1465.27 1450.03 C 1481.11 1444.9 1496.53 1441.43 1513.18 1440.42 z"/>
<path transform="translate(0,0)" fill="rgb(252,251,251)" d="M 1446.27 1655.29 C 1456.11 1655.17 1467.22 1657.66 1475.36 1663.27 C 1482.6 1668.26 1487.87 1675.81 1489.42 1684.53 C 1491.92 1698.64 1484.57 1714.93 1476.53 1726.25 C 1468.11 1738.1 1456.82 1746.2 1442.31 1748.63 C 1432.19 1748.35 1422.3 1746.34 1413.75 1740.61 C 1405.75 1735.25 1400.07 1727.15 1398.41 1717.6 C 1396 1703.78 1402.19 1689.69 1410.13 1678.65 C 1419.26 1665.96 1430.61 1657.84 1446.27 1655.29 z"/>
<path transform="translate(0,0)" fill="rgb(252,251,251)" d="M 1509.42 1496.22 C 1522.22 1495.27 1534.48 1496.18 1545.98 1502.55 C 1556.77 1508.52 1565.52 1518.95 1568.57 1531 C 1571.4 1542.15 1568.43 1553.63 1562.22 1563.1 C 1553.09 1577.06 1538.56 1584.4 1522.74 1587.79 C 1508.13 1588.97 1495.13 1588.03 1482.43 1579.97 C 1472.45 1573.64 1465.25 1563.84 1462.73 1552.24 C 1460.38 1541.42 1462.93 1530.17 1468.87 1520.91 C 1478.03 1506.66 1493.44 1499.61 1509.42 1496.22 z"/>
<path transform="translate(0,0)" fill="rgb(252,251,251)" d="M 1463.76 1181.46 C 1488.96 1180.73 1514.99 1183.22 1539.68 1188.29 C 1626.79 1206.19 1703.77 1262.44 1752.31 1336.41 C 1732.97 1330.8 1714.12 1322.73 1695.36 1315.44 L 1618.76 1286.35 C 1605.34 1281.35 1591.29 1275.03 1577.41 1271.61 C 1571.67 1270.19 1565.89 1269.63 1560 1270.14 C 1548.23 1271.17 1534.52 1276.09 1525.44 1283.86 C 1511.74 1295.61 1494.87 1320.51 1483.08 1335.45 A 5933.1 5933.1 0 0 1 1401.11 1437.8 C 1358.66 1420.2 1316.71 1401.67 1273.88 1384.96 C 1267.74 1375.57 1260.44 1370.52 1250.45 1365.79 C 1240.95 1361.3 1228.68 1355.6 1218.18 1359.71 C 1213.41 1361.58 1208.87 1365.4 1206.95 1370.25 C 1205.58 1373.73 1205.96 1377.83 1207.46 1381.2 C 1210.93 1389 1218.48 1394.12 1225.74 1398.07 C 1241.88 1406.85 1258.92 1409.94 1275.68 1416.86 C 1310.89 1431.38 1345.23 1447.84 1380.35 1462.6 C 1345.99 1508.07 1309.96 1552.71 1274.51 1597.35 C 1256.69 1619.79 1227.72 1653 1215.16 1677.19 C 1210.97 1685.26 1209.87 1693.04 1210.26 1702 C 1210.83 1715.4 1215.78 1729.05 1226.17 1737.98 C 1236.56 1746.9 1434.71 1829.42 1459.86 1837.17 C 1464.89 1838.72 1468.59 1838.89 1473.78 1838.25 C 1484.49 1836.94 1494.44 1834.01 1503.12 1827.36 C 1515.75 1817.67 1525.51 1801.86 1535.29 1789.34 L 1582.56 1728.51 L 1708.93 1565.03 C 1737.48 1527.8 1765.65 1489.3 1796.21 1453.75 C 1799.33 1473.8 1803.39 1493.08 1804.56 1513.46 C 1809.7 1603.23 1774.98 1696.04 1715.18 1762.61 A 335.712 335.712 0 0 1 1486.37 1872.89 C 1399.08 1877.72 1309.68 1848.23 1244.46 1789.38 A 331.419 331.419 0 0 1 1136.55 1559.3 A 371.45 371.45 0 0 1 1234.68 1288.05 C 1294.71 1222 1374.96 1185.64 1463.76 1181.46 z"/>
<path transform="translate(0,0)" fill="rgb(252,251,251)" d="M 904.541 191.4 A 105.801 105.801 0 0 1 953.485 199.026 C 974.982 207.813 995.357 224.244 1006.1 245.119 C 1017.65 267.558 1025.88 304.931 1033.41 329.947 L 1080.35 484.246 A 43945.3 43945.3 0 0 0 1242.18 1009.88 L 1283.9 1143.23 C 1291.36 1166.62 1298.36 1190.66 1307.8 1213.32 C 1300.04 1217.63 1292.86 1223.15 1285.62 1228.26 C 1272.46 1191.38 1261.37 1153.62 1249.35 1116.34 A 8196.68 8196.68 0 0 1 1177.86 890.013 L 1066.56 528.978 L 1012.95 353.763 C 1006.95 334.498 999.289 301.161 989.735 284.336 C 987.212 283.292 984.409 284.145 981.774 284.698 C 957.593 289.77 923.75 302.62 899.209 310.516 L 756.481 355.721 L 322.103 493.801 C 302.352 500.03 282.671 506.558 262.83 512.495 C 252.162 515.687 240.4 517.805 230.174 522.161 C 227.115 523.464 224.829 524.691 222.973 527.542 C 223.473 543.202 238.335 584.648 243.679 602.101 L 277.231 712.807 A 58969 58969 0 0 0 488.865 1405.72 C 496.942 1429.06 503.558 1453.15 510.877 1476.74 L 562.168 1642.5 C 568.397 1662.29 573.476 1683.05 580.591 1702.48 C 581.565 1705.14 582.071 1706.99 584.295 1708.89 C 592.124 1709.38 611.795 1700.99 620.513 1698.32 C 712.974 1670.04 804.529 1638.77 896.481 1608.83 L 1034.57 1564 C 1064.42 1554.36 1094.43 1545.31 1123.94 1534.63 C 1124.2 1595.15 1136.55 1659.62 1168.4 1711.94 C 1120.37 1724.68 1073.06 1742.21 1025.82 1757.64 L 826.628 1821.78 L 748.526 1847.89 C 728.703 1854.5 707.897 1863.14 687.034 1865.35 C 660.538 1868.15 631.265 1859.92 610.522 1843.12 A 88.1972 88.1972 0 0 1 583.692 1805.08 C 573.848 1777.98 567.035 1749 558.807 1721.33 A 14193.2 14193.2 0 0 0 511.316 1566.4 L 313.872 926.321 A 15804.7 15804.7 0 0 1 216.373 604.428 A 3099.47 3099.47 0 0 0 200.649 550.956 C 196.342 536.678 190.597 521.335 189.108 506.471 C 186.37 479.154 198.294 451.025 215.303 430.234 C 228.488 414.118 244.85 400.5 264.068 392.223 C 277.944 386.245 292.635 382.339 307.068 377.949 L 360.873 361.278 L 562.336 298.85 L 805.84 220.428 C 833.762 211.586 877.111 194.049 904.541 191.4 z"/>
<path transform="translate(0,0)" fill="rgb(23,26,81)" d="M 501.349 342.138 C 505.223 341.91 509.295 341.9 513.05 343.002 A 26.3335 26.3335 0 0 1 528.941 356.017 A 23.6903 23.6903 0 0 1 530.164 375.199 C 527.165 383.153 521.392 387.095 513.943 390.512 C 508.517 391.085 503.428 390.836 498.393 388.549 A 26.1426 26.1426 0 0 1 484.74 373.642 C 482.438 367.316 482.673 359.951 485.826 353.949 C 489.202 347.524 494.574 344.134 501.349 342.138 z"/>
<path transform="translate(0,0)" fill="rgb(252,251,251)" d="M 505.215 352.946 C 507.109 353.155 508.83 353.413 510.651 353.981 C 513.989 355.022 516.653 357.358 518.174 360.506 C 519.612 363.485 519.566 367.022 518.414 370.087 C 516.541 375.072 513.338 377.023 508.682 379.153 C 507.429 378.887 506.175 378.616 504.948 378.245 C 501.106 377.083 498.069 374.178 496.434 370.529 A 12.5363 12.5363 0 0 1 496.314 360.781 C 498.07 356.358 501.075 354.867 505.215 352.946 z"/>
<path transform="translate(0,0)" fill="rgb(23,26,81)" d="M 679.653 284.058 C 683.193 283.813 686.631 283.839 690.076 284.819 C 696.952 286.775 702.821 292.088 706.153 298.325 C 709.478 304.55 710.686 312.165 708.549 318.974 C 706.199 326.464 700.087 331.988 693.202 335.399 C 687.937 338.008 682.645 337.012 677.342 335.063 C 663.901 341.287 648.711 345.13 634.599 349.622 A 4218.83 4218.83 0 0 1 570.856 369.891 C 566.992 371.088 562.807 371.558 558.821 372.234 C 555.444 370.72 552.075 368.981 549.138 366.707 C 544.286 362.949 540.461 356.67 539.654 350.561 C 539.021 345.767 540.335 341.166 543.425 337.443 A 22.1218 22.1218 0 0 1 551.197 331.502 C 564.651 325.187 644.165 301.488 658.06 300.18 C 664.336 292.071 669.56 287.081 679.653 284.058 z"/>
<path transform="translate(0,0)" fill="rgb(252,251,251)" d="M 679.201 296.016 C 681.503 295.985 683.986 295.867 686.236 296.412 C 690.032 297.332 693.391 300.126 695.423 303.402 C 697.543 306.821 698.181 310.788 697.045 314.67 C 695.546 319.792 692.475 321.844 687.894 324.117 C 686.591 324.12 685.287 324.148 683.993 323.961 C 679.706 323.34 675.529 320.742 672.966 317.273 A 13.5945 13.5945 0 0 1 670.573 306.446 C 671.619 301.202 674.893 298.725 679.201 296.016 z"/>
<path transform="translate(0,0)" fill="rgb(129,147,183)" d="M 655.135 312.054 C 658.063 313.471 662.501 323.082 664.473 326.371 C 648.357 332.976 630.811 337.31 614.159 342.451 C 596.706 347.841 579.443 354.057 561.833 358.897 C 561.424 358.889 561.013 358.911 560.606 358.872 C 558.107 358.635 556.32 357.5 554.959 355.371 C 552.992 352.296 552.976 349.446 553.902 346.019 C 555.458 344.146 556.743 342.882 559.079 341.932 C 570.205 337.406 583.21 334.997 594.789 331.579 A 1778.94 1778.94 0 0 0 655.135 312.054 z"/>
<path transform="translate(0,0)" fill="rgb(23,26,81)" d="M 1065.35 1608.15 C 1071.58 1607.52 1077.28 1607.36 1083.17 1609.83 C 1093.84 1614.3 1100.77 1623.73 1104.79 1634.3 C 1109.45 1646.53 1111.88 1663.41 1106.11 1675.55 C 1104.02 1679.95 1100.78 1683.71 1096.52 1686.13 C 1082.37 1694.15 1063.25 1697.95 1047.62 1702.94 C 1013.12 1713.97 978.367 1724.56 944.249 1736.75 C 937.611 1737.96 930.695 1738.07 924.514 1734.99 C 915.499 1730.5 910.274 1721.9 907.153 1712.63 C 902.521 1698.87 897.882 1680.99 905.165 1667.46 C 908.039 1662.12 912.098 1658.58 917.429 1655.8 C 929.598 1649.46 945.249 1645.88 958.365 1641.54 C 993.726 1629.84 1029.45 1618.09 1065.35 1608.15 z"/>
<path transform="translate(0,0)" fill="rgb(129,147,183)" d="M 1071.24 1619.26 C 1074.04 1619.12 1077.14 1619.86 1079.67 1621.03 C 1088.34 1625.02 1092.4 1635.37 1095.58 1643.75 C 1098.58 1651.66 1099.12 1663.07 1095.17 1670.76 C 1093.26 1674.49 1089.29 1676.08 1085.64 1677.66 C 1071.24 1683.92 1054.67 1687.74 1039.69 1692.71 C 1006.72 1703.63 973.538 1715.05 940.243 1724.9 C 936.281 1724.99 932.188 1724.31 928.689 1722.36 C 917.646 1716.21 915.02 1694.11 912.138 1682.53 C 913.536 1678.93 914.91 1675.3 917.197 1672.15 C 919.127 1669.5 921.938 1667.14 924.957 1665.82 C 939.964 1659.26 959.911 1654.32 975.955 1649.03 L 1033.17 1630.22 C 1045.54 1626.2 1058.39 1621.34 1071.24 1619.26 z"/>
<path transform="translate(0,0)" fill="rgb(252,251,251)" d="M 977.551 299.947 L 979.962 299.933 L 981.579 301.633 C 986.894 323.793 994.935 346.064 1001.75 367.882 C 1009.17 391.625 1015.8 415.635 1023.03 439.447 L 1114.01 736.729 A 15597.7 15597.7 0 0 0 1226.12 1097.04 L 1253.4 1182.52 C 1259.33 1201.23 1264.74 1220.04 1272.23 1238.21 C 1266.6 1242.12 1261.28 1246.34 1256.04 1250.77 C 1176.4 1318 1133.09 1414.7 1124.72 1517.44 C 1106.04 1524.6 1086.23 1529.78 1067.2 1536.05 L 892.58 1592.07 L 699.036 1655.5 C 663.971 1667.03 628.969 1680.52 593.288 1689.9 C 588.451 1675.55 584.367 1660.84 579.935 1646.35 L 347.974 894.507 L 287.084 695.453 A 6716.33 6716.33 0 0 1 237.668 533.326 C 373.714 493.751 508.343 448.646 643.299 405.506 L 842.11 342.438 A 8446.37 8446.37 0 0 0 977.551 299.947 z"/>
<path transform="translate(0,0)" fill="rgb(23,26,81)" d="M 683.494 619.255 C 691.723 618.291 699.558 618.839 707.387 621.702 C 717.606 625.44 726.152 632.667 730.656 642.667 C 735.277 652.93 735.831 665.51 731.362 675.921 C 725.868 688.718 715.217 694.577 702.906 699.361 C 694.449 701.192 685.649 701.137 677.572 697.741 C 667.465 693.49 659.713 684.716 655.865 674.538 C 651.744 663.635 651.988 651.013 657.013 640.446 C 662.493 628.922 671.862 623.155 683.494 619.255 z"/>
<path transform="translate(0,0)" fill="rgb(129,147,183)" d="M 691.308 631.134 C 695.602 631.061 700.173 632.183 704.088 633.921 C 711.429 637.179 716.844 642.993 719.528 650.572 C 722.035 657.65 722.035 666.083 718.431 672.796 C 713.923 681.192 706.882 684.507 698.194 687.122 C 692.409 687.299 687.23 687.39 681.906 684.793 A 26.9763 26.9763 0 0 1 667.657 668.112 C 665.246 660.257 665.776 651.2 670.045 644.066 C 675.118 635.59 682.332 633.353 691.308 631.134 z"/>
<path transform="translate(0,0)" fill="rgb(23,26,81)" d="M 677.559 549.328 C 685.243 548.326 693.982 548.463 701.697 549.368 C 722.872 551.85 752.952 561.473 766.443 579.177 C 770.479 584.474 771.924 589.894 770.89 596.49 A 24.7288 24.7288 0 0 1 760.029 613.194 C 741.636 625.407 719.04 603.607 700.145 600.297 C 681.564 597.042 664.5 603.976 649.762 614.723 C 640.299 622.814 635.918 631.134 630.308 642.026 C 626.538 649.347 621.262 657.545 612.816 659.891 C 605.631 661.886 597.324 659.617 591.187 655.687 C 586.171 652.474 582.778 647.936 581.806 641.994 C 579.278 626.535 591.034 606.971 599.986 595.149 A 117.711 117.711 0 0 1 677.559 549.328 z"/>
<path transform="translate(0,0)" fill="rgb(129,147,183)" d="M 679.709 562.393 C 702.714 559.901 734.421 567.416 752.509 582.362 C 755.645 584.953 758.513 588.462 758.435 592.774 C 758.376 596.054 756.553 600.169 753.798 602.057 C 745.555 607.707 718.642 591.741 707.777 589.113 C 685.638 583.76 666.809 588.098 647.684 599.822 C 640.68 604.977 634.697 610.565 629.47 617.529 C 624.251 624.482 617.417 644.613 609.502 646.971 C 606.218 647.949 601.553 647.313 598.679 645.41 C 596.759 644.139 595.13 642.616 594.863 640.217 C 593.661 629.395 605.944 607.779 612.767 599.236 A 98.8548 98.8548 0 0 1 679.709 562.393 z"/>
<path transform="translate(0,0)" fill="rgb(23,26,81)" d="M 671.572 478.41 C 685.362 476.853 700.737 478.171 714.44 480.201 C 739.337 483.889 790.608 501.1 805.42 522.422 C 808.907 527.442 810.108 533.239 808.798 539.224 A 26.8248 26.8248 0 0 1 796.78 556.331 C 777.866 568.323 767.958 551.716 753.163 543.5 C 741.605 537.081 726.939 532.68 714.021 529.922 C 679.19 522.487 643.366 531.96 613.81 551.006 A 113.236 113.236 0 0 0 575.245 594.104 C 571.594 601.281 568.721 609.1 564.485 615.942 C 560.574 622.26 554.77 627.861 547.249 629.313 C 540.732 630.571 532.905 628.631 527.502 624.828 A 22.0245 22.0245 0 0 1 518.184 608.919 C 516.48 591.206 537.192 555.553 548.48 542.131 C 580.888 503.595 621.422 482.671 671.572 478.41 z"/>
<path transform="translate(0,0)" fill="rgb(129,147,183)" d="M 675.842 491.415 C 683.938 490.456 692.627 491.016 700.714 491.851 C 724.114 494.265 780.296 510.402 794.497 529.356 C 796.468 531.988 797.246 534.539 796.53 537.834 C 795.775 541.309 792.363 544.215 789.54 546.052 C 786.298 548.161 782.902 548.082 779.405 546.572 C 773.621 544.073 768.327 538.468 763.128 534.746 C 750.048 525.38 731.171 519.416 715.527 516.353 C 678.378 509.077 638.937 518.014 607.733 539.009 C 589.945 552.389 575.137 567.973 564.51 587.711 C 559.869 596.33 555.985 605.856 550.385 613.883 C 548.563 616.495 545.349 617.08 542.298 617.404 C 539.816 617.668 537.142 617.092 535.276 615.357 C 533.081 613.317 532.194 610.277 531.909 607.382 C 530.283 590.887 549.735 561.256 560.116 548.551 C 589.403 512.709 630.653 495.731 675.842 491.415 z"/>
<path transform="translate(0,0)" fill="rgb(23,26,81)" d="M 768.488 716.182 C 770.309 716.145 771.463 716.289 773.209 716.659 C 784.202 726.158 811.465 795.072 822.022 812.353 C 826.658 812.818 831.364 812.924 836.019 813.169 C 845.382 800.015 894.774 738.455 905.929 730.464 C 907.523 730.278 908.819 730.497 910.358 730.904 C 928.553 735.714 957.943 754.21 976.134 763.516 C 991.749 771.504 1008.33 778.463 1023.48 787.235 C 1026.73 789.111 1032.13 791.939 1033.7 795.4 C 1036.52 801.621 996.961 880.928 990.247 893.604 C 993.834 900.048 997.943 906.193 1001.95 912.383 C 1017.54 910.611 1103.94 892.777 1109.87 896.232 C 1115.72 906 1148.64 1017.74 1150.15 1031.09 C 1135.98 1041.45 1118.56 1047.63 1102.74 1055.03 C 1085.35 1063.17 1068.09 1072.35 1050.02 1078.85 C 1049.22 1084.53 1049.1 1090.31 1048.81 1096.03 C 1064.01 1104.39 1078.75 1113.67 1093.66 1122.53 C 1107.76 1130.91 1124.54 1138.83 1136.42 1150.04 C 1133.33 1161.39 1127.11 1172.49 1122.01 1183.09 A 4088.84 4088.84 0 0 1 1095.24 1237.61 C 1088.29 1251.75 1082.48 1266.67 1074.89 1280.46 C 1072.74 1284.35 1070.5 1288.1 1067.23 1291.16 C 1057.39 1290.31 970.906 1255.82 958.964 1250.06 C 962.647 1270.05 976.601 1333.01 975.555 1349.92 C 973.261 1353.64 968.123 1355.51 964.198 1356.95 C 955.878 1360.01 946.907 1361.89 938.39 1364.38 A 2884.58 2884.58 0 0 1 884.209 1380.1 C 869.236 1384.35 851.2 1391.03 836.669 1394.3 C 833.715 1394.97 832.675 1394.22 830.255 1392.61 C 821.578 1376.35 813.942 1359.52 805.645 1343.06 C 798.283 1328.45 789.814 1313.95 783.64 1298.81 C 765.196 1319.41 747.414 1341.56 731.13 1363.91 C 723.893 1373.84 718.405 1385.64 710.076 1394.65 C 682.617 1380.48 655.56 1365.68 628.32 1351.11 C 612.766 1342.79 592.213 1335.41 579.576 1323.22 L 580.193 1323.5 L 578.666 1321.75 C 580.637 1314.45 585.658 1307.11 589.101 1300.31 A 1482.68 1482.68 0 0 1 620.523 1240.4 A 204.056 204.056 0 0 1 600.495 1204.8 C 569.012 1209.59 537.911 1217.66 506.391 1221.88 C 499.426 1206.22 465.618 1100.66 465.371 1085.67 C 470.381 1078.56 556.506 1039.68 572.335 1031.16 C 551.439 1022.4 531.272 1011.06 510.96 1001 C 497.983 994.578 482.235 988.787 470.567 980.311 L 471.804 978.691 L 470.973 978.646 C 476.994 961.179 496.889 929.133 506.598 911.272 C 518.29 889.761 528.884 866.852 541.623 846.043 C 543.574 842.856 546.017 840.267 548.643 837.634 C 557.422 839.345 566.082 843.112 574.425 846.286 C 598.093 855.291 621.574 866.86 645.995 873.51 C 648.76 870.43 651.326 868.193 654.84 866.001 C 652.072 851.45 631.796 768.464 633.432 761.122 C 649.843 748.554 698.178 737.006 719.416 730.603 C 735.687 725.698 751.906 719.914 768.488 716.182 z"/>
<path transform="translate(0,0)" fill="rgb(252,251,251)" d="M 612.342 1190.27 C 617.088 1191.91 626.604 1210.11 630.139 1214.91 L 625.678 1226.31 C 621.213 1220.79 608.563 1199.23 609.217 1192.7 L 612.342 1190.27 z"/>
<path transform="translate(0,0)" fill="rgb(252,251,251)" d="M 488.12 970.365 C 497.775 973.042 523.924 988.031 534.601 993.347 C 549.662 1000.85 565.206 1007.29 580.235 1014.79 C 581.304 1017.8 580.158 1020.51 579.354 1023.46 C 567.293 1015.63 488.075 978.253 485.751 973.997 L 488.12 970.365 z"/>
<path transform="translate(0,0)" fill="rgb(252,251,251)" d="M 651.013 767.751 C 651.463 768.145 652.015 768.447 652.364 768.932 C 652.946 769.741 671.132 845.889 673.352 854.708 C 672.235 857.132 670.767 857.344 668.489 858.555 C 666.562 858.682 667.628 858.775 665.332 857.981 C 662.884 845.127 645.709 777.973 646.072 772.558 C 646.247 769.952 649.029 769.049 651.013 767.751 z"/>
<path transform="translate(0,0)" fill="rgb(252,251,251)" d="M 968.682 1234.58 C 999.728 1247.18 1032.32 1257.74 1062.5 1272.22 C 1062.83 1275.01 1061.95 1275.74 1060.58 1278.13 C 1029.45 1263.84 996.251 1254.16 964.836 1240.74 C 964.698 1238.47 967.26 1236.35 968.682 1234.58 z"/>
<path transform="translate(0,0)" fill="rgb(252,251,251)" d="M 484.832 1092.94 C 487.684 1097.09 515.2 1188.61 516.883 1197.3 C 515.714 1200.19 513.941 1201.15 511.56 1203.1 C 502.649 1166.84 487.659 1131.99 479.543 1095.62 L 484.832 1092.94 z"/>
<path transform="translate(0,0)" fill="rgb(252,251,251)" d="M 797.69 1286.23 C 802.759 1289.84 836.047 1364.48 841.513 1376.2 C 840.257 1378.66 838.68 1379.32 836.419 1380.84 A 1345.14 1345.14 0 0 0 811.752 1329.77 C 805.448 1317.65 794.77 1301.68 791.105 1288.73 C 792.845 1286.8 795.204 1286.81 797.69 1286.23 z"/>
<path transform="translate(0,0)" fill="rgb(252,251,251)" d="M 598.558 1314.71 C 612.043 1321.35 704.647 1370.01 708.575 1375.92 L 707.559 1379.93 C 688.571 1370.46 669.971 1359.74 651.228 1349.75 C 632.83 1339.95 614.026 1330.72 595.848 1320.54 C 595.509 1317.95 597.099 1316.78 598.558 1314.71 z"/>
<path transform="translate(0,0)" fill="rgb(129,147,183)" d="M 763.787 736.207 C 767.272 739.328 804.387 818.626 810.24 830.132 C 825.737 828.219 840.319 827.984 855.731 830.673 C 870.563 817.455 899.969 769.76 913.205 751.399 C 946.521 768.957 979.865 787.157 1013.98 803.079 C 1003.63 821.196 995.614 840.407 986.983 859.365 C 981.974 870.367 976.366 881.072 971.441 892.118 C 980.18 906.284 989.572 918.843 996.825 934.038 C 1029.91 925.611 1063.75 920.425 1097.27 914.022 C 1106.59 948.146 1117.49 981.827 1126.47 1016.03 C 1097.84 1028.61 1061.58 1041.36 1034.93 1055.88 C 1035.49 1072.13 1031.76 1087.92 1031.4 1104.08 C 1039.45 1111.31 1050.56 1116.93 1059.77 1122.69 C 1078.14 1134.15 1096.41 1145.77 1115.3 1156.35 C 1098.14 1188.49 1083.49 1221.89 1065.53 1253.58 C 1033.92 1241.54 1002.86 1228.24 971.334 1216.05 C 960.443 1223.03 950.322 1232.62 940.432 1240.99 C 941.365 1251.37 943.609 1261.67 945.352 1271.93 L 957.601 1340.19 C 936.781 1347.91 914.243 1352.39 892.877 1358.54 C 882.007 1361.67 869.667 1367.37 858.594 1368.75 L 857.053 1367.24 A 2470.1 2470.1 0 0 0 811.608 1272.82 A 698.88 698.88 0 0 1 770.621 1272.85 C 754.674 1302.36 735.396 1329.72 718.247 1358.52 C 701.315 1346.97 681.198 1338.52 662.941 1329.07 C 644.916 1319.74 627.446 1309.41 609.316 1300.29 C 623.468 1275.63 643.029 1239.23 652.085 1213.08 C 641.43 1200.04 631.786 1186.17 621.922 1172.52 C 591.749 1175.68 561.974 1182.45 531.722 1185.65 C 522.359 1153.03 510.371 1121.21 501.235 1088.56 C 530.334 1071.65 561.009 1057.13 590.386 1040.6 C 593.742 1029.64 598.527 1015.68 596.597 1004.18 C 589.303 997.037 562.304 987.605 551.48 982.359 C 535.025 974.383 518.518 966.121 502.514 957.28 C 520.245 924.872 536.322 891.795 555.507 860.184 C 586.049 871.423 617.021 881.863 647.198 894.029 C 653.836 888.87 659.88 882.951 666.566 877.809 C 674.281 871.875 682.68 866.927 691.004 861.911 L 668.476 762.966 A 6626.8 6626.8 0 0 0 763.787 736.207 z"/>
<path transform="translate(0,0)" fill="rgb(23,26,81)" d="M 812.631 916.422 A 138.546 138.546 0 0 1 902.736 947.32 A 136.703 136.703 0 0 1 952.337 1042.5 C 955.326 1076.82 943.384 1113.78 921.091 1140.03 C 893.642 1172.35 857.873 1189.38 816.065 1192.77 C 780.605 1192.82 746.402 1182.77 719.192 1159.36 C 693.061 1136.87 676.386 1101.78 674.176 1067.49 C 671.746 1029.81 687.245 990.486 712.002 962.351 C 737.767 933.071 774.249 918.699 812.631 916.422 z"/>
<path transform="translate(0,0)" fill="rgb(252,251,251)" d="M 808.658 931.425 C 837.912 929.155 870.662 941.145 893.032 959.758 A 119.961 119.961 0 0 1 936.727 1042.43 C 939.554 1076.32 928.812 1107.86 906.578 1133.59 C 884.026 1159.69 851.357 1174.86 817.246 1177.52 C 788.469 1180.48 755.252 1169.13 732.974 1151.02 A 120.8 120.8 0 0 1 689.67 1070.14 C 686.318 1036.18 698.769 1002.3 720.413 976.397 C 743.173 949.158 773.598 934.674 808.658 931.425 z"/>
<path transform="translate(0,0)" fill="rgb(23,26,81)" d="M 805.769 959.41 C 830.829 957.857 855.446 964.595 875.144 980.425 A 90.983 90.983 0 0 1 908.525 1042.13 C 911.36 1068.29 905.511 1092.54 888.777 1113.11 C 871.176 1134.75 847.943 1146.84 820.321 1149.61 C 820.196 1149.63 820.071 1149.66 819.944 1149.68 C 795.879 1151.94 770.28 1144.01 751.613 1128.64 C 732.637 1113.01 721.167 1087.98 718.899 1063.75 A 97.6381 97.6381 0 0 1 740.96 991.731 C 758.152 971.129 779.362 961.71 805.769 959.41 z"/>
<path transform="translate(0,0)" fill="rgb(252,251,251)" d="M 810.461 970.447 C 830.334 970.224 849.739 976.161 865.542 988.387 C 882.572 1001.56 894.367 1022.86 896.808 1044.22 C 899.408 1066.97 892.504 1089.15 878.048 1106.83 C 862.388 1125.99 841.49 1135.01 817.251 1137.46 C 816.647 1137.52 816.043 1137.6 815.437 1137.66 C 795.743 1139.57 773.894 1130.98 759.028 1118.36 C 742.368 1104.22 732.643 1082.63 731.044 1060.99 A 85.1189 85.1189 0 0 1 751.409 998.812 C 766.593 981.335 787.684 972.203 810.461 970.447 z"/>
</svg>