<svg version="1.1" xmlns="http://www.w3.org/2000/svg" style="display: block;" viewBox="0 0 2048 2048" width="1024" height="1024">
<path transform="translate(0,0)" fill="rgb(254,254,254)" d="M 0 0 L 2048 0 L 2048 2048 L 0 2048 L 0 0 z"/>
<path transform="translate(0,0)" fill="rgb(217,216,216)" d="M 1812.28 1760.71 C 1814.67 1760.97 1817.16 1761.17 1819.07 1762.81 C 1825.43 1768.23 1822.97 1789.59 1822.95 1798.06 C 1835.48 1797.92 1851.67 1795.57 1862.24 1803.47 C 1862.21 1804.46 1862.54 1806.97 1861.73 1807.61 C 1851.99 1815.3 1834.92 1813.13 1823.18 1812.97 C 1823.24 1821.88 1825.47 1837.3 1822.52 1845.65 C 1821.73 1847.87 1820.66 1848.06 1818.7 1849.13 C 1816.62 1848.72 1812.99 1848.44 1811.48 1846.98 C 1805.34 1841.05 1808.66 1821.05 1808.94 1813.02 C 1798.54 1812.89 1784.52 1815.13 1774.7 1811.84 C 1771.57 1810.78 1770.06 1809.45 1768.64 1806.4 C 1768.74 1803.84 1768.51 1802.4 1770.69 1800.58 C 1777.01 1795.31 1799.45 1797.9 1808.07 1798 C 1808.02 1785.19 1805.6 1772.32 1812.28 1760.71 z"/>
<path transform="translate(0,0)" fill="rgb(33,43,91)" d="M 610.71 492.234 C 632.425 490.137 652.216 497.097 670.95 507.514 C 674.823 509.667 676.285 512.282 677.386 516.402 C 676.845 519.23 677.058 519.201 674.744 520.861 C 664.733 521.569 653.834 511.762 644.252 508.411 C 627.663 502.611 608.808 502.669 592.956 510.564 C 571.513 521.242 561.098 542.204 553.649 563.831 C 550.391 576.7 549.433 590.179 552.037 603.265 C 553.173 608.974 554.913 614.822 555.516 620.609 C 555.8 623.334 555.846 625.83 553.641 627.798 C 551.76 629.475 550.89 629.312 548.696 628.833 C 543.13 623.435 541.693 612.501 540.333 605.179 A 105.096 105.096 0 0 1 557.322 526.612 C 570.221 508.187 588.564 496.176 610.71 492.234 z"/>
<path transform="translate(0,0)" fill="rgb(217,216,216)" d="M 1859.74 1073.06 C 1867.54 1072.6 1874.28 1073.14 1881.34 1076.86 A 31.6238 31.6238 0 0 1 1897.04 1095.86 C 1899.78 1105.05 1898.54 1115.71 1893.89 1124.08 C 1888.81 1133.2 1880.99 1138.13 1871.23 1141.05 C 1864.76 1141.33 1858.78 1141.63 1852.67 1139.01 C 1843.87 1135.25 1837.17 1127.98 1833.75 1119.07 C 1830.37 1110.26 1830.44 1100.54 1834.69 1092.04 C 1839.93 1081.58 1849 1076.48 1859.74 1073.06 z"/>
<path transform="translate(0,0)" fill="rgb(254,254,254)" d="M 1859.2 1087.09 C 1862.86 1086.63 1866.76 1086.55 1870.34 1087.51 C 1875.51 1088.89 1880.18 1092.49 1882.79 1097.16 A 21.0529 21.0529 0 0 1 1884.35 1114.09 C 1881.83 1121.54 1876.92 1124.39 1870.15 1127.61 C 1867.11 1128.06 1863.7 1128.42 1860.65 1127.89 C 1855.6 1127.01 1850.76 1123.77 1848.09 1119.4 C 1844.94 1114.27 1844.31 1107.98 1845.87 1102.21 C 1848.01 1094.3 1852.34 1090.96 1859.2 1087.09 z"/>
<path transform="translate(0,0)" fill="rgb(217,216,216)" d="M 257.611 226.125 C 264.703 225.287 270.837 225.384 277.54 228.192 A 33.2752 33.2752 0 0 1 295.773 246.628 A 34.6639 34.6639 0 0 1 294.937 274.13 C 289.954 284.919 281.971 290.374 271.202 294.242 C 263.827 295.085 256.953 294.71 250.046 291.664 A 34.5956 34.5956 0 0 1 231.258 271.062 C 228.277 262.171 229.408 251.811 233.796 243.575 C 238.987 233.833 247.424 229.196 257.611 226.125 z"/>
<path transform="translate(0,0)" fill="rgb(254,254,254)" d="M 263.005 238.276 C 266.214 238.552 269.47 238.838 272.387 240.321 C 277.932 243.141 282.339 248.444 284.184 254.369 C 285.89 259.848 285.52 266.045 282.636 271.069 C 279.133 277.17 273.347 279.744 266.782 281.273 C 262.515 281.245 257.992 281.619 254.177 279.431 C 248.803 276.349 244.912 271.898 243.459 265.781 A 22.3732 22.3732 0 0 1 246.271 248.644 C 250.291 242.291 255.87 239.705 263.005 238.276 z"/>
<path transform="translate(0,0)" fill="rgb(217,216,216)" d="M 347.043 968.256 C 352.942 967.786 358.055 967.867 363.707 969.816 C 373.72 973.269 381.291 980.905 385.462 990.559 C 388.912 998.54 388.961 1006.98 385.527 1014.96 C 380.449 1026.77 371.181 1034.23 359.476 1038.88 C 350.332 1040.45 341.544 1040.03 333.51 1034.95 A 35.792 35.792 0 0 1 317.757 1011.79 C 315.664 1001.65 317.405 990.611 323.367 982.036 C 329.247 973.579 337.161 969.929 347.043 968.256 z"/>
<path transform="translate(0,0)" fill="rgb(254,254,254)" d="M 348.032 982.309 C 351.631 982.131 355.388 982.196 358.824 983.414 C 364.372 985.379 369.084 989.933 371.451 995.294 C 373.852 1000.73 374.025 1007.28 371.565 1012.72 C 368.651 1019.18 363.939 1021.82 357.657 1024.43 C 353.154 1024.94 348.23 1025.39 344.023 1023.39 C 338.643 1020.82 334.595 1015.92 332.769 1010.28 C 330.833 1004.31 331.257 997.441 334.468 991.981 C 337.629 986.607 342.133 983.871 348.032 982.309 z"/>
<path transform="translate(0,0)" fill="rgb(217,216,216)" d="M 1888.82 124.283 C 1895.73 123.869 1902.59 124.4 1908.97 127.318 C 1918.12 131.508 1924.63 139.22 1928.1 148.593 C 1931.47 157.694 1931.49 167.556 1927.23 176.366 C 1922 187.17 1913.36 192.034 1902.53 195.775 C 1893.55 196.84 1885.21 196.341 1877.27 191.608 A 36.2353 36.2353 0 0 1 1860.67 168.531 A 37.782 37.782 0 0 1 1865.77 139.758 C 1871.3 131.162 1878.97 126.363 1888.82 124.283 z"/>
<path transform="translate(0,0)" fill="rgb(254,254,254)" d="M 1886.99 139.14 C 1890.9 138.869 1895.21 138.322 1899.08 138.989 C 1905.23 140.047 1911.28 144.259 1914.52 149.549 C 1917.61 154.578 1918.54 160.873 1916.78 166.53 C 1914.57 173.62 1908.82 178.499 1902.42 181.757 C 1897.79 182.919 1893.07 183.637 1888.34 182.511 C 1881.07 180.783 1876.96 175.709 1873.13 169.683 C 1872.83 164.514 1872.25 158.61 1873.6 153.568 C 1875.57 146.202 1880.61 142.653 1886.99 139.14 z"/>
<path transform="translate(0,0)" fill="rgb(217,216,216)" d="M 545.365 1874.2 C 552.587 1873.95 560.321 1875.25 566.609 1878.96 A 32.7557 32.7557 0 0 1 581.62 1899.55 A 39.8583 39.8583 0 0 1 576.507 1930.09 C 570.371 1939.71 562.073 1944.11 551.251 1946.32 C 542.532 1946.47 534.639 1945.52 527.162 1940.65 A 34.5939 34.5939 0 0 1 511.935 1917.3 C 510.277 1907.71 512.202 1897.75 517.935 1889.82 C 524.731 1880.42 534.275 1876.11 545.365 1874.2 z"/>
<path transform="translate(0,0)" fill="rgb(254,254,254)" d="M 544.344 1888.19 C 548.082 1888.15 551.75 1888.13 555.277 1889.53 A 21.8784 21.8784 0 0 1 567.49 1901.66 A 23.1921 23.1921 0 0 1 566.803 1920.44 C 563.558 1927.07 558.252 1930.62 551.524 1933.1 C 547.031 1933.22 542.402 1933.43 538.205 1931.57 C 532.578 1929.07 528.056 1924.43 526.062 1918.58 A 22.867 22.867 0 0 1 527.265 1901.25 C 530.867 1893.95 536.888 1890.58 544.344 1888.19 z"/>
<path transform="translate(0,0)" fill="rgb(33,43,91)" d="M 596.353 419.36 C 630.054 413.896 681.326 430.978 708.152 451.089 C 711.507 453.605 714.164 455.749 714.864 460.065 C 713.864 462.504 713.514 462.688 711.333 464.22 C 708.846 464.427 707.041 464.253 704.824 463.13 C 699.776 460.571 695.3 456.608 690.405 453.71 C 678.345 446.57 664.535 441.068 651.135 437.057 C 616.501 426.687 583.85 427.984 551.711 445.429 C 516.191 464.71 496.457 499.588 485.427 537.247 C 477.556 567.534 475.795 595.615 479.875 626.62 C 481.046 635.518 487.797 654.509 486.19 661.924 C 485.925 663.147 485.061 663.914 483.849 664.296 C 481.739 664.962 479.656 664.834 477.936 663.355 C 471.674 657.973 469.446 633.971 468.347 625.719 C 461.29 572.727 471.332 514.501 504.504 471.531 C 528.72 440.161 557.138 424.372 596.353 419.36 z"/>
<path transform="translate(0,0)" fill="rgb(217,216,216)" d="M 987.015 87.6165 C 995.894 91.7755 1030.61 128.629 1036.81 137.425 C 1030.02 145.036 1022.48 152.034 1015.47 159.449 C 1006.99 168.404 999.059 177.76 990.103 186.259 C 980.756 183.004 946.925 146.676 941.463 137.112 C 947.313 124.315 975.692 99.0488 987.015 87.6165 z"/>
<path transform="translate(0,0)" fill="rgb(254,254,254)" d="M 987.294 109.702 C 996.081 113.549 1007.8 129.418 1014.24 136.931 C 1007.52 146.478 996.79 155.375 988.8 164.172 C 981.967 162.337 967.544 144.373 961.841 138.307 C 969.754 128.11 977.672 118.357 987.294 109.702 z"/>
<path transform="translate(0,0)" fill="rgb(33,43,91)" d="M 581.628 338.398 C 619.738 331.929 674.214 346.564 708.381 363.036 C 718.174 367.757 756.323 387.328 759.731 397.052 C 759.387 399.713 759.284 400.204 757.675 402.329 C 754.437 403.519 752.029 402.784 749.005 401.352 C 741.747 397.914 735.51 392.092 728.651 387.874 C 711.98 377.621 693.159 368.726 674.758 362.25 C 621.554 343.524 565.031 344.686 514.031 369.469 C 456.378 397.485 422.543 449.617 401.945 508.546 C 384.46 560.352 383.971 616.344 390.966 670.066 C 392.136 679.049 395.317 687.641 396.478 696.493 C 397.065 700.967 397.293 704.274 394.493 707.976 C 392.269 708.312 391.266 708.628 389.355 707.039 C 382.063 700.972 378.512 664.602 377.357 654.034 C 368.206 570.308 384.152 482.894 438.12 416.089 C 475.027 370.403 523.276 344.574 581.628 338.398 z"/>
<path transform="translate(0,0)" fill="rgb(33,43,91)" d="M 637.502 539.337 A 51.4327 51.4327 0 0 1 669.667 547.992 C 681.87 556.135 691.141 569.632 693.786 584.073 C 696.371 598.187 693.691 613.846 685.014 625.454 C 675.332 638.407 660.884 644.503 645.351 646.695 C 632.437 647.215 619.493 643.927 609.149 635.945 C 597.564 627.006 589.707 612.444 588.099 597.964 A 52.8746 52.8746 0 0 1 599.321 558.953 C 609.195 546.723 622.257 541.118 637.502 539.337 z"/>
<path transform="translate(0,0)" fill="rgb(254,254,254)" d="M 638.408 551.26 A 45.1631 45.1631 0 0 1 663.268 558.415 A 43.1609 43.1609 0 0 1 682.371 586.894 C 684.362 597.316 682.501 608.147 676.46 616.955 C 668.99 627.847 657.842 632.687 645.241 634.811 C 636.573 634.866 628.764 633.259 621.229 628.789 A 42.5049 42.5049 0 0 1 601.51 601.71 A 41.0558 41.0558 0 0 1 607.518 569.194 C 614.945 558.319 625.821 553.42 638.408 551.26 z"/>
<path transform="translate(0,0)" fill="rgb(217,216,216)" d="M 1564.92 1333.77 C 1571.14 1338.22 1576.87 1344.91 1582.51 1350.17 C 1561.51 1366.03 1544.54 1396.54 1540.78 1422.47 C 1536.38 1452.9 1544.18 1480.85 1562.71 1505.11 C 1581.68 1529.96 1609.76 1547.26 1640.96 1551.14 C 1672.7 1555.09 1701.7 1546.19 1726.65 1526.6 C 1747.26 1510.42 1762.4 1488.33 1765.48 1461.91 L 1790.84 1461.95 C 1788.82 1469.07 1786.4 1476.08 1784.09 1483.11 C 1776.24 1503.36 1764.85 1521.67 1749.38 1537 C 1723.94 1562.21 1690.51 1574.43 1654.93 1574.22 C 1620.78 1574.02 1585.31 1561.6 1561.18 1536.89 C 1533.2 1508.25 1517.12 1471.28 1517.66 1430.96 C 1518.18 1391.14 1537.12 1360.97 1564.92 1333.77 z"/>
<path transform="translate(0,0)" fill="rgb(33,43,91)" d="M 586.222 244.464 A 355.79 355.79 0 0 1 668.077 255.23 C 704.692 264.696 738.183 281.37 770.345 300.892 C 779.214 306.276 791.324 312.324 796.696 321.386 C 797.016 324.703 796.401 325.006 794.656 327.72 C 792.171 329.036 791.972 329.359 789.21 328.12 C 779.133 323.599 768.891 314.266 759.32 308.319 C 732.491 291.646 704.73 278.221 674.448 269.102 A 299.756 299.756 0 0 0 448.786 291.457 C 357.56 340.683 305.505 423.443 276.627 520.433 C 260.226 580.344 257.712 640.756 267.3 702.101 C 269.801 718.099 277.314 733.953 278.673 749.917 C 278.938 753.031 278.968 756.024 276.926 758.549 C 274.665 759.026 273.657 759.421 271.622 757.86 C 259.107 748.256 249.853 665.614 249.301 646.215 C 246.261 539.472 284.585 424.652 358.357 346.485 C 420.199 280.958 495.993 247.048 586.222 244.464 z"/>
<path transform="translate(0,0)" fill="rgb(217,216,216)" d="M 1647.79 1221.4 C 1653 1220.86 1658.49 1220.92 1663.73 1220.94 A 207.243 207.243 0 0 1 1810.5 1282.27 C 1822.79 1294.79 1832.96 1309.3 1841.5 1324.59 C 1862.84 1362.83 1867.76 1395.81 1867.58 1438.75 C 1849.64 1437.72 1831.48 1438.45 1813.51 1438.36 C 1794.19 1438.26 1774.56 1437.27 1755.29 1438.83 C 1760.86 1416.03 1759.48 1399.48 1748.95 1378.58 A 120.911 120.911 0 0 0 1723.86 1348.39 C 1706.04 1332.9 1683.21 1327.45 1660.07 1328.95 C 1659.67 1353.66 1658.68 1378.44 1659.61 1403.13 C 1648.35 1392.54 1638.35 1379.01 1627.9 1367.47 C 1613.05 1351.04 1598.8 1334.17 1584.15 1317.58 C 1568.33 1299.66 1552.3 1282.89 1538.96 1262.93 C 1569.96 1237.43 1608.12 1224.58 1647.79 1221.4 z"/>
<path transform="translate(0,0)" fill="rgb(33,43,91)" d="M 1444.47 136.557 L 1448.94 136.358 C 1461.64 135.824 1478.7 133.254 1488.68 142.988 C 1492.89 147.098 1495.48 152.557 1496.8 158.234 C 1500.73 175.005 1499.63 209.022 1500.16 227.493 C 1539.98 235.964 1575.72 249.088 1611.45 268.615 C 1624.1 253.741 1634.95 236.846 1648.08 222.5 C 1655.09 214.834 1662.8 210.133 1673.37 209.887 C 1678.51 209.767 1683.79 210.999 1688.2 213.667 C 1701 221.41 1713.07 233.865 1724.39 243.686 C 1742.57 259.458 1761.89 275.089 1778.82 292.213 C 1785.31 298.781 1789.69 306.636 1789.41 316.127 C 1789.25 321.441 1787.26 326.53 1784.58 331.063 C 1777.17 343.61 1752.46 369.007 1741.35 379.923 C 1766.61 414.552 1779.68 440.096 1796.22 479.831 A 110.768 110.768 0 0 1 1798.56 479.589 C 1817.4 477.809 1863.1 471.931 1880.04 474.729 C 1885.37 475.609 1890.01 477.47 1894.12 481.037 C 1902.79 488.578 1904.71 497.227 1905.57 508.109 C 1907.13 527.644 1913.09 611.343 1910.4 623.911 C 1909.33 628.857 1906.32 633.457 1903.02 637.194 C 1898.42 642.407 1892.67 645.653 1886.04 647.598 C 1871.74 651.789 1837.4 651.678 1821.1 652.597 C 1820.28 687.007 1811.83 718.816 1803.81 751.987 C 1819.19 763.46 1866.54 793.568 1873.33 809.095 C 1876.41 816.135 1875.15 825.57 1872.38 832.529 C 1868.38 842.581 1814.76 920.081 1806.26 929.898 A 30.3244 30.3244 0 0 1 1794.86 938.158 C 1769.74 948.423 1735.87 912.686 1713.21 902.71 L 1711.89 902.133 C 1654.86 964.298 1601.55 996.187 1520.87 1019.52 C 1520.71 1039.86 1526.01 1083.28 1512.44 1098.09 C 1505.25 1105.95 1496.42 1107.45 1486.29 1107.83 C 1462.15 1108.75 1437.72 1108.08 1413.56 1108.12 C 1399.98 1108.15 1384.16 1109.94 1370.92 1107.43 C 1364.3 1106.18 1357.9 1103.54 1353.04 1098.77 C 1340.4 1086.34 1344.23 1041.19 1343.88 1023.03 C 1332.75 1021.23 1321.9 1020.42 1310.92 1017.57 A 15641.4 15641.4 0 0 0 1416.28 1333.03 L 1487.5 1544.65 A 1906.89 1906.89 0 0 1 1516.01 1633.75 C 1520.46 1648.44 1526.8 1663.99 1527.84 1679.36 C 1528.72 1692.46 1526.12 1706.33 1520.25 1718.1 A 63.6765 63.6765 0 0 1 1490.78 1746.94 C 1472.35 1755.81 1451.07 1760.35 1431.65 1766.85 A 10769 10769 0 0 1 1305.15 1809.57 L 930.319 1937.23 C 912.041 1943.29 895.548 1943.61 878.107 1934.46 C 850.044 1919.74 844.501 1885.72 835.519 1858.24 C 825.971 1830.26 817.597 1801.87 808.284 1773.8 C 796.766 1739.09 784.341 1704.59 773.579 1669.64 L 447.681 1792.52 C 422.945 1801.77 362.405 1828.74 340.118 1831.08 C 339.274 1830.19 338.534 1829.37 337.889 1828.32 C 332.585 1819.64 329.341 1808.07 325.664 1798.51 L 301.166 1733.99 L 165.69 1374.8 L 128.079 1271.81 C 122.191 1255.6 114.451 1238.31 110.354 1221.63 C 109.941 1219.95 109.983 1218.78 110.523 1217.12 C 111.325 1214.65 114.079 1213.69 116.271 1212.7 C 132.285 1205.48 149.34 1199.88 165.794 1193.72 A 5242.42 5242.42 0 0 1 255.168 1160.66 L 462.713 1083.69 C 498.246 1070.41 534.476 1058.49 569.49 1043.91 C 557.349 1011.77 547.672 978.283 536.913 945.627 C 525.929 912.287 513.727 879.087 503.385 845.578 C 497.65 826.998 498.382 807.209 507.695 789.823 C 513.915 778.211 523.615 768.149 535.293 761.983 C 550.84 753.775 568.797 749.425 585.346 743.528 L 693.551 705.323 C 779.293 675.841 864.323 643.36 951.108 617.03 L 950.598 538.923 C 950.601 526.419 952.321 514.368 961.853 505.291 A 32.5694 32.5694 0 0 1 977.442 496.961 C 993.844 493.525 1033.51 496.411 1052.49 496.709 C 1062.73 463.025 1078.58 429.222 1099.41 400.743 C 1085.35 386.55 1069.49 374.317 1054.89 360.72 C 1047.98 354.292 1042.94 346.366 1042.83 336.693 C 1042.73 327.395 1046.01 319.635 1052.4 312.968 C 1068.37 296.293 1085.55 280.661 1101.94 264.381 C 1113.47 252.925 1126.9 236.796 1140.07 227.629 C 1144.29 224.693 1149.83 222.828 1154.98 222.881 C 1160.86 222.942 1166.34 226.107 1170.96 229.462 C 1185.56 240.058 1209.29 267.372 1223.02 281.728 C 1258.05 259.749 1290.29 245.308 1329.95 233.317 C 1330.02 215.783 1328.75 198.19 1328.02 180.671 C 1327.58 169.95 1325.88 155.964 1334.02 147.659 C 1338.23 143.37 1343.81 140.905 1349.63 139.675 C 1360.54 137.367 1372.7 137.961 1383.87 137.689 L 1444.47 136.557 z"/>
<path transform="translate(0,0)" fill="rgb(103,200,86)" d="M 1591.65 438.043 C 1598.19 438.59 1604.37 447.523 1608.58 452.179 C 1590.54 457.038 1515.27 481.677 1503.18 490.539 C 1509.63 502.513 1519.29 513.2 1527.85 523.724 C 1538.64 537.004 1549.39 550.25 1559.58 564.005 C 1536.37 571.06 1511.96 575.9 1489.25 584.249 C 1493.18 596.609 1498.32 608.337 1500.35 621.243 C 1503.82 643.342 1499.17 665.019 1485.85 683.135 C 1472.14 701.789 1452.11 713.44 1429.24 716.71 C 1403.36 720.413 1380.93 712.289 1360.45 696.824 C 1343.45 682.571 1333.81 663.922 1331.33 641.868 A 81.9012 81.9012 0 0 1 1349.19 580.513 C 1363.99 562.454 1385.35 549.935 1408.75 547.826 C 1432.11 545.72 1454.47 553.887 1472.38 568.68 C 1491.9 564.242 1512.13 558.771 1531.04 552.255 C 1513.78 526.942 1492.92 503.903 1473.91 479.881 C 1487.86 473.986 1502.78 469.578 1517.1 464.67 A 2417.89 2417.89 0 0 0 1591.65 438.043 z"/>
<path transform="translate(0,0)" fill="rgb(33,43,91)" d="M 1414 566.423 C 1430.04 566.127 1443.87 569.934 1456.82 579.644 C 1471.21 590.432 1480.12 606.495 1482.5 624.262 C 1484.79 641.393 1480.6 659.465 1469.9 673.168 C 1457.93 688.482 1440.18 697.007 1421.14 699.226 C 1404.05 699.294 1389.04 695.458 1375.55 684.604 A 67.3469 67.3469 0 0 1 1350.77 638.274 C 1349.06 620.639 1353.72 603.695 1365.24 590.063 C 1378.09 574.86 1394.5 568.027 1414 566.423 z"/>
<path transform="translate(0,0)" fill="rgb(254,254,254)" d="M 1414.61 578.353 C 1426.22 578.277 1436.44 580.673 1446.18 587.171 A 54.8637 54.8637 0 0 1 1469.95 623.911 C 1472.42 638.152 1468.89 653.666 1460.22 665.299 C 1450.2 678.729 1435.99 684.204 1420.08 686.513 C 1407.51 687.068 1394.63 683.581 1384.42 676.137 C 1372.71 667.605 1365.58 654.744 1363.6 640.474 C 1361.65 626.369 1364.66 610.695 1373.52 599.343 C 1383.44 586.624 1398.97 580.081 1414.61 578.353 z"/>
<path transform="translate(0,0)" fill="rgb(254,254,254)" d="M 1416.34 339.423 C 1466.23 333.854 1533.47 355.559 1575.34 381.829 A 282.186 282.186 0 0 1 1700.92 557.508 C 1718.73 636.067 1704.01 714.82 1660.73 782.486 A 290.595 290.595 0 0 1 1476.05 909.48 A 274.562 274.562 0 0 1 1293.39 885.206 C 1281.83 879.21 1271.31 871.532 1260.38 864.491 A 413.927 413.927 0 0 1 1247.02 827.581 C 1284.15 863.634 1334.2 886.181 1385.42 892.855 A 256.554 256.554 0 0 0 1578.48 840.803 A 278.363 278.363 0 0 0 1684.47 662.149 C 1695.35 595.587 1677.65 523.493 1638.25 468.831 A 262.631 262.631 0 0 0 1464.99 363.054 C 1396.33 352.393 1325.82 371.9 1270.2 412.88 C 1215.95 452.846 1176.89 518.464 1166.94 585.067 C 1161.18 579.89 1154.53 575.744 1148.73 570.509 C 1157.92 522.465 1182.69 474.805 1214.35 437.845 C 1267.17 376.179 1336.35 345.66 1416.34 339.423 z"/>
<path transform="translate(0,0)" fill="rgb(254,254,254)" d="M 1407.66 373.411 C 1412 372.715 1416.82 372.861 1421.23 372.732 C 1476.56 371.109 1540.43 390.093 1581.3 428.609 C 1557.41 436.895 1533.74 445.809 1509.83 454.051 C 1494.56 459.315 1478.44 463.602 1463.59 469.832 C 1460.3 471.213 1457.65 472.115 1455.8 475.26 C 1456.55 481.958 1503.96 536.961 1511.42 545.862 C 1498.8 548.485 1486.33 551.84 1473.84 555.011 C 1473.47 554.654 1473.11 554.289 1472.73 553.938 C 1457.56 539.792 1431.9 533.991 1411.73 535.137 C 1385.93 536.604 1359.76 548.979 1342.58 568.319 C 1323.75 589.51 1317.24 615.201 1318.86 642.968 C 1319.85 656.792 1324.26 670.473 1330.74 682.643 C 1292.86 701.395 1256.23 722.811 1217.98 740.839 A 6057.96 6057.96 0 0 0 1197.18 660.284 C 1191.35 638.763 1185.76 617.298 1177.19 596.67 C 1186.31 545.371 1203.99 501.976 1237.22 461.557 C 1279.69 409.891 1341.74 380.051 1407.66 373.411 z"/>
<path transform="translate(0,0)" fill="rgb(254,254,254)" d="M 570.841 1057.06 C 571.1 1057.09 571.379 1057.07 571.62 1057.17 C 571.948 1057.31 572.214 1057.57 572.505 1057.78 C 575.988 1060.27 623.19 1208.9 628.932 1228.16 C 616.128 1233.66 602.634 1238.07 589.549 1242.93 L 489.669 1279.2 L 185.583 1391.46 A 3290.16 3290.16 0 0 1 124.609 1223.08 C 175.645 1200.14 230.18 1183.81 282.541 1164.17 L 428.391 1109.72 C 475.784 1091.87 522.971 1073.62 570.841 1057.06 z"/>
<path transform="translate(0,0)" fill="rgb(254,254,254)" d="M 1616.36 463.073 C 1616.81 463.253 1617.32 463.326 1617.72 463.612 C 1623.14 467.561 1628.87 477.317 1632.57 482.959 A 252.697 252.697 0 0 1 1674.92 611.512 C 1677.98 682.412 1650.36 750.849 1602.58 802.601 A 251.766 251.766 0 0 1 1428.24 882.305 A 244.237 244.237 0 0 1 1253.76 817.516 C 1235.76 799.807 1233.23 787.753 1225.1 764.036 L 1339.2 693.695 C 1348.09 702.784 1356.74 711.457 1367.97 717.665 C 1390.81 730.295 1419.48 733.146 1444.48 725.85 C 1470.22 718.337 1490.4 701.63 1503.16 678.057 C 1518.3 650.097 1515.34 621.623 1506.52 592.204 C 1520.28 588.554 1568.52 577.367 1577.09 569.609 C 1574.42 559.143 1531.35 507.089 1522.42 495.506 C 1552.6 483.087 1585.17 472.651 1616.36 463.073 z"/>
<path transform="translate(0,0)" fill="rgb(254,254,254)" d="M 632.702 1239.11 C 637.565 1247.04 652.877 1300.29 656.933 1312.74 C 679.037 1380.55 703.078 1447.8 722.533 1516.46 C 676.524 1532.96 630.988 1550.9 585.155 1567.88 A 12220 12220 0 0 0 407.324 1633.72 C 398.503 1637.09 355.388 1650.97 350.124 1654.65 C 347.827 1656.26 347.469 1657.66 346.929 1660.28 C 347.913 1662.37 348.839 1663.97 351.122 1664.89 C 353.394 1665.81 355.419 1665.75 357.724 1665.03 C 390.947 1654.7 423.454 1640.13 456.252 1628.3 A 16432.9 16432.9 0 0 0 727.166 1527.12 L 769.795 1657.94 C 748.558 1666.72 726.683 1674.19 705.238 1682.47 C 673.438 1694.67 641.244 1705.82 609.468 1718.03 A 11053.7 11053.7 0 0 1 433.763 1784.8 C 404.78 1795.73 375.947 1807.21 346.761 1817.58 C 321.374 1759.24 301.402 1698.22 278.394 1638.89 A 7772.5 7772.5 0 0 1 225.14 1498.54 C 213.145 1466.89 200.021 1435.61 190.193 1403.2 C 242.217 1382.54 295.397 1364.46 348.031 1345.41 A 15959.9 15959.9 0 0 0 632.702 1239.11 z"/>
<path transform="translate(0,0)" fill="rgb(33,43,91)" d="M 540.812 1649.04 C 541.445 1648.97 542.075 1648.85 542.712 1648.84 C 545.281 1648.82 547.744 1649.36 549.595 1651.04 C 549.754 1652.44 549.714 1653.42 549.061 1654.74 C 547.153 1658.59 541.411 1661.71 537.733 1663.53 C 524.971 1669.83 500.677 1677.11 486.311 1682.49 L 376.88 1723.94 C 374.202 1724.07 373.021 1723.91 370.666 1722.61 C 369.09 1720.45 368.862 1720.33 368.862 1717.69 C 370.773 1713.9 374.537 1711.88 378.266 1710.13 C 388.234 1705.46 399.312 1702.79 409.591 1698.8 L 540.812 1649.04 z"/>
<path transform="translate(0,0)" fill="rgb(33,43,91)" d="M 627.251 1478.95 C 629.425 1479.43 631.738 1480.75 633.342 1482.27 C 633.491 1484.25 633.423 1484.8 632.437 1486.5 C 630.029 1490.66 622.802 1493.36 618.504 1495.19 C 602.069 1502.17 584.943 1507.85 568.158 1513.94 L 478.875 1546.49 L 384.909 1581.74 C 365.908 1588.93 346.986 1596.92 327.598 1602.99 C 325.785 1602.75 324.464 1602.52 323.222 1600.92 C 321.543 1598.77 322.03 1597.04 322.321 1594.57 C 324.047 1591.79 327.545 1590.67 330.468 1589.45 C 378.838 1569.17 429.279 1552.43 478.54 1534.34 C 528.138 1516.12 577.398 1496.38 627.251 1478.95 z"/>
<path transform="translate(0,0)" fill="rgb(62,104,213)" d="M 395.217 1442.9 L 395.72 1442.63 C 399.241 1446.72 413.79 1493.2 416.83 1501.94 A 1941.72 1941.72 0 0 1 303.26 1544.42 C 296.768 1538.16 283.79 1497.43 279.906 1486.09 C 290.973 1480.45 303.767 1476.68 315.452 1472.41 C 342.075 1462.67 368.958 1453.59 395.217 1442.9 z"/>
<path transform="translate(0,0)" fill="rgb(62,104,213)" d="M 571.956 1378.99 L 573.652 1378.76 C 579.276 1382.13 594.208 1428.42 597.57 1437.71 C 587.221 1442 576.209 1445.1 565.678 1449.02 L 457.247 1488.44 C 455.349 1488.96 456.41 1488.86 454.048 1488.47 C 446.962 1475.98 438.192 1445.15 432.821 1429.81 A 4299.53 4299.53 0 0 0 571.956 1378.99 z"/>
<path transform="translate(0,0)" fill="rgb(254,254,254)" d="M 1440.49 148.565 C 1449.36 148.091 1473.81 144.635 1480.35 150.859 C 1483.55 153.91 1485.03 159.959 1485.68 164.158 C 1487 172.646 1486.62 181.852 1486.9 190.445 A 2221.92 2221.92 0 0 1 1488.3 237.607 C 1533.29 242.985 1573.43 262.199 1613 283.051 C 1626.1 268.564 1656.53 227.576 1670.17 220.92 C 1679.31 220.463 1690.11 230.643 1696.82 236.035 C 1711.64 247.947 1725.34 261.027 1739.52 273.661 C 1749.7 282.729 1761.11 291.472 1770.13 301.658 C 1772.95 304.849 1777.43 310.148 1777.63 314.579 C 1777.8 318.423 1774.94 323.166 1772.89 326.213 C 1767.51 334.215 1759.79 341.155 1753.34 348.319 C 1744.13 358.55 1735.42 369.141 1725.56 378.771 C 1754.92 415.462 1770.88 448.731 1787.24 492.306 A 1460.88 1460.88 0 0 1 1841.03 488.027 C 1851 487.343 1861.36 486.066 1871.35 486.269 C 1878.39 486.412 1882.93 487.039 1887.78 492.386 C 1890.31 495.173 1891.52 498.253 1892.27 501.916 C 1895.3 516.896 1894.76 533.872 1895.48 549.15 C 1896.62 573.489 1898.56 598.245 1897.89 622.601 C 1896.64 624.842 1895.34 626.927 1893.76 628.948 C 1891.32 632.049 1889.04 634.011 1885.25 635.254 C 1870.89 639.976 1827.27 639.255 1808.69 641.241 C 1808.93 681.99 1800.88 718.188 1788.15 756.536 C 1798.68 763.182 1808.48 771.079 1818.69 778.218 C 1830.25 786.3 1842.99 793.828 1853.62 803.11 C 1861.87 810.321 1862.11 814.893 1862.84 825.358 A 51.8664 51.8664 0 0 1 1861.05 829.176 C 1857.12 836.695 1851.43 843.756 1846.58 850.729 A 3541.02 3541.02 0 0 1 1815.09 895.264 C 1808.43 904.628 1802.37 915.602 1794.82 924.199 C 1793.13 926.135 1790.87 927.37 1788.4 928.048 C 1785.37 928.881 1782.01 928.982 1779.04 927.909 C 1770.42 924.808 1762.24 918.493 1754.51 913.597 C 1739.74 904.238 1725 894.446 1709.6 886.161 C 1701.66 893.511 1694.87 902.458 1687.3 910.238 C 1667.48 930.623 1644.25 949.58 1619.78 964.072 C 1600.91 975.251 1580.75 985.657 1560.28 993.579 C 1552.3 996.666 1515.27 1006.05 1511.8 1009.25 C 1506.06 1014.54 1509.32 1064.49 1508.21 1075.55 C 1507.67 1080.9 1505.77 1090.01 1500.61 1092.99 C 1491.82 1098.05 1384.37 1097.66 1370.13 1094.18 C 1367.7 1093.59 1364.01 1092.75 1362.12 1090.98 C 1347.79 1077.52 1362.46 1028.49 1353.83 1014.5 C 1345.24 1008.54 1318.02 1007.18 1306.79 1005.59 C 1291.4 965.74 1278.96 924.395 1265.79 883.745 A 311.639 311.639 0 0 0 1288.97 896.725 C 1361.43 932.608 1442.42 937.166 1518.72 911.102 A 313.498 313.498 0 0 0 1601.98 865.332 C 1666.37 816.253 1707.97 739.283 1718.63 659.545 C 1728.66 584.578 1707.65 504.415 1661.4 444.483 C 1611.84 380.253 1542.18 339.182 1461.5 328.73 C 1383.6 318.639 1303.92 344.129 1242.45 392.066 C 1193.05 430.59 1145.92 503.967 1138.17 566.567 C 1127.73 564.388 1116.95 563.169 1106.32 564.664 C 1088.56 567.16 1070.4 574.931 1053.47 580.771 A 3410.49 3410.49 0 0 0 963.087 613.045 A 3620.87 3620.87 0 0 0 962.829 557.149 C 962.749 547.444 961.615 536.311 963.376 526.763 C 964.218 522.199 966.034 517.821 969.429 514.555 C 972.495 511.606 976.58 509.808 980.699 508.921 C 995.532 505.729 1043.31 507.951 1061.37 508.348 C 1071.83 466.428 1092.61 432.961 1116.38 397.538 A 167.894 167.894 0 0 1 1107.59 390.913 C 1097.27 382.502 1055.97 349.194 1055.19 338.133 C 1054.67 330.797 1057.15 325.353 1062.03 320.07 C 1073.47 307.665 1086.84 296.651 1098.86 284.751 C 1113.08 270.668 1130.41 250.485 1145.8 238.731 C 1148.67 236.542 1151.28 235.843 1154.88 235.828 C 1158.44 235.813 1161.17 236.746 1164.06 238.83 C 1172.02 244.575 1178.28 252.856 1184.94 260.016 C 1196.82 272.777 1208.68 285.731 1221.31 297.746 C 1260.11 272.37 1297.62 253.902 1343.03 243.216 C 1342.9 226.622 1341.74 209.973 1340.84 193.403 C 1340.36 184.551 1339.04 174.873 1340.15 166.094 C 1340.63 162.278 1341.81 158.305 1344.56 155.483 C 1346.8 153.18 1349.97 151.862 1353.09 151.271 C 1360.67 149.835 1369.54 150.619 1377.32 150.374 L 1440.49 148.565 z"/>
<path transform="translate(0,0)" fill="rgb(254,254,254)" d="M 1108.47 579.132 C 1119.18 578.247 1129.3 580.262 1138.89 585.041 C 1155.97 593.552 1163.72 607.891 1170.38 625.038 C 1176.27 640.205 1179.92 656.295 1183.99 672.028 L 1202.17 742.097 C 1211.51 776.961 1223.99 811.118 1235.51 845.315 L 1490.39 1605.33 C 1496.69 1624.19 1510.66 1663.53 1511.97 1682.03 C 1512.64 1691.5 1510.84 1702.14 1506.37 1710.6 C 1501.55 1719.71 1492.81 1728.32 1483.49 1732.64 C 1464.06 1741.65 1441.77 1746.45 1421.47 1753.37 L 1273.32 1803.73 C 1155.32 1843.05 1038.27 1885.56 919.782 1923.38 C 907.443 1925.77 895.478 1925.71 884.222 1919.33 C 874.473 1913.81 867.998 1905.17 863.927 1894.9 C 858.728 1881.78 855.351 1867.46 851.121 1853.97 C 841.694 1823.89 832.175 1793.75 822.261 1763.84 L 703.815 1402.4 L 566.543 984.988 C 556.878 954.832 547.448 924.491 537.237 894.521 C 530.898 875.916 523.004 857.179 518.028 838.187 A 58.1177 58.1177 0 0 1 524.795 792.867 C 529.366 785.585 537.195 778.013 545.092 774.5 C 556.997 769.204 570.007 765.46 582.336 761.219 C 606.118 753.037 629.975 745.031 653.664 736.583 L 934.503 639.389 A 5905.39 5905.39 0 0 0 1046.56 600.124 C 1066.66 592.955 1087.65 583.753 1108.47 579.132 z"/>
<path transform="translate(0,0)" fill="rgb(33,43,91)" d="M 889.444 700.083 C 889.892 700.12 890.349 700.099 890.789 700.195 C 893.391 700.765 894.756 703.059 896.172 705.071 C 896.422 706.617 896.968 707.611 896.148 709.047 C 894.796 711.414 892.789 712.414 890.431 713.549 C 877.442 719.804 862.545 723.886 848.934 728.695 C 832.993 734.328 817.266 740.68 801.244 746.043 L 797.507 745.958 C 795.413 744.68 793.939 744.028 793.169 741.475 C 792.471 739.16 793.316 736.576 794.578 734.636 C 795.96 732.513 797.931 731.646 800.193 730.676 C 816.293 723.769 834.123 719.286 850.73 713.568 C 863.463 709.183 876.291 702.891 889.444 700.083 z"/>
<path transform="translate(0,0)" fill="rgb(33,43,91)" d="M 1288.53 1734.95 C 1290.13 1735.2 1291.74 1735.89 1292.91 1737.09 C 1294.78 1739 1294.5 1740.36 1294.26 1742.73 C 1293.02 1744.65 1291.95 1745.58 1289.91 1746.51 C 1270.53 1755.33 1248.04 1760.83 1227.83 1767.71 L 1084.34 1816.69 C 1081.68 1816.03 1080.32 1815.3 1078.2 1813.57 C 1077.22 1810.92 1077.31 1810.97 1078.29 1808.31 C 1081.34 1805.32 1084.49 1803.66 1088.41 1802.03 C 1109.26 1793.4 1131.87 1787.21 1153.3 1779.97 L 1288.53 1734.95 z"/>
<path transform="translate(0,0)" fill="rgb(33,43,91)" d="M 1094.16 641.309 C 1096.92 641.208 1099.85 641.227 1102.61 641.509 C 1113.44 642.612 1123.11 647.306 1129.88 655.977 C 1140.6 669.717 1151.45 714.172 1157.64 732.665 L 1200.14 859.62 A 40300.6 40300.6 0 0 1 1363.79 1347.83 A 8731.56 8731.56 0 0 1 1420.33 1517.52 C 1426.44 1535.92 1433.82 1553.88 1439.62 1572.39 C 1442.1 1580.3 1444.19 1587.63 1443.07 1596.03 C 1441.22 1609.9 1433.19 1622.19 1422.18 1630.57 C 1408.88 1640.7 1368.71 1651.29 1351.61 1656.94 A 7826.57 7826.57 0 0 1 1265.62 1685.44 L 1001.74 1774.59 C 977.161 1782.83 952.945 1793.26 928.142 1800.6 C 918.575 1803.43 910.434 1804.57 900.514 1803.22 C 893.254 1801.06 886.461 1798.59 880.291 1794.01 C 871.525 1787.5 865.872 1777.77 862.206 1767.64 C 844.848 1719.68 831.122 1670.16 814.868 1621.81 L 654.341 1133.41 L 597.198 958.003 L 578.265 900.857 C 574.091 888.209 568.58 874.546 566.874 861.331 C 565.188 848.266 569.342 833.333 577.577 822.973 C 590.102 807.217 610.377 802.44 628.594 796.432 C 646.768 790.438 665.641 780.893 684.682 778.342 C 719.638 773.66 749.604 798.626 782.471 793.653 C 794.4 791.848 806.271 786.9 817.653 783.008 L 872.029 764.151 C 890.484 757.703 909.922 752.467 927.97 745.075 C 931.65 743.568 935.194 741.304 938.299 738.834 C 953.068 727.082 960.212 707.174 971.445 692.316 C 976.143 686.102 981.492 681.039 988.332 677.212 C 1001.37 669.917 1079.56 643.399 1094.16 641.309 z"/>
<path transform="translate(0,0)" fill="rgb(254,254,254)" d="M 1094.21 657.18 C 1095.81 657.034 1097.4 656.878 1099.01 656.881 C 1105.27 656.893 1111.07 658.845 1115.47 663.419 C 1119.39 667.503 1121.73 672.787 1123.62 678.055 C 1126.8 686.905 1128.77 696.17 1131.69 705.105 C 1136.97 721.236 1142.72 737.262 1148.11 753.367 L 1217.21 960.82 A 38147.7 38147.7 0 0 1 1359.88 1387.51 A 12480.4 12480.4 0 0 1 1403.52 1516.79 C 1410.96 1538.95 1419.11 1561.09 1425.57 1583.55 C 1426.64 1587.24 1427.61 1591.34 1427.26 1595.21 C 1426.57 1602.96 1420.76 1611.01 1414.97 1615.86 C 1410.31 1619.77 1404.8 1622.69 1399.1 1624.77 C 1377.46 1632.67 1355.13 1639.12 1333.26 1646.44 L 1162.12 1703.89 L 1002.47 1757.97 C 975.455 1767.14 948.524 1777.65 921.129 1785.59 C 914.389 1787.55 908.579 1788.69 901.498 1788.01 C 898.773 1787.11 896.253 1786.12 893.708 1784.78 C 887.651 1781.59 883.62 1777.81 880.866 1771.49 C 876.504 1761.49 873.597 1750.29 870.175 1739.92 L 848.075 1672.34 L 763.477 1414.66 L 622.856 985.788 C 610.775 947.767 596.955 910.291 585.79 871.96 C 582.062 859.163 579.815 848.738 586.871 836.38 A 32.6748 32.6748 0 0 1 591.781 829.787 C 602.264 818.778 619.766 815.577 633.719 810.885 C 651.769 804.815 671.761 794.899 690.617 792.661 C 719.031 789.287 750.722 813.541 786.553 808.674 C 804.171 806.281 837.631 792.471 856.1 786.127 C 881.599 777.368 912.912 768.71 936.976 757.43 C 943.499 754.373 948.867 750.668 953.876 745.501 C 968.23 730.691 975.695 704.234 992.25 693.136 C 1006.09 683.856 1075.12 662.468 1094.21 657.18 z"/>
<path transform="translate(0,0)" fill="rgb(33,43,91)" d="M 1296.18 1504.05 C 1296.35 1504.04 1296.52 1504 1296.7 1504.01 C 1299.46 1504.14 1300.72 1504.35 1302.35 1506.87 C 1303.65 1508.87 1303.08 1509.98 1302.38 1511.96 C 1299.74 1514.69 1296.69 1516.15 1293.13 1517.41 C 1253.95 1531.26 1213.45 1542.06 1173.96 1555.13 A 12322.6 12322.6 0 0 1 976.38 1619.78 C 958.952 1625.35 941.715 1631.79 924.222 1637.07 C 921.057 1637.14 919.568 1637.21 917.279 1635.05 C 916.628 1632.65 915.929 1631.93 916.865 1629.55 C 920.862 1626.11 925.813 1624.23 930.7 1622.41 C 948.647 1615.72 967.237 1610.36 985.476 1604.5 L 1082.26 1573.43 A 18638.4 18638.4 0 0 1 1296.18 1504.05 z"/>
<path transform="translate(0,0)" fill="rgb(62,104,213)" d="M 1209.44 1473.35 C 1214.54 1484.72 1215.47 1502.54 1223.68 1511.78 C 1212.3 1519.53 1182.75 1526.74 1167.93 1531.47 L 1030 1576.28 C 1013.44 1581.84 995.093 1585.91 979.219 1593.06 C 974.126 1580.44 971.406 1565.51 967.881 1552.3 C 977.187 1548.01 987.798 1545.46 997.604 1542.46 A 2411.66 2411.66 0 0 0 1041.5 1528.62 A 7397.58 7397.58 0 0 0 1209.44 1473.35 z"/>
<path transform="translate(0,0)" fill="rgb(33,43,91)" d="M 855.802 1049 C 850.53 1030.69 832.528 992.082 838.899 974.374 C 840.912 968.782 845.679 964.168 851.096 961.892 C 871.657 953.251 896.714 947.198 918.276 940.08 C 932.191 935.487 947.072 928.149 961.443 925.565 C 965.172 924.895 969.268 925.787 972.714 927.23 C 990.85 934.818 999.627 981.284 1006.87 999.65 C 1025.47 995.506 1043.98 984.656 1062.65 995.075 C 1071.28 999.886 1075.38 1006.38 1079.26 1015.19 C 1085.25 1028.81 1088.86 1044.44 1093.55 1058.65 A 10312.6 10312.6 0 0 1 1132.01 1180.71 A 18204.1 18204.1 0 0 1 1232.27 1505.64 L 1223.68 1511.78 C 1215.47 1502.54 1214.54 1484.72 1209.44 1473.35 C 1197.68 1442.16 1190.19 1408.78 1180.18 1376.9 C 1173.4 1355.3 1166.04 1333.87 1159.33 1312.26 C 1138.1 1243.97 1117.98 1175.52 1095.72 1107.51 C 1088.79 1086.32 1083.13 1064.69 1076.37 1043.42 C 1073.63 1034.8 1071.22 1025.59 1067.34 1017.43 C 1064.58 1011.61 1060.5 1007.03 1054.54 1004.45 C 1050.12 1002.53 1046.88 1001.74 1042.09 1002.47 C 1029.78 1004.36 1016.79 1009.12 1004.88 1012.81 C 977.162 1021.39 949.764 1031 922.158 1039.93 L 864.358 1058.04 C 856.48 1060.57 848.126 1062.62 840.521 1065.85 C 833.569 1068.8 827.332 1073.14 824.387 1080.32 C 822.098 1085.9 822.09 1090.94 823.362 1096.78 C 827.234 1114.54 834.673 1132.29 840.379 1149.58 C 848.035 1172.78 854.742 1196.32 862.244 1219.58 L 924.606 1416.92 L 949.186 1494.19 C 955.481 1513.44 962.666 1532.73 967.881 1552.3 C 971.406 1565.51 974.126 1580.44 979.219 1593.06 C 975.822 1594.3 974.592 1594.59 971.089 1593.67 C 968.516 1591.9 967.477 1590.28 966.479 1587.39 C 949.664 1538.65 935.15 1488.75 919.564 1439.58 C 899.371 1375.88 878.263 1312.47 858.611 1248.61 C 849.233 1218.13 839.409 1187.54 829.484 1157.22 C 823.659 1139.43 816.765 1121.59 812.305 1103.41 C 809.26 1091 809.224 1080.68 816.451 1069.44 C 825.27 1055.72 841.075 1052.56 855.802 1049 z"/>
<path transform="translate(0,0)" fill="rgb(254,254,254)" d="M 852.359 974.967 C 872.283 965.681 894.819 959.9 915.757 953.225 C 929.437 948.865 943.881 943.076 957.953 940.382 C 962.559 939.501 966.932 938.909 971.442 940.417 C 982.075 952.479 990.214 987.549 995.321 1003.7 L 982.793 1007.78 C 975.568 1000.71 967.406 960.435 962.188 947.989 C 929.304 959.948 895.431 969.957 862.96 982.964 C 869.069 1002.37 875.608 1021.76 880.764 1041.44 L 867.704 1044.42 C 862.415 1028.95 849.958 999.477 849.801 984.347 C 849.77 981.303 851.321 977.799 852.359 974.967 z"/>
<path transform="translate(0,0)" fill="rgb(62,104,213)" d="M 862.96 982.964 C 895.431 969.957 929.304 959.948 962.188 947.989 C 967.406 960.435 975.568 1000.71 982.793 1007.78 C 969.95 1013.37 956.069 1016.88 942.688 1020.97 C 921.876 1027.34 901.158 1033.81 880.764 1041.44 C 875.608 1021.76 869.069 1002.37 862.96 982.964 z"/>
<path transform="translate(0,0)" fill="rgb(254,254,254)" d="M 967.881 1552.3 C 962.666 1532.73 955.481 1513.44 949.186 1494.19 L 924.606 1416.92 L 862.244 1219.58 C 854.742 1196.32 848.035 1172.78 840.379 1149.58 C 834.673 1132.29 827.234 1114.54 823.362 1096.78 C 822.09 1090.94 822.098 1085.9 824.387 1080.32 C 827.332 1073.14 833.569 1068.8 840.521 1065.85 C 848.126 1062.62 856.48 1060.57 864.358 1058.04 L 922.158 1039.93 C 949.764 1031 977.162 1021.39 1004.88 1012.81 C 1016.79 1009.12 1029.78 1004.36 1042.09 1002.47 C 1046.88 1001.74 1050.12 1002.53 1054.54 1004.45 C 1060.5 1007.03 1064.58 1011.61 1067.34 1017.43 C 1071.22 1025.59 1073.63 1034.8 1076.37 1043.42 C 1083.13 1064.69 1088.79 1086.32 1095.72 1107.51 C 1117.98 1175.52 1138.1 1243.97 1159.33 1312.26 C 1166.04 1333.87 1173.4 1355.3 1180.18 1376.9 C 1190.19 1408.78 1197.68 1442.16 1209.44 1473.35 A 7397.58 7397.58 0 0 1 1041.5 1528.62 A 2411.66 2411.66 0 0 1 997.604 1542.46 C 987.798 1545.46 977.187 1548.01 967.881 1552.3 z"/>
<path transform="translate(0,0)" fill="rgb(103,200,86)" d="M 1044.55 1023.08 C 1046.33 1022.95 1047.48 1023.03 1049.19 1023.56 C 1052.57 1028.13 1052.78 1035.4 1053.62 1040.93 C 1025.42 1062.77 998.717 1085.82 971.327 1108.59 L 872.638 1190.53 L 867.637 1174.24 C 859.571 1145.7 849.648 1117.54 842.23 1088.85 C 863.928 1078.8 888.28 1073.61 911.007 1066.15 C 955.409 1051.58 999.497 1035.54 1044.55 1023.08 z"/>
<path transform="translate(0,0)" fill="rgb(103,200,86)" d="M 1142.89 1329.83 C 1146.19 1332.81 1179.07 1444.85 1182.71 1458.48 C 1166.78 1464.24 1150.42 1468.98 1134.32 1474.24 C 1088.93 1489.07 1043.41 1503.26 998.28 1518.9 L 980.769 1525.04 A 2221.56 2221.56 0 0 0 963.249 1471.37 C 974.995 1460.89 988.073 1451.65 1000.35 1441.78 C 1028.71 1418.99 1056.78 1396.31 1085.73 1374.26 C 1104.93 1359.63 1122.95 1343.48 1142.89 1329.83 z"/>
<path transform="translate(0,0)" fill="rgb(103,200,86)" d="M 1061.79 1069.96 C 1066.17 1075.96 1089.61 1157.91 1093.51 1170.36 C 1076.05 1185.59 1057.48 1199.66 1039.39 1214.15 L 913.491 1314.2 C 911.608 1312.01 884.092 1225.66 881.447 1216.73 C 901.468 1197.11 926.808 1178.85 948.724 1161.06 A 5415.27 5415.27 0 0 1 1061.79 1069.96 z"/>
<path transform="translate(0,0)" fill="rgb(103,200,86)" d="M 1099.71 1198.61 C 1100.65 1198.89 1100.19 1198.69 1101.24 1199.39 C 1105.08 1201.98 1132.01 1291.13 1134.05 1301.28 C 1118.61 1315.24 1101.3 1327.44 1084.98 1340.38 L 1007.92 1402.34 C 990.268 1416.36 971.615 1429.7 955.894 1445.9 C 946.816 1424.11 939.992 1401.36 932.941 1378.85 C 929.235 1367.02 925.936 1355.02 921.048 1343.6 C 934.666 1330.86 950.22 1319.75 964.626 1307.88 C 1009.32 1271.03 1055.32 1235.79 1099.71 1198.61 z"/>
</svg>