<svg version="1.1" xmlns="http://www.w3.org/2000/svg" style="display: block;" viewBox="0 0 2048 2048" width="1024" height="1024">
<path transform="translate(0,0)" fill="rgb(123,143,164)" d="M 0 0 L 2048 0 L 2048 3.22538 L 2048 2048 L 0 2048 L 0 1227 L 0 0 z"/>
<path transform="translate(0,0)" fill="rgb(37,80,122)" d="M 407.819 1415.8 C 436.538 1427.47 465.593 1443.49 495.053 1455.89 C 494.982 1489.43 492.391 1522.8 492.885 1556.42 C 492.305 1556.43 491.719 1556.54 491.146 1556.45 C 484.906 1555.48 445.268 1533.19 440.867 1528.29 C 435.166 1521.94 431.275 1513.46 427.565 1505.87 C 413.496 1477.09 406.491 1447.92 407.819 1415.8 z"/>
<path transform="translate(0,0)" fill="rgb(37,80,122)" d="M 1359.76 530.911 C 1388.93 530.843 1419.4 540.235 1442.61 558.033 C 1476.43 583.972 1494.73 620.423 1500.07 662.262 A 5495.26 5495.26 0 0 1 1371.01 657.296 C 1370.64 641.839 1368.45 626.009 1367.13 610.568 C 1364.86 584.02 1362.86 557.377 1359.76 530.911 z"/>
<path transform="translate(0,0)" fill="rgb(37,80,122)" d="M 320.126 1373.56 C 339.085 1381.44 357.497 1391.23 375.929 1400.27 C 371.704 1430.72 375.042 1460.06 386.816 1488.5 A 198.875 198.875 0 0 0 492.309 1594.61 C 491.441 1615.34 492.093 1636.14 492.542 1656.88 C 446.377 1641.86 409.082 1615.78 377.441 1578.98 C 343.552 1539.56 321.332 1483.9 318.077 1432.28 C 316.842 1412.69 318.697 1393.09 320.126 1373.56 z"/>
<path transform="translate(0,0)" fill="rgb(37,80,122)" d="M 1341.57 422.556 C 1340.5 419.466 1339.49 416.743 1340.85 413.684 C 1342.85 412.541 1344.02 412.505 1346.22 412.683 C 1350.01 412.989 1353.75 413.055 1357.55 413.109 C 1378.5 414.051 1399.3 415.18 1419.88 419.629 C 1466.1 429.622 1511.81 457.565 1543.63 492.401 C 1574.61 526.323 1599.99 575.196 1608.1 620.253 C 1611.03 636.515 1611.38 652.772 1610.78 669.237 C 1587.78 667.726 1564.59 665.077 1541.55 664.905 C 1539.27 614.168 1521.24 567.827 1483.27 532.96 C 1450.25 502.638 1405.27 484.776 1360.32 486.86 L 1353.13 487.229 C 1351.63 465.466 1348.45 443.324 1341.57 422.556 z"/>
<path transform="translate(0,0)" fill="rgb(37,80,122)" d="M 237.289 1330.23 C 255.306 1338.49 272.219 1349.19 290.618 1356.56 A 306.227 306.227 0 0 0 318.266 1544.04 C 355.226 1617.29 414.786 1666.76 492.466 1692.39 A 2547.88 2547.88 0 0 0 494.751 1757.94 C 482.363 1755.26 469.973 1750.41 458.187 1745.74 C 394.226 1720.41 341.739 1676.02 301.427 1620.8 C 236.344 1531.65 220.481 1437.41 237.289 1330.23 z"/>
<path transform="translate(0,0)" fill="rgb(37,80,122)" d="M 152.139 1286.19 C 168.798 1292.68 187.258 1303.62 203.847 1311.29 C 193.227 1387.19 192.821 1449.39 216.331 1523.01 A 404.007 404.007 0 0 0 251.591 1604.02 C 303.82 1694.35 394.067 1770.2 495.553 1797.31 C 495.794 1806.17 498.766 1856.42 495.769 1860.74 A 473.932 473.932 0 0 1 226.606 1666.63 C 146.873 1549.01 125.415 1424.78 152.139 1286.19 z"/>
<path transform="translate(0,0)" fill="rgb(37,80,122)" d="M 1308.39 297.715 C 1371.84 281.752 1446.34 296.448 1504.87 323.452 C 1579.64 362.287 1627.01 402.834 1670.31 476.048 C 1686.14 502.808 1699.61 530.603 1709.01 560.287 C 1720.97 598.088 1725.57 636.15 1725.69 675.728 C 1701.55 674.034 1677.18 671.821 1652.98 671.957 C 1653.66 586.395 1622.74 509.936 1562.45 449.11 C 1535.19 421.609 1498.22 397.355 1461.9 383.817 A 357.952 357.952 0 0 0 1435.83 375.479 C 1432.12 374.432 1427.37 373.767 1423.89 372.302 C 1393.05 363.444 1355.85 364.995 1324.87 372.151 A 859.467 859.467 0 0 0 1308.39 297.715 z"/>
<path transform="translate(0,0)" fill="rgb(37,80,122)" d="M 1281.75 175.483 A 233.046 233.046 0 0 1 1290.28 173.772 C 1404.09 152.174 1521.34 189.399 1615.27 253.442 C 1728.83 337.195 1811.25 466.63 1832.44 606.901 A 476.867 476.867 0 0 1 1837.92 681.83 C 1814.96 681.52 1791.8 680.341 1768.89 678.747 C 1767.48 652.592 1766.19 626.191 1761.2 600.421 C 1742.42 503.501 1687.76 410.074 1614.53 344.248 C 1599.16 330.432 1567.91 303.402 1549.67 296.523 A 479.149 479.149 0 0 0 1543.51 292.579 C 1475.67 249.956 1375.99 231.754 1297.85 249.677 C 1292.42 224.973 1286.52 200.324 1281.75 175.483 z"/>
<path transform="translate(0,0)" fill="rgb(242,242,241)" d="M 0 0 L 2048 0 L 2048 3.22538 C 2015.75 19.6956 1984.64 39.983 1953.28 58.2383 L 1757.58 171.493 A 4828.35 4828.35 0 0 1 1659.96 227.791 C 1645.14 236.247 1630.47 245.747 1615.27 253.442 C 1521.34 189.399 1404.09 152.174 1290.28 173.772 A 233.046 233.046 0 0 0 1281.75 175.483 C 1286.52 200.324 1292.42 224.973 1297.85 249.677 C 1375.99 231.754 1475.67 249.956 1543.51 292.579 A 479.149 479.149 0 0 1 1549.67 296.523 C 1536.32 304.255 1515.96 313.56 1504.87 323.452 C 1446.34 296.448 1371.84 281.752 1308.39 297.715 A 859.467 859.467 0 0 1 1324.87 372.151 C 1355.85 364.995 1393.05 363.444 1423.89 372.302 C 1421.45 377.527 1367.24 406.504 1357.55 413.109 C 1353.75 413.055 1350.01 412.989 1346.22 412.683 C 1344.02 412.505 1342.85 412.541 1340.85 413.684 C 1339.49 416.743 1340.5 419.466 1341.57 422.556 C 1290.02 450.592 1239.55 481.029 1188.98 510.773 C 1175.73 518.567 1161.49 524.95 1148.43 532.916 L 1059.37 340.705 L 1032.48 281.233 C 1025.91 266.633 1020.01 250.509 1010.69 237.43 C 1000.18 222.665 984.815 211.797 967.935 205.503 C 953.031 199.947 937.348 198.463 921.833 202.174 C 901.002 207.156 880.41 216.922 860.279 224.372 L 707.835 281.873 A 16196.8 16196.8 0 0 0 478.399 366.326 C 441.51 379.948 402.672 391.516 366.98 407.964 C 351.066 415.297 338.408 428.131 332.38 444.69 C 327.57 457.903 326.353 472.889 330.078 486.531 C 334.726 503.553 344.345 519.834 351.668 535.897 L 394.693 631.089 L 488.322 841.608 C 500.729 869.343 512.556 897.343 525.578 924.799 C 525.858 925.39 526.163 925.97 526.481 926.542 C 486.974 949.261 446.356 969.97 406.591 992.255 A 18333.8 18333.8 0 0 0 188.913 1117.62 C 149.397 1140.63 110.413 1164.75 71.1535 1188.22 C 49.5768 1201.12 23.5854 1219.96 0 1227 L 0 0 z"/>
<path transform="translate(0,0)" fill="rgb(0,0,0)" d="M 526.481 926.542 C 526.163 925.97 525.858 925.39 525.578 924.799 C 512.556 897.343 500.729 869.343 488.322 841.608 L 394.693 631.089 L 351.668 535.897 C 344.345 519.834 334.726 503.553 330.078 486.531 C 326.353 472.889 327.57 457.903 332.38 444.69 C 338.408 428.131 351.066 415.297 366.98 407.964 C 402.672 391.516 441.51 379.948 478.399 366.326 A 16196.8 16196.8 0 0 1 707.835 281.873 L 860.279 224.372 C 880.41 216.922 901.002 207.156 921.833 202.174 C 937.348 198.463 953.031 199.947 967.935 205.503 C 984.815 211.797 1000.18 222.665 1010.69 237.43 C 1020.01 250.509 1025.91 266.633 1032.48 281.233 L 1059.37 340.705 L 1148.43 532.916 L 1465.41 1222.69 L 1560.79 1432.63 L 1581.56 1479.03 C 1586.59 1490.07 1592.43 1501.12 1595.96 1512.75 C 1601.09 1529.69 1599.26 1546.96 1593.17 1563.42 C 1584.6 1586.53 1569.54 1599.6 1547.5 1609.56 C 1513.05 1625.11 1477.04 1638.18 1441.89 1652.1 L 1218.87 1739.7 L 1064.4 1800.34 C 1042.83 1808.83 1009.54 1824.47 988.478 1829.56 C 975.621 1832.67 960.748 1830.12 948.559 1825.4 A 71.8613 71.8613 0 0 1 916.629 1800.63 C 905.607 1785.28 895.537 1757.19 887.438 1739.38 A 9418.33 9418.33 0 0 1 828.791 1609.14 L 623.055 1144.51 C 607.83 1110.47 592.334 1076.48 577.643 1042.21 C 561.105 1003.62 545.196 964.107 526.481 926.542 z"/>
<path transform="translate(0,0)" fill="rgb(242,242,241)" d="M 385.379 410.922 L 387.264 411.003 C 386.713 416.103 380.139 423.02 377.757 427.899 C 374.363 434.847 372.366 442.995 371.478 450.649 C 369.515 467.563 373.665 483.248 380.108 498.786 C 391.496 526.25 405.265 553.136 417.447 580.322 L 508.679 784.23 L 772.777 1378.39 L 907.268 1682.35 C 918.038 1706.36 937.975 1761.4 952.915 1780.16 C 968.544 1799.77 991.278 1807.83 1015.43 1810.74 C 1005.7 1814.68 995.698 1818.44 985.48 1820.91 C 973.308 1821.6 962.424 1821.1 951.104 1816.18 C 934.788 1809.09 924.66 1797.23 916.416 1781.8 C 906.697 1763.62 899.539 1743.8 890.993 1725.02 A 5058.08 5058.08 0 0 1 832.624 1594.75 L 678.913 1246.23 L 430.225 687.319 L 367.874 548.747 C 359.117 529.325 349.037 509.995 341.35 490.167 A 57.7601 57.7601 0 0 1 343.127 445.247 C 351.618 426.712 367.02 417.675 385.379 410.922 z"/>
<path transform="translate(0,0)" fill="rgb(242,242,241)" d="M 935.229 209.334 C 948.526 208.216 962.336 212.038 974.01 218.26 C 989.586 226.562 1001.45 238.786 1009.72 254.318 C 1022.12 277.575 1031.89 302.995 1042.95 326.991 L 1119.94 493.789 A 49418.2 49418.2 0 0 1 1396.42 1095.8 A 32187.2 32187.2 0 0 1 1534.66 1396.75 L 1567.49 1469.54 C 1574.18 1484.39 1582.15 1499.71 1586.78 1515.31 C 1592.52 1534.63 1589.06 1553.91 1579.47 1571.36 C 1573.2 1582.78 1563.45 1591.48 1552.02 1597.55 C 1528.03 1610.3 1491.11 1622.8 1464.91 1633.11 L 1298.9 1698.13 L 1143.52 1759.7 C 1108.02 1773.89 1072.27 1789.34 1035.63 1800.28 C 1035.38 1800.32 1035.13 1800.38 1034.88 1800.42 C 1013.63 1803.61 990.156 1797.13 972.993 1784.36 C 960.954 1775.4 954.654 1764.37 948.366 1750.98 C 936.536 1725.79 926.12 1699.83 914.753 1674.41 L 815.028 1449.71 L 536.008 821.153 L 425.651 575.291 C 418.262 558.823 410.855 542.3 403.188 525.963 C 395.043 508.608 383.924 490.724 381.256 471.477 C 378.776 453.583 381.637 435.893 392.897 421.342 C 400.993 410.878 412.125 402.51 424.071 396.934 C 448.783 385.401 475.955 377.078 501.562 367.459 L 695.429 296.479 L 860.283 234.741 C 884.389 225.849 909.738 212.577 935.229 209.334 z"/>
<path transform="translate(0,0)" fill="rgb(0,0,0)" d="M 930.347 231.318 C 942.764 230.487 955.129 233.936 966.191 239.406 C 979.619 246.045 990.091 255.53 997.249 268.76 C 1002.07 277.668 1005.84 287.206 1010.13 296.377 A 5112.52 5112.52 0 0 1 1041.31 364.355 L 1118.2 531.86 L 1333.5 1001.54 L 1499.12 1363.05 L 1543.26 1461.71 C 1551.19 1479.22 1560.86 1496.69 1566.78 1514.96 C 1571.56 1529.7 1571 1545.42 1563.68 1559.22 C 1559.68 1566.77 1554.03 1573.52 1546.46 1577.69 C 1530.98 1586.21 1510.54 1592.31 1493.88 1598.87 L 1380.56 1643.55 L 1186.03 1720.59 A 5651.26 5651.26 0 0 1 1094.79 1757.03 C 1076.21 1764.39 1057.66 1772.38 1038.65 1778.56 A 117.778 117.778 0 0 1 1031.49 1780.05 C 1014.9 1782.81 999.011 1779.14 985.381 1769.25 C 975.291 1761.93 967.975 1750.99 962.609 1739.89 C 939.143 1691.33 917.865 1641.25 896.286 1591.81 L 829.936 1442.02 L 623.695 981.307 A 31197.9 31197.9 0 0 1 435.65 559.392 C 427.391 540.167 403.133 494.311 400.689 476.143 C 398.712 461.44 403.936 443.398 412.994 431.779 C 420.112 422.651 429.389 417.236 439.849 412.655 C 469.1 399.844 500.331 390.004 530.337 378.933 L 693.987 317.809 L 835.208 265.039 C 859.156 255.902 907.414 234.299 930.347 231.318 z"/>
<path transform="translate(0,0)" fill="rgb(242,242,241)" d="M 926.844 241.222 C 938.213 240.069 948.804 241.795 959.172 246.571 C 972.819 252.856 982.789 261.899 990.085 275.037 C 1002.32 297.061 1011.37 321.97 1021.88 344.944 A 9446.65 9446.65 0 0 1 1086.66 485.873 L 1259.72 863.402 L 1455.11 1291.11 A 13913.2 13913.2 0 0 1 1523.18 1439.6 C 1534.68 1464.82 1547.99 1490.27 1557.5 1516.27 C 1562.45 1529.8 1562.43 1540.79 1556.17 1553.76 C 1552.86 1560.64 1548.64 1566.16 1541.77 1569.69 C 1523.79 1578.93 1503.16 1584.35 1484.3 1591.67 L 1367.76 1637.96 L 1179.81 1712.41 C 1133.17 1731.06 1086.53 1750.53 1039.24 1767.45 C 1037.92 1767.99 1036.55 1768.37 1035.19 1768.77 C 1021.91 1772.64 1007.32 1770.41 995.406 1763.48 C 982.189 1755.8 975.514 1743.53 969.018 1730.27 C 922.58 1635.49 882.486 1537.47 839.031 1441.31 L 548.915 792.342 L 446.25 562.541 L 423.128 510.193 C 418.516 499.744 412.717 488.64 410.073 477.53 C 407.407 466.325 411.024 451.184 417.277 441.68 C 422.459 433.805 429.84 427.084 438.403 423.091 C 452.497 416.519 467.341 411.685 481.93 406.368 L 547.542 382.615 L 718.879 318.999 L 851.895 268.799 C 873.108 260.622 905.802 245.391 926.844 241.222 z"/>
<path transform="translate(0,0)" fill="rgb(0,0,0)" d="M 821.754 314.907 C 824.439 314.828 826.174 315.515 828.655 316.417 C 830.658 318.693 830.644 318.573 830.627 321.599 C 827.78 327.128 825.237 328.33 819.535 330.502 C 817.298 330.635 814.774 330.648 812.729 329.557 C 810.549 328.394 810.554 327.279 810.255 325.123 C 812.505 318.92 816.27 317.529 821.754 314.907 z"/>
<path transform="translate(0,0)" fill="rgb(0,0,0)" d="M 778.271 333.125 C 781.771 333.88 786.075 335.838 787.982 339.04 C 789.497 341.585 789.167 342.894 788.756 345.632 C 787.327 347.716 786.164 349.117 783.829 350.301 C 767.813 358.421 743.023 365.328 725.618 371.55 C 692.333 383.449 659.362 396.152 625.89 407.546 C 624.258 407.379 622.073 407.31 620.56 406.695 C 618.442 405.834 615.404 402.622 614.513 400.427 C 613.628 398.246 613.473 396.388 614.607 394.267 C 616.053 391.564 619.099 390.221 621.752 389.039 C 645.23 378.572 671.146 371.175 695.363 362.434 C 722.532 352.626 750.367 340.436 778.271 333.125 z"/>
<path transform="translate(0,0)" fill="rgb(242,242,241)" d="M 778.446 339.995 C 780.751 340.218 781.861 339.74 783.483 341.501 C 782.043 343.626 780.153 344.316 777.877 345.319 C 764.637 351.153 750.324 354.778 736.772 359.811 L 626.077 400.023 L 621.685 400.762 L 620.364 399.566 L 619.658 400.375 L 620.629 400.537 L 620.305 399.096 C 622.069 396.638 624.857 395.456 627.573 394.303 C 646.816 386.137 667.39 379.918 687.078 372.787 C 717.471 361.777 747.722 350.037 778.446 339.995 z"/>
<path transform="translate(0,0)" fill="rgb(37,80,122)" d="M 987.268 314.889 L 988.761 314.691 C 989.407 315.132 990.21 315.404 990.699 316.015 C 994.138 320.31 1006.78 351.257 1010.52 359.401 C 1033.04 408.323 1056.19 456.907 1077.95 506.176 A 29188.4 29188.4 0 0 0 1223.68 824.494 L 1398.04 1207.17 L 1474.78 1374.31 C 1489.98 1406.96 1507.33 1439.88 1520.26 1473.44 C 1501.66 1481.95 1481.78 1488.65 1462.72 1496.15 L 1374.52 1531.51 L 1123.98 1631.66 L 1040.46 1664.48 C 1019.88 1672.45 999.056 1679.95 978.9 1688.96 C 976.458 1689.29 975.259 1689.4 972.99 1688.37 C 960.59 1674.14 943.064 1627.59 934.86 1608.98 L 886.956 1501.47 A 72058.3 72058.3 0 0 1 547.024 741.606 L 471.872 574.56 C 463.653 556.258 449.991 534.899 445.874 515.589 C 462.167 508.031 480.224 502.876 497.124 496.684 L 581.714 464.965 L 859.563 362.666 C 902.103 346.815 945.539 332.789 987.268 314.889 z"/>
<path transform="translate(0,0)" fill="rgb(242,242,241)" d="M 1129.69 1169.07 C 1130.38 1169.7 1131.56 1170.7 1132.05 1171.46 C 1133.4 1173.58 1133.17 1174.51 1132.35 1176.59 C 1115.86 1186.13 1095.6 1192.21 1077.77 1199.07 C 1053.36 1208.46 1029.07 1218.65 1004.27 1226.96 C 1002.33 1225.64 1001.76 1224.61 1000.78 1222.5 L 1001.53 1220.57 C 1014.43 1211.9 1033.52 1206.88 1048.17 1201.19 L 1129.69 1169.07 z"/>
<path transform="translate(0,0)" fill="rgb(242,242,241)" d="M 999.978 856.92 C 1000.36 857.241 1000.79 857.507 1001.12 857.883 C 1002.83 859.862 1003.14 861.07 1003.33 863.531 C 1002.59 864.859 1001.94 865.614 1000.58 866.331 C 986.696 873.611 969.819 878.111 955.025 883.724 C 926.604 894.506 898.238 906.427 869.359 915.852 C 868.864 915.416 868.314 915.037 867.875 914.546 C 866.186 912.655 865.777 911.772 865.989 909.418 C 880.804 900.006 903.548 894.029 920.236 887.847 C 946.91 877.967 973.679 867.745 999.978 856.92 z"/>
<path transform="translate(0,0)" fill="rgb(242,242,241)" d="M 1060.06 1013.93 C 1061.62 1013.84 1062.6 1014.3 1064.05 1014.8 C 1065.22 1017.17 1064.79 1016.91 1064.09 1019.27 C 1062.68 1020.76 1061.42 1022.07 1059.58 1023.02 C 1043.95 1031.16 1025.36 1036.86 1008.89 1043.3 C 984.41 1052.86 959.983 1063.38 935.233 1072.13 L 932.024 1071.91 C 930.132 1069.97 929.878 1069.7 929.308 1067.07 C 933.228 1060.2 1041.7 1021.13 1060.06 1013.93 z"/>
<path transform="translate(0,0)" fill="rgb(242,242,241)" d="M 1200.21 1316.89 L 1202 1317.56 C 1203.3 1319.71 1203.43 1320.16 1203.51 1322.67 C 1202.72 1324.11 1202.04 1324.88 1200.58 1325.68 C 1186.17 1333.55 1168.66 1338.84 1153.33 1344.87 C 1124.71 1356.14 1096.02 1368.12 1066.9 1377.97 L 1064.66 1377.6 C 1063.03 1375.61 1062.67 1375.47 1062.57 1372.94 C 1064.11 1370.26 1066.68 1369.23 1069.37 1367.94 C 1086.17 1359.89 1104.64 1354.11 1122.07 1347.48 L 1200.21 1316.89 z"/>
<path transform="translate(0,0)" fill="rgb(242,242,241)" d="M 766.174 471.163 C 776.134 470.033 783.75 471.355 791.613 477.676 C 794.751 480.197 797.671 482.362 798.108 486.573 C 787.191 492.875 765.333 498.902 752.75 503.498 C 746.313 505.461 735.435 512.956 729.09 511.583 C 727.709 510.506 727.196 509.847 726.549 508.16 C 724.56 502.976 726.395 495.249 729.115 490.636 C 736.44 478.213 753.215 474.455 766.174 471.163 z"/>
<path transform="translate(0,0)" fill="rgb(37,80,122)" d="M 770.017 476.26 C 778.462 475.924 785.352 479.881 792.406 483.954 C 776.506 488.354 760.852 494.35 745.244 499.715 A 488.152 488.152 0 0 1 732.92 505.315 L 731.245 504.647 C 730.462 501.454 731.79 496.558 733.542 493.83 C 741.022 482.182 757.355 478.801 770.017 476.26 z"/>
<path transform="translate(0,0)" fill="rgb(242,242,241)" d="M 1138.14 712.985 C 1138.68 713.394 1139.29 713.716 1139.75 714.212 C 1141.29 715.871 1141.27 717.105 1141 719.111 C 1138.41 721.852 1135.18 723.212 1131.77 724.685 C 1104.98 736.25 1076.91 745.795 1049.62 756.192 L 907.227 810.529 C 821.339 842.766 736.121 877.004 649.724 907.861 C 647.87 905.751 646.716 905.024 646.357 902.192 C 657.442 894.633 677.293 889.089 690.074 884.28 L 773.05 853.126 L 978.384 774.565 C 1031.63 754.464 1085.94 735.702 1138.14 712.985 z"/>
<path transform="translate(0,0)" fill="rgb(242,242,241)" d="M 918.226 1212.13 C 928.478 1211.19 938.067 1212.83 946.83 1218.43 C 956.922 1224.88 963.77 1235.56 966.228 1247.2 C 968.591 1258.4 966.977 1270.48 960.35 1279.99 C 953.244 1290.18 943.014 1294.51 931.247 1296.74 A 45.2553 45.2553 0 0 1 905.145 1291.2 C 894.842 1285.53 886.403 1275.97 883.262 1264.52 C 880.28 1253.65 882.378 1241.24 888.148 1231.63 C 895.044 1220.15 905.746 1215.21 918.226 1212.13 z"/>
<path transform="translate(0,0)" fill="rgb(73,174,72)" d="M 919.6 1219.34 C 926.094 1219.27 931.855 1219.87 937.857 1222.52 A 37.2872 37.2872 0 0 1 957.958 1244.5 C 961.011 1253.39 960.696 1263.26 956.23 1271.63 C 950.944 1281.55 942.335 1286.15 931.941 1289.03 C 922.418 1289.46 914.281 1288.7 906.037 1283.43 A 35.0846 35.0846 0 0 1 890.353 1260.43 C 888.599 1251.03 890.624 1240.59 896.257 1232.8 C 902.073 1224.76 910.102 1221.1 919.6 1219.34 z"/>
<path transform="translate(0,0)" fill="rgb(242,242,241)" d="M 786.354 901.297 C 795.677 901.267 805.595 904.093 813.423 909.136 A 42.5479 42.5479 0 0 1 832.231 936.913 A 42.7679 42.7679 0 0 1 825.318 969.703 C 817.905 980.085 807.742 984.679 795.588 986.938 C 785.206 987.072 775.007 984.738 766.394 978.742 A 45.0461 45.0461 0 0 1 747.938 949.742 A 42.316 42.316 0 0 1 755.059 918.008 C 762.727 907.327 773.831 903.078 786.354 901.297 z"/>
<path transform="translate(0,0)" fill="rgb(180,53,55)" d="M 780.495 909.161 C 789.425 908.694 796.903 908.81 805.173 912.898 A 37.561 37.561 0 0 1 824.182 934.64 C 827.127 943.527 826.695 953.598 822.2 961.902 C 817.171 971.192 809.011 975.737 799.352 978.876 C 792.151 979.308 785.907 979.391 779.009 976.75 C 769.172 972.984 760.705 965.198 756.723 955.377 A 34.7155 34.7155 0 0 1 757.178 928.136 C 761.847 917.939 770.304 912.653 780.495 909.161 z"/>
<path transform="translate(0,0)" fill="rgb(242,242,241)" d="M 850.313 1055.2 C 858.885 1054.72 866.852 1055.92 874.562 1059.91 C 885.61 1065.63 893.653 1076.09 896.974 1088.02 C 900.109 1099.28 898.861 1111.82 892.93 1121.96 C 886.374 1133.17 876.709 1138.04 864.628 1141.17 C 854.537 1142.35 844.494 1140.65 835.655 1135.5 C 825.415 1129.54 818.284 1119.62 815.396 1108.17 C 812.514 1096.74 813.93 1084.12 820.149 1074 C 827.153 1062.61 837.787 1057.9 850.313 1055.2 z"/>
<path transform="translate(0,0)" fill="rgb(73,174,72)" d="M 849.963 1062.23 C 857.213 1061.81 863.865 1062.41 870.475 1065.67 C 879.948 1070.33 886.893 1078.97 890.059 1088.98 C 893.045 1098.42 892.361 1109.07 887.423 1117.74 C 882.083 1127.11 873.944 1131.34 863.891 1133.99 C 854.636 1134.55 846.248 1133.44 838.285 1128.36 A 37.1034 37.1034 0 0 1 822.027 1104.62 C 820.037 1095.2 821.659 1084.83 827.048 1076.77 C 832.576 1068.5 840.419 1064.19 849.963 1062.23 z"/>
<path transform="translate(0,0)" fill="rgb(242,242,241)" d="M 986.291 1363.26 C 994.833 1362.77 1003.58 1364.6 1011 1368.91 C 1021.81 1375.19 1029.5 1386.48 1032.27 1398.59 A 40.981 40.981 0 0 1 1026.59 1430.75 C 1019.33 1441.65 1009.45 1446.33 997.109 1449.06 C 986.876 1449.51 977.92 1448.33 968.959 1443 A 43.7494 43.7494 0 0 1 948.353 1414.31 A 42.1163 42.1163 0 0 1 954.957 1381.54 C 962.587 1370.65 973.61 1365.63 986.291 1363.26 z"/>
<path transform="translate(0,0)" fill="rgb(180,53,55)" d="M 982.352 1371.22 C 990.837 1370.43 997.769 1370.76 1005.59 1374.71 A 36.9341 36.9341 0 0 1 1024.02 1396.17 C 1026.95 1405.35 1026.12 1415.88 1021.53 1424.38 C 1016.45 1433.78 1008.72 1438.09 998.85 1440.89 C 991.504 1441.75 984.717 1442.06 977.625 1439.41 C 968.507 1436 961.653 1429.06 958.008 1420.07 C 954.356 1411.06 953.983 1400.49 957.988 1391.53 C 962.867 1380.61 971.802 1375.49 982.352 1371.22 z"/>
<path transform="translate(0,0)" fill="rgb(242,242,241)" d="M 873.377 497.324 C 873.772 497.378 874.17 497.413 874.562 497.488 C 876.167 497.793 877.146 498.124 878.368 499.253 C 886.328 506.613 904.139 532.229 912.293 542.701 C 930.119 565.59 949.244 587.456 966.305 610.926 C 965.138 597.062 964.899 583.376 964.969 569.477 C 984.961 562.608 1004.75 555.029 1024.58 547.69 C 1033.48 544.398 1044.35 539.031 1053.71 537.741 C 1056.09 537.412 1055.7 537.662 1057.46 538.956 C 1057.83 540.11 1058.45 540.821 1057.79 541.966 C 1054.01 548.482 984.135 571.51 972.323 575.986 C 972.874 584.891 977.461 622.722 974.934 628.713 L 972.596 629.55 C 971.265 629.03 970.206 628.483 969.236 627.395 C 961.131 618.29 954.145 607.766 946.69 598.109 C 938.989 588.133 930.647 578.66 922.789 568.804 C 912.263 555.601 902.11 541.974 890.486 529.706 C 893.443 543.693 908.22 607.266 903.42 616.925 C 901.624 620.537 895.296 621.698 891.735 622.77 C 900.457 647.53 923.924 676.995 923.699 703.039 C 923.581 716.668 917.352 730.609 907.336 739.844 C 893.973 752.164 858.847 764.661 840.488 763.599 C 829.268 762.95 817.764 758.073 809.635 750.284 C 796.195 737.407 793.603 718.454 783.404 703.641 C 777.97 695.748 770.968 688.522 764.735 681.211 L 727.761 637.999 L 705.906 610.52 C 711.884 635.456 717.682 660.59 721.19 686.007 C 707.671 692.239 693.081 696.605 679.165 701.923 C 661.531 708.661 642.934 717.313 624.695 722.002 C 621.701 722.771 618.559 723.546 615.497 722.734 C 613.841 722.294 614.332 722.298 613.462 720.555 L 614.261 718.545 C 627.142 709.496 694.114 687.432 712.823 681.46 C 708.174 651.462 703.056 620.603 694.329 591.501 C 695.508 589.31 695.453 589.66 697.493 588.635 C 698.276 588.962 699.14 589.139 699.842 589.615 C 703.825 592.313 743.005 643.192 749.842 651.561 C 758.346 661.969 767.359 672.015 776.149 682.185 C 767.439 663.409 759.434 644.294 750.944 625.415 C 743.032 607.823 732.313 588.803 728.208 569.991 C 725.558 557.845 728.39 543.986 735.489 533.719 C 738.967 528.689 743.723 524.978 748.996 521.98 C 758.889 516.357 787.226 506.585 798.074 504.896 C 806.492 503.586 814.225 505.018 821.953 508.465 C 845.856 519.128 854.213 542.43 863.883 564.8 A 899.157 899.157 0 0 0 878.137 596.1 C 880.586 601.272 883.656 609.729 888.532 612.985 C 890.54 614.325 890.924 614.131 893.163 613.718 C 899.895 605.403 885.826 543.432 882.59 531.639 C 880.498 524.013 872.24 505.939 873.069 499.216 C 873.147 498.582 873.274 497.955 873.377 497.324 z"/>
<path transform="translate(0,0)" fill="rgb(37,80,122)" d="M 796.911 512.135 C 806.298 511.154 815.228 512.376 823.577 516.983 C 831.76 521.499 836.488 527.809 841.204 535.597 C 853.99 556.713 862.47 581.811 873.035 604.197 C 881.625 622.399 890.591 640.434 899.411 658.527 C 904.526 669.019 911.291 680.554 914.2 691.884 C 917.121 703.263 916.066 714.403 910.007 724.61 C 899.811 741.786 873.09 750.027 854.498 754.614 A 43.8962 43.8962 0 0 1 825.661 752.513 C 818.738 749.477 813.795 745.269 809.704 738.979 C 797.626 720.409 786.02 687.29 776.543 665.651 C 764.32 637.739 750.044 609.865 739.511 581.312 C 734.591 567.976 732.108 556.167 738.758 542.652 C 747.296 525.301 779.685 517.668 796.911 512.135 z"/>
<path transform="translate(0,0)" fill="rgb(242,242,241)" d="M 815.023 674.092 L 814.604 671.902 C 815.133 671.259 815.387 670.866 816.174 670.393 C 822.496 666.597 860.295 652.005 865.849 653.39 C 865.455 656.203 865.69 656.98 863.191 658.685 C 858.812 661.672 820.531 675.533 816.43 674.645 C 815.937 674.538 815.492 674.276 815.023 674.092 z"/>
<path transform="translate(0,0)" fill="rgb(242,242,241)" d="M 870.556 675.882 C 870.918 675.961 871.312 675.952 871.643 676.119 C 873.743 677.173 873.719 678.376 874.082 680.427 C 867.941 686.376 837.924 694.339 828.218 697.343 C 825.925 696.271 825.761 696.403 824.735 694.13 C 828.332 689.234 862.46 678.923 870.556 675.882 z"/>
<path transform="translate(0,0)" fill="rgb(242,242,241)" d="M 853.139 632.065 C 854.332 632.39 855.234 633.391 856.186 634.163 L 855.909 635.904 C 850.848 642.304 817.076 651.207 808.216 654.089 L 806.009 653.341 L 805.104 651.025 C 809.658 644.389 844.444 634.915 853.139 632.065 z"/>
<path transform="translate(0,0)" fill="rgb(57,59,78)" d="M 830.126 569.957 C 834.172 578.088 850.707 609.604 851.252 616.282 C 842.696 622.258 829.735 622.876 820.322 628.059 C 820.051 628.208 819.785 628.368 819.517 628.522 C 814.219 630.122 797.396 633.781 794.362 638.517 C 794.209 638.756 794.119 639.03 793.997 639.286 C 788.351 633.939 775.814 602.172 771.951 592.914 C 776.369 587.855 821.243 572.725 830.126 569.957 z"/>
<path transform="translate(0,0)" fill="rgb(180,53,55)" d="M 814.052 602.578 C 814.743 599.803 814.724 599.324 813.926 596.577 C 810.607 593.602 804.13 594.3 802.698 590.877 C 803.667 588.867 804.036 588.107 805.756 586.608 C 807.132 585.407 808.475 584.163 809.831 582.939 C 811.95 585.979 814.036 588.987 816.417 591.83 C 817.759 591.373 818.921 590.854 820.224 590.266 C 822.499 589.238 824.635 589.048 827.094 588.882 L 829.192 589.761 C 828.816 593.272 824.561 596.997 822.106 599.532 C 820.206 601.492 819.605 602.719 818.919 605.335 C 818.902 605.248 818.87 605.162 818.869 605.073 C 818.819 601.404 818.794 600.024 816.926 596.743 C 816.593 598.78 816.24 600.802 815.826 602.824 L 814.052 602.578 z"/>
<path transform="translate(0,0)" fill="rgb(230,36,42)" d="M 813.256 609.656 C 813.108 613.152 812.527 615.94 811.388 619.246 C 809.957 615.906 809.56 613.543 806.583 611.226 C 802.562 610.97 799.608 614.667 795.548 615.541 L 794.156 614.513 L 794.527 612.179 C 795.957 610.237 796.861 609.215 799.042 608.111 C 800.759 607.243 800.947 607.148 802.332 605.582 C 801.215 600.767 794.469 598.836 793.867 594.018 L 795.497 592.882 C 796.987 593.204 798.233 593.567 799.457 594.527 C 804.051 598.133 806.916 600.639 812.682 602.23 C 813.136 602.356 813.596 602.462 814.052 602.578 L 815.826 602.824 C 816.24 600.802 816.593 598.78 816.926 596.743 C 818.794 600.024 818.819 601.404 818.869 605.073 C 818.87 605.162 818.902 605.248 818.919 605.335 C 826.003 607.541 829.969 611.154 835.138 616.225 A 560.771 560.771 0 0 0 813.256 609.656 z"/>
<path transform="translate(0,0)" fill="rgb(242,242,241)" d="M 1400.41 1395.32 C 1421.4 1394.76 1443.26 1400.22 1459.52 1414 C 1472.61 1425.09 1480.29 1439.08 1481.69 1456.23 L 1027.1 1635 C 1012.36 1640.82 997.619 1647.19 982.552 1652.09 C 974.213 1642.46 968.706 1630.43 965.643 1618.12 C 961.69 1602.22 962.763 1585.43 971.744 1571.32 C 977.471 1562.31 986.543 1554.4 996.173 1549.89 C 1009.36 1543.71 1024.32 1540.57 1037.96 1535.34 L 1168.78 1485.11 C 1225.54 1463.03 1281.9 1439.91 1338.8 1418.21 C 1356.54 1411.45 1383.02 1399.06 1400.41 1395.32 z"/>
</svg>