<svg version="1.1" xmlns="http://www.w3.org/2000/svg" style="display: block;" viewBox="0 0 2048 2048" width="1024" height="1024">
<path transform="translate(0,0)" fill="rgb(254,254,254)" d="M 0 0 L 2048 0 L 2048 2048 L 0 2048 L 0 0 z"/>
<path transform="translate(0,0)" fill="rgb(46,83,118)" d="M 1022.1 1824.47 C 1028.37 1822.55 1034.51 1820.37 1040.67 1818.11 C 1040.97 1822.36 1041.06 1826.36 1040.67 1830.61 C 1034.65 1828.11 1028.32 1826.38 1022.1 1824.47 z"/>
<path transform="translate(0,0)" fill="rgb(8,35,64)" d="M 206.379 1023.14 C 207.163 1024.54 207.611 1025.69 207.674 1027.32 C 208.098 1038.19 206.903 1049.14 207.332 1060.09 C 207.525 1065.02 209.728 1073.4 208.526 1077.94 C 208.301 1078.79 207.93 1079.24 207.465 1079.98 C 200.851 1060.92 201.805 1042.58 206.379 1023.14 z"/>
<path transform="translate(0,0)" fill="rgb(46,83,118)" d="M 731.837 614.914 C 760.617 626.403 788.688 639.841 816.809 652.847 C 833.888 660.746 850.721 668.978 868.541 675.105 C 825.692 673.577 802.236 686.415 764.349 702.985 C 743.299 711.49 722.564 720.54 701.657 729.366 C 690.864 733.923 679.843 737.788 669.48 743.305 C 669.604 743.124 669.726 742.941 669.853 742.761 C 680.489 727.629 687.186 708.061 695.07 691.256 C 707.072 665.677 719.829 640.477 731.837 614.914 z"/>
<path transform="translate(0,0)" fill="rgb(46,83,118)" d="M 538.282 618.287 C 552.902 616.128 569.736 619.136 583.211 624.935 C 605.233 634.413 624.694 653.53 633.548 675.936 A 77.9693 77.9693 0 0 1 632.18 736.088 C 628.66 744.096 623.899 758.254 617.347 763.978 C 612.535 768.181 463.683 827.238 446.12 833.999 A 4391.84 4391.84 0 0 0 372.652 864.264 C 383.578 846.43 391.965 826.145 401.062 807.276 L 445.587 715.146 C 455.072 695.036 463.809 672.433 476.73 654.298 C 491.114 634.11 514.22 622.265 538.282 618.287 z"/>
<path transform="translate(0,0)" fill="rgb(46,83,118)" d="M 1737.42 1168.34 C 1757.51 1166.06 1781.28 1172.5 1797.47 1184.59 C 1816.34 1198.68 1831.16 1221.51 1834.46 1244.99 C 1836.23 1257.62 1835.34 1269.07 1831.13 1281.1 C 1827.92 1290.25 1823.12 1298.87 1819.14 1307.71 A 4828.35 4828.35 0 0 1 1793.14 1364.6 A 10734.9 10734.9 0 0 1 1704.24 1553.37 L 1664.39 1636.8 C 1655.9 1654.6 1648.01 1675.29 1636.02 1691.01 C 1621.9 1709.54 1598.93 1719.64 1576.36 1722.69 A 90.7191 90.7191 0 0 1 1517.08 1705.69 C 1496.13 1690.69 1483.69 1669.72 1479.8 1644.27 C 1477.7 1630.53 1478.58 1616.75 1483.21 1603.62 C 1493.78 1573.62 1509.81 1544.38 1523.65 1515.73 L 1593.11 1371.3 L 1645.17 1260.88 C 1653.78 1242.7 1662.87 1218.71 1674.93 1202.87 C 1689.79 1183.34 1713.32 1171.18 1737.42 1168.34 z"/>
<path transform="translate(0,0)" fill="rgb(46,83,118)" d="M 973.512 726.165 C 998.794 740.658 1026.55 751.356 1053.06 763.445 L 1203.86 832.188 L 1692.54 1053.92 C 1665.79 1101.17 1645.63 1153.51 1622.07 1202.53 A 23990.3 23990.3 0 0 0 1428.79 1618.55 A 10661.9 10661.9 0 0 1 1376.17 1733.03 C 1364.26 1759.14 1354.03 1787.47 1337.05 1810.81 A 184.446 184.446 0 0 1 1238.95 1879.24 C 1157.76 1901.68 1110.64 1860.07 1040.67 1830.61 C 1041.06 1826.36 1040.97 1822.36 1040.67 1818.11 A 8891.21 8891.21 0 0 0 1196.03 1752.55 C 1224.61 1740.23 1256.81 1730.39 1282.14 1712.08 C 1304.55 1695.87 1324.55 1670.44 1335.25 1644.95 C 1351.92 1605.21 1349.35 1561.71 1332.98 1522.44 A 7414.74 7414.74 0 0 0 1267.36 1373.73 L 1159.46 1126.5 L 1058.62 895.731 C 1038.97 850.605 1021.45 803.829 998.901 760.068 C 992.063 746.798 984.525 736.242 973.512 726.165 z"/>
<path transform="translate(0,0)" fill="rgb(46,83,118)" d="M 1545.95 57.1877 C 1553.46 56.7957 1561.41 59.3652 1567.67 63.433 A 36.1347 36.1347 0 0 1 1583.52 86.7466 C 1585.42 96.3638 1583.02 106.626 1577.53 114.687 C 1570.04 125.704 1560.13 128.603 1547.81 131.167 C 1538.29 148.576 1530.79 167.492 1522.26 185.434 L 1456.11 324.643 C 1448.11 341.355 1441.2 358.535 1432.6 374.962 C 1439.79 379.377 1448.14 382.702 1455.77 386.435 A 430.735 430.735 0 0 1 1489.87 404.836 C 1526.57 426.609 1566.36 457.938 1595.89 488.502 C 1610.56 503.681 1623.91 520.373 1637.64 536.403 A 4161.14 4161.14 0 0 1 1700.47 496.072 C 1713.89 487.524 1727.06 478.504 1740.97 470.761 C 1744.78 479.019 1750.74 486.945 1756.14 494.238 C 1722.3 513.769 1688.8 535.228 1656.53 557.258 C 1672.58 582.113 1687.68 607.07 1700.57 633.739 A 466.196 466.196 0 0 1 1735.36 930.321 C 1730 956.312 1721.71 981.868 1713.01 1006.9 C 1691.76 999.37 1671.43 989.918 1650.81 980.853 A 4576.89 4576.89 0 0 1 1536.06 928.716 L 1281.29 813.651 C 1263.16 806.036 1245.33 797.224 1227.42 789.054 L 1087.08 723.815 C 1029.17 696.776 970.354 671.681 912.325 644.892 C 874.78 627.559 837.522 609.732 799.635 593.146 C 783.051 585.886 766.454 577.779 749.222 572.215 C 759.791 552.522 773.111 533.725 786.44 515.824 C 807.49 487.557 839.987 453.098 867.595 431.355 C 886.381 416.56 906.841 404.212 927.67 392.56 C 990.693 357.303 1056.79 334.645 1128.33 324.16 C 1120.72 289.376 1114.93 254.248 1107.48 219.435 C 1117.39 218.364 1126.95 216.365 1136.67 214.257 C 1141.81 249.721 1150.32 284.673 1155.73 320.093 C 1254.68 317.078 1312.2 329.705 1405.04 362.59 C 1414.15 338.113 1426.86 314.41 1437.93 290.742 L 1519.53 120.532 C 1517.01 115.544 1514.13 110.422 1512.81 104.961 C 1510.28 94.4826 1511.33 83.6574 1517.28 74.4874 C 1523.96 64.2023 1534.46 59.7854 1545.95 57.1877 z"/>
<path transform="translate(0,0)" fill="rgb(254,254,254)" d="M 1517.45 672.195 C 1529.38 671.554 1540.56 673.311 1550.87 679.736 C 1563.56 687.635 1572.53 701.069 1575.84 715.565 C 1579.13 729.982 1575.6 745.004 1567.66 757.306 C 1558.48 771.551 1545.87 777.322 1530.08 780.983 C 1516.23 782.147 1503.08 779.713 1491.2 772.341 C 1479.53 765.102 1471.19 754.222 1468.31 740.663 C 1465.25 726.264 1467.53 710.208 1475.76 697.886 C 1485.66 683.07 1500.41 675.656 1517.45 672.195 z"/>
<path transform="translate(0,0)" fill="rgb(254,254,254)" d="M 1084.23 476.194 A 57.3807 57.3807 0 0 1 1121.26 484.536 A 54.8598 54.8598 0 0 1 1146.11 519.073 A 57.5091 57.5091 0 0 1 1138.38 562.489 C 1128.99 576.969 1114.75 584.063 1098.51 587.785 C 1085.22 588.749 1072.82 586.956 1061.3 579.737 A 54.7992 54.7992 0 0 1 1036.88 545.044 C 1033.59 530.254 1035.65 514.416 1043.97 501.586 C 1053.69 486.58 1067.39 479.813 1084.23 476.194 z"/>
<path transform="translate(0,0)" fill="rgb(46,83,118)" d="M 206.379 1023.14 A 133.872 133.872 0 0 1 266.694 939.817 C 281.656 930.683 298.356 924.43 314.542 917.837 C 338.557 908.054 362.805 898.819 386.77 888.932 A 18072.3 18072.3 0 0 1 654.732 778.892 A 4810.46 4810.46 0 0 0 756.575 736.566 C 781.207 726.01 806.852 713.483 832.61 706.201 C 850.643 701.103 871.288 701.093 889.435 705.679 C 922.413 714.013 952.7 734.785 970.148 764.285 C 983.174 786.31 990.689 812.029 1001.38 835.301 C 1042.17 924.134 1079.22 1014.61 1118.44 1104.14 L 1263.2 1433.99 A 1598.21 1598.21 0 0 0 1289.61 1493.43 C 1298.5 1512.64 1308.01 1531.81 1314.55 1551.99 C 1321.32 1572.9 1320.99 1596.11 1315.47 1617.25 C 1307 1649.65 1283.09 1680.02 1254.25 1696.81 C 1237.39 1706.62 1219.41 1713.41 1201.54 1721.04 A 5170.14 5170.14 0 0 1 1115.06 1757.88 C 1092.25 1767.5 1063.59 1782.2 1040.85 1789.21 C 1028.23 1794.49 1015.86 1800.62 1003.08 1805.45 C 988.579 1813.53 971.296 1819.12 955.979 1825.7 L 845.587 1872.42 C 807.009 1888.43 768.768 1905.11 730.07 1920.85 C 711.763 1928.3 693.391 1936.44 674.513 1942.31 C 647.21 1950.8 614.623 1944.91 589.866 1931.58 A 120.065 120.065 0 0 1 541.706 1883.54 C 533.197 1867.91 527.577 1850.07 521.028 1833.52 C 513.298 1813.99 504.716 1794.72 496.636 1775.32 L 394.515 1530.58 L 268.76 1229.01 L 230.667 1137.7 C 222.647 1118.71 213.306 1099.77 207.465 1079.98 C 207.93 1079.24 208.301 1078.79 208.526 1077.94 C 209.728 1073.4 207.525 1065.02 207.332 1060.09 C 206.903 1049.14 208.098 1038.19 207.674 1027.32 C 207.611 1025.69 207.163 1024.54 206.379 1023.14 z"/>
<path transform="translate(0,0)" fill="rgb(8,35,64)" d="M 692.785 821.689 L 694.547 821.004 C 696.894 822.955 697.746 825.117 697.933 828.196 C 698.105 831.013 697.416 833.246 696.479 835.864 C 694.65 837.649 693.957 838.669 691.202 838.684 C 688.941 838.696 687.784 838.128 686.025 836.83 C 688.436 835.697 689.947 834.61 691.895 832.859 C 693.71 829.334 693.023 825.523 692.785 821.689 z"/>
<path transform="translate(0,0)" fill="rgb(8,35,64)" d="M 1003.08 1805.45 C 1002.56 1804.1 1002.94 1803.61 1003.26 1802.23 C 1009.29 1795.83 1027.98 1788.47 1036.57 1787.52 C 1038.94 1787.26 1039.15 1787.75 1040.85 1789.21 C 1028.23 1794.49 1015.86 1800.62 1003.08 1805.45 z"/>
<path transform="translate(0,0)" fill="rgb(8,35,64)" d="M 1199.61 1349.16 L 1201.26 1349.09 C 1202.13 1350.66 1203.03 1353.02 1204.4 1354.15 L 1204.17 1352.89 C 1211.01 1364.36 1222.47 1384.11 1223.28 1397.2 C 1223.33 1397.88 1223.42 1398.55 1223.46 1399.23 C 1223.58 1400.95 1223.62 1402.27 1222.72 1403.76 C 1214.54 1385.83 1206.13 1367.78 1199.61 1349.16 z"/>
<path transform="translate(0,0)" fill="rgb(254,254,254)" d="M 686.025 836.83 C 682.745 838.271 679.28 840.019 675.767 840.791 C 672.748 841.455 669.285 841.025 666.767 839.134 C 664.887 837.722 663.898 835.632 663.469 833.381 C 662.771 829.725 663.87 825.743 666.11 822.807 A 16.534 16.534 0 0 1 677.635 816.342 C 684.589 815.625 687.57 817.291 692.785 821.689 C 693.023 825.523 693.71 829.334 691.895 832.859 C 689.947 834.61 688.436 835.697 686.025 836.83 z"/>
<path transform="translate(0,0)" fill="rgb(254,254,254)" d="M 762.11 768.081 C 765.266 767.648 768.751 767.495 771.883 768.171 C 777.652 769.415 782.838 772.927 785.766 778.095 A 19.131 19.131 0 0 1 787.489 793.142 C 785.361 800.426 780.319 804.006 773.896 807.39 C 770.475 807.922 766.571 808.291 763.167 807.582 C 757.78 806.459 752.717 802.685 750.034 797.905 A 19.8616 19.8616 0 0 1 748.449 782.309 C 750.698 775.016 755.588 771.441 762.11 768.081 z"/>
<path transform="translate(0,0)" fill="rgb(254,254,254)" d="M 1092.18 1646 A 5215.4 5215.4 0 0 0 1189.63 1653.58 C 1176.7 1666.13 1165.07 1679.87 1153.24 1693.44 C 1142.66 1705.34 1132.15 1717.23 1122.14 1729.61 C 1111.83 1704.87 1098.17 1671.73 1092.18 1646 z"/>
<path transform="translate(0,0)" fill="rgb(254,254,254)" d="M 641.446 829.804 C 641.982 829.811 642.528 829.723 643.054 829.826 C 645.75 830.352 649.632 833.085 650.956 835.531 C 652.613 838.593 652.401 841.998 650.972 845.068 C 649.859 847.461 647.849 849.65 645.605 851.028 C 641.531 853.53 636.381 854.984 631.979 856.882 A 1971.99 1971.99 0 0 1 596.515 871.957 C 557.635 888.112 518.727 904.811 479.257 919.438 C 476.853 920.009 478.066 920.077 475.629 919.095 C 472.156 913.998 470.292 908.096 468.124 902.358 C 481.601 895.114 497.138 889.879 511.271 883.942 A 6610.44 6610.44 0 0 1 587.289 852.35 C 605.365 844.989 623.766 838.071 641.446 829.804 z"/>
<path transform="translate(0,0)" fill="rgb(254,254,254)" d="M 758.14 1787.86 C 763.867 1792.01 787.454 1857.96 791.858 1869.13 C 770.563 1867 749.032 1866.47 727.665 1865.22 A 827.303 827.303 0 0 1 689.113 1863.74 C 712.906 1839.38 735.206 1813.06 758.14 1787.86 z"/>
<path transform="translate(0,0)" fill="rgb(254,254,254)" d="M 994.052 1691.06 C 997.678 1694.8 1018.44 1753.6 1021.47 1762.75 C 1004.12 1770.62 986.053 1777.22 968.447 1784.55 A 4349.15 4349.15 0 0 0 881.078 1822.34 C 869.877 1800.12 860.847 1775.2 852.656 1751.68 C 899.223 1730.47 946.965 1711.15 994.052 1691.06 z"/>
<path transform="translate(0,0)" fill="rgb(254,254,254)" d="M 232.278 1065.77 C 245.435 1059.37 259.571 1054.33 273.109 1048.76 A 5344.59 5344.59 0 0 1 344.768 1019.04 A 16678.1 16678.1 0 0 1 586.464 920.311 L 819.029 826.319 L 899.662 794.567 C 916.44 787.813 933.005 779.821 950.173 774.151 C 956.9 788.036 962.186 802.781 968.203 817.002 C 978.856 842.178 990.043 867.288 1001.1 892.299 L 1077.28 1067.01 C 1089.99 1096.25 1103.32 1125.26 1115.57 1154.7 A 5342.39 5342.39 0 0 0 1173.79 1290.65 C 1182.21 1309.84 1189.73 1330.74 1199.61 1349.16 C 1206.13 1367.78 1214.54 1385.83 1222.72 1403.76 C 1225.93 1414.27 1232.11 1425.26 1236.59 1435.37 C 1250.94 1467.74 1267.71 1500.37 1279.04 1533.91 C 1264.73 1538.24 1250.52 1544.52 1236.66 1550.18 A 4020.49 4020.49 0 0 0 1154.81 1584.86 L 947.085 1672.43 L 689.412 1781.55 C 643.485 1801.03 596.356 1818.91 551.655 1841.08 L 324.003 1291.03 C 301.563 1235.67 277.773 1180.86 255.759 1125.31 C 247.91 1105.51 238.843 1086.04 232.278 1065.77 z"/>
<path transform="translate(0,0)" fill="rgb(46,83,118)" d="M 798.331 953.291 C 815.27 957.463 833.772 961.915 851.168 963.183 C 851.335 994.477 853.211 1025.95 855.029 1057.2 C 877.256 1066.78 896.888 1077.39 917.065 1090.75 C 944.028 1072.24 970.793 1053.65 998.093 1035.62 C 1011.02 1050.77 1025.72 1064.93 1038.17 1080.31 C 1017.49 1104.18 1001.15 1132.94 983.268 1158.99 C 996.102 1179.84 1007.49 1199.98 1016.28 1222.88 C 1048.02 1224.35 1079.61 1225.78 1111.32 1227.93 A 1881.05 1881.05 0 0 1 1123.61 1280.83 C 1092.26 1292.64 1061.45 1306.07 1030.34 1318.53 C 1029.61 1343.52 1025.64 1365.59 1017.48 1389.21 C 1041.74 1409.8 1066.32 1430.05 1090.36 1450.9 C 1080.59 1466.29 1070.07 1481.81 1062.05 1498.21 C 1032.18 1492.61 1002.37 1486.43 972.443 1481.19 C 957.47 1500.67 936.817 1517.58 917.336 1532.47 C 925.181 1560.7 930.136 1589.85 938.495 1617.87 C 921.827 1626.56 903.868 1633.17 886.574 1640.56 C 869.208 1617.16 849.696 1595.28 832.241 1571.88 C 806.029 1579.21 780.278 1582.4 753.103 1583.06 C 743.825 1611.84 732.125 1640.13 720.664 1668.1 C 702.661 1662.65 683.718 1658.1 665.254 1654.49 C 662.435 1624.38 660.41 1594.05 657.182 1564.01 C 636.589 1552.48 617.008 1541.19 598.404 1526.46 C 573.757 1535.29 546.476 1558.22 522.022 1569.49 C 507.371 1554.83 492.89 1539.94 477.81 1525.72 C 495.062 1501.12 514.784 1477.24 533.573 1453.75 C 521.753 1430 507.622 1406.11 502.234 1379.84 C 470.945 1378.32 439.485 1376.03 408.152 1376.05 C 405.941 1355.58 401.93 1334.83 397.95 1314.63 A 1794.71 1794.71 0 0 0 452.062 1301.09 C 460.859 1298.81 470.921 1295.21 479.89 1294.38 L 489.666 1292.59 C 490.913 1271.96 494.905 1248.6 501.447 1229.05 C 502.394 1225.46 503.792 1221.89 504.966 1218.37 C 496.592 1208.8 486.397 1200.28 477.29 1191.36 C 464.897 1179.22 453.019 1166.64 440.381 1154.74 L 471.609 1105.68 C 499.535 1113.7 525.622 1126.45 553.201 1135.33 A 223.463 223.463 0 0 1 608.676 1086.72 C 606.538 1075.45 603.363 1064.37 600.433 1053.28 A 3094.74 3094.74 0 0 1 588.516 1005.39 C 587.029 1001.11 585.831 996.876 584.799 992.464 C 599.899 984.885 615.555 975.791 631.601 970.432 C 653.594 996.507 672.719 1025.39 695.296 1050.85 C 715.237 1043.33 736.858 1041.14 758.029 1040.34 C 772.02 1011.77 786.171 982.661 798.331 953.291 z"/>
<path transform="translate(0,0)" fill="rgb(8,35,64)" d="M 501.447 1229.05 C 501.86 1229.87 502.553 1230.61 502.686 1231.53 C 503.647 1238.11 499.871 1250.05 498.785 1256.84 C 496.772 1269.44 494.681 1283.17 495.066 1295.94 C 490.122 1296.16 484.111 1297.35 479.89 1294.38 L 489.666 1292.59 C 490.913 1271.96 494.905 1248.6 501.447 1229.05 z"/>
<path transform="translate(0,0)" fill="rgb(254,254,254)" d="M 753.725 1075.43 L 754.583 1075.4 C 815.024 1074.01 873.27 1099.5 916.433 1141.17 C 960.987 1184.17 988.966 1243.77 989.9 1306.04 A 236.812 236.812 0 0 1 920.459 1479.47 A 220.631 220.631 0 0 1 764.606 1545.04 C 706.391 1544.87 652.431 1525.92 609.07 1486.46 C 560.1 1441.9 529.672 1383.91 527.042 1316.9 A 234.078 234.078 0 0 1 589.877 1149.8 C 632.894 1103.24 690.6 1078.07 753.725 1075.43 z"/>
<path transform="translate(0,0)" fill="rgb(46,83,118)" d="M 573.545 1338.67 C 563.496 1295.75 577.829 1244.16 600.472 1207.45 C 626.938 1164.55 668.045 1133.68 717.242 1122.31 C 764.715 1111.33 815.801 1121.35 856.784 1147.39 C 901.672 1175.9 931.175 1219.12 942.617 1270.8 C 953.183 1318.51 945.153 1372.21 918.485 1413.56 C 891.901 1454.78 845.268 1488.17 797.023 1498.16 C 746.941 1508.53 697.577 1494.72 655.693 1466.77 C 635.872 1453.54 619.778 1436.36 605.787 1417.2 C 590.74 1397.05 578.403 1363.01 573.545 1338.67 z"/>
<path transform="translate(0,0)" fill="rgb(238,241,228)" d="M 685.991 1159.22 C 701.137 1148.3 725.567 1143.87 743.704 1141.76 L 742.846 1143.47 C 744.136 1144.22 745.155 1144.74 746.579 1145.24 C 734.715 1147.3 723.098 1149.83 711.602 1153.47 C 704.526 1155.71 695.488 1160.71 688.343 1161.46 L 685.991 1159.22 z"/>
<path transform="translate(0,0)" fill="rgb(254,254,254)" d="M 877.359 1428.11 L 877.474 1428.93 C 876.077 1431.56 873.547 1433.47 871.384 1435.46 C 855.582 1450.01 839.167 1460.71 819.435 1469.22 C 815.822 1470.78 810.964 1473.51 806.983 1473.36 C 808.973 1465.3 810.537 1456.18 814.486 1448.82 C 822.129 1434.58 834.429 1442.93 846.923 1441.64 C 858.288 1440.46 868.38 1434.8 877.359 1428.11 z"/>
<path transform="translate(0,0)" fill="rgb(254,254,254)" d="M 664.39 1417.18 C 672.182 1417.78 679.911 1417.91 687.646 1419.19 C 692.074 1429.12 696.657 1436.77 704.826 1444.09 C 714.416 1444.97 724.418 1444.23 733.979 1443.21 A 1522.76 1522.76 0 0 0 746.169 1476.83 C 740.739 1476.51 735.304 1475.86 729.888 1475.34 C 700.922 1470.35 673.453 1454.25 651.877 1434.74 C 656.243 1431.37 665.053 1426.25 667.783 1421.67 L 663.646 1420.53 L 662.96 1419.12 L 664.39 1417.18 z"/>
<path transform="translate(0,0)" fill="rgb(254,254,254)" d="M 685.991 1159.22 L 688.343 1161.46 C 683.883 1170.78 685.859 1189.75 685.745 1200.19 C 677.922 1205.28 670.867 1210.94 664.251 1217.51 C 660.168 1216.01 655.837 1214.54 651.605 1213.53 C 647.06 1212.44 641.559 1211.98 637.44 1214.64 C 624.56 1222.95 608.309 1254.24 604.904 1269.52 C 599.419 1294.14 621.164 1298.6 631.296 1315.19 C 631.46 1315.46 631.608 1315.74 631.765 1316.01 L 632.413 1332.53 C 624.343 1339.12 615.101 1347.75 613.6 1358.57 C 611.532 1373.48 634.566 1402.39 644.015 1414.4 L 637.83 1421.24 C 631.81 1413.95 626.219 1406.55 621.195 1398.53 C 598.266 1361.94 588.072 1315.86 598.233 1273.35 C 610.606 1221.58 641.694 1186.34 685.991 1159.22 z"/>
<path transform="translate(0,0)" fill="rgb(254,254,254)" d="M 743.704 1141.76 A 159.262 159.262 0 0 1 861.88 1176.87 A 171.291 171.291 0 0 1 923.593 1292.78 C 927.037 1329.26 921.841 1365.01 902.603 1396.67 C 899.546 1401.71 896.069 1408.27 891.977 1412.52 C 890.862 1413.68 890.613 1413.77 889.451 1414.55 L 888.631 1413.39 C 888.721 1413.08 888.818 1412.77 888.899 1412.46 C 893.207 1395.99 863.549 1374.98 885.361 1360.8 C 898.676 1352.14 914.929 1353.24 919.589 1334.47 C 922.397 1323.16 921.321 1289.2 915.24 1279.47 C 911.262 1273.1 891.786 1270.49 884.053 1266.79 C 880.549 1260.33 878.129 1253.69 876.258 1246.59 C 883.029 1238.08 888.988 1231.28 891.386 1220.36 C 879.824 1201.99 852.417 1167.98 829.959 1163.58 C 824.75 1162.56 820.987 1164.46 816.874 1167.53 C 811.441 1171.59 806.744 1176.59 801.064 1180.29 C 791.712 1179.05 782.227 1177.39 772.82 1176.77 C 768.249 1168.17 760.18 1148.08 750.517 1145.6 C 749.244 1145.28 747.886 1145.22 746.579 1145.24 C 745.155 1144.74 744.136 1144.22 742.846 1143.47 L 743.704 1141.76 z"/>
<path transform="translate(0,0)" fill="rgb(254,254,254)" d="M 744.01 1160.21 L 745.755 1160.65 C 752.492 1170.31 756.84 1182.14 762.632 1192.46 C 777.925 1191.41 788.064 1193.71 802.353 1198.89 C 810.475 1192 818.12 1183.73 827.051 1177.97 C 847.256 1189.86 861.965 1203.02 875.632 1221.99 C 870.135 1229.55 863.775 1236.49 857.644 1243.54 C 863.058 1254.75 867.287 1266.09 871.411 1277.81 C 882.406 1281.68 893.455 1285.45 903.984 1290.48 C 905.542 1304.29 905.304 1318.57 905.233 1332.45 C 879.508 1349.66 874.098 1340.46 860.547 1374.06 C 865.077 1385.85 869.734 1397.44 872.783 1409.73 C 863.52 1415.92 854.538 1422.79 844.537 1427.75 C 838.054 1426.78 831.344 1424.21 825.04 1422.32 C 820.14 1423.96 815.279 1425.56 810.781 1428.16 C 799.878 1434.45 797.693 1444.83 794.561 1456.12 L 791.676 1466.58 C 781.462 1468.24 771.137 1469 760.835 1469.89 C 754.989 1457.35 748.984 1444.84 743.629 1432.08 C 737.249 1430.85 730.737 1430.46 724.281 1429.78 C 694.394 1426.61 705.078 1415.86 697.237 1407.12 C 689.448 1398.45 666.046 1401.78 654.968 1402.14 C 645.377 1389.04 637.062 1374.58 628.5 1360.78 C 634.686 1351.61 642.357 1344.08 650.338 1336.48 C 647.164 1325.52 646.817 1313.48 645.867 1302.15 C 636.809 1296.79 626.206 1290.13 620.305 1281.23 C 622.25 1261.55 633.074 1243.38 644.275 1227.57 C 652.925 1230.26 661.545 1232.71 670.357 1234.81 C 680.67 1223.42 689.46 1215.72 703.012 1208.3 C 702.807 1196.46 702.197 1184.59 701.869 1172.74 A 429.546 429.546 0 0 1 744.01 1160.21 z"/>
<path transform="translate(0,0)" fill="rgb(46,83,118)" d="M 750.362 1233.29 A 79.7843 79.7843 0 0 1 805.504 1245.72 C 823.462 1257.49 835.788 1275.37 839.87 1296.52 A 75.8038 75.8038 0 0 1 827.964 1353.4 C 814.729 1372.83 798.137 1384.69 775.043 1388.96 A 79.3289 79.3289 0 0 1 718.303 1375.82 C 699.676 1362.97 687.271 1344.6 683.389 1322.22 C 679.782 1301.43 684.892 1281.08 697.091 1263.95 C 710.423 1245.22 728.147 1237.03 750.362 1233.29 z"/>
<path transform="translate(0,0)" fill="rgb(254,254,254)" d="M 752.58 1254.21 C 765.569 1252.98 778.109 1254 789.752 1260.39 C 802.855 1267.58 813.411 1280.3 817.569 1294.71 C 821.902 1309.73 819.172 1327.46 811.347 1340.91 C 802.909 1355.41 789.741 1363.61 773.86 1367.73 C 759.192 1370.41 745.19 1368.36 732.456 1360.34 A 60.2702 60.2702 0 0 1 705.466 1322.09 C 702.241 1307.02 704.726 1290.79 713.398 1277.91 C 722.86 1263.84 736.523 1257.32 752.58 1254.21 z"/>
</svg>