<svg version="1.1" xmlns="http://www.w3.org/2000/svg" style="display: block;" viewBox="0 0 2048 2048" width="1024" height="1024">
<path transform="translate(0,0)" fill="rgb(254,254,254)" d="M 0 0 L 2048 0 L 2048 2048 L 0 2048 L 0 0 z"/>
<path transform="translate(0,0)" fill="rgb(12,49,98)" d="M 249.542 71.4036 C 303.939 69.731 358.949 71.1486 413.381 71.5192 L 638.733 71.5879 L 1787.72 71.3298 C 1837.34 71.1959 1882.77 87.5169 1918.25 123.128 A 185.961 185.961 0 0 1 1970.79 227.015 C 1973.88 248.298 1972.91 270.095 1972.85 291.542 L 1972.84 377.63 L 1973.04 702.635 L 1972.66 1784.39 C 1972.56 1839.37 1957.66 1884.28 1917.87 1923.57 C 1889.83 1951.25 1852.26 1970.26 1812.84 1974.52 C 1798.65 1976.05 1784.02 1975.37 1769.75 1975.3 L 687.893 1975.35 L 372.512 1975.7 L 288.724 1975.69 C 269.189 1975.77 249.095 1976.84 229.683 1974.48 C 197.016 1970.5 165.007 1955.65 140.052 1934.32 C 107.32 1906.35 84.1552 1868.11 77.1741 1825.53 C 72.1417 1794.84 74.8183 1752.1 74.7396 1719.82 L 74.8522 1508.78 L 74.4614 965.201 L 74.1222 776.171 C 74.2493 730.248 75.612 683.899 73.8499 638.015 C 72.5386 603.87 48.799 572.749 46.1526 537.23 C 44.164 510.541 56.9845 485.689 73.9711 466.06 C 74.9271 414.097 74.723 362.048 74.8073 310.074 C 74.853 281.911 71.7839 249.501 77.5161 221.993 A 192.931 192.931 0 0 1 121.127 133.845 C 154.207 96.0094 199.596 74.5555 249.542 71.4036 z"/>
<path transform="translate(0,0)" fill="rgb(254,254,254)" d="M 306.738 447.124 C 309.934 446.735 313.154 446.33 316.358 446.867 C 321.285 447.692 325.934 451.063 328.594 455.247 A 17.6938 17.6938 0 0 1 330.67 469.746 C 328.867 476.047 324.621 479.312 319.103 482.341 C 316.319 482.94 313.317 483.216 310.474 482.865 C 305.882 482.298 301.505 479.283 298.912 475.524 C 295.949 471.227 295.022 465.764 296.098 460.69 C 297.5 454.076 301.172 450.538 306.738 447.124 z"/>
<path transform="translate(0,0)" fill="rgb(254,254,254)" d="M 679.321 293.108 C 690.864 292.208 701.491 294.493 711.856 299.535 C 724.531 305.701 735.712 315.353 741.984 328.148 C 749.351 343.18 753.792 360.511 758.927 376.421 C 770.267 411.552 780.69 446.976 792.334 482.006 L 909.781 846.148 C 924.998 893.406 939.022 941.195 955.4 988.058 C 968.676 990.972 981.837 995.17 994.999 998.633 A 4226.21 4226.21 0 0 1 1070.99 1018.77 C 1090.83 1024.26 1112.49 1028.34 1131.57 1035.87 C 1105.55 1060.08 1078.3 1083.15 1051.48 1106.46 C 1036.91 1119.13 1022.89 1132.52 1007.96 1144.74 L 1108.07 1453.38 A 4955.03 4955.03 0 0 1 1142.02 1557.31 C 1147.3 1573.63 1154.37 1590.29 1157.71 1607.07 C 1159.86 1617.94 1157.09 1631.03 1152.54 1641.03 C 1147.6 1651.88 1138.89 1661.41 1128.31 1666.96 C 1112.22 1675.4 1092.89 1679.18 1075.63 1684.92 L 980.145 1717.6 L 798.704 1779.24 C 740.19 1798.93 681.21 1817.84 623.233 1839.04 C 607.438 1844.27 592.545 1847.85 576.471 1840.71 C 561.904 1834.23 553.015 1822.84 547.724 1808.19 C 539.469 1785.34 532.479 1761.62 525.093 1738.44 L 484.382 1611.49 L 305.334 1053.88 L 191.632 708.374 C 179.839 673.143 169.324 637.478 157.405 602.305 C 149.222 578.161 138.748 553.807 132.663 529.121 C 129.033 514.395 130.305 499.729 136.787 485.989 C 148.302 461.579 168.862 454.775 192.767 446.781 A 1398.76 1398.76 0 0 0 225.187 435.348 C 239.317 468.494 251.941 500.906 286.328 517.866 C 299.532 524.379 315.769 528.531 330.54 527.068 C 351.057 525.036 383.124 512.033 404.1 505.129 L 556.744 454.229 C 582.813 445.573 601.832 431.036 614.208 405.931 C 629.969 373.961 620.962 346.028 610.244 314.2 C 632.835 305.216 656.007 299.746 679.321 293.108 z"/>
<path transform="translate(0,0)" fill="rgb(248,160,34)" d="M 579.682 807.267 C 586.182 806.851 592.022 807.83 597.875 810.768 A 32.0793 32.0793 0 0 1 614.313 830.181 C 617.046 838.913 616.446 848.603 611.836 856.6 C 606.587 865.708 598.781 869.682 589.1 872.47 C 581.931 873.012 575.371 872.089 569.071 868.433 C 560.685 863.565 555.149 855.085 553.018 845.716 C 551.065 837.136 551.889 827.795 556.806 820.324 C 562.204 812.123 570.38 808.96 579.682 807.267 z"/>
<path transform="translate(0,0)" fill="rgb(248,160,34)" d="M 573.265 739.314 C 591.616 737.107 608.288 740.011 625.4 746.439 C 624.512 756.674 622.534 766.787 620.767 776.899 C 614.569 774.565 608.382 772.546 601.831 771.492 C 577.502 767.576 556.102 773.92 536.463 788.284 C 528.941 794.238 522.204 801.378 515.329 808.063 L 493.727 786.195 C 515.091 761.498 540.491 743.92 573.265 739.314 z"/>
<path transform="translate(0,0)" fill="rgb(248,160,34)" d="M 569.719 666.435 C 593.361 664.702 620.054 668.898 641.511 679.063 C 639.157 688.235 637.625 697.722 635.787 707.014 C 623.455 703.941 611.174 700.841 598.531 699.31 C 558.395 694.45 523.137 705.783 491.578 730.459 C 480.325 739.372 470.861 749.145 461.173 759.676 C 453.535 754.011 446.638 747.363 438.953 741.682 C 443.718 735.521 448.503 729.38 453.684 723.56 A 168.379 168.379 0 0 1 569.719 666.435 z"/>
<path transform="translate(0,0)" fill="rgb(248,160,34)" d="M 556.52 593.402 C 589.55 587.95 624.749 598.645 656.185 607.734 C 653.872 618.285 652.38 629.168 650.558 639.823 C 635.356 633.813 619.006 629.919 602.804 627.888 C 547.715 620.982 497.307 634.172 453.444 668.166 C 434.985 681.628 421.787 698 407.411 715.428 C 399.01 709.561 391.398 702.302 383.825 695.415 C 387.821 688.717 392.921 682.382 397.946 676.431 A 231.895 231.895 0 0 1 556.52 593.402 z"/>
<path transform="translate(0,0)" fill="rgb(12,49,98)" d="M 665.432 321.275 A 58.8822 58.8822 0 0 1 697.661 328.68 C 710.386 335.883 718.7 346.893 724.016 360.354 C 732.294 381.315 738.209 403.964 745 425.481 L 786.079 554.286 L 939.279 1027.51 L 1074.77 1440.17 A 10523.8 10523.8 0 0 0 1108.13 1540.49 C 1113.17 1555.78 1119.03 1571.28 1122.95 1586.87 C 1126.19 1599.75 1124.87 1611.79 1117.77 1623.22 C 1112.69 1631.41 1106.03 1636.96 1097.27 1640.84 C 1073.64 1651.31 1042.3 1659.07 1017.22 1667.88 A 14365.3 14365.3 0 0 1 773.025 1750.71 A 6765.77 6765.77 0 0 0 676.222 1783.95 C 658.888 1790.08 639.904 1798.79 621.883 1802.29 A 54.6546 54.6546 0 0 1 580.032 1793.17 C 570.965 1786.88 566.066 1779.59 562.476 1769.38 C 555.278 1748.92 550.048 1727.47 543.54 1706.73 L 499.968 1571.34 L 299.327 951.462 L 232.617 748.624 C 225.426 726.699 219.346 704.333 211.853 682.522 L 178.12 581.774 C 171.924 563.558 162.916 544.447 159.682 525.476 C 157.656 513.589 160.277 503.466 167.446 493.651 C 176.742 480.923 196.804 471.465 212.567 469.837 C 215.829 469.5 216.781 470.797 219.091 472.747 C 218.971 474.29 218.715 475.835 218.513 477.37 C 213.134 484.468 198.813 485.557 190.66 489.37 C 182.228 493.313 174.571 499.684 171.64 508.803 C 169.403 515.763 170.298 522.99 172.031 529.954 C 178.423 555.64 191.285 586.322 199.914 612.046 L 256.186 782 L 401.155 1230.21 L 536.918 1649.3 C 545.665 1676.03 554.066 1702.96 562.314 1729.85 C 566.202 1742.52 569.238 1759.5 575.662 1771 C 581.199 1780.92 591.396 1788.51 602.446 1791.09 C 610.56 1792.98 617.728 1791.93 625.582 1789.63 C 638.124 1785.95 650.412 1780.8 662.757 1776.45 L 734.822 1751.57 L 963.346 1673.69 L 1053.64 1643.52 C 1067.35 1638.93 1087.61 1634.76 1099.42 1626.91 C 1107.09 1621.82 1110.48 1614.38 1112.07 1605.49 C 1113.37 1598.24 1112.56 1591.17 1110.42 1584.18 C 1106.51 1571.37 1101.67 1558.78 1097.57 1546 L 1036.61 1360.41 L 864.591 833.319 L 770.002 540.181 C 761.022 512.153 717.952 365.615 706.509 350.492 C 695.099 335.413 676.353 329.324 658.064 334.199 C 652.151 335.776 642.796 340.365 636.754 339.078 C 635.408 338.792 634.703 337.252 634.247 336.052 C 633.207 333.311 633.329 332.607 634.625 330.238 C 641.075 326.015 657.543 322.615 665.432 321.275 z"/>
<path transform="translate(0,0)" fill="rgb(2,2,2)" d="M 674.827 879.089 C 677.722 878.773 679.747 878.591 682.588 879.541 C 690.314 887.765 702.554 934.246 707.529 947.862 C 720.883 942.908 769.911 923.979 781.149 925.784 C 781.791 926.444 781.97 926.563 782.489 927.48 C 787.3 935.975 790.172 948.903 793.422 958.294 L 821.836 1041.97 L 951.926 1432.4 C 955.943 1444.21 959.689 1456.16 963.859 1467.91 C 965.69 1473.06 968.694 1478.38 969.516 1483.78 C 969.92 1486.44 969.324 1488.29 968.343 1490.73 C 958.312 1498.18 930.009 1505.16 917.007 1509.72 L 751.002 1566.5 C 723.66 1575 697.019 1586.17 669.226 1593.21 C 661.889 1579.92 657.693 1562.85 652.61 1548.48 C 637.919 1506.98 624.59 1465.14 610.357 1423.51 L 527.737 1179.38 C 517.055 1148.36 506.958 1117.22 496.674 1086.07 C 490.831 1068.38 482.268 1048.72 479.874 1030.24 C 489.544 1022.19 529.315 1011.11 544.131 1004.59 C 540.452 984.545 522.054 953.783 523.419 934.94 C 524.562 932.971 525.942 931.948 527.954 930.966 C 539.786 925.189 553.969 921.616 566.474 917.266 C 584.615 910.955 602.584 904.173 620.774 898.001 C 638.809 891.881 657.216 886.354 674.827 879.089 z"/>
<path transform="translate(0,0)" fill="rgb(254,254,254)" d="M 669.416 903.953 C 670.547 903.882 669.735 903.872 671.768 904.594 C 678.253 920.176 684.126 937.772 688.254 954.138 A 4372.31 4372.31 0 0 1 565.222 997.145 L 563.72 996.689 C 558.326 989.319 549.987 958.645 545.978 947.863 C 562.508 939.697 580.945 934.126 598.371 928.209 L 669.416 903.953 z"/>
<path transform="translate(0,0)" fill="rgb(254,254,254)" d="M 767.429 949.042 L 768.54 949.172 C 769.072 949.606 769.741 949.913 770.136 950.475 C 773.788 955.659 779.346 976.989 781.899 984.634 A 8669.95 8669.95 0 0 1 816.561 1089.03 L 902.74 1347.57 C 917.252 1390.85 930.522 1434.7 946.095 1477.59 C 932.88 1482.92 918.954 1487.14 905.49 1491.85 A 4059.27 4059.27 0 0 1 824.743 1519.49 L 683.23 1567.15 L 681.23 1566.66 C 673.503 1555.27 668.737 1533.52 664.133 1520.18 L 622.497 1396.89 L 534.492 1135.61 C 524.372 1104.55 513.306 1073.68 504.276 1042.29 C 518.91 1035.62 534.388 1030.7 549.521 1025.29 L 620.869 999.811 L 713.848 966.978 C 731.57 960.806 749.336 954.032 767.429 949.042 z"/>
<path transform="translate(0,0)" fill="rgb(12,49,98)" d="M 798.423 1129.95 L 798.58 1130.48 L 799.847 1131.09 L 799.394 1130 C 804.284 1139.93 807.201 1151.84 810.695 1162.39 L 831.123 1223.31 C 811.207 1232.03 789.571 1238.03 769.028 1245.17 L 620.232 1296.33 L 618.942 1295.86 C 615.081 1290.81 591.535 1218.29 586.395 1205.11 C 609.295 1194.86 633.511 1187.52 657.221 1179.39 C 703.527 1163.52 752.979 1147.6 798.423 1129.95 z"/>
<path transform="translate(0,0)" fill="rgb(12,49,98)" d="M 876.24 1369 L 877.386 1369.48 C 881.835 1377.29 884.402 1387.51 887.385 1396.07 A 3455.46 3455.46 0 0 1 909.824 1464.01 C 900.109 1468.15 889.721 1471.08 879.746 1474.56 A 3203.4 3203.4 0 0 1 808.974 1498.63 C 772.825 1510.67 737.172 1524.13 700.931 1535.91 C 700.037 1535.41 699.645 1534.62 699.213 1533.68 C 694.444 1523.36 691.68 1510.24 687.978 1499.33 C 681.178 1479.29 673.194 1459.48 667.338 1439.15 L 816.225 1389 C 836.2 1382.27 856.423 1376.18 876.24 1369 z"/>
<path transform="translate(0,0)" fill="rgb(12,49,98)" d="M 836.925 1248.15 L 837.743 1248.49 C 841.085 1252.33 866.875 1331.89 870.309 1343.97 C 822.181 1362.27 772.691 1377.85 723.959 1394.5 C 702.849 1401.71 681.524 1408.55 660.848 1416.93 C 653.723 1401.01 648.46 1384.05 642.884 1367.54 C 637.481 1351.54 631.662 1335.56 627.156 1319.29 C 667.344 1304.43 708.162 1291.68 748.688 1277.85 C 777.857 1267.89 807.172 1256.05 836.925 1248.15 z"/>
<path transform="translate(0,0)" fill="rgb(248,160,34)" d="M 755.079 1004.07 C 760.958 1010.02 786.62 1089.95 791.142 1104.04 C 773.074 1111.53 753.983 1117.17 735.486 1123.56 C 684.496 1141.17 632.846 1157.37 582.217 1175.95 C 581.383 1175.98 580.433 1175.71 579.608 1175.56 C 573.419 1166.53 551.119 1091.54 545.817 1075.79 C 564.816 1068.09 584.81 1062.71 604.158 1055.9 A 9105.39 9105.39 0 0 1 755.079 1004.07 z"/>
<path transform="translate(0,0)" fill="rgb(254,254,254)" d="M 87.1076 455.434 L 86.9804 324.768 C 86.9722 290.228 83.623 247.925 91.9279 214.584 A 176.406 176.406 0 0 1 136.446 135.168 C 171.363 99.6084 214.016 83.8669 263.136 83.6386 L 1325.71 83.5401 L 1652.54 83.5508 L 1755.57 83.3491 C 1775.12 83.3342 1794.98 82.0044 1814.39 84.5916 C 1849.29 89.2412 1884.28 107.294 1909.16 132.071 C 1932.99 155.801 1948.81 186.718 1956.02 219.448 C 1960.44 239.545 1959.28 260.373 1959.38 280.826 L 1959.65 350.106 L 1959.95 613.643 L 1959.36 1505.59 L 1959.68 1723.85 C 1959.56 1751.97 1961.55 1794.91 1957.57 1821.62 C 1952.24 1857.45 1936.08 1888.24 1910.39 1913.64 C 1885.56 1938.17 1854.1 1956.59 1819.19 1961.59 C 1799.03 1964.47 1777.69 1963.15 1757.36 1963.1 L 1662.51 1962.97 L 1333.17 1963 L 251.989 1963.46 A 161.226 161.226 0 0 1 137.067 1915.29 C 113.514 1891.19 94.5164 1857.18 89.0363 1823.73 C 86.5439 1808.52 87.075 1792.79 87.0446 1777.42 L 87.0388 1716.6 L 87.314 1505.03 L 87.0345 938.404 L 86.1297 752.741 C 86.0029 723.426 87.1582 694.065 86.0851 664.772 C 104.729 715.808 120.055 768.318 136.614 820.074 L 199.117 1012.09 L 359.035 1507.77 L 431.3 1736.26 L 449.486 1792.75 C 453.995 1806.83 457.934 1821.45 464.442 1834.76 C 474.486 1855.31 492.761 1870.95 513.298 1880.53 C 532.531 1889.51 554.04 1891.27 574.863 1887.7 C 603.796 1882.74 632.054 1870.58 659.768 1861.15 L 803.344 1812.12 L 1032.94 1734.45 C 1067.74 1722.74 1103.14 1711.87 1137.58 1699.2 C 1158.24 1691.61 1173.75 1675.47 1182.8 1655.55 C 1190.31 1639.01 1191.82 1619.49 1188.75 1601.69 C 1185.85 1584.84 1178.33 1568.19 1172.84 1551.99 A 7894.61 7894.61 0 0 0 1144.64 1467.79 C 1137.84 1447.75 1131.87 1427.5 1125.36 1407.38 L 1080.84 1272.64 A 7614.35 7614.35 0 0 1 1049.4 1177.71 C 1044.86 1163.78 1039.73 1149.78 1035.81 1135.67 C 1051.87 1120.81 1068.71 1106.81 1085.03 1092.24 C 1108.53 1071.27 1131.92 1049.57 1156.64 1030.06 C 1133.39 1022.92 1109.73 1016.98 1086.26 1010.6 A 7329.33 7329.33 0 0 0 984.11 983.325 C 969.099 935.01 954.94 886.465 938.801 838.5 C 932.991 824.304 928.836 808.773 923.979 794.196 A 2708.47 2708.47 0 0 1 894.777 702.731 C 892.444 693.331 889.161 683.748 885.933 674.615 C 879.885 662.232 876.533 646.958 872.293 633.725 C 864.685 609.979 856.016 586.174 849.933 562.001 L 841.546 535.545 C 836.568 523.626 832.778 511.043 828.655 498.799 C 817.928 466.946 808.486 434.774 798.948 402.552 L 787.667 365.61 C 775.826 327.879 767.535 286.846 729.089 267.151 C 715.61 260.246 699.265 257.527 684.221 258.539 C 664.694 259.852 645.026 267.783 626.419 273.509 L 556.851 295.051 C 562.627 312.432 577.855 349.033 577.343 366.269 C 577.142 373.034 574.571 379.495 571.519 385.459 C 560.475 407.039 539.117 410.674 517.894 417.307 A 4540.04 4540.04 0 0 0 429.061 446.14 C 415.637 450.537 400.269 457.756 386.2 459.104 C 375.559 460.123 364.339 457.482 354.95 452.505 C 328.326 438.394 326.479 398.949 314.422 373.865 A 4113.74 4113.74 0 0 1 209.444 408.937 A 2290 2290 0 0 0 150.395 428.498 C 123.986 437.404 110.945 439.836 87.1076 455.434 z"/>
<path transform="translate(0,0)" fill="rgb(12,49,98)" d="M 1103.97 517.953 C 1107.7 518.285 1111.18 518.711 1113.91 521.588 C 1115.7 523.476 1116.45 525.771 1116.04 528.347 C 1115.34 532.821 1112.51 534.642 1108.98 536.869 C 1108.07 536.87 1107.16 536.885 1106.26 536.847 C 1102.93 536.707 1100.21 535.944 1098.12 533.082 C 1096.49 530.851 1096.31 528.741 1096.79 526.096 C 1097.57 521.825 1100.55 520.008 1103.97 517.953 z"/>
<path transform="translate(0,0)" fill="rgb(12,49,98)" d="M 1547.46 517.986 C 1549.52 518.257 1552.1 518.423 1554.01 519.199 C 1556.36 520.152 1558.74 522.512 1559.69 524.923 C 1560.59 527.229 1560.62 529.369 1559.38 531.573 C 1557.76 534.454 1555.48 535.481 1552.55 536.654 L 1545.85 536.856 C 1544.1 536.064 1542.87 535.495 1541.7 533.871 C 1540.11 531.654 1539.69 529.159 1540.37 526.551 C 1541.45 522.394 1543.9 520.12 1547.46 517.986 z"/>
<path transform="translate(0,0)" fill="rgb(12,49,98)" d="M 1248.47 375.067 C 1253.38 375.07 1256.85 374.644 1260.52 378.543 C 1262.37 380.502 1263.51 382.751 1263.08 385.527 C 1262.45 389.614 1259.94 391.405 1256.71 393.393 C 1251.88 393.28 1248.07 393.09 1244.57 389.285 C 1242.85 387.414 1241.77 385.231 1242.24 382.615 C 1242.91 378.892 1245.54 376.967 1248.47 375.067 z"/>
<path transform="translate(0,0)" fill="rgb(12,49,98)" d="M 1553.08 548.49 C 1554.96 548.327 1555.92 548.328 1557.65 549.117 C 1561.09 556.935 1559.33 604.987 1558.52 616.08 C 1555.15 617.6 1550.41 617.004 1546.75 616.993 C 1544.69 617.084 1543.35 616.911 1541.39 616.264 C 1539.11 598.649 1540.95 567.914 1540.99 549.02 L 1553.08 548.49 z"/>
<path transform="translate(0,0)" fill="rgb(12,49,98)" d="M 1245.09 403.211 C 1249.83 402.625 1254.63 402.97 1259.39 403.119 A 77.6325 77.6325 0 0 1 1260.71 412.719 C 1261.33 420.554 1262.67 467.251 1260.6 471.03 C 1260.15 471.852 1259.38 472.458 1258.78 473.172 C 1254.59 473.741 1249.02 474.865 1245.14 472.661 C 1243.65 471.814 1243.81 470.759 1243.59 469.212 C 1242.38 460.565 1241.47 407.969 1245.09 403.211 z"/>
<path transform="translate(0,0)" fill="rgb(12,49,98)" d="M 1097.1 547.021 C 1102.33 546.865 1108.83 545.958 1113.48 548.645 C 1116.72 556.638 1115.87 607.871 1114.76 618.654 C 1108.65 619.21 1103.65 620.508 1098.5 616.407 C 1094.54 607.844 1096.88 559.32 1097.1 547.021 z"/>
<path transform="translate(0,0)" fill="rgb(215,28,47)" d="M 849.933 562.001 L 863.823 559.016 A 4232.54 4232.54 0 0 1 889.913 636.909 C 893.477 647.913 898.25 659.262 900.499 670.599 C 895.659 671.861 890.632 672.911 885.933 674.615 C 879.885 662.232 876.533 646.958 872.293 633.725 C 864.685 609.979 856.016 586.174 849.933 562.001 z"/>
<path transform="translate(0,0)" fill="rgb(12,49,98)" d="M 1603.7 547.391 C 1609.53 547.682 1620.19 548.534 1624.37 552.827 C 1626.39 554.891 1626.22 555.59 1626.15 558.275 C 1624.44 561.393 1622.24 562.938 1619.41 565.029 C 1615.96 563.777 1612.42 562.359 1608.87 561.437 C 1605.08 560.454 1601.23 560.799 1597.96 563.065 C 1593.55 566.117 1591.42 571.47 1590.53 576.573 C 1589.29 583.705 1589.66 592.762 1594.3 598.697 C 1601.6 608.04 1611.55 599.993 1620.74 601.821 C 1623.74 602.419 1624.94 604.734 1626.56 607.095 C 1626.8 607.437 1627.03 607.784 1627.26 608.128 C 1626.98 609.051 1626.83 609.733 1626.24 610.574 C 1623.05 615.191 1615.63 616.769 1610.41 617.626 C 1600.93 619.184 1591.43 617.971 1583.64 611.99 C 1576.42 606.454 1572.5 598.129 1571.38 589.225 C 1570.1 578.962 1572.01 567.472 1578.59 559.219 C 1585.26 550.848 1593.56 548.447 1603.7 547.391 z"/>
<path transform="translate(0,0)" fill="rgb(12,49,98)" d="M 1300.43 403.203 C 1303.66 402.872 1306.94 402.461 1310.19 402.432 C 1315.64 402.383 1325.64 405.233 1329.12 409.629 C 1330.71 411.637 1330.85 412.182 1330.53 414.527 C 1325.17 421.908 1313.21 415.619 1304.87 417.261 C 1300.49 418.124 1295.75 420.185 1293.29 424.118 C 1289.26 430.56 1291.1 440.929 1293 447.907 C 1294.26 452.515 1296.18 456.517 1300.61 458.775 C 1308.41 462.747 1318.24 459.638 1326.04 457.283 L 1327.76 458.316 C 1329.6 461.77 1331.34 464.624 1330.58 468.603 C 1329.45 469.865 1328.42 470.72 1326.85 471.398 C 1316.81 475.731 1303.02 476.505 1292.78 472.48 C 1284.61 469.271 1278.69 462.924 1275.59 454.764 C 1271.81 444.809 1271.42 432.437 1275.95 422.658 C 1280.94 411.857 1289.78 407.039 1300.43 403.203 z"/>
<path transform="translate(0,0)" fill="rgb(12,49,98)" d="M 1371.4 242.224 C 1374.13 242.042 1374.61 241.627 1376.75 243.247 C 1378.45 248.421 1377.14 255.148 1376.98 260.646 C 1382.94 261.455 1388.96 261.518 1394.96 261.729 L 1394.99 274.925 L 1377.05 274.835 C 1376.95 286.182 1374.07 305.531 1379.18 315.329 C 1382.89 317.458 1387.98 317.451 1392.16 318.156 C 1395.65 318.744 1396.23 319.571 1398.13 322.33 C 1397.78 325.662 1397.28 327.667 1395.29 330.409 C 1390.98 331.31 1386.37 332.172 1381.95 332.329 C 1376.15 332.535 1370.12 330.758 1365.99 326.53 C 1355.51 315.798 1358.91 289.386 1359 275.543 C 1355.92 274.993 1352.72 274.792 1350.16 272.838 C 1348.84 269.307 1347.59 266.221 1349.03 262.529 C 1351.31 260.661 1353.66 260.983 1356.46 260.93 L 1357.81 260.914 C 1358.49 260.204 1359.09 259.658 1359.55 258.745 C 1361.09 255.676 1359.97 253.641 1359.47 250.658 C 1358.96 247.575 1358.96 247.516 1360.73 245.086 C 1364.2 243.174 1367.51 242.79 1371.4 242.224 z"/>
<path transform="translate(0,0)" fill="rgb(215,28,47)" d="M 798.948 402.552 L 813.954 398.133 C 820.822 428.553 832.4 461.411 842.595 490.993 C 847.047 503.909 852.58 517.146 855.905 530.386 A 680.816 680.816 0 0 1 841.546 535.545 C 836.568 523.626 832.778 511.043 828.655 498.799 C 817.928 466.946 808.486 434.774 798.948 402.552 z"/>
<path transform="translate(0,0)" fill="rgb(12,49,98)" d="M 1502.66 529.166 C 1506.39 528.902 1508.79 528.246 1512 530.308 C 1514.56 535.437 1513.97 543.104 1514.88 548.972 L 1530.39 549.062 C 1530.44 553.682 1530.2 558.316 1530.06 562.934 C 1524.44 562.608 1518.8 562.668 1513.18 562.644 C 1513.13 573.303 1511.78 584.989 1513.34 595.511 C 1515.07 607.236 1522.93 601.052 1529.43 605.821 C 1531.41 609.094 1530.42 613.64 1529.8 617.257 C 1526.31 617.919 1522.69 618.13 1519.15 618.333 C 1512.53 618.711 1505.85 617.568 1500.92 612.78 C 1490.59 602.758 1493.92 578.004 1494.06 564.554 C 1492.8 564.334 1491.52 564.119 1490.27 563.829 C 1487.05 563.081 1485.62 562.078 1483.87 559.308 C 1483.64 556.303 1484.13 554.744 1485.15 551.99 C 1486.88 550.22 1487.95 549.882 1490.29 549.445 C 1492.25 549.08 1493.48 548.87 1495.15 547.69 C 1497.33 542.97 1495.15 539.478 1496.43 534.991 C 1497.3 531.925 1500.1 530.579 1502.66 529.166 z"/>
<path transform="translate(0,0)" fill="rgb(215,28,47)" d="M 894.777 702.731 L 909.898 699.312 C 916.893 723.823 925.368 747.861 933.338 772.064 C 939.92 792.049 945.869 812.254 953.627 831.834 L 938.801 838.5 C 932.991 824.304 928.836 808.773 923.979 794.196 A 2708.47 2708.47 0 0 1 894.777 702.731 z"/>
<path transform="translate(0,0)" fill="rgb(12,49,98)" d="M 1167.77 404.194 C 1173.44 404.113 1179.07 404.47 1184.73 404.811 A 1826.96 1826.96 0 0 0 1201.33 453.549 C 1206.17 436.796 1210.54 420.242 1218.06 404.447 L 1234.85 404.436 L 1228.96 420.066 C 1222.17 437.809 1217.21 456.24 1210.13 473.876 C 1204.36 474.638 1198.52 474.452 1192.71 474.426 C 1184.98 459.498 1168.96 420.583 1167.77 404.194 z"/>
<path transform="translate(0,0)" fill="rgb(12,49,98)" d="M 1656.16 547.189 C 1656.33 547.18 1656.51 547.169 1656.68 547.162 C 1663.7 546.908 1677.04 547.605 1681.79 553.415 C 1683.13 555.048 1683.66 557.144 1683.05 559.189 C 1679.66 570.361 1661.08 556.697 1653.33 562.044 C 1650.85 563.749 1650.15 566.493 1649.91 569.293 C 1652.97 575.187 1669.66 577.668 1676 581.077 C 1680.58 583.541 1685.16 587.161 1686.46 592.452 C 1687.66 597.326 1685.78 603.033 1683.29 607.215 C 1679.12 614.201 1671.89 616.3 1664.54 618.307 C 1655.49 619.415 1645.46 618.392 1637.09 614.512 C 1634.06 613.106 1632.62 611.802 1631.52 608.668 C 1631.96 606.666 1632.88 605.543 1634.37 604.143 C 1640.69 598.185 1650.25 605.39 1657.97 605.513 C 1661.33 605.567 1663.81 604.669 1666.02 601.972 C 1667.66 599.968 1667.55 598.177 1667.32 595.774 C 1661.75 588.501 1650.37 590.078 1642.7 585.925 C 1637.77 583.259 1635.49 577.59 1634.3 572.378 C 1633.15 567.39 1633.66 562.199 1636.51 557.866 C 1641.02 551.007 1648.54 548.712 1656.16 547.189 z"/>
<path transform="translate(0,0)" fill="rgb(12,49,98)" d="M 1447.68 547.219 C 1454.33 546.628 1464 547.059 1470.4 549.155 C 1472.74 549.921 1474.49 551.354 1475.42 553.699 C 1476.45 556.325 1475.61 558.395 1474.62 560.786 C 1467.9 566.433 1460.98 559.727 1453.2 560.32 C 1450.37 560.536 1447.19 561.441 1445.51 563.929 C 1443.89 566.327 1443.95 566.991 1444.58 569.586 C 1451.32 574.395 1460.37 575.61 1467.69 579.672 C 1473.16 582.705 1479.38 587.858 1480.77 594.294 C 1481.65 598.354 1480.12 602.43 1477.87 605.774 C 1471.78 614.835 1464.1 617.136 1453.92 619.009 C 1446.75 619.114 1439.88 619.011 1433.27 615.881 C 1429.14 613.926 1425.33 611.503 1423.68 607.073 C 1424.09 604.93 1424.29 603.957 1426.4 602.753 C 1431.17 600.036 1437.1 602.204 1441.89 603.583 C 1447.63 605.233 1453.86 606.223 1459.23 602.9 C 1461.78 601.317 1462.57 599.133 1463.09 596.33 C 1460.01 590.52 1447.38 589.744 1441.19 587.479 C 1435.66 585.45 1430.58 581.999 1428.31 576.35 C 1426.36 571.507 1425.91 564.244 1428.3 559.465 C 1431.9 552.283 1440.54 549.422 1447.68 547.219 z"/>
<path transform="translate(0,0)" fill="rgb(12,49,98)" d="M 1273.69 548.234 C 1278.26 548.194 1284.19 547.668 1288.31 549.771 C 1288.62 551.621 1288.99 553.013 1289.81 554.702 C 1300.81 553.917 1306.89 545.089 1318.92 548.278 C 1325.51 550.027 1329.25 552.701 1332.51 558.789 C 1337.69 568.458 1339.13 604.783 1336.15 615.571 C 1334.81 616.974 1333.8 617.729 1331.92 618.188 C 1328.26 619.082 1324.61 619.02 1321.39 616.946 C 1316.44 610.404 1318.78 597.4 1318.9 589.5 C 1318.99 582.848 1320.5 571.534 1316.08 565.954 C 1313.96 563.278 1310.9 562.326 1307.6 562.037 C 1303.69 561.693 1299.84 562.435 1296.91 565.202 C 1288.02 573.595 1291.37 605.416 1290.85 617.886 C 1285.16 618.465 1279.48 618.346 1273.76 618.322 C 1273.05 595.018 1273.59 571.551 1273.69 548.234 z"/>
<path transform="translate(0,0)" fill="rgb(12,49,98)" d="M 1153.96 548.333 A 96.2126 96.2126 0 0 1 1156.51 548.136 C 1164.26 547.658 1172.89 548.021 1178.89 553.614 C 1189.45 563.465 1185.87 585.783 1185.79 598.875 C 1185.75 604.399 1186.48 610.022 1186.77 615.555 C 1178.96 626.392 1176.19 614.536 1168.06 615.336 C 1162.09 615.923 1156.79 619.471 1150.92 620.331 C 1144.14 621.325 1137.84 617.639 1132.64 613.759 C 1128.7 608.934 1127.03 604.013 1126.09 597.905 C 1125.51 594.199 1126.71 590.676 1128.96 587.745 C 1137.51 576.612 1154.09 576.845 1166.78 575.559 C 1168.33 573.742 1168.5 572.784 1168.39 570.469 C 1168.23 567.354 1167.31 565.632 1165.06 563.456 C 1155.83 560.3 1147.57 563.72 1138.81 566.734 C 1136.96 564.977 1134.27 562.644 1133.33 560.204 C 1132.31 557.528 1133.19 556.407 1134.44 554.167 C 1140.17 550.083 1147.18 549.444 1153.96 548.333 z"/>
<path transform="translate(0,0)" fill="rgb(254,254,254)" d="M 1162.61 588.445 C 1165.43 588.284 1165.88 587.648 1168.19 589.486 C 1169.72 594.298 1168.57 599.718 1168.07 604.673 C 1163.27 606.295 1158.87 607.255 1153.87 607.996 C 1153.35 607.832 1152.83 607.683 1152.32 607.506 C 1148.81 606.288 1146.1 603.484 1144.62 600.147 C 1144.51 597.661 1144.72 596.357 1146.3 594.348 C 1150.91 588.499 1155.88 588.731 1162.61 588.445 z"/>
<path transform="translate(0,0)" fill="rgb(12,49,98)" d="M 1113.62 259.1 C 1121.97 258.471 1128.91 258.581 1136.18 263.252 C 1144.43 268.549 1149.18 277.604 1150.98 287.049 C 1151.68 290.685 1152.05 295.145 1149.62 298.227 C 1145.69 303.205 1111.19 300.871 1103.59 301.093 L 1104.92 304.284 C 1107.14 309.709 1109.56 313.785 1115.01 316.496 C 1123.89 320.917 1134.98 316.675 1143.7 313.813 C 1144.34 314.556 1145.01 315.281 1145.6 316.072 C 1147.52 318.653 1147.53 320.649 1146.98 323.694 C 1144.88 326.653 1142.45 328.325 1139.09 329.705 C 1129.14 333.786 1115.06 333.054 1105.37 328.583 A 30.615 30.615 0 0 1 1088.86 309.974 C 1085.6 300.007 1086.1 284.228 1091.5 274.796 C 1096.41 266.215 1104.43 261.828 1113.62 259.1 z"/>
<path transform="translate(0,0)" fill="rgb(254,254,254)" d="M 1117.1 271.048 C 1119.82 270.938 1122.39 270.907 1124.92 272.105 A 17.756 17.756 0 0 1 1134.04 282.171 C 1133.78 285.066 1133.46 285.504 1131.75 287.895 C 1128.4 289.989 1124.32 289.353 1120.51 289.226 C 1115.68 289.34 1110.83 289.958 1106.37 287.824 C 1104.46 285.652 1104.29 285.668 1104.17 282.808 C 1106.75 277.545 1111.91 273.535 1117.1 271.048 z"/>
<path transform="translate(0,0)" fill="rgb(12,49,98)" d="M 1362.44 403.18 C 1368.25 402.707 1373.74 402.22 1379.46 403.844 C 1387.11 406.018 1393.3 411.549 1397.03 418.493 C 1399.65 423.384 1403.31 432.853 1400.93 438.316 C 1395.99 449.65 1365.02 440.596 1354.62 445.637 C 1353.87 447.015 1353.25 447.372 1353.68 449.022 C 1354.61 452.556 1357.67 456.112 1360.67 458.135 C 1368.89 463.679 1381.15 460.486 1390.08 458.44 C 1390.89 458.367 1392.24 458.203 1393.02 458.326 C 1394.5 458.562 1395.58 459.084 1396.26 460.411 C 1397.37 462.577 1397.67 465.522 1396.65 467.808 C 1395.69 469.946 1393.64 471.426 1391.57 472.362 C 1382.32 476.539 1363.72 476.039 1354.43 472.216 C 1346.42 468.914 1340.54 462.305 1337.58 454.219 C 1333.93 444.219 1334.59 432.304 1339.06 422.669 C 1343.98 412.056 1351.82 406.913 1362.44 403.18 z"/>
<path transform="translate(0,0)" fill="rgb(254,254,254)" d="M 1366.09 416.142 C 1368.36 416.195 1370.85 416.154 1373.05 416.748 C 1376.52 417.682 1381.31 421.625 1382.64 424.996 C 1383.61 427.452 1382.88 428.542 1381.85 430.697 C 1378.88 432.953 1375.49 432.326 1371.96 432.222 C 1367.57 432.301 1360.3 433.212 1356.21 432.025 C 1354.23 431.448 1354 430.673 1353.03 429.016 C 1353.24 427.753 1353.21 427.479 1353.87 426.157 C 1356.38 421.052 1360.85 417.822 1366.09 416.142 z"/>
<path transform="translate(0,0)" fill="rgb(12,49,98)" d="M 1429.77 259.12 A 64.6991 64.6991 0 0 1 1438.1 259.15 C 1446.16 259.714 1454.28 262.731 1459.56 269.061 C 1463.66 273.973 1468.47 287.449 1467.08 293.864 C 1463.34 311.069 1430.05 297.045 1419.39 303.474 L 1418.85 305.746 C 1420.86 310.466 1423.04 313.854 1427.71 316.294 C 1437.24 321.274 1447.96 318.492 1457.64 315.664 L 1459.56 315.71 C 1460.58 316.589 1460.95 316.832 1461.83 317.988 C 1463.37 320.013 1463.76 322.455 1463.34 324.888 C 1461.82 327.452 1460.18 328.54 1457.44 329.557 C 1446.88 333.477 1427.4 333.553 1417.46 328.471 C 1410.31 324.814 1405.75 318.364 1403.44 310.787 C 1400.12 299.864 1400.46 286.326 1406.02 276.172 C 1411.31 266.534 1419.48 261.924 1429.77 259.12 z"/>
<path transform="translate(0,0)" fill="rgb(254,254,254)" d="M 1429.81 273.203 C 1432.79 272.992 1435.92 272.786 1438.84 273.538 C 1442.76 274.546 1447.89 278.919 1449.37 282.711 C 1450.35 285.244 1449.85 286.347 1448.93 288.668 C 1445.94 290.665 1444.2 290.442 1440.66 290.709 A 368.313 368.313 0 0 1 1418.07 290.458 C 1420.58 282.142 1422.3 278.023 1429.81 273.203 z"/>
<path transform="translate(0,0)" fill="rgb(12,49,98)" d="M 1127.99 401.185 C 1136.59 400.667 1144.43 402.594 1151.06 408.259 C 1158.15 414.311 1163.23 424.924 1163.89 434.194 C 1164.11 437.366 1163.62 439.582 1161.41 441.984 C 1153.63 445.787 1125.66 443.215 1115.5 443.429 C 1117.04 448.851 1118.49 454.47 1123.55 457.685 C 1132.12 463.14 1147.1 458.273 1156.46 456.419 C 1158.66 459.646 1160.96 462.434 1160.66 466.506 C 1158.44 470.298 1155.15 472.402 1150.97 473.617 C 1139.73 476.89 1123.75 476.069 1113.6 470.258 C 1105.47 465.602 1099.93 457.974 1097.89 448.848 C 1095.66 438.888 1097.45 423.978 1103.46 415.475 C 1109.34 407.154 1118.31 403.131 1127.99 401.185 z"/>
<path transform="translate(0,0)" fill="rgb(254,254,254)" d="M 1126.96 415.088 C 1130.56 414.67 1134.1 414.304 1137.56 415.648 C 1140.72 416.874 1144.23 420.872 1145.49 423.962 C 1146.42 426.242 1145.96 427.902 1145.17 430.084 C 1142.51 432.133 1141.53 431.823 1138.25 431.977 C 1132.45 432.002 1123.71 433.437 1118.63 430.456 C 1116.49 429.202 1116.56 428.791 1115.98 426.521 C 1117.93 421.46 1122.5 417.875 1126.96 415.088 z"/>
<path transform="translate(0,0)" fill="rgb(12,49,98)" d="M 1376.01 548.176 C 1384.7 547.518 1393.44 548.246 1401.16 552.633 C 1409.13 557.155 1414.41 564.661 1416.71 573.458 C 1419.31 583.413 1418.36 595.648 1413 604.572 C 1407.41 613.876 1398.94 616.477 1389.01 618.713 C 1379.58 619.502 1371.25 619.129 1362.96 614.053 A 33.2958 33.2958 0 0 1 1347.72 593.016 C 1345.38 582.923 1347.45 571.514 1353.22 562.912 C 1358.75 554.659 1366.47 550.231 1376.01 548.176 z"/>
<path transform="translate(0,0)" fill="rgb(254,254,254)" d="M 1381.62 562.022 C 1384.75 561.893 1388.37 562.172 1391.19 563.638 C 1395.29 565.77 1398.08 569.818 1399.44 574.16 C 1401.83 581.848 1400.65 591.153 1396.53 598.052 C 1393.37 603.352 1390.01 604.731 1384.21 606.31 C 1381.73 605.888 1379.05 605.529 1376.73 604.533 C 1371.9 602.461 1368.37 597.612 1366.67 592.777 A 26.4181 26.4181 0 0 1 1368 572.504 C 1371.1 566.371 1375.26 564.015 1381.62 562.022 z"/>
<path transform="translate(0,0)" fill="rgb(12,49,98)" d="M 1301.34 259.251 C 1309.2 258.691 1316.89 258.058 1324.52 260.621 C 1332.73 263.38 1339.13 269.264 1342.7 277.154 C 1347.3 287.328 1347.27 300.239 1342.99 310.507 C 1338.38 321.536 1330.39 327.152 1319.82 331.607 C 1312.18 333.029 1305.13 332.93 1297.83 329.918 A 35.066 35.066 0 0 1 1278.57 310.395 C 1274.53 300.112 1275.07 286.726 1279.98 276.821 C 1284.54 267.633 1291.82 262.448 1301.34 259.251 z"/>
<path transform="translate(0,0)" fill="rgb(254,254,254)" d="M 1307.22 273.15 C 1309.72 273.025 1312.77 272.654 1315.19 273.349 C 1319.16 274.489 1321.81 276.914 1323.93 280.41 C 1328.12 287.318 1328.13 297.087 1325.85 304.628 C 1323.93 311.017 1321.43 314.269 1315.64 317.475 C 1312.87 317.414 1309.78 317.514 1307.09 316.8 C 1302.27 315.522 1298.47 311.217 1296.42 306.851 C 1293.2 299.982 1293.29 290.907 1295.94 283.878 C 1298.27 277.709 1301.38 275.804 1307.22 273.15 z"/>
<path transform="translate(0,0)" fill="rgb(12,49,98)" d="M 1201.22 259.207 C 1201.66 259.207 1202.1 259.226 1202.54 259.247 C 1210.8 259.649 1215.15 262.626 1220.57 268.672 C 1227.76 263.386 1235.73 258.847 1244.96 259.107 C 1250.13 259.253 1254.79 261.228 1258.33 265.038 C 1268.74 276.24 1265.45 301.625 1265.11 315.94 C 1265.04 319.118 1265.29 327.141 1262.84 329.065 C 1260.07 331.241 1255.34 331.181 1252.02 330.486 C 1250.56 330.181 1248.13 329.554 1247.3 328.289 C 1241.83 319.991 1251.15 288.14 1244.14 276.396 C 1241.69 274.735 1238.91 274.188 1235.98 273.984 C 1232.77 273.761 1229.47 274.775 1227.15 277.055 C 1219.64 284.406 1222.66 313.156 1222.7 324.25 C 1222.76 326.037 1222.55 327.129 1221.92 328.802 C 1217.39 331.511 1210.24 330.374 1205.06 330.2 C 1204.86 318.436 1207.82 290.587 1203.82 280.917 C 1202.63 278.056 1200.64 275.839 1197.61 274.905 C 1191.84 273.13 1185.77 277.227 1180.95 279.912 C 1180.49 296.827 1181.26 313.774 1180.37 330.682 C 1176.32 330.933 1170.21 331.905 1166.38 330.595 C 1165.06 330.143 1163.79 329.8 1163.35 328.399 C 1161.66 323.075 1162.4 264.67 1164.14 260.535 C 1165.93 259.592 1167.48 258.627 1169.58 258.644 C 1172.54 258.668 1174.24 260.279 1176.12 262.303 C 1177.42 263.7 1178.54 264.863 1180.12 265.968 C 1187.13 263.196 1193.85 260.837 1201.22 259.207 z"/>
<path transform="translate(0,0)" fill="rgb(12,49,98)" d="M 1256.77 547.443 C 1258.72 547.162 1260.42 547.283 1262.38 547.471 C 1262.93 548.251 1263.74 549.346 1264.13 550.185 C 1265.21 552.502 1265.18 553.449 1264.59 555.77 C 1262.37 558.342 1259.96 558.894 1256.77 559.923 C 1252.93 561.166 1257.19 578.614 1250.6 586.26 C 1240.84 597.579 1223.66 591.005 1216.17 599.011 L 1216.34 601.137 C 1223.02 607.642 1246.19 603.004 1257.63 611.865 C 1260.96 614.443 1262.83 618.543 1263.36 622.652 C 1264.06 627.956 1261.89 633.221 1258.61 637.318 C 1252.3 645.208 1244.79 647.937 1235.09 649.13 A 147.422 147.422 0 0 1 1225.07 649.566 C 1216.38 649.57 1205.82 647.125 1199.68 640.514 C 1197.19 637.83 1195.51 634.446 1195.9 630.691 C 1196.69 623.234 1202.86 618.857 1208.46 614.902 C 1207.27 613.939 1206.08 612.987 1204.95 611.95 C 1202.31 609.525 1199.93 606.787 1200.21 602.926 C 1200.56 598.078 1204.87 594.576 1208.07 591.354 C 1202.27 586.579 1197.97 582.3 1197.23 574.474 C 1196.62 568.032 1197.94 561.279 1202.38 556.383 C 1213.95 543.641 1240.83 548.354 1256.77 547.443 z"/>
<path transform="translate(0,0)" fill="rgb(254,254,254)" d="M 1222.26 561.118 C 1224.47 560.949 1226.92 560.617 1229.12 560.802 C 1231.87 561.033 1234.05 562.538 1235.74 564.646 C 1237.75 567.15 1238.52 570.2 1237.95 573.38 C 1237.11 578.124 1234.76 580.976 1230.86 583.6 C 1229.41 583.765 1227.96 583.928 1226.5 584.002 C 1223.04 584.178 1220.15 583.301 1217.74 580.616 C 1215.6 578.222 1214.79 575.136 1215.24 572.003 C 1215.96 567.015 1218.4 564.118 1222.26 561.118 z"/>
<path transform="translate(0,0)" fill="rgb(254,254,254)" d="M 1217.57 619.226 C 1225.01 619.058 1239.31 617.82 1245.01 623.22 C 1247.06 625.167 1246.64 626.333 1246.4 628.863 C 1244.48 631.981 1242.67 633.893 1239.85 636.211 C 1232.64 638.201 1224.57 639.157 1217.77 635.143 C 1215.59 633.851 1213.96 632.011 1213.54 629.426 C 1212.87 625.323 1215.31 622.309 1217.57 619.226 z"/>
<path transform="translate(0,0)" fill="rgb(12,49,98)" d="M 1009.78 234.164 C 1025.05 234.116 1045.32 231.962 1059.78 236.788 C 1066.39 238.993 1072.21 243.151 1075.31 249.53 C 1078.46 256.01 1078.75 264.969 1076.3 271.715 C 1072.98 280.854 1065.22 285.264 1057.02 289.355 C 1067.38 301.461 1074.59 316.808 1081.97 330.844 C 1076.03 331.148 1068.69 332.003 1062.93 330.379 C 1054.46 318.603 1049.43 304.041 1039.96 293.186 C 1035.48 292.938 1030.94 293.038 1026.46 292.982 C 1026.08 305.461 1026.68 318.092 1026.92 330.579 C 1020.8 331.193 1014.65 331.154 1008.51 331.227 C 1007.98 318.674 1006.41 240.162 1009.78 234.164 z"/>
<path transform="translate(0,0)" fill="rgb(254,254,254)" d="M 1026.98 249.38 C 1035.94 249.105 1045.94 248.105 1053.86 253.224 C 1056.72 255.065 1058.5 257.315 1059.11 260.732 C 1060 265.713 1056.59 271.507 1053.61 275.188 C 1044.98 280.398 1036.65 279.506 1026.91 279.511 L 1026.98 249.38 z"/>
<path transform="translate(0,0)" fill="rgb(12,49,98)" d="M 1010.06 379.371 C 1029.72 379.05 1058.02 375.332 1074.35 388.422 C 1083.01 395.364 1086.59 405.524 1087.79 416.231 C 1089.76 433.842 1086.23 448.754 1074.98 462.646 C 1056.68 477.851 1032.17 474.618 1010.07 474.172 A 4166.39 4166.39 0 0 1 1010.06 379.371 z"/>
<path transform="translate(0,0)" fill="rgb(254,254,254)" d="M 1041.52 394.455 C 1042.28 394.426 1043.05 394.388 1043.82 394.414 C 1050.89 394.656 1057.01 396.656 1061.75 402.102 C 1068.36 409.702 1069.71 422.122 1068.63 431.777 C 1067.42 442.484 1063.29 449.493 1055.02 456.178 C 1046.35 459.93 1038.02 459.218 1028.77 459.032 A 5703.73 5703.73 0 0 1 1028.49 395.137 L 1041.52 394.455 z"/>
<path transform="translate(0,0)" fill="rgb(12,49,98)" d="M 1007.58 520.868 C 1027.2 520.623 1052.8 517.702 1069.9 529.359 C 1078.25 535.045 1082.74 543.684 1084.34 553.509 C 1087.31 571.708 1083.99 590.616 1073.04 605.541 C 1056.44 620.334 1028.68 618.147 1007.91 617.119 C 1007.09 585.1 1007.69 552.904 1007.58 520.868 z"/>
<path transform="translate(0,0)" fill="rgb(254,254,254)" d="M 1025.11 535.827 C 1034.91 535.276 1048.75 534.346 1056.96 540.555 C 1062.64 544.847 1065.15 552.229 1066.12 559.009 C 1067.9 571.376 1066.25 585.054 1058.81 595.305 C 1049.19 604.121 1038.02 604.153 1025.79 604.085 A 5433.37 5433.37 0 0 1 1025.11 535.827 z"/>
<path transform="translate(0,0)" fill="rgb(215,28,47)" d="M 314.422 373.865 C 307.076 351.666 287.191 307.565 285.212 287.304 C 284.316 278.136 285.524 269.659 289.348 261.256 C 296.767 244.948 308.371 237.916 324.454 232.074 C 341.439 225.904 359.164 221.49 376.341 215.827 A 4425.16 4425.16 0 0 1 438.543 195.346 C 450.719 191.357 464.686 185.094 477.425 184.068 C 486.608 183.329 496.75 185.97 505.025 189.939 C 514.008 194.249 521.759 200.606 527.28 208.967 C 538.656 226.191 549.357 273.179 556.851 295.051 C 562.627 312.432 577.855 349.033 577.343 366.269 C 577.142 373.034 574.571 379.495 571.519 385.459 C 560.475 407.039 539.117 410.674 517.894 417.307 A 4540.04 4540.04 0 0 0 429.061 446.14 C 415.637 450.537 400.269 457.756 386.2 459.104 C 375.559 460.123 364.339 457.482 354.95 452.505 C 328.326 438.394 326.479 398.949 314.422 373.865 z"/>
<path transform="translate(0,0)" fill="rgb(254,254,254)" d="M 451.218 364.032 C 453.502 364.19 455.733 364.345 457.939 364.999 C 462.251 366.279 465.72 369.503 467.676 373.521 A 16.7547 16.7547 0 0 1 468.125 387.018 C 465.815 392.862 462.082 395.068 456.456 397.261 C 453.884 397.151 451.219 397.094 448.781 396.185 C 444.563 394.613 441.044 391.063 439.295 386.942 A 16.3791 16.3791 0 0 1 439.498 373.832 C 441.964 368.394 445.895 366.187 451.218 364.032 z"/>
<path transform="translate(0,0)" fill="rgb(254,254,254)" d="M 420.364 238.092 C 420.704 238.216 421.011 238.433 421.276 238.679 C 427.667 244.603 451.944 333.003 451.769 343.437 C 451.041 344.382 450.347 345.025 449.277 345.579 C 445.659 347.45 436.988 350.554 433.122 349.411 L 431.223 345.678 C 417.633 314.54 400.324 283.104 391.051 250.413 C 400.379 244.582 409.889 241.331 420.364 238.092 z"/>
<path transform="translate(0,0)" fill="rgb(12,49,98)" d="M 1556.57 1292.41 C 1595.96 1287.99 1645.46 1297.42 1682.12 1312.77 A 294.33 294.33 0 0 1 1751.36 1354.15 C 1809.33 1400.01 1847.18 1470.86 1855.71 1543.98 A 292.068 292.068 0 0 1 1794.95 1758.16 C 1743.88 1821.92 1672.64 1856.86 1592.24 1865.82 A 283.479 283.479 0 0 1 1385.95 1798.42 C 1331.71 1752.57 1294.7 1680.04 1288.87 1609.46 A 294.205 294.205 0 0 1 1360.33 1391.24 C 1410.56 1332.59 1479.77 1298.28 1556.57 1292.41 z"/>
<path transform="translate(0,0)" fill="rgb(254,254,254)" d="M 1806.27 1720.84 C 1786.36 1757.38 1755.56 1788.58 1720.5 1810.87 A 278.092 278.092 0 0 1 1509.71 1848.82 C 1439.49 1833.16 1378.17 1787.38 1339.97 1726.88 C 1301.29 1665.63 1290.42 1592.36 1306.4 1522.03 A 285.373 285.373 0 0 1 1431.27 1344.49 C 1494.27 1305.1 1568.5 1294.01 1640.54 1310.98 C 1707.39 1326.72 1767.7 1371.78 1803.76 1429.77 L 1775.59 1429.94 C 1731.49 1375.81 1672.38 1337.81 1601.93 1330.6 C 1536.55 1323.9 1471.83 1341.9 1420.74 1383.76 A 259.427 259.427 0 0 0 1326.17 1559.95 A 245.886 245.886 0 0 0 1382.97 1742.43 C 1390.07 1750.99 1397.56 1759.31 1406.03 1766.53 C 1408.43 1762.98 1409.24 1759.12 1410.32 1755.03 C 1413.3 1759.32 1417.36 1762.43 1421.32 1765.78 C 1417.88 1767.11 1414.97 1768.23 1412.1 1770.58 L 1411.51 1772.39 L 1412.08 1773.34 C 1463.08 1814.51 1523.59 1834.89 1589.29 1829.42 C 1647.45 1824.58 1704.43 1797.87 1746.24 1757.11 C 1758.06 1745.58 1767.71 1732.65 1778.35 1720.14 C 1787.64 1720.41 1796.97 1720.88 1806.27 1720.84 z"/>
<path transform="translate(0,0)" fill="rgb(79,45,81)" d="M 1410.32 1755.03 C 1413.3 1759.32 1417.36 1762.43 1421.32 1765.78 C 1417.88 1767.11 1414.97 1768.23 1412.1 1770.58 L 1411.51 1772.39 L 1412.08 1773.34 C 1410.34 1775.26 1408.08 1777.24 1405.95 1778.72 C 1404.02 1780.07 1402.97 1780.34 1400.67 1779.78 L 1399.98 1777.44 C 1400.71 1773.08 1403.46 1770.02 1406.03 1766.53 C 1408.43 1762.98 1409.24 1759.12 1410.32 1755.03 z"/>
<path transform="translate(0,0)" fill="rgb(12,49,98)" d="M 1406.03 1766.53 C 1397.56 1759.31 1390.07 1750.99 1382.97 1742.43 A 245.886 245.886 0 0 1 1326.17 1559.95 A 259.427 259.427 0 0 1 1420.74 1383.76 C 1471.83 1341.9 1536.55 1323.9 1601.93 1330.6 C 1672.38 1337.81 1731.49 1375.81 1775.59 1429.94 L 1803.76 1429.77 C 1832.44 1463.24 1849.98 1549.45 1846.72 1593.8 C 1843.83 1633.03 1829.01 1688.82 1806.27 1720.84 C 1796.97 1720.88 1787.64 1720.41 1778.35 1720.14 C 1767.71 1732.65 1758.06 1745.58 1746.24 1757.11 C 1704.43 1797.87 1647.45 1824.58 1589.29 1829.42 C 1523.59 1834.89 1463.08 1814.51 1412.08 1773.34 L 1411.51 1772.39 L 1412.1 1770.58 C 1414.97 1768.23 1417.88 1767.11 1421.32 1765.78 L 1422.2 1765.92 C 1441.95 1752.79 1459.34 1735.25 1476.81 1719.26 C 1520.52 1718.35 1564.41 1719.44 1608.13 1719.53 A 8293.91 8293.91 0 0 1 1762.86 1719.91 C 1792.14 1678.99 1809.93 1636.52 1811.83 1585.7 C 1813.77 1533.7 1797.07 1469.61 1760.82 1430.82 C 1720.86 1382.13 1663.56 1348.09 1600.32 1341.75 C 1535.42 1335.25 1474.64 1355.24 1424.48 1396.31 C 1374.57 1437.17 1343.09 1498.92 1336.87 1562.91 C 1330.75 1625.8 1352.37 1687.2 1392.44 1735.36 C 1397.91 1741.94 1403.81 1748.55 1410.13 1754.32 L 1410.32 1755.03 C 1409.24 1759.12 1408.43 1762.98 1406.03 1766.53 z"/>
<path transform="translate(0,0)" fill="rgb(215,28,47)" d="M 1803.76 1429.77 C 1832.44 1463.24 1849.98 1549.45 1846.72 1593.8 C 1843.83 1633.03 1829.01 1688.82 1806.27 1720.84 C 1796.97 1720.88 1787.64 1720.41 1778.35 1720.14 C 1795.98 1694.35 1810.67 1663.3 1818.22 1632.9 C 1830.43 1583.79 1825.24 1528.05 1804.61 1481.84 C 1796.54 1463.75 1785.82 1446.86 1775.59 1429.94 L 1803.76 1429.77 z"/>
<path transform="translate(0,0)" fill="rgb(254,254,254)" d="M 1476.81 1719.26 C 1520.52 1718.35 1564.41 1719.44 1608.13 1719.53 A 8293.91 8293.91 0 0 1 1762.86 1719.91 C 1731.53 1767.42 1671.3 1803.04 1616.23 1814.56 A 233.57 233.57 0 0 1 1441.19 1780.67 C 1434.44 1776.24 1428.3 1771.18 1422.2 1765.92 C 1441.95 1752.79 1459.34 1735.25 1476.81 1719.26 z"/>
<path transform="translate(0,0)" fill="rgb(215,28,47)" d="M 1410.13 1754.32 C 1403.81 1748.55 1397.91 1741.94 1392.44 1735.36 C 1352.37 1687.2 1330.75 1625.8 1336.87 1562.91 C 1343.09 1498.92 1374.57 1437.17 1424.48 1396.31 C 1474.64 1355.24 1535.42 1335.25 1600.32 1341.75 C 1663.56 1348.09 1720.86 1382.13 1760.82 1430.82 C 1797.07 1469.61 1813.77 1533.7 1811.83 1585.7 C 1809.93 1636.52 1792.14 1678.99 1762.86 1719.91 A 8293.91 8293.91 0 0 0 1608.13 1719.53 C 1564.41 1719.44 1520.52 1718.35 1476.81 1719.26 C 1459.34 1735.25 1441.95 1752.79 1422.2 1765.92 L 1421.32 1765.78 C 1417.36 1762.43 1413.3 1759.32 1410.32 1755.03 L 1410.13 1754.32 z"/>
<path transform="translate(0,0)" fill="rgb(254,254,254)" d="M 1410.13 1754.32 C 1403.81 1748.55 1397.91 1741.94 1392.44 1735.36 C 1352.37 1687.2 1330.75 1625.8 1336.87 1562.91 C 1343.09 1498.92 1374.57 1437.17 1424.48 1396.31 C 1474.64 1355.24 1535.42 1335.25 1600.32 1341.75 C 1663.56 1348.09 1720.86 1382.13 1760.82 1430.82 C 1716.58 1429.64 1672.2 1430.27 1627.94 1430.31 L 1417.36 1429.98 C 1417.57 1479.27 1418.35 1528.46 1417.17 1577.77 L 1495.16 1577.42 C 1502.13 1557.32 1507.98 1536.83 1516.64 1517.36 C 1527.07 1547.43 1534.32 1578.66 1543.28 1609.2 C 1547.16 1587.44 1549.13 1565.26 1552.21 1543.37 C 1555.7 1518.59 1560.26 1493.79 1562.69 1468.9 A 2112.11 2112.11 0 0 1 1582.03 1556.74 C 1586.64 1579.64 1590.41 1603.34 1597.15 1625.71 A 5466.34 5466.34 0 0 0 1611.15 1546.75 C 1619.9 1559.46 1626.95 1574.35 1636.94 1585.98 L 1643.96 1575.91 A 2719.06 2719.06 0 0 1 1717.76 1577.07 C 1738.42 1577.56 1760.2 1577.69 1780.57 1581.27 C 1763.69 1584.28 1746.14 1584.13 1729.04 1584.54 A 4445.61 4445.61 0 0 1 1652.7 1585.59 C 1648.12 1596.16 1643.49 1607.09 1636.97 1616.62 C 1630.84 1604.72 1625.49 1591.95 1618.55 1580.54 C 1612.63 1616.75 1604.79 1652.88 1596.45 1688.61 C 1587.38 1656.84 1581.73 1624.19 1574.87 1591.89 C 1571.83 1577.57 1569.14 1562.96 1564.69 1549 C 1563.56 1572.4 1559.95 1595.67 1556.87 1618.87 C 1554.31 1638.13 1552.26 1657.95 1548.35 1676.98 C 1543.97 1660.06 1520.84 1577.51 1513.86 1569.3 L 1512.23 1569.11 C 1504.18 1584.71 1497.43 1600.79 1488.36 1615.87 C 1490.11 1606.13 1492.44 1596.17 1493.45 1586.34 C 1468.06 1586.58 1442.7 1587.19 1417.31 1587.12 A 3626.31 3626.31 0 0 1 1417.7 1677.68 C 1417.67 1695.29 1418.78 1713.83 1416.93 1731.32 C 1416.26 1737.69 1414.58 1749.58 1410.13 1754.32 z"/>
</svg>