<svg version="1.1" xmlns="http://www.w3.org/2000/svg" style="display: block;" viewBox="0 0 2048 2048" width="1024" height="1024">
<path transform="translate(0,0)" fill="rgb(38,98,133)" d="M 0 0 L 877.188 0 L 2048 0 L 2048 749.517 L 2048 2048 L 1620.14 2048 L 1599.32 2048 L 833 2048 L 663.704 2048 L 525.119 2048 L 372.286 2048 L 0 2048 L 0 1985.35 L 0 1676.9 L 0 1444.66 L 0 1320.62 L 0 1061.44 L 0 1040.52 L 0 896.571 L 0 880.234 L 0 0 z"/>
<path transform="translate(0,0)" fill="rgb(84,179,127)" d="M 683.702 1526.49 C 700.654 1509.36 724.926 1499.79 748.913 1499.57 C 770.588 1499.38 795.141 1506.47 811.086 1521.77 C 812.597 1523.22 813.983 1524.73 815.31 1526.35 C 796.905 1527.68 777.729 1526.75 759.236 1526.77 C 734.12 1526.8 708.794 1527.47 683.702 1526.49 z"/>
<path transform="translate(0,0)" fill="rgb(84,179,127)" d="M 509.514 629.799 C 527.783 648.125 537.92 687.555 542.047 712.498 C 530.771 714.72 519.304 716.129 507.931 717.774 L 496.835 719.622 C 492.845 695.902 486.59 676.828 473.656 656.446 C 484.599 646.652 497.441 638.165 509.514 629.799 z"/>
<path transform="translate(0,0)" fill="rgb(84,179,127)" d="M 497.88 739.91 C 513.736 741.386 529.802 742.889 545.354 746.418 C 544.152 773.328 535.003 800.601 522.976 824.507 L 521.592 825.344 C 508.567 821.178 490.938 809.118 477.97 802.302 C 489.92 781.806 495.042 763.321 497.88 739.91 z"/>
<path transform="translate(0,0)" fill="rgb(84,179,127)" d="M 346.942 549.422 C 352.023 548.855 357.36 549.186 362.476 549.196 L 361.452 592.051 C 343.401 592.219 323.148 594.865 306.537 602.323 C 299.559 605.456 293.055 609.587 286.099 612.793 L 283.677 609.928 L 262.813 575.847 A 191.701 191.701 0 0 1 346.942 549.422 z"/>
<path transform="translate(0,0)" fill="rgb(84,179,127)" d="M 398.276 553.732 C 406.712 557.277 416.261 559.037 424.934 562.142 C 449.718 571.014 469.984 585.105 488.954 603.108 C 482.215 608.984 475.802 615.348 469.265 621.456 L 456.437 633.893 C 436.295 613.759 416.135 603.808 388.859 596.122 A 541.113 541.113 0 0 1 398.276 553.732 z"/>
<path transform="translate(0,0)" fill="rgb(84,179,127)" d="M 227.794 592.622 C 235.494 595.011 255.569 618.722 261.721 625.393 C 235.626 651.511 224.181 672.003 214.023 707.316 L 203.25 704.32 C 191.587 700.731 179.699 697.736 167.919 694.544 C 178.326 655.457 199.093 621.056 227.794 592.622 z"/>
<path transform="translate(0,0)" fill="rgb(254,254,253)" d="M 1196.17 397.24 C 1206.39 396.304 1216.22 397.485 1225.28 402.67 A 44.4992 44.4992 0 0 1 1246.06 429.934 A 43.2024 43.2024 0 0 1 1241.19 463.533 C 1234.32 474.653 1223.7 480.97 1211.24 483.918 C 1199.84 484.827 1189.87 484.565 1179.76 478.483 A 43.6792 43.6792 0 0 1 1159.84 450.797 A 45.1473 45.1473 0 0 1 1165.69 416.831 C 1172.89 405.557 1183.49 400.04 1196.17 397.24 z"/>
<path transform="translate(0,0)" fill="rgb(254,254,253)" d="M 1174.68 311.375 C 1200.09 308.167 1227.04 312.507 1250.59 322.336 A 165.639 165.639 0 0 1 1339.84 412.926 C 1343.83 422.874 1348.11 435.494 1343.26 445.823 C 1339.9 452.968 1332.77 457.669 1325.42 460.008 C 1318.41 462.237 1312.29 461.004 1306.01 457.386 C 1296.5 451.914 1294.08 443.739 1291.3 433.838 C 1282.86 410.979 1269.12 391.843 1248.39 378.628 C 1225.18 363.83 1190.05 356.346 1163.38 365.618 C 1154.58 368.679 1146.08 374.588 1136.93 376.309 C 1130.2 377.575 1123.38 375.997 1117.76 372.1 A 26.7938 26.7938 0 0 1 1106.63 354.819 A 24.3788 24.3788 0 0 1 1111.4 335.811 C 1122.72 321.441 1157.26 313.634 1174.68 311.375 z"/>
<path transform="translate(0,0)" fill="rgb(254,254,253)" d="M 1172.99 208.418 C 1197.67 205.549 1225.72 208.56 1249.74 214.496 C 1320.25 231.924 1379.51 273.785 1417.08 336.4 C 1428.27 355.041 1455.23 411.332 1449 433.371 C 1447.14 439.926 1442.55 445.175 1436.53 448.295 C 1430.43 451.462 1423.09 452.289 1416.51 450.183 C 1411.84 448.689 1406.82 445.604 1404.02 441.481 C 1398.17 432.862 1396.06 415.485 1392.57 405.112 A 271.984 271.984 0 0 0 1377.94 370.76 A 214.662 214.662 0 0 0 1296.28 286.829 C 1247.78 258.549 1184.86 249.114 1131.05 267.314 C 1115.65 272.522 1097.19 284.19 1082.87 287.637 C 1076.02 289.287 1067.89 287.814 1062.07 283.823 C 1056.44 279.96 1053.39 273.95 1052.53 267.268 A 25.8711 25.8711 0 0 1 1058.66 246.761 C 1064.13 240.369 1072.2 236.835 1079.63 233.257 C 1109.43 218.894 1140.06 210.956 1172.99 208.418 z"/>
<path transform="translate(0,0)" fill="rgb(84,179,127)" d="M 1893.59 1169.44 C 1872.66 1159.88 1858.58 1146.49 1850.42 1124.6 A 71.6915 71.6915 0 0 1 1852.84 1067.87 C 1861.5 1049.58 1877.74 1034.27 1896.92 1027.55 A 70.9848 70.9848 0 0 1 1951.62 1030.97 A 77.2099 77.2099 0 0 1 1991.27 1076.52 A 74.8378 74.8378 0 0 1 1986.4 1133.87 C 1976.92 1152.25 1960.97 1164.91 1941.25 1170.94 C 1929.79 1174.44 1918.27 1174.83 1906.47 1172.99 C 1902.98 1193.5 1895.23 1213.65 1889.03 1233.5 L 1861.79 1323.14 L 1815.8 1474.39 C 1806.63 1504.95 1798.51 1536.45 1787.74 1566.46 A 133.415 133.415 0 0 1 1774.02 1594.53 C 1779.59 1612.02 1788.53 1628.62 1795.44 1645.62 A 10490.6 10490.6 0 0 0 1844.94 1765.95 C 1858.47 1765.96 1871.15 1767.74 1881.17 1777.88 C 1889.52 1786.33 1893.8 1798.4 1893.66 1810.19 C 1893.52 1821.95 1888.29 1833.21 1879.86 1841.34 A 41.5623 41.5623 0 0 1 1848.7 1852.99 C 1840.15 1852.57 1832.42 1849.57 1825.36 1844.86 C 1800.84 1870.46 1774.62 1894.75 1749.52 1919.83 C 1706.64 1962.67 1664.09 2006.29 1620.14 2048 L 1599.32 2048 C 1606.66 2038.55 1616.63 2030.23 1625.21 2021.89 L 1663.07 1984.36 L 1813.95 1834.85 C 1807.86 1823.41 1803.91 1812.09 1806.99 1798.98 C 1810.18 1785.37 1818.93 1777 1830.25 1769.77 A 3761.79 3761.79 0 0 0 1764.18 1608.42 C 1749.62 1620.31 1731.78 1633.25 1712.95 1636.96 C 1711.57 1637.23 1711.38 1637.78 1710.42 1638.76 C 1708.95 1634.63 1708.23 1629.84 1707.21 1625.55 C 1725.59 1615.56 1741.64 1606.01 1757.34 1591.98 L 1724.76 1520.29 C 1718.99 1507.59 1712.56 1494.82 1707.56 1481.82 C 1693 1484.87 1678.42 1482.95 1665.73 1474.7 A 50.8257 50.8257 0 0 1 1643.46 1441.89 A 52.4287 52.4287 0 0 1 1651.57 1402.41 A 51.7074 51.7074 0 0 1 1685.62 1380.41 C 1699.3 1377.95 1713.44 1380.92 1724.7 1389.21 C 1735.73 1397.33 1742.72 1410.59 1744.41 1424.08 C 1746.28 1438.92 1742.49 1453.23 1733.17 1464.98 C 1729.7 1469.36 1725.1 1472.64 1720.74 1476.07 C 1736.43 1510.44 1753.7 1545.12 1766.5 1580.67 C 1779.71 1550.92 1786.78 1518.14 1796.37 1487.07 L 1864.1 1265.55 C 1873.84 1233.84 1881.38 1200.25 1893.59 1169.44 z"/>
<path transform="translate(0,0)" fill="rgb(84,179,127)" d="M 259.82 782.194 C 246.569 754.727 242.532 726.948 252.824 697.666 C 262.021 671.498 282.42 647.899 307.507 635.884 A 106.521 106.521 0 0 1 390.238 631.45 C 416.922 640.962 440.05 661.064 452.134 686.836 A 104.971 104.971 0 0 1 455.552 768.211 A 109.84 109.84 0 0 1 396.919 829.556 A 105.089 105.089 0 0 1 315.059 830.528 C 295.924 822.925 281.496 810.957 267.771 795.851 L 169.022 893.759 C 153.567 908.961 138.441 925.666 121.892 939.621 A 3672.83 3672.83 0 0 0 195.092 976.489 C 208.83 983.184 223.152 989.163 236.678 996.193 C 249.712 1022.94 261.284 1050.47 273.766 1077.5 L 378.69 1304.19 L 405.33 1360.82 C 410.165 1371.31 414.146 1384.12 420.865 1393.41 C 424.182 1398 460.948 1424.41 469.025 1430.61 C 514.876 1381.26 564.015 1334.63 611.56 1286.89 C 623.109 1275.3 655.596 1245.33 662.724 1234.3 C 664.728 1238.75 667.036 1243.22 668.653 1247.82 C 642.468 1278.36 612.551 1306.08 583.799 1334.19 C 566.69 1350.92 550.206 1368.26 533.368 1385.25 C 515.305 1403.49 496.867 1421.39 479.239 1440.05 C 506.324 1465.64 534.117 1493.69 552.943 1526.16 L 496.172 1526.58 C 478.702 1526.68 461.348 1526.07 444.174 1529.84 C 431.485 1532.62 419.875 1537.43 408.052 1542.68 C 381.359 1518.11 352.654 1495.13 321.066 1477.18 C 249.284 1436.4 164.279 1417.35 82.0892 1427.09 C 54.063 1430.41 27.1552 1437.16 0 1444.66 L 0 1320.62 L 0 1061.44 L 0 1040.52 L 0 896.571 L 0 880.234 C 37.0249 896.785 72.6926 916.505 109.497 933.599 C 135.774 903.773 165.22 876.27 193.319 848.146 C 215.205 826.242 236.521 802.526 259.82 782.194 z"/>
<path transform="translate(0,0)" fill="rgb(38,98,133)" d="M 0 896.571 L 96.2978 943.992 L 0 1040.52 L 0 896.571 z"/>
<path transform="translate(0,0)" fill="rgb(38,98,133)" d="M 349.133 652.402 C 349.488 652.362 349.843 652.305 350.2 652.281 A 80.9181 80.9181 0 0 1 407.014 671.15 C 423.131 684.568 433.044 702.896 434.789 723.844 A 81.6695 81.6695 0 0 1 415.516 784.494 C 401.186 801.026 382.268 809.754 360.587 811.225 C 339.932 811.673 321.084 808.522 304.45 795.383 C 287.872 782.288 275.861 760.778 273.631 739.756 C 271.422 718.926 278.763 697.083 291.967 680.992 C 306.815 662.897 326.305 654.74 349.133 652.402 z"/>
<path transform="translate(0,0)" fill="rgb(84,179,127)" d="M 346.605 672.274 C 361.264 671.043 375.459 673.624 387.843 681.899 A 58.6399 58.6399 0 0 1 413.154 720.025 C 416.132 736.068 412.909 752.851 403.27 766.15 C 393.12 780.154 378.234 788.213 361.331 790.72 A 64.1888 64.1888 0 0 1 320.134 780.629 A 57.2924 57.2924 0 0 1 295.072 742.994 C 292.159 727.3 296.049 710.119 305.13 697.034 C 315.155 682.59 329.66 675.096 346.605 672.274 z"/>
<path transform="translate(0,0)" fill="rgb(38,98,133)" d="M 0 1061.44 C 21.5383 1038 44.9178 1016.04 67.5622 993.67 C 81.887 979.516 95.4624 964.361 110.404 950.872 L 186.806 988.231 C 199.5 994.506 212.65 1000.42 224.992 1007.34 C 234.268 1021.31 240.362 1038.8 247.309 1054.06 L 281.994 1129 L 398.056 1380.01 C 376.423 1369.17 355.613 1356.81 333.261 1347.41 C 229.174 1303.68 109.54 1290.85 0 1320.62 L 0 1061.44 z"/>
<path transform="translate(0,0)" fill="rgb(84,179,127)" d="M 142.573 1151.3 C 153.215 1150.62 164.261 1152.82 173.326 1158.59 C 185.039 1166.06 193.151 1178.73 195.936 1192.25 A 48.6354 48.6354 0 0 1 187.836 1230.61 C 178.785 1243.43 166.301 1249.33 151.235 1251.79 C 139.998 1252.62 128.18 1250.56 118.621 1244.38 C 107.188 1236.99 99.494 1224.76 97.0612 1211.42 A 52.3215 52.3215 0 0 1 106.021 1171.85 C 115.096 1159.36 127.672 1153.47 142.573 1151.3 z"/>
<path transform="translate(0,0)" fill="rgb(84,179,127)" d="M 877.188 0 L 2048 0 L 2048 749.517 C 2045.34 740.208 2044.22 730.021 2042.49 720.459 C 2039.79 705.495 2036.5 690.732 2031.94 676.216 C 2006.17 594.063 1949.26 522.077 1882.57 468.887 C 1826.77 424.382 1763.41 386.767 1698.61 356.894 C 1675.19 346.097 1650.88 336.99 1627.17 326.816 A 10035.8 10035.8 0 0 0 1497.95 271.389 L 1107.98 102.585 L 953.016 34.1045 C 928.28 23.0532 902.217 13.2941 878.334 0.618276 L 877.188 0 z"/>
<path transform="translate(0,0)" fill="rgb(254,254,253)" d="M 662.724 1234.3 C 652.989 1207.82 650.175 1180.32 656.67 1152.66 C 662.552 1127.61 678.3 1096.5 688.53 1071.92 L 754.335 913.496 L 858.939 658.433 C 875.249 618.351 889.547 576.924 907.602 537.628 A 145.23 145.23 0 0 1 991.208 460.796 A 153.116 153.116 0 0 1 1061.93 453.311 C 1091.9 457.374 1128.88 474.808 1157.68 485.563 C 1185.97 496.123 1215.51 505.476 1242.75 518.505 C 1279.99 536.319 1308 566.372 1321.47 605.66 C 1330.5 631.979 1331.89 658.327 1325.56 685.437 C 1320.11 708.817 1308.68 730.373 1299.91 752.594 A 10710.3 10710.3 0 0 1 1243.65 894.635 A 27437.3 27437.3 0 0 1 1126.6 1187.9 L 1096.39 1262.6 C 1090.23 1277.86 1084.48 1293.56 1077.18 1308.31 C 1059.32 1344.39 1030.98 1370.78 992.418 1383.4 A 144.215 144.215 0 0 1 923.977 1388.94 C 897.093 1384.52 851.922 1362.32 825.283 1351.48 L 769.533 1328.82 C 757.594 1323.96 745.317 1319.52 733.859 1313.59 C 705.388 1298.85 683.243 1276.28 668.653 1247.82 C 667.036 1243.22 664.728 1238.75 662.724 1234.3 z"/>
<path transform="translate(0,0)" fill="rgb(38,98,133)" d="M 1032.74 479.399 C 1032.98 479.358 1033.22 479.302 1033.46 479.277 C 1045.63 477.981 1058.4 479.262 1070.27 482.078 C 1099.65 489.049 1128.67 502.8 1156.88 513.639 C 1182.41 523.45 1209.48 531.703 1234.01 543.803 A 120.116 120.116 0 0 1 1260.63 561.405 C 1285.22 583.14 1299.25 614.864 1300.98 647.449 A 124.451 124.451 0 0 1 1295.13 693.126 C 1290.67 707.245 1284.37 720.996 1278.9 734.768 A 6523.29 6523.29 0 0 1 1253.09 800.606 L 1174.59 997.014 L 1086.83 1215 C 1075.57 1242.28 1065.67 1270.68 1053.01 1297.3 A 113.624 113.624 0 0 1 1033.81 1325.42 C 1010.98 1350.33 982.287 1362.16 948.781 1363.46 C 938.096 1363.22 927.892 1362.47 917.599 1359.41 C 907.246 1356.34 897.168 1351.66 887.196 1347.53 L 836.596 1326.46 C 807.567 1314.34 777.035 1303.58 748.892 1289.61 C 741.061 1285.73 733.143 1281.14 726.351 1275.61 C 701.504 1255.36 684.436 1227.06 681.101 1194.98 C 679.461 1179.2 681.303 1164.09 686.446 1149.11 C 695.203 1123.6 707.472 1098.86 717.658 1073.85 L 791.468 894.038 L 886.721 662.584 C 902.089 624.929 915.675 586.044 932.365 548.988 A 118.986 118.986 0 0 1 948.78 522.071 C 969.77 496.612 1000.33 482.717 1032.74 479.399 z"/>
<path transform="translate(0,0)" fill="rgb(254,254,253)" d="M 934.224 1033.1 C 938.342 1032.76 942.596 1032.52 946.576 1033.85 A 24.0529 24.0529 0 0 1 961.022 1046.98 A 22.6835 22.6835 0 0 1 961.24 1064.63 C 958.119 1072.2 952.159 1075.87 944.932 1078.94 C 940.434 1079.37 935.986 1079.42 931.675 1077.9 C 925.708 1075.8 920.625 1071.71 917.889 1065.94 A 22.0925 22.0925 0 0 1 917.265 1048.66 C 920.478 1040.29 926.5 1036.65 934.224 1033.1 z"/>
<path transform="translate(0,0)" fill="rgb(254,254,253)" d="M 830.851 975.252 C 839.515 974.592 847.917 975.632 855.782 979.525 A 42.0642 42.0642 0 0 1 876.755 1003.75 A 41.6501 41.6501 0 0 1 873.783 1036.94 C 867.173 1049.26 857.19 1054.7 844.266 1058.39 C 834.337 1059.11 825.048 1058.3 816.082 1053.45 A 38.9039 38.9039 0 0 1 796.897 1029.31 A 43.7315 43.7315 0 0 1 801.197 996.107 C 808.055 984.286 818.041 978.58 830.851 975.252 z"/>
<path transform="translate(0,0)" fill="rgb(254,254,253)" d="M 1025.63 1056.21 C 1035.17 1055.17 1043.95 1055.62 1052.79 1059.81 A 41.4895 41.4895 0 0 1 1074.41 1084.85 A 42.835 42.835 0 0 1 1071.05 1118.56 C 1064.84 1129.62 1054.86 1135.19 1043.12 1138.74 C 1034.26 1140.25 1026.11 1140.06 1017.74 1136.4 C 1007.06 1131.73 998.728 1122.26 994.88 1111.31 A 41.1863 41.1863 0 0 1 997.262 1078.22 C 1003.43 1066.4 1013.23 1060.03 1025.63 1056.21 z"/>
<path transform="translate(0,0)" fill="rgb(254,254,253)" d="M 969.981 919.229 C 979.663 918.484 988.481 919.471 997.046 924.415 A 40.5798 40.5798 0 0 1 1016.14 949.472 A 43.7126 43.7126 0 0 1 1011.15 983.052 C 1004.22 994.443 994.558 999.099 982.178 1002.38 C 972.62 1003.51 963.184 1002.25 954.704 997.503 A 41.9028 41.9028 0 0 1 934.659 970.766 A 42.6693 42.6693 0 0 1 940.158 938.047 C 947.138 926.987 957.583 921.799 969.981 919.229 z"/>
<path transform="translate(0,0)" fill="rgb(254,254,253)" d="M 897.272 1108.39 C 907.041 1109.01 915.32 1111.07 923.255 1117.26 A 41.638 41.638 0 0 1 939.303 1146.74 A 43.4748 43.4748 0 0 1 929.224 1178.96 C 921.039 1188.52 910.64 1192.32 898.478 1193.44 C 887.805 1192.79 878.534 1190.68 869.938 1183.82 C 861.299 1176.92 856.274 1166.73 855.216 1155.8 A 43.8053 43.8053 0 0 1 865.32 1123.22 C 873.912 1113.16 884.529 1109.49 897.272 1108.39 z"/>
<path transform="translate(0,0)" fill="rgb(254,254,253)" d="M 749.892 1232.13 A 55.9285 55.9285 0 0 1 757.335 1233.63 C 768.683 1236.8 780.03 1242.2 790.958 1246.62 A 3028.67 3028.67 0 0 1 865.235 1277.68 C 889.275 1287.87 914.976 1296.43 938.297 1307.95 C 942.704 1310.13 948.86 1312.77 951.132 1317.35 A 11.6534 11.6534 0 0 1 951.591 1326.61 C 949.411 1332.52 945.286 1335.7 939.751 1338.25 C 937.115 1338.17 934.556 1337.57 932.063 1336.72 C 919.294 1332.42 906.686 1326.53 894.171 1321.46 A 4966.56 4966.56 0 0 1 819.666 1290.89 C 796.645 1281.22 767.595 1271.15 746.172 1259.01 C 742.786 1257.09 740.601 1255.42 738.91 1251.81 C 737.507 1248.82 737.283 1245.42 738.511 1242.32 C 740.742 1236.69 744.589 1234.49 749.892 1232.13 z"/>
<path transform="translate(0,0)" fill="rgb(254,254,253)" d="M 1065.74 558.41 C 1066.19 558.349 1066.63 558.271 1067.08 558.227 C 1103.25 554.696 1143.45 568.557 1171.78 590.722 C 1201.48 613.965 1219.5 648.276 1223.94 685.539 A 146.732 146.732 0 0 1 1193.46 793.603 C 1167.37 826.311 1131.46 844.846 1090.24 849.652 C 1053.21 853.862 1011.41 839.637 982.569 816.686 A 141.604 141.604 0 0 1 930.736 721.17 C 926.295 681.805 939.3 642.94 964.046 612.312 C 990.031 580.152 1024.94 562.689 1065.74 558.41 z"/>
<path transform="translate(0,0)" fill="rgb(38,98,133)" d="M 1064.32 572.359 C 1083.76 569.417 1103.08 573.644 1121.36 579.902 C 1113.5 596.666 1105.7 613.349 1098.27 630.317 C 1087.18 625.42 1055.18 606.349 1044.87 609.401 C 1034.4 612.502 1025.28 638.848 1020.67 648.655 C 1017.96 654.98 1014.59 661.138 1011.51 667.303 C 995.297 657.631 977.429 650.203 960.291 642.291 A 184.434 184.434 0 0 1 973.008 623.029 C 995.579 593.458 1027.79 577.108 1064.32 572.359 z"/>
<path transform="translate(0,0)" fill="rgb(38,98,133)" d="M 1141.8 740.979 C 1157.75 748.768 1180.26 757.701 1194.45 767.247 A 154.803 154.803 0 0 1 1162.04 805.488 C 1133.62 829.313 1100.59 839.217 1063.77 835.853 A 191.762 191.762 0 0 1 1030.65 827.971 C 1039.35 811.925 1046.23 794.788 1053.36 778.01 C 1065.45 781.781 1099.87 801.828 1109.88 797.95 C 1118.65 794.551 1136.98 750.767 1141.8 740.979 z"/>
<path transform="translate(0,0)" fill="rgb(38,98,133)" d="M 953.572 657.194 C 970.917 663.358 987.488 673.25 1004.36 680.834 C 999.348 693.415 987.07 718.184 984.229 729.301 C 983.49 732.194 983.219 735.595 984.279 738.448 C 987.747 747.781 1028.48 764.019 1039.03 770.189 C 1035.62 780.505 1030.64 790.717 1026.39 800.742 C 1023.31 807.665 1020.77 814.907 1018.03 821.978 A 44.5358 44.5358 0 0 1 1016.1 821.231 C 988.482 809.763 963.855 781.989 952.396 754.779 C 938.995 722.959 940.68 688.786 953.572 657.194 z"/>
<path transform="translate(0,0)" fill="rgb(38,98,133)" d="M 1135.9 585.454 C 1164.51 596.751 1188.44 621.002 1200.65 649.03 A 133.891 133.891 0 0 1 1202.24 751.877 C 1193.84 748.871 1185.77 745.042 1177.65 741.347 C 1167.98 736.487 1158.01 730.946 1147.56 728.012 C 1152.7 717.42 1174.51 679.102 1170.66 669.099 C 1169.32 665.642 1167.1 663.38 1164.06 661.331 C 1152.21 653.351 1126.77 643.8 1112.75 636.792 C 1122.12 620.657 1128.72 602.656 1135.9 585.454 z"/>
<path transform="translate(0,0)" fill="rgb(38,98,133)" d="M 1049.15 625.661 C 1062.57 630.112 1075.69 636.992 1088.53 642.929 C 1110.87 653.268 1133.39 663.627 1155.2 675.062 A 3361.74 3361.74 0 0 1 1125.32 739.705 C 1118.46 754.447 1111.94 769.456 1104.11 783.711 C 1097.38 780.804 1090.98 776.475 1084.19 773.415 C 1055.75 760.596 1025.99 748.335 999.016 732.658 C 1015.34 696.812 1032.89 661.517 1049.15 625.661 z"/>
<path transform="translate(0,0)" fill="rgb(254,254,253)" d="M 0 1444.66 C 27.1552 1437.16 54.063 1430.41 82.0892 1427.09 C 164.279 1417.35 249.284 1436.4 321.066 1477.18 C 352.654 1495.13 381.359 1518.11 408.052 1542.68 C 419.875 1537.43 431.485 1532.62 444.174 1529.84 C 461.348 1526.07 478.702 1526.68 496.172 1526.58 L 552.943 1526.16 L 639.102 1526.07 C 653.793 1526.09 669.104 1525.24 683.702 1526.49 C 708.794 1527.47 734.12 1526.8 759.236 1526.77 C 777.729 1526.75 796.905 1527.68 815.31 1526.35 C 879.458 1525.22 943.734 1526.1 1007.9 1526.13 L 1346.58 1526.11 L 1508.57 1525.67 C 1537.77 1525.6 1569.69 1523.1 1598.53 1527.55 C 1625 1531.63 1651.27 1545.12 1670.49 1563.76 A 139.289 139.289 0 0 1 1707.21 1625.55 C 1708.23 1629.84 1708.95 1634.63 1710.42 1638.76 C 1711.38 1637.78 1711.57 1637.23 1712.95 1636.96 C 1731.78 1633.25 1749.62 1620.31 1764.18 1608.42 A 3761.79 3761.79 0 0 1 1830.25 1769.77 C 1818.93 1777 1810.18 1785.37 1806.99 1798.98 C 1803.91 1812.09 1807.86 1823.41 1813.95 1834.85 L 1663.07 1984.36 L 1625.21 2021.89 C 1616.63 2030.23 1606.66 2038.55 1599.32 2048 L 833 2048 L 663.704 2048 L 525.119 2048 L 372.286 2048 L 0 2048 L 0 1985.35 L 0 1676.9 L 0 1444.66 z"/>
<path transform="translate(0,0)" fill="rgb(38,98,133)" d="M 0 1444.66 C 27.1552 1437.16 54.063 1430.41 82.0892 1427.09 C 164.279 1417.35 249.284 1436.4 321.066 1477.18 C 352.654 1495.13 381.359 1518.11 408.052 1542.68 C 374.238 1562.45 348.887 1591.57 338.969 1630.05 C 329.077 1668.43 333.858 1707.71 354.123 1741.94 C 373.619 1774.86 405.692 1797.34 442.569 1806.77 C 454.904 1809.93 466.861 1811.15 479.563 1810.92 L 601.971 1810.74 C 595.816 1875.54 580.612 1937.74 552.541 1996.68 C 544.222 2014.14 534.41 2031.03 525.119 2048 L 372.286 2048 L 0 2048 L 0 1985.35 L 0 1676.9 L 0 1444.66 z"/>
<path transform="translate(0,0)" fill="rgb(84,179,127)" d="M 479.563 1810.92 L 601.971 1810.74 C 595.816 1875.54 580.612 1937.74 552.541 1996.68 C 544.222 2014.14 534.41 2031.03 525.119 2048 L 372.286 2048 C 431.631 1981.3 472.524 1900.98 479.563 1810.92 z"/>
<path transform="translate(0,0)" fill="rgb(84,179,127)" d="M 0 1676.9 C 44.6381 1644.18 97.1246 1629.19 152.344 1637.65 C 202.313 1645.3 249.928 1674.87 279.56 1715.65 C 311.036 1758.96 323.909 1810.37 315.116 1863.33 A 192.831 192.831 0 0 1 235.967 1989.84 C 191.522 2021.09 139.735 2032.85 86.2427 2023.35 C 54.3073 2017.67 25.9815 2004.72 0 1985.35 L 0 1676.9 z"/>
<path transform="translate(0,0)" fill="rgb(38,98,133)" d="M 1710.42 1638.76 C 1711.38 1637.78 1711.57 1637.23 1712.95 1636.96 C 1731.78 1633.25 1749.62 1620.31 1764.18 1608.42 A 3761.79 3761.79 0 0 1 1830.25 1769.77 C 1818.93 1777 1810.18 1785.37 1806.99 1798.98 C 1803.91 1812.09 1807.86 1823.41 1813.95 1834.85 L 1663.07 1984.36 L 1625.21 2021.89 C 1616.63 2030.23 1606.66 2038.55 1599.32 2048 L 833 2048 L 663.704 2048 L 525.119 2048 C 534.41 2031.03 544.222 2014.14 552.541 1996.68 C 580.612 1937.74 595.816 1875.54 601.971 1810.74 L 1291.7 1810.88 L 1492.56 1811 L 1550.69 1811.13 C 1564.25 1811.15 1578.39 1811.81 1591.84 1809.93 C 1628.82 1804.78 1662.4 1783.19 1684.52 1753.42 C 1709.53 1719.77 1716.59 1679.63 1710.42 1638.76 z"/>
<path transform="translate(0,0)" fill="rgb(84,179,127)" d="M 663.704 2048 C 649.222 2024.14 644.613 1996.88 651.408 1969.65 A 93.2804 93.2804 0 0 1 693.95 1912.23 C 719.18 1897.29 743.828 1891.85 772.645 1899.5 C 798.764 1906.42 821.573 1922.94 835.12 1946.46 A 99.4435 99.4435 0 0 1 844.518 2022.18 A 94.3327 94.3327 0 0 1 833 2048 L 663.704 2048 z"/>
<path transform="translate(0,0)" fill="rgb(84,179,127)" d="M 868.518 1533.5 L 1361.4 1533.12 L 1511.34 1532.63 C 1538.93 1532.57 1569.18 1530.14 1596.38 1534.53 C 1623.01 1538.83 1647.2 1551.62 1666.45 1570.45 C 1692.13 1595.55 1705.31 1629.5 1705.47 1665.22 A 137.918 137.918 0 0 1 1664.36 1765.24 A 129.944 129.944 0 0 1 1598.49 1801.01 C 1578.25 1805.2 1556.83 1803.99 1536.27 1803.95 L 1461.8 1803.88 L 1180.5 1803.87 L 671.009 1803.82 L 537.911 1803.86 C 511.536 1803.9 483.204 1805.97 457.138 1801.81 C 429.476 1797.39 403.961 1785.4 383.955 1765.66 C 357.633 1739.7 342.209 1706.54 342.025 1669.37 C 341.851 1634.26 356.201 1598.07 380.978 1573.11 C 398.767 1555.18 420.486 1542.49 445.259 1537.1 C 465.364 1532.72 487.949 1533.91 508.462 1533.83 L 589.412 1533.71 L 868.518 1533.5 z"/>
<path transform="translate(0,0)" fill="rgb(254,254,253)" d="M 824.251 1604.33 C 835.454 1603.81 900.699 1601.91 906.309 1606.71 C 908.843 1608.87 909.527 1612 909.497 1615.18 C 909.464 1618.49 908.779 1621.74 905.994 1623.81 C 899.696 1628.49 883.473 1626.47 875.8 1626.36 L 875.973 1698.25 C 876.062 1706.13 876.715 1713.24 871.146 1719.52 C 868.729 1722.24 865.086 1724.19 861.361 1723.9 C 859.019 1723.71 856.918 1722.59 855.327 1720.89 C 852.685 1718.06 851.719 1714.02 851.272 1710.29 C 850.261 1701.84 851.104 1692.73 851.103 1684.19 L 851.023 1626.9 C 844.761 1626.54 838.522 1627.06 832.26 1626.92 C 827.596 1626.81 821.999 1626.07 818.948 1622.09 C 816.832 1619.34 816.411 1615.22 817.188 1611.9 C 818.134 1607.85 820.911 1606.26 824.251 1604.33 z"/>
<path transform="translate(0,0)" fill="rgb(254,254,253)" d="M 1000.06 1604.38 C 1013.13 1603.96 1065.48 1601.34 1074.86 1606.46 C 1077.39 1607.84 1079.58 1610.07 1079.97 1613.04 C 1080.41 1616.46 1078.44 1620.61 1076.03 1623 C 1069.39 1629.61 1055.23 1627.16 1046.54 1626.82 A 4374.29 4374.29 0 0 0 1046.44 1701.86 C 1046.41 1707.2 1046.95 1714.39 1043.64 1718.89 C 1041.78 1721.44 1038.85 1722.72 1035.77 1722.97 A 13.3122 13.3122 0 0 1 1025.59 1719.53 C 1018.08 1712.56 1021.04 1639.61 1021.04 1626.7 C 1011.91 1627.07 1000.03 1628.62 991.902 1623.74 C 989.489 1622.29 987.618 1620.05 987.384 1617.15 C 987.138 1614.11 988.65 1609.55 990.769 1607.33 C 993.112 1604.88 996.904 1604.76 1000.06 1604.38 z"/>
<path transform="translate(0,0)" fill="rgb(254,254,253)" d="M 762.881 1603.25 C 774.399 1602.15 787.947 1604.18 798.179 1609.72 C 802.215 1611.91 807.06 1615.62 807.908 1620.45 C 808.518 1623.93 807.319 1627.65 805.062 1630.3 C 795.918 1641.05 779.112 1623.42 767.756 1624.6 C 763.298 1625.07 758.286 1626.82 755.432 1630.46 C 753.665 1632.72 753.228 1635.1 753.647 1637.92 C 755.761 1652.1 790.323 1656.88 801.62 1665.98 C 807.305 1670.57 810.42 1676.59 811.12 1683.83 C 812.039 1693.34 809.705 1702.96 803.288 1710.21 C 794.707 1719.91 783.039 1722.09 770.806 1723.02 C 759.829 1722.86 747.986 1720.48 738.245 1715.29 C 733.767 1712.91 727.252 1709 726.211 1703.53 C 725.528 1699.95 726.468 1696.5 728.443 1693.55 C 738.726 1686.08 761.176 1704.79 777.162 1701.52 C 780.186 1700.9 782.85 1699.26 784.483 1696.59 C 786.23 1693.73 786.978 1690.58 785.915 1687.38 C 782.619 1677.47 756.884 1671.98 747.857 1667.13 C 739.952 1662.88 733.126 1656.65 730.596 1647.79 C 728.195 1639.38 729.997 1628.46 734.452 1620.99 C 740.687 1610.55 751.554 1605.87 762.881 1603.25 z"/>
<path transform="translate(0,0)" fill="rgb(254,254,253)" d="M 1236.17 1603.17 C 1250.84 1602.1 1268.4 1604.36 1280.08 1614.23 C 1282.37 1616.17 1284.42 1618.77 1284.35 1621.94 C 1284.26 1625.67 1281.25 1629.42 1278.53 1631.72 C 1269.22 1639.61 1256.36 1624.24 1246.05 1624.17 C 1241.48 1624.14 1236.45 1626.05 1233.28 1629.39 C 1231.17 1631.63 1229.88 1634.55 1230.36 1637.68 C 1232.48 1651.69 1267.09 1655.77 1278.11 1664.68 C 1285.11 1670.35 1288.53 1678.63 1289.27 1687.48 C 1289.98 1696.05 1287.41 1704.31 1281.52 1710.63 C 1272.34 1720.47 1258.97 1722.87 1246.15 1723.15 C 1233.36 1722.98 1222.14 1719.22 1211.22 1712.73 C 1207.13 1710.3 1202.69 1706.2 1202.04 1701.17 C 1201.65 1698.19 1203.53 1694.39 1205.29 1692.08 C 1212.7 1682.3 1237.72 1704.87 1252.63 1702.31 A 15.3211 15.3211 0 0 0 1263.08 1695.3 C 1264.61 1692.9 1264.79 1690.68 1264.04 1687.96 C 1260.01 1673.31 1232.98 1671.21 1220.94 1664.35 C 1213.71 1660.23 1208.47 1654.48 1206.3 1646.34 C 1204.02 1637.77 1204.78 1627.29 1209.5 1619.62 C 1215.53 1609.8 1225.47 1605.6 1236.17 1603.17 z"/>
<path transform="translate(0,0)" fill="rgb(254,254,253)" d="M 1171.49 1603.06 C 1175.99 1602.84 1181.35 1602.55 1184.83 1606.01 C 1189.67 1610.84 1188.16 1623.79 1188.27 1630.28 C 1188.67 1654.55 1194.14 1690.83 1175.5 1709.29 C 1165.64 1719.05 1152.28 1723.28 1138.62 1723.26 C 1125.31 1723.23 1111.86 1719.34 1102.46 1709.47 C 1086.49 1692.7 1089.83 1664.61 1090.04 1643.5 C 1089.98 1634.1 1089.07 1623.6 1090.67 1614.37 C 1091.33 1610.55 1092.57 1607.3 1096.04 1605.18 C 1098.76 1603.52 1103.65 1602.68 1106.65 1603.8 C 1122.71 1609.78 1108.41 1673.91 1118.38 1690 C 1121.72 1695.4 1127.35 1698.85 1133.48 1700.21 C 1140.51 1701.78 1148.34 1700.71 1154.35 1696.62 C 1173.23 1683.78 1159.61 1632.46 1164.69 1611.31 C 1165.63 1607.4 1167.38 1605.6 1170.69 1603.54 C 1170.95 1603.38 1171.22 1603.22 1171.49 1603.06 z"/>
<path transform="translate(0,0)" fill="rgb(254,254,253)" d="M 946.692 1603.02 C 951.198 1603.18 954.522 1603.1 958.048 1606.29 C 961.507 1609.41 1003.22 1710.78 1002.95 1714.62 C 1002.72 1717.82 1000.11 1720.45 997.5 1721.89 C 994.653 1723.47 990.146 1723.7 987.153 1722.48 C 978.698 1719.02 975.344 1703.79 972.438 1695.88 L 950.75 1695.89 L 927.653 1696.09 C 923.278 1703.71 920.64 1715.18 913.32 1720.5 C 910.421 1722.61 906.946 1723.34 903.452 1722.5 C 900.559 1721.8 898.366 1720.03 897.142 1717.31 C 895.584 1713.84 897.106 1709.33 898.128 1705.91 C 902.724 1690.54 910.581 1675.25 916.822 1660.44 C 923.746 1644 929.44 1625.1 938.944 1610.08 C 941.066 1606.72 943.225 1604.89 946.692 1603.02 z"/>
<path transform="translate(0,0)" fill="rgb(84,179,127)" d="M 950.154 1638.52 C 955.187 1648.48 959.331 1664.15 964.258 1675.45 L 952.25 1675.59 L 934.825 1675.31 A 1545.68 1545.68 0 0 1 950.154 1638.52 z"/>
</svg>