<svg version="1.1" xmlns="http://www.w3.org/2000/svg" style="display: block;" viewBox="0 0 2048 2048" width="1024" height="1024">
<path transform="translate(0,0)" fill="rgb(254,254,254)" d="M 0 0 L 2048 0 L 2048 2048 L 0 2048 L 0 0 z"/>
<path transform="translate(0,0)" fill="rgb(1,1,1)" d="M 508.502 718.324 C 522.326 717.001 537.73 720.58 549.426 728.091 A 50.8905 50.8905 0 0 1 572.035 761.481 C 575.22 777.735 571.511 796.816 561.832 810.363 C 551.462 824.876 535.977 830.805 519.044 833.306 C 503.628 834.981 487.675 831.581 474.971 822.473 C 463.312 814.114 455.949 801.064 453.736 787.004 C 451.351 771.846 455.566 753.852 464.777 741.477 C 475.305 727.333 491.489 720.5 508.502 718.324 z"/>
<path transform="translate(0,0)" fill="rgb(254,254,254)" d="M 509.243 732.249 C 520.968 731.762 531.971 733.428 541.807 740.375 A 39.5923 39.5923 0 0 1 558.233 766.982 C 560.058 779.081 557.021 792.805 549.549 802.589 C 541.317 813.369 530.051 816.769 517.244 818.678 C 505.869 819.552 495.167 818.205 485.357 811.904 C 476.006 805.898 470.276 796.277 468.214 785.456 A 44.2021 44.2021 0 0 1 475.387 752.062 C 483.434 740.319 495.641 734.662 509.243 732.249 z"/>
<path transform="translate(0,0)" fill="rgb(1,1,1)" d="M 525.558 599.406 C 538.102 597.794 552.547 599.443 565.004 601.2 C 601.606 606.363 632.505 623.143 659.73 647.813 C 665.89 653.396 672.601 659.157 677.446 665.929 C 679.916 669.381 682.742 674.817 681.45 679.227 C 680.544 682.321 679.139 683.405 676.652 685.132 L 676.857 683.333 L 675.851 685.511 C 672.628 686.841 668.718 687.189 665.517 685.708 C 657.463 681.98 649.682 673.802 642.726 668.242 A 173.002 173.002 0 0 0 570.45 634.628 C 525.704 625.206 478.256 635.577 440.293 660.492 C 408.029 683.381 391.25 715.459 384.865 753.856 C 382.867 765.875 382.496 778.786 378.825 790.379 C 377.37 792.196 376.132 792.434 373.943 793.054 C 372.276 792.77 371.423 792.49 370.096 791.357 C 363.539 785.758 360.221 766.815 359.404 758.389 C 356.035 723.648 372.03 689.084 393.898 662.909 C 427.808 622.323 473.953 603.835 525.558 599.406 z"/>
<path transform="translate(0,0)" fill="rgb(1,1,1)" d="M 527.397 497.423 C 527.474 497.416 527.55 497.405 527.626 497.401 C 596.284 493.872 671.473 516.374 722.756 562.73 C 728.612 568.024 740.199 577.792 739.807 586.413 C 739.68 589.196 738.885 590.981 736.737 592.731 C 730.307 597.97 725.18 593.998 719.463 590.169 C 672.037 558.401 630.742 537.459 572.361 531.824 C 494.331 524.292 423.566 545.307 362.76 595.196 C 320.767 631.773 291.778 679.066 287.319 735.508 C 286.57 744.978 288.753 762.28 283.182 770.103 C 281.649 772.255 280.45 772.579 277.961 773.04 C 276.597 772.584 275.422 772.123 274.328 771.149 C 266.047 763.783 262.856 745.681 262.165 735.017 C 258.946 685.387 291.462 626.98 323.492 591.009 C 377.54 530.311 447.394 502.273 527.397 497.423 z"/>
<path transform="translate(0,0)" fill="rgb(1,1,1)" d="M 526.197 387.461 C 593.579 386.289 655.759 401.638 715.738 432.165 C 728.104 438.459 762.205 458.286 766.117 472.312 A 9.84455 9.84455 0 0 1 764.812 480.515 C 762.368 484.091 758.205 484.639 754.274 483.801 C 743.77 481.56 732.944 473.043 723.33 468.123 A 559.46 559.46 0 0 0 680.577 448.221 C 615.946 421.738 543.936 416.018 475.254 426.633 C 385.131 440.561 302.7 481.753 248.174 556.296 C 215.441 601.55 194.838 657.712 192.84 713.748 C 192.204 731.598 194.843 750.613 194.014 767.568 C 193.795 772.029 193.285 776.619 189.774 779.722 C 187.124 779.821 185.392 779.874 183.256 778.048 C 171.374 767.89 166.429 733.642 165.834 718.763 C 162.808 643.157 200.919 556.416 252.299 501.649 C 321.777 427.593 426.44 390.717 526.197 387.461 z"/>
<path transform="translate(0,0)" fill="rgb(1,1,1)" d="M 777.708 795.399 C 785.959 793.916 796.969 794.017 805.225 795.752 C 819.717 798.798 830.262 808.803 837.804 821.048 C 855.399 849.62 873.984 921.497 884.544 956.777 C 948.674 1171.03 1003.78 1394.36 1033.59 1616.16 C 1040.39 1666.75 1052.4 1721.24 1040.29 1771.75 A 175.677 175.677 0 0 1 959.117 1882.24 A 211.269 211.269 0 0 1 893.631 1908.41 C 883.453 1910.54 872.48 1911.58 862.611 1914.84 C 847.293 1919.89 832.819 1927.45 817.418 1932.52 C 746.294 1955.96 678.117 1971.88 603.002 1973.58 C 575.896 1974.19 550.376 1973.69 523.883 1967.2 C 503.074 1960.41 485.305 1951.91 467.992 1938.38 C 447.97 1922.74 432.345 1903.08 422.32 1879.71 C 407.501 1845.15 396.755 1797.05 387.67 1759.92 A 7153.38 7153.38 0 0 1 346.845 1583.88 C 317.75 1451.37 286.978 1319.01 264.9 1185.11 C 259.751 1153.87 254.215 1122.6 250.369 1091.17 C 245.272 1049.52 245.307 999.811 272.829 965.225 C 288.314 945.766 309.767 931.845 330.838 919.201 A 491.836 491.836 0 0 1 462.001 864.234 C 505.606 852.982 550.507 846.175 594.376 835.612 C 655.1 820.99 715.479 802.43 777.708 795.399 z"/>
<path transform="translate(0,0)" fill="rgb(254,254,254)" d="M 758.474 821.389 C 776.945 819.584 801.318 821.436 816.372 833.503 C 837.761 850.65 862.999 938.757 871.829 967.505 A 4298.12 4298.12 0 0 1 1025.95 1674.23 C 1033.29 1731.48 1032.47 1782.7 995.276 1830.36 C 975.97 1855.09 943.443 1880.55 911.473 1884.65 C 914.413 1881.41 917.552 1878.35 920.633 1875.25 A 335.388 335.388 0 0 0 933.144 1863.16 C 969.326 1826.78 994.37 1783.28 994.017 1731 C 993.847 1705.81 989.216 1679.99 986.064 1655 A 2427.33 2427.33 0 0 0 954.085 1460.24 C 921.378 1293.87 886.391 1127.66 837.037 965.311 C 828.4 936.897 811.86 871.592 791.719 851.913 C 767.689 828.432 730.528 831.288 699.548 831.704 C 719.161 827.997 738.604 823.534 758.474 821.389 z"/>
<path transform="translate(0,0)" fill="rgb(254,254,254)" d="M 706.543 845.43 C 720.005 844.724 734.026 844.747 747.395 846.518 C 762.62 848.535 776.857 853.72 786.344 866.561 C 798.883 883.533 805.484 911.055 812.288 931.217 C 856.733 1062.93 889.268 1207.01 917.615 1343.25 C 938.418 1443.23 959.016 1543.27 971.686 1644.68 C 976.115 1680.13 983.868 1719.71 978.337 1755.21 C 970.447 1805.85 930.666 1851.42 890.377 1880.9 C 839.497 1918.12 724.803 1947.26 662.488 1955.44 C 625.247 1960.33 580.347 1962.55 543.232 1956.74 C 516.149 1950.32 492.162 1939.99 471.154 1921.37 C 455.436 1907.44 443.75 1891.38 435.858 1871.92 C 421.118 1835.57 412.065 1794.17 402.582 1756.11 C 384.789 1684.69 369.073 1613.09 353.394 1541.2 C 328.376 1426.47 302.02 1312.44 282.531 1196.57 C 275.071 1152.22 266.416 1107.36 263.607 1062.41 C 261.869 1034.62 265.887 1005.85 285.079 984.401 C 336.336 927.104 536.29 871.847 613.366 856.814 C 643.978 850.843 675.427 847.351 706.543 845.43 z"/>
<path transform="translate(0,0)" fill="rgb(1,1,1)" d="M 709.714 874.394 C 716.336 873.414 723.922 873.459 730.568 874.285 C 742.252 875.737 752.754 880.31 759.848 890.022 C 769.97 903.879 777.789 941.394 783.235 959.755 A 4847 4847 0 0 1 841.1 1169.99 A 6629.24 6629.24 0 0 1 900.426 1448.16 L 919.035 1544.19 C 922.811 1563.17 927.91 1582.46 929.992 1601.68 A 106.693 106.693 0 0 1 929.448 1630.38 C 922.841 1671.03 889.005 1702.49 857.015 1725.18 C 800.187 1765.49 735.524 1786.81 668.554 1803.32 C 646.177 1808.83 623.887 1814.69 600.901 1817.07 C 572.263 1820.04 541.445 1819.61 513.052 1814.73 C 496.776 1811.97 479.995 1806.6 466.442 1796.95 C 455.284 1789 448.758 1779.05 443.536 1766.53 C 435.66 1747.64 432.072 1726.98 426.592 1707.3 A 2586.89 2586.89 0 0 1 385.323 1544.53 A 6729.53 6729.53 0 0 1 344.527 1358.1 C 338.05 1326.3 332.51 1294.3 326.1 1262.48 A 10586 10586 0 0 1 303.6 1147.67 C 299.425 1126.35 294.525 1105.11 291.119 1083.64 C 287.185 1058.84 281.35 1019.95 297.591 998.618 C 311.577 980.249 345.681 968.27 366.842 959.781 C 477.004 915.59 592.063 888.797 709.714 874.394 z"/>
<path transform="translate(0,0)" fill="rgb(254,254,254)" d="M 705.23 922.224 C 708.908 921.623 712.422 921.487 715.788 923.298 C 719.054 925.054 722.23 927.924 723.036 931.702 C 723.69 934.768 722.595 937.77 720.874 940.269 C 714.251 949.885 698.847 951.02 688.231 952.854 C 685.248 953.026 681.948 953.416 679.062 952.488 C 675.532 951.352 672.877 949.043 671.48 945.578 C 670.269 942.57 670.239 936.779 672.066 934.016 C 677.815 925.322 695.507 924.191 705.23 922.224 z"/>
<path transform="translate(0,0)" fill="rgb(254,254,254)" d="M 752.012 1579.06 C 753.434 1579.32 755.199 1579.55 756.506 1580.16 C 759.294 1581.46 760.918 1583.93 762.101 1586.66 C 767.057 1598.09 774.598 1641.98 770.154 1652.98 C 767.757 1655.76 765.18 1656.3 761.74 1657.33 C 759.836 1656.38 758.452 1655.47 757.326 1653.6 C 753.787 1647.73 741.52 1589.96 743.517 1584.81 C 744.771 1581.58 749.067 1580.19 752.012 1579.06 z"/>
<path transform="translate(0,0)" fill="rgb(254,254,254)" d="M 575.943 1614.87 C 578.69 1615.16 581.791 1615.49 583.74 1617.65 C 587.503 1621.83 602.263 1697.67 600.66 1703.38 C 599.831 1706.33 597.763 1706.96 595.364 1708.33 C 592.844 1707.5 590.482 1706.99 588.706 1704.89 C 582.165 1697.14 568.418 1631.24 570.503 1621.04 C 571.174 1617.75 573.463 1616.78 575.943 1614.87 z"/>
<path transform="translate(0,0)" fill="rgb(254,254,254)" d="M 389.329 1008.17 C 391.52 1008.04 393.803 1008.07 395.977 1008.39 C 399.506 1008.92 403.69 1012.13 405.375 1015.24 C 406.539 1017.39 406.897 1019.53 405.918 1021.85 C 401.02 1033.47 356.519 1043.1 344.237 1046.84 C 340.994 1047.23 338.199 1047.62 335.11 1046.18 C 331.942 1044.71 328.271 1041.27 327.367 1037.85 C 326.871 1035.97 327.572 1033.62 328.657 1032.02 C 336.21 1020.89 375.654 1011.34 389.329 1008.17 z"/>
<path transform="translate(0,0)" fill="rgb(254,254,254)" d="M 670.989 1580.3 C 681.384 1580.58 690.65 1583.43 698.712 1590.23 C 709.451 1599.28 715.308 1613.09 716.469 1626.9 C 717.931 1644.29 712.425 1662.57 700.979 1675.85 C 690.743 1687.73 679.824 1692.47 664.57 1693.77 C 654.209 1693 645.031 1690.82 636.428 1684.57 C 625.289 1676.48 618.481 1664 616.489 1650.5 C 614.148 1634.65 618.449 1617.4 628.112 1604.62 C 638.746 1590.54 653.719 1582.66 670.989 1580.3 z"/>
<path transform="translate(0,0)" fill="rgb(254,254,254)" d="M 705.099 1001.36 C 715.502 1000.47 725.457 1001.37 734.596 1006.86 C 756.405 1019.97 767.281 1071.56 773.523 1095.86 A 4491.58 4491.58 0 0 1 825.316 1329.97 C 831.023 1358.73 840.572 1388.67 841.46 1418.03 C 841.671 1424.98 840.089 1430.9 836.364 1436.82 C 830.034 1446.87 812.976 1453.98 802.208 1457.85 C 786.097 1463.64 769.357 1467.69 752.786 1471.93 C 716.65 1481.2 680.217 1488.88 643.942 1497.53 C 613.714 1504.73 583.377 1511.95 553.279 1519.66 C 523.922 1527.19 494.854 1535.36 465.234 1541.89 L 464.381 1542.05 C 450.025 1544.7 432.956 1547.35 420.293 1538.21 C 415.633 1534.85 413.673 1531.94 411.577 1526.7 C 404.811 1509.8 401.122 1490.46 397.067 1472.72 A 2045.51 2045.51 0 0 1 374.791 1362.74 L 332.505 1130.01 C 331.272 1123.17 329.65 1117.16 334.134 1111.13 C 360.572 1075.59 569.488 1032.97 618.179 1021.64 C 647.036 1014.92 675.668 1005.16 705.099 1001.36 z"/>
<path transform="translate(0,0)" fill="rgb(1,1,1)" d="M 677.605 1037.32 C 688.536 1036.04 699.74 1036.16 709.173 1042.64 C 714.956 1046.61 720.029 1052.2 722.66 1058.73 C 734.642 1088.48 738.61 1124.37 745.215 1155.91 L 787.333 1362.11 C 790.654 1378.7 794.639 1397.14 784.116 1412.14 C 777.431 1421.66 766.222 1428.5 755.68 1433.02 C 723.549 1446.8 687.784 1452.77 654.083 1461.53 L 539.025 1490.37 C 517.893 1495.53 497.069 1501.43 475.66 1505.4 C 464.393 1506.89 452.13 1507.91 442.219 1501.2 C 435.293 1496.5 431.606 1490.25 428.465 1482.73 C 415.706 1452.17 409.938 1410.67 403.036 1377.86 C 397.888 1353.38 391.334 1329.2 386.411 1304.7 A 1915.11 1915.11 0 0 1 365.683 1178.15 C 364.204 1166.13 361.418 1152.16 362.067 1140.13 C 362.364 1134.62 364.138 1128.54 367.397 1124.03 C 372.097 1117.52 381.359 1112.75 388.659 1109.67 C 407.329 1101.78 427.772 1096.79 447.25 1091.25 A 2043.61 2043.61 0 0 1 588.834 1056.32 C 618.21 1049.91 647.937 1041.99 677.605 1037.32 z"/>
<path transform="translate(0,0)" fill="rgb(254,254,254)" d="M 593.054 1282.19 C 600.26 1288.12 623.728 1394.29 628.15 1411.97 C 631.131 1423.88 636.375 1436.3 637.835 1448.41 C 636.019 1450.91 633.095 1451.36 630.28 1452.22 C 629.594 1451.95 628.712 1451.94 628.221 1451.39 C 623.161 1445.69 600.505 1317.58 587.689 1291.6 C 586.571 1289.33 585.676 1287.47 585.108 1285.02 C 587.397 1283.18 590.236 1282.88 593.054 1282.19 z"/>
<path transform="translate(0,0)" fill="rgb(254,254,254)" d="M 544.776 1081.3 C 550.055 1087.2 576.545 1213.76 580.817 1233.58 C 577.092 1234.59 573.13 1235.05 569.323 1235.69 C 560.254 1224.66 548.186 1146.41 544.329 1127.77 C 541.276 1113.01 537.536 1098.37 533.895 1083.75 L 544.776 1081.3 z"/>
<path transform="translate(0,0)" fill="rgb(254,254,254)" d="M 737.602 1209.19 C 738.875 1209.11 738.026 1209.06 740.007 1210.04 C 742.325 1215.65 743.144 1222 744.344 1227.94 C 697.703 1237.46 652.314 1250.47 606.397 1262.84 C 568.113 1273.16 529.655 1282.6 491.484 1293.39 C 464.136 1301.12 436.817 1311.28 409.241 1317.81 L 407.313 1317.91 C 404.193 1315.14 403.096 1304.38 402.144 1299.97 C 429.952 1292.09 458.003 1284.97 485.729 1276.81 C 515.371 1268.1 544.644 1258.42 574.518 1250.45 C 603.025 1242.84 632.099 1236.97 660.722 1229.67 C 686.46 1223.1 711.622 1214.82 737.602 1209.19 z"/>
<path transform="translate(0,0)" fill="rgb(254,254,254)" d="M 685.813 1051.4 C 690.842 1051.31 696.405 1052.44 700.584 1055.37 C 704.853 1058.36 707.325 1062.54 709.287 1067.26 C 716.225 1083.97 718.836 1103.23 722.447 1120.9 L 737.48 1193.87 C 716.54 1198.16 695.936 1204.39 675.298 1209.94 A 2351.16 2351.16 0 0 1 610.519 1226.12 L 595.2 1229.52 C 583.597 1179.07 572.716 1128.72 559.519 1078.63 C 580.542 1073.08 602.041 1069.01 623.252 1064.21 C 643.806 1059.57 664.859 1053.65 685.813 1051.4 z"/>
<path transform="translate(0,0)" fill="rgb(254,254,254)" d="M 741.733 1243.36 C 743.128 1243.04 744.408 1243.21 745.827 1243.28 C 747.872 1245.67 748.518 1248.24 749.269 1251.21 C 751.221 1258.92 752.067 1266.95 753.58 1274.76 L 764.284 1329.47 C 767.98 1348.56 774.377 1368.81 775.077 1388.22 C 775.278 1393.79 774.645 1397.57 771.61 1402.29 C 757.706 1423.91 679.528 1439.57 652.816 1446 C 651.898 1443.28 651.299 1440.36 650.588 1437.57 C 646.006 1418.38 640.721 1399.33 636.022 1380.16 C 631.707 1362.56 627.989 1344.65 622.946 1327.25 C 618.205 1310.89 612.462 1294.76 607.082 1278.6 C 631.365 1271.08 656.155 1264.99 680.688 1258.33 C 700.697 1252.91 721.188 1246.1 741.733 1243.36 z"/>
<path transform="translate(0,0)" fill="rgb(254,254,254)" d="M 513.875 1089.22 C 515.827 1088.9 516.239 1088.91 518.105 1089.55 C 521.177 1095.25 522.38 1102.91 524.011 1109.23 C 531.09 1136.61 535.747 1164.12 541.443 1191.77 C 544.84 1208.26 549.325 1224.6 553.481 1240.91 C 529.92 1245.99 506.942 1254.51 483.906 1261.56 C 460.221 1268.8 436.169 1274.97 412.249 1281.39 L 398.558 1285.26 C 395.304 1266.4 371.052 1143.86 380.398 1131.92 C 389.374 1120.45 493.403 1094.27 513.875 1089.22 z"/>
<path transform="translate(0,0)" fill="rgb(254,254,254)" d="M 568.575 1288.23 L 569.149 1288.26 C 581.277 1296.42 606.968 1431.87 612.856 1456.27 C 583.248 1463.78 553.406 1470.31 523.809 1477.8 C 506.843 1482.1 490.051 1487.89 472.808 1490.92 C 467.421 1491.87 462.537 1492.37 457.076 1491.47 C 455.237 1490.58 453.356 1489.69 451.638 1488.58 C 448.516 1486.58 446.023 1483.86 444.404 1480.53 C 432.596 1456.25 428.772 1421.57 423.386 1394.9 A 1373.47 1373.47 0 0 0 409.289 1333.37 A 3470.97 3470.97 0 0 1 499.596 1306.4 C 522.383 1299.8 545.317 1292.96 568.575 1288.23 z"/>
<path transform="translate(0,0)" fill="rgb(1,1,1)" d="M 1606.68 66.4676 C 1650.88 66.1953 1755.32 66.6422 1788.84 97.0037 C 1804.46 111.163 1810.78 131.741 1813.65 152.037 C 1818.25 184.715 1817.47 218.191 1817.96 251.125 C 1818.65 297.964 1819.51 345.097 1822.91 391.822 C 1824.86 418.532 1827.92 445.15 1829.64 471.879 A 37299.6 37299.6 0 0 1 1854.93 995.664 L 1876.76 1414.33 C 1878.24 1445.61 1882.69 1509.19 1876.26 1537.1 C 1874.98 1542.68 1873 1548.25 1868.92 1552.45 C 1856.22 1565.49 1821.34 1572.98 1803.94 1575.9 C 1779.8 1579.96 1754.47 1580.2 1730.02 1581.51 A 2232.86 2232.86 0 0 0 1640.32 1587.94 C 1513.71 1599.14 1387.48 1613.72 1260.34 1617.64 L 1134.03 1619.06 C 1112.73 1619.26 1089.95 1621.95 1068.87 1618.96 C 1060.49 1617.78 1051.38 1615.19 1045.22 1609.11 C 1040.04 1604 1038.95 1597.13 1038 1590.18 C 1034.31 1562.98 1034.9 1534.17 1033.98 1506.69 A 2791.05 2791.05 0 0 0 1027.76 1390.62 C 1024.57 1347.86 1020 1305.18 1017.22 1262.38 C 1013.75 1209.02 1011.93 1155.5 1009.52 1102.08 A 13940.7 13940.7 0 0 1 999.487 865.479 A 20250.1 20250.1 0 0 1 991.277 635.386 C 990.263 587.254 993.588 539.227 994.629 491.124 C 995.363 457.217 993.775 423.186 993.216 389.282 A 3039.19 3039.19 0 0 1 993.581 305.246 C 994.022 272.89 991.905 230.261 1002.63 199.618 C 1008.43 183.051 1019.75 168.181 1031.92 155.741 C 1046.59 140.751 1065.63 128.583 1085.42 121.661 C 1113.22 111.942 1144.01 106.9 1173.03 102.336 C 1235.17 92.5592 1298.19 87.3642 1360.85 82.068 C 1442.73 75.1463 1524.45 67.528 1606.68 66.4676 z"/>
<path transform="translate(0,0)" fill="rgb(254,254,254)" d="M 1571.89 93.463 C 1618.69 92.7397 1720.43 90.0786 1755.4 123.18 C 1782.62 148.937 1778.83 198.41 1779.54 233.069 A 4018.59 4018.59 0 0 0 1211.24 281.593 L 1110.24 296.834 C 1084.91 300.494 1059.61 303.649 1034.42 308.208 C 1033.31 293.398 1032 278.565 1031.22 263.735 C 1029.6 232.523 1026.64 195.24 1048.99 170.744 C 1064.25 154.01 1086.66 147.33 1107.91 141.778 C 1128.77 136.327 1150.21 133.271 1171.51 130.116 C 1219.79 122.962 1268.37 118.759 1316.95 114.105 L 1420.07 104.978 C 1470.76 100.305 1520.98 95.4941 1571.89 93.463 z"/>
<path transform="translate(0,0)" fill="rgb(1,1,1)" d="M 1546.56 171.464 C 1546.84 171.461 1547.14 171.399 1547.42 171.456 C 1550.18 172.016 1552.51 173.409 1554.03 175.866 C 1555.53 178.299 1555.4 179.013 1554.81 181.601 C 1551.73 185.34 1546.8 186.455 1542.21 187.294 C 1523.58 190.705 1503.58 191.06 1484.69 193.229 C 1407.8 202.057 1330.37 206.447 1253.73 217.183 C 1253.27 217.101 1252.81 217.039 1252.36 216.937 C 1249.13 216.212 1246.14 214.71 1244.68 211.551 C 1243.51 209.026 1243.93 207.682 1244.6 205.197 C 1247.54 201.792 1250.09 200.974 1254.44 200.165 C 1264.51 198.292 1275.42 198.043 1285.65 197.179 A 2371.83 2371.83 0 0 0 1340.14 192.23 L 1546.56 171.464 z"/>
<path transform="translate(0,0)" fill="rgb(254,254,254)" d="M 1777.79 1400.49 L 1802.33 1399.7 L 1802.28 1552.67 C 1770.2 1553.24 1738.2 1555.8 1706.23 1558.28 C 1638 1563.55 1569.96 1570.96 1501.73 1576.45 A 2556.16 2556.16 0 0 1 1410.46 1582.6 C 1359.98 1584.74 1309.45 1585.19 1258.96 1587.37 L 1170.27 1591.52 C 1142.69 1592.85 1114.83 1594.47 1087.25 1592.28 C 1081.86 1591.99 1071.25 1592.28 1067.25 1588.46 C 1063.23 1584.63 1058.84 1459.13 1058.59 1445.86 C 1088.08 1442.62 1118.81 1443.34 1148.51 1441.49 L 1411.06 1426.16 C 1533.18 1418.58 1655.55 1403.74 1777.79 1400.49 z"/>
<path transform="translate(0,0)" fill="rgb(254,254,254)" d="M 1765.92 249.524 L 1782.84 249.251 C 1784.1 292.862 1794.34 336.105 1796.98 379.731 C 1799.93 428.429 1798.27 477.338 1801.38 526.059 C 1807.05 615.143 1815.22 703.997 1821.76 793.005 A 5391.22 5391.22 0 0 1 1831.82 966.577 A 28172.4 28172.4 0 0 1 1843.55 1323.39 A 5752.13 5752.13 0 0 0 1848.9 1463.44 C 1850.38 1490.21 1850.92 1518.3 1856.57 1544.54 C 1843.36 1550.15 1832.03 1551.55 1817.74 1551.35 C 1819.64 1525.95 1821.56 1403.52 1815.95 1386.61 C 1811.23 1382.51 1805.13 1383.23 1799.07 1383.26 C 1766.6 1383.46 1733.55 1386.58 1701.14 1388.74 A 8713.19 8713.19 0 0 0 1532.05 1401.23 A 5826.06 5826.06 0 0 1 1257.41 1418.16 C 1212.97 1421.05 1168.5 1424.22 1124.02 1426.51 C 1101.8 1427.65 1079.47 1429.21 1057.21 1428.98 C 1056.6 1408 1054.65 1386.94 1053.14 1366 C 1049.05 1309.35 1043.43 1252.65 1040.26 1195.95 A 23513.9 23513.9 0 0 1 1016.39 646.391 C 1013.62 570.362 1011 494.59 1011.14 418.498 C 1011.19 387.627 1010.24 356.128 1012.68 325.345 C 1045.73 322.348 1079.07 316.32 1111.97 311.743 L 1331.59 280.957 A 3377.71 3377.71 0 0 1 1765.92 249.524 z"/>
<path transform="translate(0,0)" fill="rgb(1,1,1)" d="M 1112 1340.13 C 1115.58 1339.72 1119.52 1339.54 1122.99 1340.6 C 1127.88 1342.09 1132.16 1345.51 1134.41 1350.14 C 1136.76 1355.01 1136.82 1360.66 1134.95 1365.69 C 1132.29 1372.89 1127.28 1376.27 1120.64 1379.51 C 1118.14 1379.7 1115.54 1379.87 1113.07 1379.36 C 1107.49 1378.21 1102.24 1374.97 1099.43 1369.9 C 1096.81 1365.16 1096.49 1359.43 1098.15 1354.31 C 1100.54 1346.98 1105.45 1343.58 1112 1340.13 z"/>
<path transform="translate(0,0)" fill="rgb(1,1,1)" d="M 1482.86 1315.12 C 1488.12 1314.7 1492.85 1314.36 1497.78 1316.57 C 1503.36 1319.08 1507.92 1323.62 1510.06 1329.4 A 21.6458 21.6458 0 0 1 1509.18 1346.56 C 1505.62 1353.63 1499.93 1356.79 1492.62 1358.97 C 1488.79 1359.22 1485 1359.53 1481.25 1358.5 C 1475.43 1356.92 1470.38 1353.02 1467.67 1347.6 C 1465.03 1342.32 1464.93 1336.05 1467.05 1330.58 C 1469.97 1323 1475.65 1318.38 1482.86 1315.12 z"/>
<path transform="translate(0,0)" fill="rgb(1,1,1)" d="M 1358.35 1325.1 C 1363.06 1324.82 1367.59 1325.31 1371.9 1327.36 A 22.2619 22.2619 0 0 1 1383.57 1340.34 A 22.4044 22.4044 0 0 1 1382.03 1358.09 C 1378.34 1364.88 1372.79 1367.68 1365.7 1369.97 C 1361.34 1370.55 1357.4 1370.37 1353.23 1368.9 C 1347.34 1366.83 1342.93 1362.67 1340.56 1356.9 A 21.961 21.961 0 0 1 1340.88 1339.86 C 1344.38 1331.92 1350.65 1328.23 1358.35 1325.1 z"/>
<path transform="translate(0,0)" fill="rgb(1,1,1)" d="M 1612.54 1304.15 C 1616.01 1304.29 1619.42 1304.69 1622.63 1306.11 C 1628.92 1308.89 1633.93 1313.57 1636.17 1320.17 A 22.0142 22.0142 0 0 1 1634.78 1337.48 C 1630.78 1345.09 1624.62 1348.11 1616.76 1350.69 C 1612.84 1350.76 1608.44 1350.08 1604.84 1348.5 C 1599.38 1346.11 1594.97 1341.69 1593.01 1336.01 C 1590.86 1329.76 1591.75 1322.78 1594.91 1317.04 C 1598.9 1309.78 1604.75 1306.25 1612.54 1304.15 z"/>
<path transform="translate(0,0)" fill="rgb(1,1,1)" d="M 1232.74 1332.22 C 1237.25 1332.02 1241.65 1332.32 1245.72 1334.46 C 1251.21 1337.35 1255.19 1342.13 1256.93 1348.09 A 22.9481 22.9481 0 0 1 1254.32 1366.85 C 1250.01 1373.68 1244.37 1376.24 1236.79 1378.08 C 1232.1 1378.05 1227.76 1377.26 1223.63 1374.91 C 1217.85 1371.6 1213.54 1366.05 1212.14 1359.49 A 21.8045 21.8045 0 0 1 1215.7 1342.52 C 1220.03 1336.32 1225.52 1333.61 1232.74 1332.22 z"/>
<path transform="translate(0,0)" fill="rgb(1,1,1)" d="M 1735.53 1293.09 C 1739.02 1292.95 1742.38 1292.84 1745.75 1293.96 C 1752.08 1296.08 1757.41 1300.47 1760.23 1306.57 A 21.6014 21.6014 0 0 1 1760.72 1323.82 C 1757.49 1331.91 1751.45 1335.64 1743.76 1338.87 C 1738.73 1339.33 1734.1 1339.32 1729.37 1337.27 C 1723.73 1334.83 1719.15 1330.31 1717.04 1324.49 A 22.5756 22.5756 0 0 1 1718.03 1306.95 C 1721.67 1299.39 1727.84 1295.62 1735.53 1293.09 z"/>
<path transform="translate(0,0)" fill="rgb(1,1,1)" d="M 1737.69 277.596 C 1743.19 277.069 1751.02 275.35 1756.04 278.152 C 1758.01 279.25 1758.95 280.543 1759.44 282.792 C 1761.47 292.038 1761.01 302.882 1761.51 312.364 L 1764.75 378.615 L 1776.13 599.307 L 1801.56 1053.15 L 1806.41 1172.47 C 1807.18 1192.49 1808.89 1212.84 1808.73 1232.87 C 1808.69 1236.85 1808.93 1244.98 1806.51 1248.05 C 1803.28 1252.15 1797.64 1253.98 1792.72 1254.85 C 1769.63 1258.94 1744.81 1259.3 1721.41 1261.14 A 6487.31 6487.31 0 0 1 1560.8 1271.95 A 29342.1 29342.1 0 0 1 1099.31 1297.89 C 1092.24 1297.95 1079.59 1300.85 1073.39 1296.79 C 1069.84 1294.46 1069.66 1288.46 1069.24 1284.57 C 1066.15 1255.87 1065.22 1226.64 1063.53 1197.8 A 5347.17 5347.17 0 0 0 1057.26 1110.9 A 8460.47 8460.47 0 0 1 1030.42 462.319 C 1030.24 447.097 1026.27 368.106 1032.5 361.255 C 1061.36 329.535 1653.98 285.091 1737.69 277.596 z"/>
<path transform="translate(0,0)" fill="rgb(254,254,254)" d="M 1730.95 293.415 C 1735.41 292.791 1740.15 292.866 1744.66 292.643 C 1746.21 352.798 1751.69 413.113 1754.63 473.243 L 1768.45 738.08 C 1770.51 775.572 1772.02 813.122 1774.53 850.585 A 9759.57 9759.57 0 0 1 1786.85 1066.13 C 1789.84 1123.42 1793.48 1181.09 1793.07 1238.47 C 1720.66 1246.03 1647.85 1250.26 1575.21 1255.02 A 11550.7 11550.7 0 0 1 1314.5 1270.66 C 1245.18 1273.94 1175.78 1279.9 1106.4 1281.25 C 1099.5 1281.81 1092.54 1281.86 1085.62 1282.05 C 1077.11 1136.85 1062.32 992.116 1055.33 846.839 C 1047.7 687.925 1048.14 528.521 1044.78 369.465 C 1062.56 363.516 1083.12 361.496 1101.63 358.485 A 2549.9 2549.9 0 0 1 1229.91 340.516 A 14647.9 14647.9 0 0 1 1730.95 293.415 z"/>
<path transform="translate(0,0)" fill="rgb(1,1,1)" d="M 1566.95 572.441 C 1579.9 571.997 1626.65 569.06 1635.33 576.529 C 1644.59 584.49 1646.83 618.761 1647.82 631.166 C 1652.25 687.008 1651.08 743.724 1652.75 799.757 C 1654.54 859.572 1659.22 919.759 1657.63 979.615 C 1657.53 983.609 1657.61 990.865 1654.86 993.786 C 1651.71 997.14 1648.1 997.83 1643.71 998.646 C 1630.59 1001.09 1616.76 1001.48 1603.47 1002.5 L 1532.72 1007.62 A 8386.83 8386.83 0 0 1 1262.45 1022.12 C 1249.48 1023.31 1207.24 1027.04 1196.94 1023.72 C 1190.98 1014.88 1184.18 921.465 1182.59 903.993 A 2255.86 2255.86 0 0 1 1173.88 686.502 C 1173.91 669.138 1172.02 644.559 1175.46 627.886 A 16.5183 16.5183 0 0 1 1179.31 620.169 C 1181.29 617.963 1183.65 616.4 1186.48 615.528 C 1199.18 611.615 1214.62 611.442 1227.83 610.246 A 3143.66 3143.66 0 0 1 1313.25 603.649 C 1328.63 602.794 1344.64 603.26 1359.89 601.507 C 1380.3 599.16 1400.64 590.507 1421.1 586.77 C 1469.12 578.001 1518.22 574.225 1566.95 572.441 z"/>
<path transform="translate(0,0)" fill="rgb(254,254,254)" d="M 1580.74 586.456 C 1595.86 585.834 1610.93 586.397 1626.02 587.336 C 1637.13 617.556 1634.82 687.024 1635.32 720.997 L 1637.35 803.749 C 1638.9 864.2 1642.27 924.309 1642.14 984.846 C 1609.09 989.113 1574.98 989.681 1541.7 991.926 C 1498.41 994.847 1455.23 998.846 1411.88 1000.89 C 1344.38 1004.07 1276.78 1005.04 1209.43 1011.01 C 1204.75 981.481 1202.08 951.525 1199.26 921.776 A 2276.51 2276.51 0 0 1 1189.11 746.014 C 1188.6 707.206 1189.49 668.385 1189.52 629.576 C 1230.87 623.617 1272.53 621.067 1314.23 619.293 C 1292.23 634.402 1270.59 648.941 1253.39 669.662 C 1218.72 709.275 1196.09 761.267 1193.99 814.15 C 1192.2 859.547 1205.25 901.898 1236.43 935.515 C 1272.29 974.183 1325.43 989.743 1376.83 991.619 C 1443.22 994.042 1514.32 974.543 1563.61 928.474 C 1596.94 897.322 1613.62 856.122 1615.04 810.81 A 190.185 190.185 0 0 0 1563.09 672.494 C 1522.45 629.659 1470.73 605.847 1411.43 604.404 C 1466.55 591.848 1524.34 588.15 1580.74 586.456 z"/>
<path transform="translate(0,0)" fill="rgb(254,254,254)" d="M 1360.86 618.316 C 1370.42 617.839 1380.26 618.521 1389.84 618.82 C 1432.49 620.151 1474.78 625.905 1511.89 648.55 C 1552.63 673.413 1584.17 714.695 1595.06 761.283 C 1605.04 803.951 1601.24 849.964 1577.77 887.669 C 1548.81 934.178 1496.31 958.656 1444.8 970.701 A 271.247 271.247 0 0 1 1438.64 971.95 C 1382.05 982.727 1318.79 977.346 1270.29 943.958 C 1239.13 922.502 1218.89 890.172 1212.27 852.915 C 1202.67 798.942 1218.47 743.597 1249.59 699.143 C 1273.67 664.735 1318.49 625.905 1360.86 618.316 z"/>
<path transform="translate(0,0)" fill="rgb(1,1,1)" d="M 1510.26 719.118 C 1514.85 719.729 1519.06 720.929 1522.71 723.942 C 1525.37 726.15 1526.78 729.152 1526.92 732.592 C 1527.15 738.291 1524.54 743.689 1521.62 748.424 C 1506.89 772.368 1481.39 801.585 1463.83 824.356 C 1444.05 849.987 1425.64 877.487 1404.17 901.687 C 1401.15 905.096 1394.2 912.743 1389.57 912.564 C 1371.74 911.878 1335.93 873.808 1322.85 861.08 C 1313.21 851.072 1281.79 822.354 1280.54 809.926 C 1280.22 806.692 1281.15 804.933 1283.23 802.588 C 1298.44 796.277 1360.29 824.002 1382.17 825.642 L 1383.65 825.745 C 1393.11 820.377 1401.83 811.215 1410.04 804.086 C 1428.62 787.938 1447.39 772.043 1465.73 755.605 C 1477.44 745.11 1488.95 733.292 1501.34 723.694 C 1504.17 721.505 1506.87 720.232 1510.26 719.118 z"/>
</svg>