<svg version="1.1" xmlns="http://www.w3.org/2000/svg" style="display: block;" viewBox="0 0 2048 2048" width="1024" height="1024">
<path transform="translate(0,0)" fill="rgb(254,254,254)" d="M 0 0 L 2048 0 L 2048 2048 L 0 2048 L 0 0 z"/>
<path transform="translate(0,0)" fill="rgb(78,77,77)" d="M 1391.27 209.66 C 1394.17 209.534 1396.68 209.658 1399.43 210.685 C 1418.71 217.867 1437.99 228.732 1456.62 237.637 C 1487.01 252.162 1517.73 266.067 1548 280.839 C 1553.14 283.349 1560.35 285.832 1562.27 291.511 C 1561.78 294.581 1559.83 296.251 1557.8 298.43 C 1557.29 298.469 1555.9 298.599 1555.37 298.548 C 1548.96 297.938 1410.85 231.188 1396.89 224.005 C 1393.8 222.419 1389.86 220.784 1387.69 218.038 C 1387.59 214.859 1389.69 212.286 1391.27 209.66 z"/>
<path transform="translate(0,0)" fill="rgb(78,77,77)" d="M 1536.43 1110.77 C 1541.04 1111.63 1545.1 1113.34 1549.4 1115.12 C 1539.13 1130.9 1525.66 1145.52 1513.72 1160.08 L 1461.97 1223.95 L 1379.2 1322.95 C 1355.01 1352.21 1331.62 1382.15 1306.23 1410.41 C 1305.34 1411.26 1304.53 1411.73 1303.48 1412.35 C 1300.55 1410.05 1299.39 1405.26 1298.07 1401.86 C 1307.25 1391.75 1315.6 1380.55 1324.29 1370 L 1384.96 1296.16 L 1463.04 1200.81 A 3769.41 3769.41 0 0 0 1536.43 1110.77 z"/>
<path transform="translate(0,0)" fill="rgb(78,77,77)" d="M 1454.84 1738.71 C 1456.3 1738.94 1457.12 1739.19 1458.45 1739.75 C 1461.59 1741.08 1463.6 1741.9 1464.91 1745.16 C 1464.51 1747.13 1464.03 1748.36 1462.6 1749.76 C 1452.67 1759.59 1418.42 1773.05 1403.79 1779.54 C 1267.49 1840.06 1146.23 1855.46 998.683 1850.8 C 995.338 1850.29 991.221 1849.92 989.072 1846.95 C 987.44 1844.68 987.495 1843.85 987.985 1841.33 C 995.267 1834.28 1042.25 1839.07 1054.72 1838.87 C 1159.81 1837.15 1258.46 1821.6 1357.05 1784.15 C 1390.74 1771.35 1423.65 1756.82 1454.84 1738.71 z"/>
<path transform="translate(0,0)" fill="rgb(78,77,77)" d="M 1914.52 966.251 L 1915.92 966.568 C 1921.82 976.034 1909.84 1086.95 1907.27 1104.54 C 1892.85 1203.21 1857.85 1308.56 1811.01 1396.55 C 1806.79 1404.49 1797.97 1424.65 1791.66 1429.34 L 1789.39 1428.35 C 1786.66 1426.08 1784.3 1423.37 1781.87 1420.78 C 1859.96 1278.36 1900.82 1131.26 1902.76 968.929 C 1906.62 967.732 1910.56 967.026 1914.52 966.251 z"/>
<path transform="translate(0,0)" fill="rgb(78,77,77)" d="M 1039.33 164.442 C 1054.61 163.809 1113.31 161.074 1124.05 166.516 C 1126.33 167.673 1127.07 168.631 1127.88 170.983 C 1127.05 174.624 1126.26 176.935 1122.13 177.616 C 1112.89 179.136 1081.92 176.817 1070.27 176.885 A 828.452 828.452 0 0 0 966.904 183.918 C 823.952 203.203 703.724 253.385 582.959 331.151 C 572.049 338.349 540.634 364.487 529.525 363.778 C 527.288 362.39 527.413 362.335 526.613 359.8 C 527.264 356.096 528.537 353.948 531.164 351.237 C 542.706 339.326 585.245 313.264 601.075 303.425 C 734.109 220.733 882.184 170.086 1039.33 164.442 z"/>
<path transform="translate(0,0)" fill="rgb(78,77,77)" d="M 1232.05 116.227 C 1240.88 116.09 1265.99 112.833 1272.53 118.377 C 1279.24 124.054 1277.49 140.3 1277.55 148.441 C 1282.28 149.796 1286.93 151.071 1291.41 153.154 C 1297.13 147.366 1304.89 139.174 1312.51 136.192 C 1315.11 135.174 1316.54 135.087 1319.08 136.365 C 1328.74 141.226 1346.25 159.059 1349.56 169.521 C 1348.01 177.921 1336.47 182.06 1331.73 188.62 C 1330.19 190.744 1330.01 192.498 1330.63 195.034 C 1333.71 207.567 1354.09 197.525 1362.66 203.155 C 1365.53 205.044 1367 208.321 1367.81 211.54 C 1369.5 218.221 1371.07 239.566 1367.26 245.074 C 1362.69 251.675 1345.16 252.065 1337.44 253.26 C 1335.13 258.296 1332.42 263.012 1329.64 267.798 C 1335.92 272.45 1345.14 278.655 1349.23 285.326 C 1350.74 287.785 1351.29 289.716 1350.31 292.51 C 1346.98 301.946 1325.21 320.933 1316.22 325.511 C 1308 319.777 1300.16 313.244 1292.24 307.079 C 1287.58 309.946 1282.52 311.979 1277.5 314.13 C 1276.91 321.363 1277.76 329.156 1275.93 336.208 C 1274.98 339.833 1273.53 341.061 1270.33 342.795 C 1262.8 344.472 1254.23 344.743 1246.51 345.15 C 1240.34 345.475 1233.23 345.8 1228.5 341.092 C 1222 334.623 1223.38 322.613 1223.39 314.168 C 1218.49 310.998 1213.04 308.431 1207.87 305.706 C 1201.55 312.094 1193.39 322.232 1184.09 323.651 C 1178.58 322.293 1174.44 318.88 1170.31 315.148 C 1163.51 309.007 1152.67 298.54 1152.23 288.979 C 1155.24 280.792 1164.38 274.475 1170.8 268.802 L 1166.3 255.325 C 1156.94 254.135 1144.75 254.832 1136.32 250.647 C 1133.85 247.668 1133.13 244.611 1132.61 240.846 C 1131.26 231.193 1130.69 211.793 1136.89 203.796 C 1144.53 199.772 1159.28 201.859 1167.9 202.007 L 1172.93 190.283 C 1167.95 185.688 1161.59 180.796 1157.61 175.321 C 1155.81 172.843 1155.16 171.175 1155.86 168.102 C 1158.03 158.629 1175.67 142.497 1183.93 137.518 C 1198.09 128.996 1202.72 151 1214.6 152.696 C 1216.84 153.014 1219.56 152.3 1221.22 150.72 C 1225.71 146.438 1224.18 132.886 1225.33 126.679 C 1226.27 121.639 1227.77 119.077 1232.05 116.227 z"/>
<path transform="translate(0,0)" fill="rgb(254,254,254)" d="M 1238.98 130.021 C 1246.81 129.792 1254.64 129.936 1262.48 130.032 C 1263.98 139.956 1264.22 150.34 1264.87 160.361 C 1275.68 162.317 1283.62 165.967 1293.3 171.066 C 1301.01 164.882 1308.08 157.586 1315.22 150.756 C 1321.39 156.561 1327.33 162.321 1332.79 168.803 C 1326.43 175.752 1318.73 181.885 1311.72 188.194 C 1315 196.777 1319.2 205.169 1322.97 213.559 C 1333.6 214.557 1344.44 214.583 1354.73 217.606 L 1354.81 237.62 C 1344.51 239.103 1334.12 240.1 1323.78 241.283 C 1321.17 251.828 1318.22 261.367 1313.2 271.034 C 1320.14 278 1327.34 284.807 1333.27 292.681 C 1328.06 298.475 1322.05 303.148 1315.76 307.689 L 1295.92 289.961 C 1285.77 295.95 1275.43 299.236 1264.26 302.728 C 1263.33 310.186 1263.12 317.664 1262.84 325.168 C 1262.39 326.569 1262.26 328.272 1260.98 329.145 C 1255.66 332.748 1244.61 329.582 1238.62 328.409 C 1237.02 319.554 1236.84 310.312 1235.83 301.349 C 1224.99 298.802 1216.08 294.614 1206.16 289.702 C 1198.23 295.034 1190.97 302.174 1183.75 308.437 A 615.603 615.603 0 0 0 1167.07 291.785 A 1035.04 1035.04 0 0 0 1187.17 269.816 C 1182.01 260.791 1179.07 251.178 1176.12 241.256 C 1165.97 240.913 1156.68 240.442 1147 237.204 L 1146.9 215.595 L 1177.02 215.962 C 1180.25 206.413 1184.83 197.387 1189.49 188.476 L 1171.68 168.853 C 1176.59 162.084 1182.72 156.342 1188.91 150.766 C 1196.46 156.388 1203.33 163.321 1210.24 169.719 C 1219.26 165.678 1228.3 162.33 1237.71 159.324 A 685.609 685.609 0 0 1 1238.98 130.021 z"/>
<path transform="translate(0,0)" fill="rgb(78,77,77)" d="M 1248.41 187.318 A 46.1405 46.1405 0 0 1 1276.86 195.056 C 1286.91 201.81 1293.34 212.195 1295.53 224.04 C 1297.67 235.633 1295.49 247.565 1288.74 257.309 C 1280.36 269.393 1267.22 274.313 1253.41 276.874 C 1242.57 276.74 1231.93 274.117 1222.99 267.759 A 44.7316 44.7316 0 0 1 1204.97 238.447 C 1203.13 227.047 1206.3 215.646 1213.26 206.494 C 1222.09 194.898 1234.37 189.451 1248.41 187.318 z"/>
<path transform="translate(0,0)" fill="rgb(254,254,254)" d="M 1246.11 202.178 C 1252.83 201.534 1259.11 201.78 1265.28 204.753 C 1272.93 208.441 1278.51 215.38 1280.9 223.494 A 30.8333 30.8333 0 0 1 1277.84 248.104 C 1272.63 256.741 1265.07 260.571 1255.61 263 C 1246.93 263.124 1239.69 262.866 1232.08 258.021 A 29.9912 29.9912 0 0 1 1218.96 239.103 C 1217.28 231.217 1218.62 223.049 1223.04 216.272 C 1228.55 207.833 1236.62 204.281 1246.11 202.178 z"/>
<path transform="translate(0,0)" fill="rgb(78,77,77)" d="M 1599.33 1348.24 C 1617.53 1351.09 1635.96 1353.08 1654.23 1355.48 A 993.301 993.301 0 0 1 1648.11 1405.68 C 1664.37 1412.16 1679.25 1419.42 1693.17 1430.11 C 1706.24 1418.32 1717.45 1404.82 1731.16 1393.62 C 1747.55 1405.94 1759.3 1423.93 1774.42 1437.77 C 1760.31 1449.48 1745.45 1460.45 1731.14 1471.95 C 1734.89 1480.06 1739.84 1487.66 1743.64 1495.8 C 1747.59 1504.26 1750.11 1513.35 1752.8 1522.26 C 1769.32 1518.74 1786.04 1516.1 1802.94 1515.64 C 1804.14 1534.52 1805.14 1553.2 1805.22 1572.14 C 1788.2 1572.23 1771.14 1572.08 1754.15 1573.17 C 1751.57 1590.34 1747.08 1608.76 1738.8 1624.13 C 1752.84 1633.06 1767.24 1641.49 1781.49 1650.1 C 1770.07 1665.63 1760.19 1682.68 1749.38 1698.69 C 1733.33 1690.43 1718.89 1679.42 1702.97 1670.89 C 1690.52 1682.73 1680.17 1690.52 1664.23 1697.07 C 1668.83 1714.31 1674.42 1731.34 1679.63 1748.4 C 1661.35 1754.39 1642.32 1757.52 1624.06 1763.78 C 1617.07 1747.36 1613.08 1729.67 1607.49 1712.72 L 1599.09 1712.19 C 1584.65 1712.07 1570.51 1710.18 1556.37 1707.34 C 1548.81 1722.79 1543.55 1739.91 1537.67 1756.1 C 1519.09 1747.89 1499.87 1739.43 1481.82 1730.16 C 1491.15 1715.11 1498.03 1698.96 1507.02 1683.84 C 1492.05 1673.71 1481.34 1659.67 1471.08 1645.04 A 3907.02 3907.02 0 0 1 1420.78 1669.61 L 1397.94 1618.26 C 1413.77 1609.44 1431.49 1603.07 1448.2 1596.06 C 1443.5 1578.85 1440.63 1557.5 1445.32 1540.03 C 1428.76 1535.1 1412.77 1528.8 1396.78 1522.28 C 1403.13 1505.91 1407.64 1488.4 1413.44 1471.74 C 1429.7 1476.61 1445.78 1482.3 1461.94 1487.54 C 1468.8 1470.85 1479.28 1457.3 1492.14 1444.77 C 1483.87 1429.85 1474.39 1415.16 1465.18 1400.81 C 1479.63 1389.41 1496.21 1380.01 1511.23 1369.18 A 1204.82 1204.82 0 0 1 1539.24 1411.83 C 1556.3 1406.48 1572.46 1402 1590.3 1399.82 A 4713.07 4713.07 0 0 1 1599.33 1348.24 z"/>
<path transform="translate(0,0)" fill="rgb(254,254,254)" d="M 1589.38 1412.4 C 1621.28 1408.51 1656.05 1419.36 1682.12 1437.5 C 1712.83 1458.85 1735.32 1493.99 1741.65 1530.84 A 141.305 141.305 0 0 1 1717.47 1635.89 C 1690.95 1673.1 1657.81 1691.16 1613.06 1698.82 C 1611 1699.17 1608.95 1699.42 1606.87 1699.61 C 1573.17 1702.77 1531.3 1688.07 1505.46 1666.54 C 1479.21 1644.68 1459.86 1608.36 1456.79 1574.29 C 1453.42 1536.92 1465.52 1493.77 1489.72 1464.82 C 1513.84 1435.98 1551.96 1415.8 1589.38 1412.4 z"/>
<path transform="translate(0,0)" fill="rgb(78,77,77)" d="M 1592.5 1443.38 C 1592.64 1443.36 1592.78 1443.33 1592.93 1443.32 A 113.726 113.726 0 0 1 1676.02 1471.46 C 1697.78 1490.65 1709.87 1517.92 1711.55 1546.77 C 1713.27 1576.45 1704.15 1607.14 1684.21 1629.45 C 1663.29 1652.86 1637.65 1665.53 1606.25 1667.46 C 1579.95 1670.05 1553.66 1660.61 1533.18 1644.47 C 1508.51 1625.02 1491.56 1598.98 1488.1 1567.39 A 108.071 108.071 0 0 1 1512.46 1486.31 C 1533.72 1460.41 1559.38 1446.83 1592.5 1443.38 z"/>
<path transform="translate(0,0)" fill="rgb(254,254,254)" d="M 1599.51 1455.45 C 1622.77 1456.23 1645.32 1462.94 1663.35 1478.11 A 100.567 100.567 0 0 1 1698.65 1547.74 C 1700.65 1574.09 1692.27 1601.17 1674.8 1621.14 C 1656.35 1642.24 1630.74 1652.63 1603.25 1654.44 C 1580.99 1656.01 1557.29 1647.25 1540.22 1633.25 A 99.405 99.405 0 0 1 1504.36 1565.38 A 103.063 103.063 0 0 1 1528.32 1489.04 C 1546.69 1467.2 1571.75 1458.02 1599.51 1455.45 z"/>
<path transform="translate(0,0)" fill="rgb(78,77,77)" d="M 1564.3 329.401 C 1584.13 332.083 1603.94 337.101 1623.71 340.482 C 1626.86 367.09 1629.08 393.816 1632.05 420.448 C 1677.79 436.239 1722.41 455.746 1758.46 488.948 C 1782.82 478.877 1806.51 465.414 1830.27 453.827 C 1843.26 470.552 1858.31 486.329 1872.16 502.421 A 1431.94 1431.94 0 0 0 1826.87 568.2 C 1853.51 610.123 1866.01 658.817 1873.79 707.285 C 1898.95 712.79 1923.9 719.065 1949.04 724.608 C 1950.65 745.062 1950.7 765.712 1951.91 786.209 C 1926.28 793.756 1899.67 797.666 1874.17 805.701 C 1871.83 817.052 1869.36 828.306 1866.47 839.532 C 1882.22 857.55 1904.13 874.763 1922.35 890.458 C 1914.6 911.373 1905.1 932.495 1895.54 952.66 C 1872.26 946.221 1848.63 940.816 1825.17 935.036 C 1809.05 963.68 1785.2 990.199 1760.48 1011.53 C 1750.44 1020.19 1739.57 1027.79 1729.65 1036.58 C 1733.11 1061.57 1735.53 1086.73 1738.87 1111.75 C 1719.19 1120.34 1699.89 1129.81 1680.04 1138.02 C 1664.16 1119.33 1650.4 1098.89 1634.31 1080.39 C 1582.08 1092.28 1544.73 1098.25 1490.76 1091.76 C 1469.6 1089.68 1449.6 1084.75 1429.17 1079.09 C 1423.19 1087.36 1415.06 1094.55 1407.84 1101.75 A 4038.72 4038.72 0 0 1 1373.14 1136.03 C 1354.18 1129.96 1332.28 1116.36 1314.28 1107.06 C 1318.42 1083.1 1325.9 1058.86 1330.12 1034.09 C 1285.16 1002.58 1260.69 977.151 1230.42 931.285 A 2636.7 2636.7 0 0 1 1149.57 946.99 C 1142.46 924.632 1134.53 901.255 1129.84 878.301 C 1150.51 865.118 1172.57 853.959 1193.36 840.76 C 1183.8 783.914 1180.09 734.809 1193.53 678.078 A 1253.62 1253.62 0 0 0 1156.13 652.647 C 1146.77 646.618 1136.5 640.999 1128.06 633.78 C 1135 613.848 1143.6 594.071 1149.16 573.726 C 1175.93 575.686 1202.77 580.638 1229.53 583.36 C 1251.3 546.373 1278.24 512.896 1312.27 486.567 L 1292.33 407.224 C 1308.86 396.567 1328.02 384.431 1346.55 377.767 C 1364.97 395.936 1379.58 417.965 1398.35 435.646 C 1441.9 416.636 1487.04 409.873 1534.07 406.682 C 1541.93 380.572 1554.14 354.762 1564.3 329.401 z"/>
<path transform="translate(0,0)" fill="rgb(254,254,254)" d="M 1513.56 447.413 C 1535.72 444.057 1564.64 447.412 1586.58 451.488 C 1661.76 465.454 1736.86 508.344 1780.25 572.397 A 322.264 322.264 0 0 1 1828.99 817.779 C 1814.03 893.397 1766.74 959.357 1702.95 1001.84 A 307.531 307.531 0 0 1 1521.5 1051.57 C 1501.73 1050.52 1482.26 1046.9 1462.88 1043.06 C 1458.3 1032.04 1453.95 1021.16 1449.96 1009.91 A 4133.13 4133.13 0 0 0 1433.66 965.841 C 1412.67 973.389 1392.77 982.865 1373 993.118 C 1375.29 1004.51 1379.3 1043.41 1383.86 1050.81 C 1386.53 1055.15 1393.87 1057.76 1398.47 1059.5 C 1402.72 1061.11 1411.96 1063.26 1414.77 1066.56 C 1414.13 1067.14 1413.85 1067.49 1412.93 1067.79 C 1406.3 1069.96 1392.93 1066.78 1386.69 1064.08 C 1384.16 1062.99 1381.45 1062.1 1379.04 1060.75 C 1377.18 1059.71 1375.87 1058.06 1374.95 1056.15 C 1370.71 1047.38 1362.58 1014.36 1359.73 1002.87 C 1349.4 995.827 1338.82 988.518 1329.2 980.534 C 1272.36 933.371 1234.37 859.735 1227.6 786.364 A 308.282 308.282 0 0 1 1298.3 557.696 A 317.999 317.999 0 0 1 1467.54 453.897 C 1482.77 450.431 1498.04 448.791 1513.56 447.413 z"/>
<path transform="translate(0,0)" fill="rgb(2,3,2)" d="M 1695.62 601.634 C 1702.56 604.852 1714.3 623.721 1718.77 630.56 A 231.807 231.807 0 0 1 1750.3 803.939 A 223.652 223.652 0 0 1 1654.18 943.663 A 225.228 225.228 0 0 1 1483.23 973.26 C 1482.19 972.927 1481.08 972.299 1480.09 971.831 C 1479.27 967.83 1482.18 962.933 1483.76 959.277 C 1496.73 962.234 1509.93 964.405 1523.24 964.904 A 214.94 214.94 0 0 0 1675.46 907.976 C 1716.42 869.961 1739.35 817.62 1741 761.782 C 1742.62 706.962 1723.39 651.469 1685.49 611.436 L 1695.62 601.634 z"/>
<path transform="translate(0,0)" fill="rgb(2,3,2)" d="M 1516.11 526.419 C 1543.5 523.887 1574.5 527.235 1600.27 536.838 C 1597.24 541.095 1593.68 545.047 1590.34 549.062 C 1589.99 548.954 1589.65 548.841 1589.3 548.739 A 210.34 210.34 0 0 0 1430.75 566.413 A 208.978 208.978 0 0 0 1328.1 693.836 C 1311.11 751.662 1320.01 810.498 1348.67 862.756 C 1357.02 876.557 1367.47 889.089 1378.78 900.538 L 1369.29 911.389 C 1329.93 876.35 1309.78 821.693 1305.52 770.22 C 1300.57 710.382 1321.85 648.712 1360.85 603.352 A 226.582 226.582 0 0 1 1516.11 526.419 z"/>
<path transform="translate(0,0)" fill="rgb(78,77,77)" d="M 1668.31 529.059 C 1670.94 528.859 1674.09 528.459 1676.38 530.086 C 1678.49 531.59 1679.4 533.277 1679.68 535.806 C 1680.05 539.041 1677.95 542.835 1676.03 545.255 C 1666.32 557.527 1652.73 568.404 1641.25 579.069 C 1604.94 612.79 1564.97 644.007 1531.05 680.101 C 1553.56 677.921 1576.47 677.684 1599.05 676.53 C 1616.18 675.654 1680.61 669.822 1693.86 673.693 C 1695.03 675.608 1695.34 676.649 1695.44 678.893 C 1691.41 683.739 1574.94 735.389 1558.66 743.616 L 1595.39 797.177 C 1549.43 837.731 1504.28 878.955 1457.08 918.081 C 1438.59 933.402 1420.3 949.121 1400.75 963.08 C 1396.03 966.503 1383.34 977.574 1377.92 977.219 C 1378.67 966.608 1498.1 847.039 1515.95 827.065 C 1467.69 827.511 1419.63 826.548 1371.38 826.251 C 1386.15 815.307 1405.57 807.191 1421.82 798.429 C 1447.53 784.566 1473.01 769.911 1498.22 755.147 C 1488.82 732.972 1475.12 712.412 1464.45 690.793 C 1478.55 684.369 1492.48 677.898 1505.5 669.389 C 1522.01 658.593 1536.31 645.438 1551.03 632.418 A 2212.88 2212.88 0 0 0 1604.15 584.651 C 1624.71 565.628 1645.59 545.456 1668.31 529.059 z"/>
<path transform="translate(0,0)" fill="rgb(78,77,77)" d="M 785.063 294.351 C 798.962 293.608 811.652 295.575 824.245 301.707 C 836.93 307.883 847.395 317.253 853.71 330.006 C 863.83 350.444 870.796 373.823 878.938 395.173 A 8906.39 8906.39 0 0 0 918.643 495.323 A 31844.7 31844.7 0 0 1 1084.92 923.506 L 1289.4 1446.85 C 1309.65 1499.92 1332.81 1552.27 1351.22 1606 C 1357.68 1624.87 1357.04 1644.68 1347.96 1662.65 C 1342.43 1673.6 1333.36 1684.51 1322.27 1690.06 C 1311.6 1695.4 1299.71 1699.21 1288.53 1703.39 L 1221.76 1727.93 C 1166.96 1748.19 1112.56 1769.71 1057.96 1790.51 L 807.117 1886.35 L 707.63 1924.16 C 691.909 1930.17 676.456 1937.37 660.486 1942.59 A 170.613 170.613 0 0 1 653.567 1944.19 C 635.87 1947.84 617.91 1944.82 602.795 1934.81 C 590.439 1926.62 580.309 1914.01 574.455 1900.43 C 566.627 1882.28 560.739 1862.98 553.528 1844.52 A 13262.3 13262.3 0 0 1 469.498 1620.1 L 258.581 1057.84 L 137.441 736.972 C 126.497 707.651 114.986 678.599 104.334 649.156 C 99.7731 636.547 93.7506 623.222 91.4133 610.046 C 88.6091 594.237 91.996 575.377 101.561 562.418 C 108.285 553.309 117.694 546.075 127.988 541.485 C 154.993 529.445 184.044 520.245 211.771 509.876 L 392.613 442.239 A 15738.7 15738.7 0 0 1 710.593 321.411 C 728.308 315.011 768.728 296.537 785.063 294.351 z"/>
<path transform="translate(0,0)" fill="rgb(254,254,254)" d="M 799.381 332.793 C 801.181 332.545 803.528 332.803 805.161 333.624 C 808.561 335.333 810.597 340.159 812.219 343.446 C 827.669 374.768 840.653 414.916 853.13 448.072 C 868.85 489.851 885.994 531.134 902.037 572.805 L 1064.71 993.385 L 1223.35 1400.93 L 1285.78 1561 C 1293.86 1581.94 1303.57 1602.59 1310.8 1623.8 C 1312.9 1629.96 1312.52 1634.28 1309.43 1640.05 C 1305.37 1647.63 1297.07 1652.25 1289.44 1655.58 C 1261.9 1667.59 1232.31 1676.33 1204.18 1687.14 L 976.605 1774 L 767.501 1853.94 C 728.211 1869.11 688.838 1886.07 648.845 1899.12 C 643.583 1899.37 638.269 1899.26 633.151 1897.89 C 626.098 1896 620.835 1892.33 617.282 1885.92 C 605.487 1864.62 598.869 1839.12 590.376 1816.31 L 534.197 1665.91 A 40287.3 40287.3 0 0 1 330.858 1123.94 L 182.698 731.703 L 149.801 642.997 C 144.807 629.669 137.723 615.631 134.785 601.714 C 134.019 598.085 133.356 594.024 134.569 590.42 C 136.897 583.504 203.798 560.797 216.798 555.97 L 590.348 413.963 C 628.843 399.313 667.075 383.933 705.644 369.503 C 736.837 357.832 769.431 347.339 799.381 332.793 z"/>
<path transform="translate(0,0)" fill="rgb(78,77,77)" d="M 627.702 438.026 C 631.545 437.757 634.689 438.005 638.261 439.587 C 644.008 442.133 648.335 446.531 650.5 452.462 A 22.3856 22.3856 0 0 1 649.762 469.919 C 646.683 476.349 641.73 478.81 635.351 481.27 C 631.403 481.243 627.497 481.291 623.745 479.902 C 618.043 477.791 613.203 473.251 610.869 467.624 C 608.562 462.062 608.52 455.642 611.178 450.192 C 614.665 443.044 620.456 440.282 627.702 438.026 z"/>
<path transform="translate(0,0)" fill="rgb(78,77,77)" d="M 559.264 470.235 C 562.015 470.605 564.966 471.146 567.58 472.101 C 573.719 474.345 576.645 480.436 578.849 486.139 C 580.925 491.51 582.349 497.157 579.684 502.603 C 578.171 505.695 575.936 507.591 572.955 509.215 C 557.682 517.539 537.434 523.254 520.976 529.57 C 483.798 543.837 446.226 559.336 408.215 571.206 C 404.887 571.066 401.572 571.015 398.531 569.498 C 393.107 566.792 389.654 561.286 388.068 555.593 C 386.531 550.075 385.645 543.277 388.717 538.114 C 390.861 534.512 395.315 532.392 398.945 530.649 C 407.902 526.351 417.78 523.182 427.079 519.658 L 481.775 499.236 C 507.483 489.68 533.052 478.192 559.264 470.235 z"/>
<path transform="translate(0,0)" fill="rgb(78,77,77)" d="M 810.628 446.028 C 812.834 445.797 814.764 445.87 816.969 446.09 C 822.177 449.342 825.973 462.52 828.358 468.458 A 65957.8 65957.8 0 0 1 1080.56 1117.15 L 1204.46 1432.68 C 1220.18 1473.21 1237.87 1513.28 1252.24 1554.3 C 1182.43 1583.02 1111.2 1608.82 1040.64 1635.71 L 633.444 1792.3 C 629.083 1794.05 620.313 1798.7 615.74 1797.43 C 614.648 1797.13 614.571 1796.73 613.809 1795.74 C 606.639 1786.38 599.979 1761.24 595.211 1748.64 L 537.292 1593.62 L 290.261 938.429 C 258.382 853.646 228.293 768.081 194.827 683.901 C 205.299 678.517 217.129 674.798 228.124 670.622 L 286.121 648.727 L 448.948 587.19 C 491.62 571.489 533.653 553.812 576.064 537.38 C 654.277 507.075 732.796 477.283 810.628 446.028 z"/>
<path transform="translate(0,0)" fill="rgb(254,254,254)" d="M 807.96 459.935 L 809.441 459.809 C 809.995 460.174 810.649 460.42 811.104 460.903 C 814.771 464.805 858.611 579.808 864.074 593.752 L 1001.27 944.458 C 1010.5 968.418 1018.85 992.706 1028.17 1016.62 L 1210.38 1481.42 C 1219.16 1503.47 1227.03 1526.03 1236.61 1547.73 C 1207.47 1557.17 1178.98 1569.21 1150.51 1580.52 A 4572.09 4572.09 0 0 1 1070.25 1611.16 L 636.929 1775.79 L 621.837 1781.14 C 607.264 1745.86 594.59 1709.42 581.363 1673.59 L 519.441 1508.01 L 212.428 691.528 C 318.862 652.432 423.867 609.598 529.834 569.309 L 687.647 507.589 C 727.824 491.984 768.663 477.673 807.96 459.935 z"/>
<path transform="translate(0,0)" fill="rgb(78,77,77)" d="M 600.495 719.352 C 611.513 717.539 624.188 719.128 635.193 720.343 A 1009.41 1009.41 0 0 1 631.04 756.071 C 638.361 758.867 645.524 762.337 652.701 765.499 C 653.721 751.547 657.798 737.858 659.452 723.927 C 691.794 733.889 717.611 749.787 736.543 778.297 L 603.756 829.515 C 561.368 844.927 513.619 861.643 472.595 879.499 A 53.9988 53.9988 0 0 1 471.394 873.445 C 466.409 836.84 475.525 801.841 498.359 772.665 C 523.463 740.589 560.702 724.168 600.495 719.352 z"/>
<path transform="translate(0,0)" fill="rgb(78,77,77)" d="M 761.128 785.209 A 54.1234 54.1234 0 0 1 763.303 785.18 A 50.5623 50.5623 0 0 1 799.722 801.136 C 804.584 806.305 807.898 812.335 810.62 818.826 C 821.247 844.17 829.468 870.664 839.344 896.33 L 926.243 1123.09 L 997.843 1308.53 C 1008.87 1336.87 1021.07 1364.85 1030.75 1393.71 C 1033.19 1400.99 1034.79 1408.17 1034.45 1415.92 C 1033.74 1432.36 1026.79 1449.5 1014.57 1460.61 A 72.1937 72.1937 0 0 1 995.658 1472.92 C 983.664 1478.33 970.736 1482.49 958.456 1487.27 L 878.873 1518.39 A 5242.02 5242.02 0 0 1 785.916 1554.53 C 772.358 1559.73 758.626 1566.36 744.705 1570.39 C 735.831 1572.95 727.911 1573.22 718.761 1572.78 C 709.616 1570.99 701.764 1568.12 693.917 1563.01 C 683.193 1556.03 675.695 1546.89 670.148 1535.41 C 661.942 1518.44 655.657 1500.04 648.831 1482.45 L 612.312 1388.32 L 491.847 1075.82 A 3292.99 3292.99 0 0 0 462.432 1000.58 C 455.518 983.433 445.505 964.102 442.283 945.995 C 440.177 934.161 443.788 920.565 450.674 910.766 C 455.165 904.377 460.715 899.082 467.763 895.622 C 488.381 885.499 511.828 878.358 533.37 870.323 L 650.605 826.316 C 674.86 817.196 698.842 807.286 723.051 798.024 C 735.238 793.362 748.229 787.283 761.128 785.209 z"/>
<path transform="translate(0,0)" fill="rgb(254,254,254)" d="M 762.208 826.991 C 763.228 826.97 763.944 826.914 764.989 827.098 C 767.852 827.602 769.508 829.117 770.99 831.481 C 779.533 845.115 783.854 864.035 789.579 879.141 L 835.523 1001.5 L 921.142 1224.84 L 953.89 1309.27 C 965.535 1338.52 978.006 1367.78 988.156 1397.57 C 990.848 1405.48 992.856 1413.74 990.743 1422.05 C 989.258 1427.89 983.601 1431.89 978.72 1434.87 C 968.098 1441.34 954.865 1445.11 943.249 1449.47 A 5144.96 5144.96 0 0 0 884.132 1471.88 L 793.293 1507.54 C 774.515 1515.03 755.546 1523.79 736.101 1529.38 C 728.762 1531.49 724.03 1531.89 716.541 1529.94 C 715.275 1528.96 714.077 1527.97 713.033 1526.75 C 705.365 1517.72 665.304 1409.27 657.53 1389.48 L 536.307 1077.38 C 519.835 1034.42 502.11 991.925 486.549 948.622 C 485.125 944.659 482.952 940.134 483.269 935.863 C 498.991 925.842 519.319 920.329 536.748 913.758 L 614.747 884.036 L 711.789 846.229 C 728.49 839.696 745.14 832.497 762.208 826.991 z"/>
<path transform="translate(0,0)" fill="rgb(62,171,63)" d="M 659.027 954.929 C 661.996 954.808 665.306 954.446 668.029 955.867 C 678.22 961.184 689.965 1002.12 694.09 1013.69 C 708.702 1008.5 731.802 995.96 746.409 994.984 C 750.021 994.743 753.971 995.229 756.593 998.016 C 759.399 1001 759.274 1004.72 759.117 1008.51 C 753.536 1019.62 715.563 1030.81 703.082 1035.29 C 709.372 1051.95 718.527 1069.07 722.505 1086.35 C 720.392 1089.09 718.059 1091.67 715.799 1094.3 C 712.706 1095.7 708.097 1096.69 704.838 1095.26 C 694.133 1090.55 684.841 1055.86 679.737 1044.38 C 671.542 1047.74 635.468 1063.6 628.753 1061.82 C 625.337 1060.92 621.206 1055.95 619.939 1052.77 C 618.7 1049.66 618.836 1046.75 620.337 1043.72 C 624.17 1035.98 662.877 1025.57 671.847 1022.48 C 667.342 1009.67 649.611 975.132 651.778 964.068 C 652.704 959.338 655.343 957.603 659.027 954.929 z"/>
<path transform="translate(0,0)" fill="rgb(62,171,63)" d="M 806.272 1118.49 A 2302.99 2302.99 0 0 0 855.918 1118.07 C 840.798 1125.94 824.54 1131.78 808.699 1138.04 A 4620.26 4620.26 0 0 1 729.204 1168.94 L 662.246 1195.47 C 648.68 1200.87 635.172 1206.81 621.229 1211.15 C 619.09 1210.98 617.339 1210.58 615.309 1209.88 C 610.019 1208.08 606.989 1203.91 604.175 1199.31 C 597.629 1188.6 594.139 1175.17 589.893 1163.36 A 577.492 577.492 0 0 0 572.25 1119.05 L 806.272 1118.49 z"/>
<path transform="translate(0,0)" fill="rgb(62,171,63)" d="M 889.709 1243.24 C 892.466 1243.55 895.274 1243.82 897.805 1245.03 C 909.861 1250.83 917.21 1270.66 920.977 1282.6 C 923.066 1289.23 924.168 1296.29 920.563 1302.61 C 918.272 1306.63 914.232 1309.74 910.108 1311.7 C 904.482 1314.39 898.163 1316.03 892.364 1318.46 C 864.023 1330.34 835.288 1341.14 806.659 1352.3 C 771.5 1366.01 736.217 1382.4 700.043 1393.14 C 694.537 1393.35 689.624 1393.04 684.734 1390.23 C 675.019 1384.65 669.224 1363.14 666.402 1352.63 C 664.882 1346.96 664.06 1340.28 667.337 1335.05 C 669.787 1331.14 673.028 1327.85 677.132 1325.71 C 691.522 1318.2 708.397 1312.9 723.572 1306.98 A 9863.34 9863.34 0 0 1 819.538 1270.15 C 841.688 1261.66 866.929 1247.8 889.709 1243.24 z"/>
<path transform="translate(0,0)" fill="rgb(62,171,63)" d="M 922.833 1336.04 C 927.469 1335.53 931.643 1336.04 935.875 1338.14 C 947.756 1344.05 954.266 1364.37 957.915 1376.5 C 959.948 1383.26 960.801 1390.68 957.12 1397.06 C 955.143 1400.49 952.062 1402.67 948.572 1404.4 C 942.017 1407.63 934.669 1409.41 927.84 1412.01 L 874.2 1432.91 L 793.664 1465 C 775.799 1472.05 757.52 1479.69 739.063 1484.97 C 734.671 1485.64 729.791 1485.91 725.546 1484.34 C 717.604 1481.4 712.825 1473.36 709.663 1466 C 704.934 1454.98 698.929 1439.1 704.069 1427.44 C 706.395 1422.16 712.283 1419.05 717.215 1416.63 C 738.323 1406.3 761.929 1399.35 783.846 1390.74 L 922.833 1336.04 z"/>
<path transform="translate(0,0)" fill="rgb(62,171,63)" d="M 849.913 1151.15 C 853.698 1151 858.167 1151.45 861.699 1152.85 C 874.704 1158.02 881.53 1185.71 886.699 1198.55 C 886.198 1202.77 885.612 1207.87 883.379 1211.56 C 881.288 1215.01 877.661 1216.49 874.153 1218.13 C 846.303 1231.12 816.499 1240.53 788.026 1252.07 C 760.037 1263.43 732.236 1274.9 704.088 1285.88 C 690.969 1290.99 677.761 1296.95 664.245 1300.87 C 658.441 1301.48 652.235 1301.95 647.026 1298.78 C 637.115 1292.76 631.411 1272.84 628.654 1262.2 C 626.516 1253.95 626.769 1245.93 631.427 1238.56 C 634.187 1234.2 638.953 1232.38 643.485 1230.3 C 680.643 1213.31 720.575 1201.03 758.706 1186.29 C 786.888 1175.4 821.716 1158.36 849.913 1151.15 z"/>
</svg>