<?xml version="1.0" encoding="UTF-8" standalone="no"?>
<!DOCTYPE svg PUBLIC "-//W3C//DTD SVG 1.1//EN" "http://www.w3.org/Graphics/SVG/1.1/DTD/svg11.dtd">
<svg width="100%" height="100%" viewBox="0 0 24 24" version="1.1" xmlns="http://www.w3.org/2000/svg" xmlns:xlink="http://www.w3.org/1999/xlink" xml:space="preserve" xmlns:serif="http://www.serif.com/" style="fill-rule:evenodd;clip-rule:evenodd;stroke-linecap:round;stroke-linejoin:round;stroke-miterlimit:10;">
    <g id="g6">
        <path id="path1" d="M11,12C11,14.76 13.24,17 16,17L16,20C16,21.1 15.1,22 14,22L6,22C4.9,22 4,21.1 4,20L4,4C4,2.9 4.9,2 6,2L14,2C15.1,2 16,2.9 16,4L16,7C13.24,7 11,9.24 11,12Z" style="fill:white;stroke:rgb(38,95,88);stroke-width:1px;"/>
        <path id="path2" d="M11.47,3L8.53,3C8.51,3 8.5,2.99 8.5,2.97L8.5,2L11.5,2L11.5,2.97C11.5,2.99 11.49,3 11.47,3Z" style="fill:none;fill-rule:nonzero;stroke:rgb(38,95,88);stroke-width:1px;stroke-linejoin:miter;"/>
        <g id="g5">
            <path id="path3" d="M16,17C18.761,17 21,14.761 21,12C21,9.239 18.761,7 16,7C13.239,7 11,9.239 11,12C11,14.761 13.239,17 16,17Z" style="fill:rgb(208,150,133);fill-rule:nonzero;stroke:rgb(38,95,88);stroke-width:1px;"/>
            <path id="path4" d="M16,9L16,12" style="fill:none;fill-rule:nonzero;stroke:rgb(38,95,88);stroke-width:1px;stroke-linecap:butt;"/>
            <path id="path5" d="M16,14L16.01,14" style="fill:none;fill-rule:nonzero;stroke:rgb(38,95,88);stroke-width:1px;"/>
        </g>
    </g>
</svg>
